<svg xmlns="http://www.w3.org/2000/svg" viewBox="0 0 570 126.7"><path fill-rule="evenodd" clip-rule="evenodd" fill="#58BF93" d="M339.6 34.1c8.6 0 15.6-7 15.6-15.6s-7-15.6-15.6-15.6-15.6 7-15.6 15.6 7 15.6 15.6 15.6z"/><path fill="#2856A2" d="M507.5 84.8c.3 6.7 2.3 12 5.8 15.9 3.5 3.9 8.1 5.9 13.9 5.9 3.8 0 7.2-.9 10.1-2.6 2.9-1.8 4.8-4.2 5.6-7.3h24c-2.7 9.1-7.5 16-14.3 20.9-6.8 4.9-14.9 7.3-24.4 7.3-29.3 0-44-16-44-47.9 0-6.8.9-13 2.9-18.4 1.9-5.5 4.7-10.2 8.3-14.1 3.6-3.9 8.1-6.9 13.3-9 5.3-2.1 11.3-3.1 18.1-3.1 13.6 0 23.8 4.3 30.8 13.1 7 8.7 10.5 21.8 10.5 39.4h-60.6v-.1zM83.2 90.9c-.6 5.1-2.1 9.8-4.4 13.9-2.3 4.2-5.3 7.8-8.9 10.7-3.6 3-7.6 5.3-12.2 7-4.6 1.7-9.6 2.5-14.9 2.5-6 0-11.4-1-16.4-2.9-4.9-1.9-9.2-4.9-12.8-8.9-3.6-4-6.3-8.9-8.3-14.8-2-5.9-3-12.8-3-20.7 0-7.9 1-14.7 3-20.4 2-5.7 4.7-10.4 8.3-14 3.6-3.6 7.9-6.3 13-8.1 5.1-1.8 10.7-2.7 16.9-2.7 5.7 0 11 .8 15.6 2.3 4.7 1.6 8.8 3.8 12.3 6.8s6.3 6.6 8.3 10.8c2 4.2 3.2 8.8 3.6 13.9H60c-.6-4.5-2.4-8.1-5.5-10.6-3-2.6-6.8-3.8-11.2-3.8-2.5 0-4.8.4-7 1.3-2.2.8-4 2.2-5.6 4.2-1.6 2-2.9 4.6-3.9 7.9-1 3.3-1.4 7.3-1.4 12.1 0 9.7 1.7 16.8 5.2 21.5 3.5 4.7 7.4 7 12 7s8.4-1.3 11.6-3.7c3.2-2.5 5.1-6.2 5.6-10.9h23.4v-.4zm5.9 31.9v-88H111v10.6c1.9-3 3.9-5.3 6-7 2.1-1.7 4.2-3 6.4-3.8 2.2-.9 4.5-1.5 6.7-1.7 2.3-.3 4.6-.4 6.9-.4h3.1v23.8c-2.1-.4-4.3-.5-6.4-.5-14.2 0-21.3 7.1-21.3 21.3v45.8H89.1v-.1zm77.7-38c.3 6.7 2.3 12 5.8 15.9 3.5 3.9 8.1 5.9 13.9 5.9 3.8 0 7.2-.9 10.1-2.6 2.9-1.8 4.8-4.2 5.6-7.3h24c-2.8 9.1-7.5 16-14.3 20.9-6.8 4.9-14.9 7.3-24.3 7.3-29.4 0-44.1-16-44.1-47.9 0-6.8 1-13 2.9-18.4 1.9-5.5 4.7-10.2 8.3-14.1 3.6-3.9 8.1-6.9 13.3-9 5.2-2.1 11.3-3.1 18.1-3.1 13.6 0 23.9 4.3 30.9 13.1 7 8.7 10.5 21.8 10.5 39.4h-60.7v-.1zm36.7-14.7c-.1-3.2-.7-6-1.7-8.5s-2.4-4.5-4-6.1c-1.7-1.6-3.6-2.8-5.7-3.6-2.2-.8-4.4-1.2-6.6-1.2-4.6 0-8.7 1.7-12.1 5.1-3.4 3.4-5.3 8.1-5.8 14.2h35.9v.1zm92.1 52.7l-.2-10.7c-5.4 8.7-13.5 13-24.5 13-5.6 0-10.7-1.1-15.4-3.2-4.7-2.2-8.7-5.2-12-9.3-3.3-4-6-9-7.9-14.8-1.9-5.8-2.9-12.4-2.9-19.9 0-6.7.8-12.8 2.4-18.3 1.6-5.5 4-10.3 7.1-14.4 3.1-4.1 6.9-7.2 11.4-9.4s9.6-3.3 15.3-3.3c10.8 0 19.6 4.6 26.1 13.8V2.5h23v120.2h-22.4v.1zm-19.3-16.7c5.6 0 10.3-2.3 14-7 3.8-4.6 5.6-10.7 5.6-18.3 0-19.1-6.5-28.6-19.5-28.6-13.4 0-20 9.1-20 27.2 0 7.9 1.9 14.3 5.6 19.2 3.7 5.1 8.4 7.5 14.3 7.5zm51.5 16.7V42c3.5 1.7 7.5 2.7 11.6 2.7 4.2 0 8.1-1 11.6-2.7v80.8h-23.2zm33.1 0V2.5h22.9v43.7c6.6-9.2 15.3-13.8 26.1-13.8 5.7 0 10.8 1.1 15.3 3.3 4.5 2.2 8.3 5.3 11.4 9.4 3.1 4.1 5.4 8.8 7 14.4 1.6 5.6 2.4 11.7 2.4 18.3 0 7.4-1 14-2.9 19.9-1.9 5.8-4.5 10.8-7.9 14.8-3.3 4.1-7.4 7.2-12.1 9.3-4.7 2.2-9.8 3.2-15.3 3.2-11 0-19.1-4.3-24.5-13l-.2 10.7h-22.2v.1zm41.7-16.7c5.8 0 10.6-2.5 14.3-7.4 3.7-5 5.5-11.4 5.5-19.2 0-18.1-6.7-27.2-20-27.2-13 0-19.5 9.5-19.5 28.6 0 7.5 1.9 13.6 5.6 18.3 3.8 4.6 8.5 6.9 14.1 6.9zm51.2 16.7V2.5H477v120.2h-23.2v.1zm90.3-52.7c-.1-3.2-.7-6-1.7-8.5s-2.4-4.5-4-6.1c-1.7-1.6-3.6-2.8-5.7-3.6-2.1-.8-4.3-1.2-6.6-1.2-4.6 0-8.7 1.7-12.1 5.1-3.4 3.4-5.3 8.1-5.8 14.2h35.9z"/></svg>