<svg xmlns="http://www.w3.org/2000/svg" width="350" height="34"><path d="M342.273.621v2.336h.943c.535 0 .756.152.859.283a326.488 326.488 0 01-6.402 21.244c-2.783-7.889-5.42-15.797-7.807-23.527l-.109-.34-.355.004-5.84.041-.475.008c-.004 0-.004.475-.004.475v1.812h.934c.396 0 .641.088.799.225-2.035 7.641-4.285 14.912-6.695 21.684A608.359 608.359 0 01311.152.975l-.098-.354h-7.119v2.336h.939c.426 0 .602.08.697.146 3.969 12.355 7.006 22.055 9.287 29.629l.107.338h4.389l.104-.334a1027.995 1027.995 0 017.426-22.799c2.906 8.176 5.406 15.848 7.402 22.787l.096.346h4.484l.107-.326c4.58-13.951 8.119-24.545 10.539-31.488l.219-.635h-7.458zm-45.859 17.588a88.16 88.16 0 01-2.068.037c.008 0-2.41-.053-3.617-.076 1.617-4.486 2.869-7.766 3.764-9.854a634.86 634.86 0 013.826 9.857c-.548.007-1.157.016-1.905.036m12.652 12.137C303.587 17.272 299.461 7.287 296.802.68l-.119-.301h-2.723l-.115.299c-6.879 16.756-11.443 27.367-13.566 31.549l-.352.697h7.244v-2.338h-.939c-.074 0-.109-.004-.17-.004a107.451 107.451 0 013.443-9.086c1.143-.055 2.807-.08 5.012-.08 2.217 0 3.895.025 5.053.08a148.678 148.678 0 014.107 11.098l.109.33h7.271v-2.338h-.895c-.486 0-.842-.09-1.096-.24M276.1 28.221c0 .258-.045.682-.25.859-1.938.283-4.426.426-7.422.426-.955 0-1.633-.012-2.156-.029-.109-3.35-.164-7.553-.164-12.555 0-4.312.123-9.631.365-15.805l.02-.496h-7.697v2.383h.941c.561 0 .771.156.859.266.154 4.166.236 8.729.236 13.578 0 4.91-.102 10.17-.299 15.639l-.02.523.521-.029c2.082-.098 4.148-.146 6.146-.146 1.602 0 5.127.047 10.768.146l.49.012V27.29h-2.34v.931zm-39.288-.242c0 .793-.111 1.115-.178 1.244-3.648.285-7.043.434-10.072.434h-.213l-.087-10.971v-1.129c3.073.01 6.626.105 10.64.295l.502.02v-3.717l-.49.008-10.651.211v-1.029c0-3.078.03-6.24.087-9.398h.123c3.324 0 6.514.119 9.484.348.084.115.223.436.223 1.271v.477h2.34V.623h-19.75v2.383h.938c.464 0 .77.096.881.26.096.395.25 2.662.25 13.217 0 6.672-.112 12.053-.328 15.998l-.031.502h18.67V27.5h-2.336v.479zm-23.965 2.261a402.376 402.376 0 01-.296-14.641c0-5.051.107-9.92.321-14.479l.022-.5h-7.807v2.396h.896c.292 0 .66.219 1.06.582.152 2.646.232 5.754.232 9.277v.812c-.711.008-1.851.041-3.499.094-1.521.033-2.851.053-3.942.053-1.131 0-2.631-.02-4.459-.053-1.98-.051-3.258-.082-3.951-.094v-.812c0-6.016.105-9.957.318-11.721l.062-.535h-7.782v2.396h.892c.594 0 .92.125.995.361.116 2.662.181 6.77.181 12.227 0 6.816-.143 12.475-.419 16.809l-.036.51h7.814v-2.338h-.801c-.668 0-1.04-.148-1.139-.424-.056-1.773-.086-5.625-.086-11.492v-1.186a337.04 337.04 0 018.41-.115c2.2 0 4.715.041 7.441.113v1.188c0 5.127-.119 9.75-.359 13.744l-.031.51h7.829v-2.338h-.798c-.403.002-.894-.072-1.068-.344M157.32 6.223h2.336V5.32c0-.791.142-1.074.217-1.168 1.648-.176 3.851-.266 6.578-.266h.304l.044 11.346c0 2.051-.074 7.842-.221 17.203l-.008.488h7.559v-2.34h-.939c-.527 0-.709-.09-.786-.148-.104-.602-.251-3.453-.251-14.926 0-5.354.071-9.225.205-11.623h.416c1.997 0 4.102.164 6.256.471.074.154.154.4.154.928v.938h2.336V.621h-24.2v5.602zm-17.397 21.756c0 .793-.11 1.115-.175 1.244-3.649.285-7.042.434-10.074.434h-.212l-.088-10.971v-1.129c3.073.01 6.628.105 10.639.295l.502.02v-3.717l-.487.008-10.654.211v-1.029c0-3.078.03-6.24.088-9.398h.122c3.327 0 6.514.119 9.484.348.083.115.226.436.226 1.271v.477h2.336V.623h-19.745v2.383h.936c.464 0 .767.096.878.26.1.395.252 2.662.252 13.217 0 6.672-.111 12.053-.331 15.998l-.029.502h18.667V27.5h-2.336v.479zm-27.667-25.02h.942c.351 0 .577.082.733.209-3.679 10.494-6.458 18.09-8.296 22.68C101.44 16.002 98.106 7.6 95.765.94l-.117-.318h-6.866V2.96h.939c.322 0 .491.051.602.104 3.914 8.721 8.019 18.709 12.21 29.701l.117.307h4.158l.116-.305c3.607-9.414 7.895-20.006 12.747-31.48l.28-.664h-7.695v2.336zM81.539 26.881c-1.907 2.34-4.562 3.525-7.895 3.525-3.359 0-6.027-1.164-7.918-3.461-1.916-2.322-2.884-5.672-2.884-9.953 0-4.283 1.034-7.707 3.068-10.182 1.951-2.391 4.478-3.553 7.734-3.553 3.394 0 6.062 1.17 7.941 3.48 1.898 2.342 2.86 5.742 2.86 10.117 0 4.283-.978 7.656-2.906 10.027M73.644.08c-5.17 0-9.343 1.541-12.398 4.582-3.058 3.041-4.607 7.16-4.607 12.238 0 5.111 1.521 9.213 4.513 12.193 2.996 2.979 7.199 4.488 12.493 4.488 5.142 0 9.306-1.549 12.379-4.605 3.066-3.055 4.625-7.117 4.625-12.076 0-5.141-1.524-9.275-4.536-12.283C83.106 1.607 78.909.08 73.644.08M41.423 29.807c-.656 0-1.401-.115-2.17-.268-.134-1.859-.201-4.627-.201-8.309v-3.744c1.008-.092 1.784-.145 2.188-.145 5.584 0 8.299 2.021 8.299 6.188-.001 4.225-2.655 6.278-8.116 6.278M39.051 8.752c0-1.857.057-3.48.157-4.893.846-.088 1.652-.152 2.304-.152 2.18 0 3.877.455 5.041 1.35 1.142.879 1.696 2.041 1.696 3.559 0 3.732-2.505 5.547-7.656 5.547-.467 0-1.004-.031-1.542-.068V8.752zm9.753 6.693c3.446-1.512 5.289-3.865 5.289-7.117 0-2.717-1.085-4.73-3.229-5.984C48.963 1.201 45.999.621 42.063.621l-9.758.041-.476.004v2.293h.94c.464 0 .743.104.861.291.146 3.738.222 8.846.222 15.211 0 5.453-.136 10.197-.403 14.1l-.04.568.566-.059c1.22-.127 2.136-.193 2.713-.193.456 0 1.263.033 2.384.098a53.77 53.77 0 002.905.096c4.162 0 7.46-.857 9.801-2.553 2.39-1.732 3.604-4.256 3.604-7.502-.001-3.745-2.229-6.276-6.578-7.571m-32.587 2.764a87.72 87.72 0 01-2.068.037c.007 0-2.408-.053-3.614-.076 1.614-4.486 2.865-7.766 3.76-9.854a618.463 618.463 0 013.828 9.857c-.546.007-1.157.016-1.906.036M28.87 30.346C23.395 17.271 19.265 7.287 16.606.68l-.12-.301h-2.721l-.119.299C6.771 17.434 2.207 28.045.083 32.227l-.35.697h7.243v-2.338h-.94c-.071 0-.108-.004-.169-.004a107.451 107.451 0 013.443-9.086c1.142-.055 2.808-.08 5.011-.08 2.218 0 3.896.025 5.055.08a150.475 150.475 0 014.107 11.098l.109.33h7.27v-2.338h-.894c-.487 0-.844-.09-1.098-.24" fill="#fff"/></svg>