<svg xmlns="http://www.w3.org/2000/svg" height="156.187" width="652"><path d="M26.378 87.023c.888-11.525 10.193-23.938 26.382-23.938 17.73 0 26.159 11.301 26.597 23.938zm26.158-45.439C25.27 41.584 0 64.192 0 98.334c0 36.571 25.936 57.853 55.194 57.853 25.936 0 43.004-15.296 48.77-34.135l-21.727-6.878c-3.546 10.645-11.524 18.848-27.043 18.848-15.96 0-28.816-11.75-29.483-28.153h78.916c.218-.442.665-3.994.665-8.201 0-34.142-19.507-56.084-52.756-56.084M179.32 108.08c0 21.062-12.41 27.937-26.824 27.937-10.195 0-15.739-6.651-15.739-13.965 0-8.875 6.434-13.306 14.411-14.638l28.152-4.207zm25.275-26.154c0-21.504-12.638-40.342-45.887-40.342-26.6 0-43.445 16.627-45.447 35.245l23.496 5.32c1.114-10.863 8.644-19.508 22.171-19.508 14.181 0 20.392 7.314 20.392 16.404 0 3.765-1.779 6.874-7.979 7.76l-27.709 4.207c-18.398 2.662-32.586 13.302-32.586 32.59 0 17.067 13.968 32.585 36.575 32.585 17.511 0 28.152-8.864 33.252-17.064 0 8.638.886 13.069 1.11 13.74h23.938c-.22-1.108-1.326-7.54-1.326-17.292V81.926M244.043 62.2V44.907h-25.051v107.956h25.717v-51.425c0-20.182 9.086-31.703 29.039-31.703 2.663 0 5.543.22 8.421.666V44.247a36.578 36.578 0 00-6.87-.67c-14.184 0-26.159 6.87-31.256 18.623m104.398-20.393c-11.968 0-24.826 5.097-31.92 17.512V44.907H291.47v107.956h25.718V90.574c0-14.187 7.754-25.494 22.386-25.494 16.175 0 22.167 10.636 22.167 23.94v63.843h25.71V84.589c0-23.72-12.633-42.782-39.009-42.782m74.691 45.216c.883-11.525 10.192-23.938 26.372-23.938 17.738 0 26.159 11.301 26.607 23.938zm26.156-45.439c-27.273 0-52.538 22.608-52.538 56.75 0 36.571 25.934 57.853 55.202 57.853 25.932 0 42.995-15.296 48.76-34.135l-21.726-6.878c-3.542 10.645-11.523 18.848-27.034 18.848-15.964 0-28.82-11.75-29.486-28.153h78.91c.222-.442.667-3.994.667-8.201 0-34.142-19.505-56.084-52.755-56.084M652 77.572V54.745h-22.612v-15.96l-.013-.013C629.367 17.359 612.01-.003 590.588-.003c-21.419 0-38.793 17.364-38.793 38.788 0 .978.085 1.932.156 2.89-.756-.026-1.475-.091-2.26-.091-22.388 0-39.675 15.956-39.675 34.803 0 14.849 9.973 27.258 29.033 31.474l15.967 3.546c8.64 1.77 12.632 6.205 12.632 11.968 0 6.651-5.539 12.418-16.177 12.418-13.752 0-21.059-8.643-21.952-18.4l-22.388 6.21c1.33 12.19 13.301 32.584 44.552 32.584 27.492 0 40.79-18.18 40.79-34.584 0-15.958-10.634-28.366-31.033-32.798l-16.401-3.328c-6.654-1.335-10.859-5.546-10.859-11.31 0-6.652 6.427-12.41 15.51-12.41 5.987 0 10.274 1.734 13.32 4.195.133.128.378.293.378.293v-.006l12.664-12.285c-2.372-2.275-4.237-5.083-5.352-8.257a21.07 21.07 0 01-1.172-6.912c0-11.628 9.425-21.054 21.06-21.054 11.636 0 21.057 9.426 21.057 21.054 0 6.385-2.85 12.095-7.338 15.96a20.977 20.977 0 01-12.326 5.011v17.816h11.915v44.48c0 20.17 12.416 32.141 32.372 32.141 9.305 0 14.177-1.777 15.732-2.438V130.47c-1.107.228-5.325.888-8.867.888-9.529 0-13.745-3.993-13.745-13.52V77.571H652" fill="#3bba78"/></svg>