<?xml version="1.0" standalone="no"?>
<!DOCTYPE svg PUBLIC "-//W3C//DTD SVG 20010904//EN"
 "http://www.w3.org/TR/2001/REC-SVG-20010904/DTD/svg10.dtd">
<svg version="1.0" xmlns="http://www.w3.org/2000/svg"
 width="700.000000pt" height="700.000000pt" viewBox="0 0 700.000000 700.000000"
 preserveAspectRatio="xMidYMid meet">
<metadata>
Created by potrace 1.11, written by Peter Selinger 2001-2013
</metadata>
<g transform="translate(0.000000,700.000000) scale(0.100000,-0.100000)"
fill="#000000" stroke="none">
<path d="M4280 6984 c-245 -45 -450 -153 -625 -329 -284 -284 -398 -682 -309
-1075 65 -289 244 -549 490 -711 137 -91 331 -166 482 -185 28 -4 52 -10 52
-14 0 -3 -6 -7 -12 -7 -116 -2 -328 -71 -461 -149 -200 -117 -365 -297 -466
-508 -38 -80 -84 -217 -95 -286 -3 -19 -8 -53 -12 -75 -8 -55 -8 -207 0 -280
45 -384 282 -723 631 -901 80 -42 194 -82 293 -104 58 -13 60 -16 17 -24 -64
-12 -82 -16 -144 -37 -332 -107 -584 -347 -732 -694 -17 -42 -49 -157 -55
-203 -3 -26 -9 -67 -13 -92 -3 -25 -6 -186 -6 -357 0 -294 -6 -377 -19 -236
-3 34 -15 105 -27 158 -11 54 -22 105 -24 114 -15 78 -67 233 -118 351 -106
246 -255 441 -452 593 -78 60 -202 137 -221 137 -7 0 -14 3 -16 8 -12 27 -334
138 -498 171 -87 18 -94 19 -151 26 -30 4 -56 8 -59 10 -25 14 -470 26 -627
16 -77 -5 -87 -11 -89 -53 -4 -60 -3 -402 1 -443 2 -22 7 -76 10 -120 4 -44 9
-89 11 -100 2 -11 9 -49 14 -85 16 -96 16 -97 44 -205 89 -349 222 -595 436
-806 235 -233 552 -379 1000 -461 125 -23 126 -23 1115 -23 929 0 995 1 1070
19 337 78 598 265 771 551 67 111 134 299 151 425 9 73 9 271 -1 340 -27 189
-107 386 -215 535 -50 68 -198 225 -212 225 -4 0 -14 6 -21 13 -79 78 -359
206 -488 223 -19 3 -48 6 -63 8 -36 5 -48 16 -17 16 23 0 96 19 180 47 25 9
84 35 132 59 346 171 588 512 635 899 8 68 9 196 1 275 -42 418 -348 812 -743
958 -84 31 -235 68 -268 67 -15 -1 -25 1 -22 3 6 7 9 7 95 16 36 3 80 10 98
15 18 5 35 10 37 10 13 1 121 35 135 42 8 4 49 23 90 43 579 273 821 992 527
1571 -139 276 -422 511 -707 590 -161 44 -384 56 -530 29z"/>
</g>
</svg>
