<?xml version="1.0" encoding="UTF-8" standalone="no"?>
<svg
   xmlns:dc="http://purl.org/dc/elements/1.1/"
   xmlns:cc="http://creativecommons.org/ns#"
   xmlns:rdf="http://www.w3.org/1999/02/22-rdf-syntax-ns#"
   xmlns:svg="http://www.w3.org/2000/svg"
   xmlns="http://www.w3.org/2000/svg"
   viewBox="0 0 652 156.18668"
   height="156.18668"
   width="652"
   xml:space="preserve"
   id="svg2"
   version="1.1"><metadata
     id="metadata8"><rdf:RDF><cc:Work
         rdf:about=""><dc:format>image/svg+xml</dc:format><dc:type
           rdf:resource="http://purl.org/dc/dcmitype/StillImage" /></cc:Work></rdf:RDF></metadata><defs
     id="defs6" /><g
     transform="matrix(1.3333333,0,0,-1.3333333,0,156.18667)"
     id="g10"><g
       transform="scale(0.1)"
       id="g12"><path
         id="path14"
         style="fill:#3bba78;fill-opacity:1;fill-rule:nonzero;stroke:none"
         d="m 197.832,518.727 c 6.664,86.437 76.453,179.539 197.871,179.539 132.969,0 196.188,-84.762 199.473,-179.539 z M 394.023,859.52 C 189.527,859.52 0,689.961 0,433.898 0,159.609 194.52,0 413.953,0 608.477,0 736.488,114.719 779.734,256.012 L 616.781,307.594 C 590.18,227.758 530.348,166.238 413.953,166.238 c -119.699,0 -216.121,88.121 -221.117,211.141 h 591.867 c 1.637,3.316 4.988,29.961 4.988,61.512 0,256.062 -146.3,420.629 -395.668,420.629" /><path
         id="path16"
         style="fill:#3bba78;fill-opacity:1;fill-rule:nonzero;stroke:none"
         d="m 1344.9,360.805 c 0,-157.969 -93.07,-209.535 -201.18,-209.535 -76.46,0 -118.04,49.886 -118.04,104.742 0,66.558 48.25,99.793 108.08,109.785 l 211.14,31.551 z m 189.56,196.152 c 0,161.277 -94.78,302.563 -344.15,302.563 -199.497,0 -325.837,-124.704 -340.853,-264.34 l 176.223,-39.895 c 8.35,81.473 64.83,146.305 166.28,146.305 106.36,0 152.94,-54.852 152.94,-123.024 0,-28.242 -13.34,-51.558 -59.84,-58.203 l -207.82,-31.55 C 939.254,468.844 832.848,389.047 832.848,244.379 832.848,116.379 937.605,0 1107.16,0 c 131.33,0 211.14,66.4805 249.39,127.98 0,-64.7886 6.64,-98.0191 8.32,-103.0503 h 179.54 c -1.65,8.3086 -9.95,56.5508 -9.95,129.6913 v 402.336" /><path
         id="path18"
         style="fill:#3bba78;fill-opacity:1;fill-rule:nonzero;stroke:none"
         d="M 1830.32,704.902 V 834.594 H 1642.44 V 24.9297 h 192.88 V 410.617 c 0,151.36 68.14,237.77 217.79,237.77 19.97,0 41.57,-1.649 63.16,-4.992 v 196.156 c -8.31,1.676 -28.28,5.019 -51.53,5.019 -106.38,0 -196.19,-51.523 -234.42,-139.668" /><path
         id="path20"
         style="fill:#3bba78;fill-opacity:1;fill-rule:nonzero;stroke:none"
         d="m 2613.31,857.848 c -89.76,0 -186.2,-38.231 -239.4,-131.34 V 834.594 H 2186.02 V 24.9297 H 2378.9 V 492.094 c 0,106.402 58.16,191.207 167.9,191.207 121.31,0 166.25,-79.774 166.25,-179.547 V 24.9297 h 192.83 V 536.984 c 0,177.903 -94.75,320.864 -292.57,320.864" /><path
         id="path22"
         style="fill:#3bba78;fill-opacity:1;fill-rule:nonzero;stroke:none"
         d="m 3173.5,518.727 c 6.62,86.437 76.44,179.539 197.79,179.539 133.03,0 196.19,-84.762 199.55,-179.539 z m 196.17,340.793 c -204.55,0 -394.04,-169.559 -394.04,-425.622 C 2975.63,159.609 3170.14,0 3389.65,0 c 194.49,0 322.46,114.719 365.7,256.012 l -162.95,51.582 c -26.56,-79.836 -86.42,-141.356 -202.75,-141.356 -119.73,0 -216.15,88.121 -221.15,211.141 h 591.83 c 1.66,3.316 5,29.961 5,61.512 0,256.062 -146.29,420.629 -395.66,420.629" /><path
         id="path24"
         style="fill:#3bba78;fill-opacity:1;fill-rule:nonzero;stroke:none"
         d="m 4890,589.609 v 171.2 h -169.59 v 119.707 l -0.1,0.097 c -0.06,160.597 -130.23,290.807 -290.9,290.807 -160.64,0 -290.95,-130.23 -290.95,-290.904 0,-7.336 0.64,-14.496 1.17,-21.672 -5.67,0.191 -11.06,0.676 -16.95,0.676 -167.91,0 -297.56,-119.672 -297.56,-261.024 0,-111.363 74.8,-204.43 217.75,-236.051 l 119.75,-26.601 c 64.8,-13.274 94.74,-46.531 94.74,-89.754 0,-49.887 -41.54,-93.141 -121.33,-93.141 -103.14,0 -157.94,64.828 -164.64,138 l -167.91,-46.57 C 3813.46,152.949 3903.24,0 4137.62,0 c 206.19,0 305.93,136.352 305.93,259.379 0,119.68 -79.76,212.742 -232.75,245.984 l -123.01,24.961 c -49.9,10.012 -81.44,41.594 -81.44,84.824 0,49.891 48.2,93.075 116.33,93.075 44.9,0 77.05,-13.008 99.9,-31.465 0.99,-0.961 2.83,-2.192 2.83,-2.192 v 0.039 l 94.98,92.137 c -17.79,17.067 -31.78,38.129 -40.14,61.93 -5.62,16.219 -8.79,33.644 -8.79,51.844 0,87.207 70.69,157.904 157.95,157.904 87.27,0 157.93,-70.697 157.93,-157.904 0,-47.891 -21.38,-90.715 -55.04,-119.707 -25.15,-21.606 -57.24,-35.262 -92.44,-37.582 v -133.133 -0.485 h 89.36 V 256.012 c 0,-151.274 93.12,-241.0628 242.79,-241.0628 69.79,0 106.33,13.3321 117.99,18.2891 V 192.875 c -8.3,-1.711 -39.94,-6.66 -66.5,-6.66 -71.47,0 -103.09,29.949 -103.09,101.406 V 589.609 H 4890" /></g></g></svg>