<svg width="669" height="420" fill="none" xmlns="http://www.w3.org/2000/svg"><g clip-path="url(#clip0)"><path opacity=".1" d="M664.81 289.318c-6.713 16.138-20.757 30.713-35.833 44.517-13.252 12.137-27.428 23.865-42.527 35.185a585.272 585.272 0 01-12.754 9.309l-2.999 2.115a402.46 402.46 0 01-8.116 5.591l-.33.224a577.8 577.8 0 01-8.074 5.391c-8.881 5.832-18.27 11.624-28.648 16.419a136.83 136.83 0 01-10.962 4.531 124.359 124.359 0 01-6.259 2.086 117.585 117.585 0 01-10.814 2.745c-.625.13-1.256.254-1.886.371a124.65 124.65 0 01-11.628 1.603c-14.363 1.314-29.197.353-43.583-1.897-7.19-1.125-14.268-2.575-21.116-4.224-.843-.201-1.68-.407-2.522-.59-23.321-5.832-45.215-13.751-68.701-19.318a335.974 335.974 0 00-24.753-4.89 399.137 399.137 0 00-12.376-1.768 362.411 362.411 0 00-29.585-2.439c-13.39-.589-27.216-.336-39.958 2.003-1.697.311-3.373.66-5.027 1.049a89.493 89.493 0 00-6.177 1.679 109.982 109.982 0 00-15.847 6.522 233.05 233.05 0 00-3 1.503c-3.124 1.59-6.206 3.216-9.335 4.795a117.797 117.797 0 01-17.528 7.435 92.487 92.487 0 01-10.066 2.569c-8.999 1.803-18.576 2.516-28.194 2.563-4.638 0-9.282-.1-13.873-.342h-.142a209.227 209.227 0 01-4.715-.294 278.067 278.067 0 01-21.346-2.274c-24.11-3.535-46.977-10.216-65.37-20.409-24.983-13.833-40.848-34.46-38.467-55.069 1.709-14.846 12.323-28.633 22.395-42.13 18.735-25.134 36.286-50.839 45.521-77.934 7.49-21.994 9.724-45.248 26.963-65.014 5.522-6.328 12.583-12.102 20.804-17.162a132.698 132.698 0 0119.26-9.733 166.392 166.392 0 0123.214-7.571 184.805 184.805 0 0120.816-3.912 185.39 185.39 0 0111.54-1.137 175.61 175.61 0 018.999-.395h.466c1.842-.035 3.685-.035 5.528 0a257.655 257.655 0 0140.075 3.765c8.287 1.384 16.502 3.081 24.547 4.949a578.773 578.773 0 0114.274 3.494c1.438.371 2.876.748 4.296 1.131 33.546 8.984 63.061 21.392 95.381 31.573.165.053.324.106.489.147a199.172 199.172 0 0020.179 5.067 296.961 296.961 0 0015.323 2.627c7.968 1.179 16.107 2.11 24.305 2.911l1.809.177c12.029 1.178 24.164 2.056 35.951 3.081 4.184.365 8.333.742 12.423 1.178 2.593.26 5.163.534 7.709.825 1.827.212 3.66.424 5.492.648 1.833.224 3.772.46 5.658.701 1.226.153 2.446.313 3.672.483 7.426.984 14.834 2.086 22.159 3.347 4.456.766 8.888 1.591 13.267 2.48a382.89 382.89 0 019.429 2.039c2.31.522 4.601 1.072 6.872 1.649 18.453 4.637 35.721 10.717 50.602 18.924 38.643 21.263 55.935 56.241 43.093 87.101zM146.742 53.26c7.041 0 12.748-5.706 12.748-12.743 0-7.039-5.707-12.744-12.748-12.744-7.04 0-12.747 5.705-12.747 12.744 0 7.037 5.707 12.743 12.747 12.743zm260.557-27.773c7.041 0 12.748-5.705 12.748-12.743C420.047 5.704 414.34 0 407.299 0c-7.04 0-12.747 5.705-12.747 12.743 0 7.039 5.707 12.744 12.747 12.744zm154.498 28.539c7.041 0 12.748-5.706 12.748-12.744 0-7.038-5.707-12.743-12.748-12.743-7.04 0-12.747 5.705-12.747 12.743 0 7.039 5.707 12.744 12.747 12.744zM21.364 92.704c11.799 0 21.364-9.562 21.364-21.357S33.163 49.99 21.364 49.99C9.564 49.99 0 59.552 0 71.347s9.565 21.357 21.364 21.357zm20.48 105.46c11.799 0 21.364-9.562 21.364-21.357s-9.565-21.357-21.364-21.357c-11.8 0-21.364 9.562-21.364 21.357s9.565 21.357 21.364 21.357zm573.39-38.82c11.798 0 21.363-9.562 21.363-21.357s-9.565-21.357-21.363-21.357c-11.799 0-21.364 9.562-21.364 21.357s9.565 21.357 21.364 21.357z" fill="#6C63FF"/><path d="M208.836 141.015a22.991 22.991 0 01-.312 5.362c-1.179 5.473-6.165 9.232-10.992 12.083-4.827 2.852-10.131 5.55-13.001 10.364-3.459 5.815-2.357 13.633 1.703 19.065 4.061 5.432 10.497 8.666 17.121 10.016 12.082 2.492 25.312-1.008 34.371-9.374 9.058-8.366 13.602-21.439 11.38-33.582-4.915.689-9.294-3.647-10.885-8.348-1.591-4.702-1.261-9.798-1.88-14.729a5.048 5.048 0 00-.731-2.357c-.69-.955-1.909-1.343-3.047-1.656-5.681-1.561-15.241-4.978-21.128-3.67-5.304 1.214-2.688 12.372-2.599 16.826z" fill="#BE6F72"/><path opacity=".1" d="M208.836 141.015a22.991 22.991 0 01-.312 5.362c-1.179 5.473-6.165 9.232-10.992 12.083-4.827 2.852-10.131 5.55-13.001 10.364-3.459 5.815-2.357 13.633 1.703 19.065 4.061 5.432 10.497 8.666 17.121 10.016 12.082 2.492 25.312-1.008 34.371-9.374 9.058-8.366 13.602-21.439 11.38-33.582-4.915.689-9.294-3.647-10.885-8.348-1.591-4.702-1.261-9.798-1.88-14.729a5.048 5.048 0 00-.731-2.357c-.69-.955-1.909-1.343-3.047-1.656-5.681-1.561-15.241-4.978-21.128-3.67-5.304 1.214-2.688 12.372-2.599 16.826z" fill="#000"/><path d="M201.97 401.842a117.786 117.786 0 01-17.527 7.435 92.835 92.835 0 01-10.066 2.569c-.241-4.53.006-9.073.736-13.551.46-2.574 1.138-5.125 1.315-7.735.25-3.768-.556-7.53-2.328-10.864 6.565-.896 12.8-2.357 19.395-1.927l.419.029c.784.02 1.56.166 2.298.43a6.212 6.212 0 012.493 2.192c.34.463.652.945.937 1.444 1.862 3.216 2.57 6.928 2.717 10.752a71.612 71.612 0 01-.389 9.226zm34.365-14.505a89.493 89.493 0 00-6.177 1.679 110.029 110.029 0 00-15.847 6.522 23.308 23.308 0 01-.483-4.878 27.254 27.254 0 0120.833-4.283c.479.058.934.241 1.32.53.14.124.259.269.354.43z" fill="#BE6F72"/><path d="M246.466 357.596c-.401 3.853-.99 7.718-2.357 11.342-1.48 3.888-3.884 7.659-3.578 11.812.136 1.803.749 3.759.837 5.544-1.697.31-3.373.66-5.027 1.049a89.312 89.312 0 00-6.176 1.679 109.88 109.88 0 00-15.848 6.522c-1.008.495-2.004.996-3 1.502a22.79 22.79 0 01-1.231-.194c-2.947-.536-6.047-1.856-7.715-4.213a6.728 6.728 0 01-.89-1.767c-.961-2.869.041-6.445-1.957-8.72l-.094.083-.071.047a19.738 19.738 0 01-3.583 2.58 24.01 24.01 0 01-19.448 1.874 21.275 21.275 0 01-3.648-1.638c-2.7-1.538-5.305-4.124-5.092-7.211.117-1.72 1.102-3.37.836-5.073-.194-1.219-.996-2.233-1.597-3.311-3.942-7.07.761-16.161-1.715-23.843a14.37 14.37 0 00-.188-.542c-.183-.501-.389-.984-.59-1.467-.506-1.125-1.072-2.233-1.52-3.388a19.653 19.653 0 01-.884-2.987 37.388 37.388 0 01-.59-8.967c0-7.912 1.415-16.013 3.43-23.637.36-1.355.761-3.27 1.291-5.355a41.005 41.005 0 012.086-6.434c1.179-2.71 2.782-4.872 4.975-5.385 3.3-.772 8.345.86 11.692 1.261l13.231 1.579 26.456 3.164c4.567.547 9.365 1.178 13.131 3.747.247.171.489.347.731.536.994.783 1.886 1.69 2.652 2.698.271.348.53.713.778 1.084a24.555 24.555 0 012.18 4.16c3.283 7.883 3.359 16.679 3.383 25.216 0 8.908.029 17.81-.89 26.653z" fill="#3F3D56"/><path opacity=".1" d="M195.747 384.898c-.796-3.064-2.476-7.5-2.723-8.708a110.543 110.543 0 01-1.804-12.266c-.654-7.341-1.832-17.675.761-24.657 2.434 1.297 4.573 4.967 5.699 7.471 4.078 9.079-.513 20.226 3.318 29.411.286.55.464 1.15.524 1.767a4.272 4.272 0 01-.813 2.168l-1.291 2.145-3.671 2.669z" fill="#000"/><path d="M280.625 104.611c4.337-7.07 10.278-14.022 9.907-22.288-.136-2.945-1.102-5.826-1.839-8.713a55.587 55.587 0 01-.407-25.505c7.288-1.17 14.747.5 20.84 4.666 1.927 1.331 3.754 2.987 4.602 5.173.784 2.015.655 4.26.513 6.416-.324 4.955-.766 10.24-3.819 14.14-.949 1.22-2.116 2.25-3.041 3.482-1.349 1.767-2.139 3.923-2.911 6.027l-10.019 27.248c-5.057 13.734-10.538 28.097-21.676 37.6-.272.23-8.251-11.099-8.911-12.236-2.67-4.661-1.503-6.628 1.726-10.529 6.371-7.712 9.831-17.015 15.035-25.481z" fill="#BE6F72"/><path d="M165.808 336.864a45.26 45.26 0 01-.513 6.074 40.63 40.63 0 01-.377 2.215c-2.01 10.487-7.014 20.462-10.514 30.678-4.615 13.486-6.642 25.186-8.251 38.578-4.638 0-9.282-.1-13.873-.342h-.142a215.27 215.27 0 01-4.715-.294c1.421-12.491-1.178-25.593 1.362-38.095 1.025-5.032 2.776-9.916 3.831-14.924.325-1.474.571-2.965.736-4.466.148-1.425.224-2.904.867-4.189a2.93 2.93 0 01.2-.359 10.098 10.098 0 012.074-2.357 51.768 51.768 0 0125.378-12.095 58.044 58.044 0 013.937-.424z" fill="#FBBEBE"/><path opacity=".1" d="M165.808 336.864a45.26 45.26 0 01-.513 6.074 40.63 40.63 0 01-.377 2.215c-2.01 10.487-7.014 20.462-10.514 30.678-4.615 13.486-6.642 25.186-8.251 38.578-4.638 0-9.282-.1-13.873-.342h-.142a215.27 215.27 0 01-4.715-.294c1.421-12.491-1.178-25.593 1.362-38.095 1.025-5.032 2.776-9.916 3.831-14.924.325-1.474.571-2.965.736-4.466.148-1.425.224-2.904.867-4.189a2.93 2.93 0 01.2-.359 10.098 10.098 0 012.074-2.357 51.768 51.768 0 0125.378-12.095 58.044 58.044 0 013.937-.424z" fill="#000"/><path d="M135.928 363.712a92.387 92.387 0 01-.808 9.786c-1.573 13.262-1.868 27.101-2.946 40.563a214.882 214.882 0 01-4.715-.294 278.04 278.04 0 01-21.347-2.275c.543-3.032 1.089-6.064 1.639-9.096.672-3.718 1.344-7.471 1.149-11.241-.183-3.565-1.137-7.035-1.898-10.529-1.62-7.482-2.528-15.553-5.198-22.612a29.45 29.45 0 00-6.518-10.604c11.045-4.337 21.659-4.584 33.522-4.125a4.252 4.252 0 012.405.59c.562.487.98 1.118 1.208 1.826a45.668 45.668 0 013.318 13.445c.142 1.517.205 3.041.189 4.566z" fill="#FBBEBE"/><path d="M224.89 137.975c12.694 0 22.985-10.287 22.985-22.977s-10.291-22.977-22.985-22.977c-12.694 0-22.985 10.287-22.985 22.977s10.291 22.977 22.985 22.977z" fill="#BE6F72"/><path d="M229.67 168.7c2.946-5.026 5.528-11.3 11.197-12.697 3.2-.795 6.53.289 9.648 1.356a4.713 4.713 0 012.357 1.366c.461.731.708 1.576.713 2.44a159.62 159.62 0 01-.1 31.225c-.748 7.347-2.01 14.658-2.234 22.04-.312 10.234 1.374 20.468.82 30.69-.419 7.747-2.116 15.359-3.802 22.93l-7.072 31.697a5.398 5.398 0 01-1.137 2.68 5.31 5.31 0 01-2.087 1.179 77.685 77.685 0 01-62.842-4.92c-2.552-1.402-5.098-3.022-6.76-5.414-2.357-3.394-2.575-7.883-1.809-11.948.766-4.066 2.422-7.901 3.536-11.89 1.721-6.186 2.128-12.643 2.517-19.053.518-8.437 1.037-16.927.135-25.334-.619-5.791-1.909-11.494-2.882-17.239a190.144 190.144 0 01-2.487-26.176c-.147-5.238.094-11.053 3.719-14.829 1.768-1.838 4.125-2.946 6.524-3.842 4.025-1.484 8.522-2.356 12.589-1.001 4.066 1.355 7.343 5.62 6.382 9.798-.442 1.938-1.697 3.635-2.004 5.603-.406 2.604.973 5.225 2.947 6.987 10.62 9.591 26.833-6.552 32.132-15.648z" fill="#E3E8F4"/><path d="M230.512 145.222a17.379 17.379 0 0110.072-.589c2.128.506 4.426 1.402 6.389.453.713-.341 1.302-.901 2.021-1.219 1.945-.854 4.468.194 6.188-1.049 1.085-.783 1.438-2.209 1.804-3.505a31.434 31.434 0 0110.39-15.743c-.619 4.519-1.067 9.663 1.921 13.115 1.362 1.567 3.271 2.551 5.204 3.317 2.776 1.102 5.823 1.832 8.752 1.231 2.929-.601 5.67-2.816 6.135-5.768-.1 4.437-4.326 7.536-5.51 11.819-.448 1.602-.407 3.305-.719 4.943-.796 4.183-3.784 7.541-6.395 10.911a77.63 77.63 0 00-15.441 37.247 17.934 17.934 0 01-1.001 4.713 29.756 29.756 0 01-1.957 3.37c-4.32 7.294-2.988 16.497-1.521 24.827 2.293 13.05 4.58 25.835 8.293 38.555.636 2.174 1.355 4.442 2.976 6.027-.513 5.143-5.705 7.488-10.373 9.709a50.905 50.905 0 00-12.612 8.537c-1.344 1.238-2.67 2.628-3.159 4.39-.459 1.655-.129 3.476-.719 5.084-.589 1.608-2.946 2.763-3.984 1.408-1.296-4.849.92-9.921.819-14.941-.07-3.388-1.178-6.681-1.337-10.069-.154-3.835.978-7.6 2.18-11.241 3.348-10.139 7.391-20.184 8.552-30.795 1.161-10.611-1.008-22.2-8.54-29.77-8.94-9.026-13.903-21.263-23.486-29.553-1.52-1.314-3.241-2.945-2.988-4.937a5.5 5.5 0 011.126-2.392c3.289-4.642 7.662-8.431 11.198-12.873 3.536-4.442 6.365-9.556 5.722-15.212zm-31.465 9.503c-.59.589-.996 1.402-1.68 1.909a5.54 5.54 0 01-2.646.819 85.652 85.652 0 01-10.473.937c-2.947 0-6.005-.26-8.84.548-3.955 1.119-7.114 4.242-9.094 7.835-1.98 3.594-2.917 7.659-3.677 11.707a156.552 156.552 0 00-2.682 27.037 71.092 71.092 0 0012.877-13.363c2.829-3.835 5.393-8.077 9.43-10.64 1.856-1.178 3.943-1.956 5.811-3.105 3.896-2.398 6.595-6.274 9.188-10.015 1.909-2.775 7.432-8.196 7.868-11.518.371-3.176-4.02-4.726-6.082-2.151zm20.533-55.458a18.67 18.67 0 012.086 1.456c4.002 2.792 9.359 2.274 14.197 1.638 1.486-.189 3.012-.401 4.285-1.179 2.045-1.26 3.006-3.853 2.805-6.25-.2-2.399-1.408-4.608-2.882-6.481a23.324 23.324 0 00-16.118-8.79 10.376 10.376 0 00-4.827.512c-1.904.783-3.336 2.398-5.092 3.476-5.18 3.181-13.16 1.767-16.502 6.846-2.446 3.747-.701 8.837-1.856 13.144-.861 3.217-3.342 6.145-2.865 9.427.266 1.767 1.374 3.311 2.258 4.89a21.605 21.605 0 012.705 11.918c2.269 1.603 5.434-.889 6.064-3.588.631-2.698-.094-5.573.442-8.295.949-4.778 5.169-8.284 7.072-12.667 1.368-3.14 3.595-8.443 8.228-6.057z" fill="#3F3D56"/><path d="M163.851 151.567c-.177 1.072-.289 2.257.306 3.164 1.179 1.767 3.878 1.131 6 1.396 3.306.407 5.746 3.535 6.388 6.823.643 3.287-.123 6.634-.96 9.862a227.88 227.88 0 01-6.766 21.64c-7.037-.831-14.445-3.535-18.181-9.538-3.395-5.462-3.047-12.42-5.204-18.476-1.515-4.266-4.232-7.978-6.919-11.619 4.32.542 7.408-4.395 7.661-8.743.254-4.348-1.114-8.761-.183-13.008.219-1.008 17.245 2.168 18.901 3.316 4.785 3.317-.289 10.576-1.043 15.183z" fill="#FBBEBE"/><path opacity=".1" d="M163.851 151.567c-.177 1.072-.289 2.257.306 3.164 1.179 1.767 3.878 1.131 6 1.396 3.306.407 5.746 3.535 6.388 6.823.643 3.287-.123 6.634-.96 9.862a227.88 227.88 0 01-6.766 21.64c-7.037-.831-14.445-3.535-18.181-9.538-3.395-5.462-3.047-12.42-5.204-18.476-1.515-4.266-4.232-7.978-6.919-11.619 4.32.542 7.408-4.395 7.661-8.743.254-4.348-1.114-8.761-.183-13.008.219-1.008 17.245 2.168 18.901 3.316 4.785 3.317-.289 10.576-1.043 15.183z" fill="#000"/><path d="M160.061 144.456c12.694 0 22.985-10.287 22.985-22.977s-10.291-22.977-22.985-22.977c-12.694 0-22.984 10.287-22.984 22.977s10.29 22.977 22.984 22.977z" fill="#FBBEBE"/><path d="M152.983 148.268c.837-1.308-.589-3.134.065-4.543.389-.848 1.373-1.213 2.133-1.767a7.948 7.948 0 002.222-2.881 33.476 33.476 0 003.065-22.359c-.542-2.545-1.026-5.927 1.302-7.069a4.228 4.228 0 012.057-.354c4.196.136 8.251 2.946 12.324 1.95a7.075 7.075 0 005.186-6.168c.265-3.806-2.587-7.07-5.393-9.633-5.05-4.643-12.747-5.674-19.607-5.786l-12.76-.212c-4.084-.07-8.663.06-11.504 2.987-4.09 4.213-2.033 11.106-2.623 16.944a17.672 17.672 0 01-6.482 11.872c-2.647 2.109-6.289 4.124-6.242 7.494 0 1.178.507 2.251.831 3.364 1.303 4.407.059 9.28-2.44 13.139-2.498 3.859-6.152 6.828-9.942 9.426-2.027 1.385-4.125 2.716-5.728 4.596a13.544 13.544 0 00-2.988 7.617 10.012 10.012 0 001.25 6.145c2.492 3.983 8.474 4.566 12.57 2.257 4.096-2.31 6.595-6.681 8.251-11.076.99-2.61 1.998-5.597 4.532-6.77 3.206-1.49 6.954.866 9.041 3.724 2.086 2.857 3.371 6.345 6.04 8.666 4.185 3.641 11.304 3.052 14.84-1.225 2.528-3.07 3.088-7.318 2.947-11.294a16.445 16.445 0 00-2.947-9.044z" fill="#3F3D56"/><path d="M161.234 178.215c-2.623.56-5.363-.678-7.314-2.528-1.951-1.85-3.265-4.236-4.632-6.545a115.238 115.238 0 00-11.875-16.461c-3.867-4.46-9.247-8.991-14.988-7.612a14.217 14.217 0 00-5.233 2.798 38.146 38.146 0 00-14.245 34.042c.448 3.753 1.468 7.423 1.892 11.194a71.7 71.7 0 01.248 9.35c-.159 9.497-.484 19.542-5.605 27.543-7.939 12.372-12.188 27.149-18.016 40.652-3.148 7.3-5.033 15.071-6.884 22.801-1.096 4.587-2.19 9.173-3.283 13.756l-7.13 29.989c-.737 3.093-1.474 6.333-.696 9.426 1.178 4.619 5.522 7.848 10.101 9.162 4.58 1.313 9.43 1.09 14.186 1.131 9.1.088 18.27 1.219 26.809 4.377 2.44.902 4.874 1.98 7.473 2.192 2.599.212 5.187-.465 7.621-1.408 6.642-2.569 12.335-7.07 18.452-10.705a72.875 72.875 0 0112.023-5.815c2.098-.784 4.349-1.526 5.793-3.241 1.09-1.29 1.58-2.975 1.939-4.624 1.992-9.286.654-18.907 0-28.38-.654-9.474-6.318-19.484-1.632-27.744.943-1.667 2.068-3.27 2.551-5.12.637-2.415.101-5.013.637-7.452.395-1.803 1.344-3.423 1.992-5.15 1.132-3.04 1.285-6.351 1.273-9.597a105.274 105.274 0 00-2.24-21.21c-1.856-8.837 4.285-17.574 7.803-25.923 1.262-2.987 3.047-5.809 3.572-9.008.471-2.887-.136-5.827-.589-8.72a76.225 76.225 0 01-.826-13.55c.112-4.066.543-8.207-.43-12.161-.972-3.953-3.748-7.788-7.738-8.601a3.167 3.167 0 00-2.664.418 3.45 3.45 0 00-.937 1.65c-1.296 3.971-1.043 8.248-1.768 12.372-.725 4.124-1.573 7.83-5.64 8.702z" fill="#F86D70"/><path d="M105.617 203.519c.242-1.632-.518-3.8-2.169-3.741-1.52.059-2.198 1.962-2.192 3.488.006 1.526.212 3.276-.866 4.348-.955.949-2.535.919-3.643 1.691a2.991 2.991 0 00-1.255 2.457c0 .819.371 1.602.395 2.421.024.819-.525 1.768-1.338 1.715a3.691 3.691 0 00.536 4.477c.425.413.979.766 1.12 1.343a3.24 3.24 0 01-.094 1.208c-.248 1.62.872 3.435 2.505 3.612-.914.654-.731 2.186.106 2.946.837.76 2.039.907 3.165.907a19.234 19.234 0 007.431-1.538 4.423 4.423 0 002.051-1.414 1.767 1.767 0 00-.171-2.286c1.144.189 2.517.295 3.265-.589 1.043-1.237-.076-3.069-1.178-4.265a2.357 2.357 0 001.096-4.195c-.377-.277-.89-.519-.943-.984-.053-.466.342-.766.507-1.178.377-.925-.484-1.868-1.315-2.428-1.968-1.308-4.868-1.284-6.618-2.604s-.648-3.623-.395-5.391z" fill="#BE6F72"/><path d="M227.2 114.12a27.883 27.883 0 01-4.296.1.941.941 0 00-1.031.813l-2.741 20.55a8.341 8.341 0 01-1.768 4.071 8.886 8.886 0 00-1.998 6.782v34.907s-.177 4.655 3.401 4.655c4.281.538 8.613.538 12.895 0 0 0 2.864-.542 2.864-4.837v-34.372a8.399 8.399 0 00-1.768-6.834 8.547 8.547 0 01-1.715-4.048l-2.847-20.98a.936.936 0 00-.996-.807z" fill="#3F3D56"/><path opacity=".1" d="M227.2 114.12a27.883 27.883 0 01-4.296.1.941.941 0 00-1.031.813l-2.741 20.55a8.341 8.341 0 01-1.768 4.071 8.886 8.886 0 00-1.998 6.782v34.907s-.177 4.655 3.401 4.655c4.281.538 8.613.538 12.895 0 0 0 2.864-.542 2.864-4.837v-34.372a8.399 8.399 0 00-1.768-6.834 8.547 8.547 0 01-1.715-4.048l-2.847-20.98a.936.936 0 00-.996-.807z" fill="#000"/><path d="M227.218 147.06h-4.344a6.51 6.51 0 00-6.512 6.51v16.338a6.51 6.51 0 006.512 6.51h4.344a6.512 6.512 0 006.512-6.51V153.57a6.512 6.512 0 00-6.512-6.51z" fill="#6C63FF"/><path d="M285.587 25.322a27.184 27.184 0 01-3.925 1.767.943.943 0 00-.643 1.143l5.387 20.032a8.32 8.32 0 01-.047 4.43 8.834 8.834 0 00.766 7.029l13.449 32.215s1.627 4.36 4.933 2.981a51.37 51.37 0 0011.905-4.984s2.434-1.602.783-5.562l-13.242-31.72a8.44 8.44 0 00-4.261-5.632 8.568 8.568 0 01-3.141-3.07l-10.709-18.264a.942.942 0 00-1.255-.365z" fill="#3F3D56"/><path d="M298.303 55.72l-4.009 1.673a6.51 6.51 0 00-3.502 8.515l6.294 15.078a6.513 6.513 0 008.518 3.5l4.008-1.672a6.51 6.51 0 003.502-8.515l-6.293-15.077a6.513 6.513 0 00-8.518-3.501z" fill="#6C63FF"/><path d="M120.198 148.875c-6.336 2.61-8.84 10.728-7.355 17.409 1.485 6.681 5.958 12.249 10.319 17.545l12.224 14.906c3.376 4.124 7.072 8.466 12.223 9.904 7.532 2.103 15.063-2.692 21.576-7.029a325.03 325.03 0 0161.976-32.262c2.127-.825 4.308-1.661 6.058-3.134 3.631-3.052 4.65-8.679 2.629-12.962-2.022-4.283-6.731-7.07-11.475-7.105-4.744-.035-9.359 2.474-12.211 6.269-1.362 1.808-2.358 3.876-3.672 5.714-3.324 4.619-8.51 7.477-13.584 10.057a346.914 346.914 0 01-37.719 16.497c-2.357.86-5.015 1.679-7.237.542-1.361-.701-2.281-2.027-3.106-3.323a82.495 82.495 0 01-8.899-18.959c-1.609-5.008-2.911-10.464-6.778-14.022-5.481-5.043-15.405-3.836-19.513 2.356 0 0-4.815 7.041-1.868 9.987 2.947 2.945 6.412-12.39 6.412-12.39zm330.53-24.38c.861 2.292.884 4.802.761 7.247-.154 2.981-.902 6.481-3.672 7.618-1.803.724-4.031.177-5.634 1.272-1.945 1.32-1.851 4.16-1.55 6.481.831 6.381 1.768 12.997 5.245 18.394 1.868 2.893 4.396 5.302 6.96 7.606 5.11 4.607 10.715 9.108 17.427 10.646a7.3 7.3 0 003.36.141 6.954 6.954 0 002.905-1.767c3.89-3.57 5.894-8.667 8.487-13.286 1.833-3.305 4.019-6.48 5.05-10.121a17.664 17.664 0 00-5.41-17.834c-1.149-.984-2.422-1.809-3.536-2.828-2.911-2.64-4.609-6.428-5.304-10.293-.696-3.865-.589-7.842-.254-11.783-5.893-.454-11.745.259-17.497 1.408-2.558.513-6.159.748-8.475 1.968-2.605 1.384.424 3.158 1.137 5.131z" fill="#FBBEBE"/><path opacity=".1" d="M450.728 124.495c.861 2.292.884 4.802.761 7.247-.154 2.981-.902 6.481-3.672 7.618-1.803.724-4.031.177-5.634 1.272-1.945 1.32-1.851 4.16-1.55 6.481.831 6.381 1.768 12.997 5.245 18.394 1.868 2.893 4.396 5.302 6.96 7.606 5.11 4.607 10.715 9.108 17.427 10.646a7.3 7.3 0 003.36.141 6.954 6.954 0 002.905-1.767c3.89-3.57 5.894-8.667 8.487-13.286 1.833-3.305 4.019-6.48 5.05-10.121a17.664 17.664 0 00-5.41-17.834c-1.149-.984-2.422-1.809-3.536-2.828-2.911-2.64-4.609-6.428-5.304-10.293-.696-3.865-.589-7.842-.254-11.783-5.893-.454-11.745.259-17.497 1.408-2.558.513-6.159.748-8.475 1.968-2.605 1.384.424 3.158 1.137 5.131z" fill="#000"/><path d="M417.843 141.834c-9.572-3.281-14.145-16.101-24.164-17.539-1.579-.23-3.2-.141-4.75-.507-5.77-1.367-8.251-8.036-9.919-13.721-5.622-18.953-12.965-37.5-23.397-54.303-4.402-7.07-11.363-12.88-14.539-20.62-.731-1.768-1.102-3.783-2.416-5.18-1.315-1.396-4.126-1.596-4.839.183a4.13 4.13 0 00-.13 1.95l.69 7.335-11.987-1.078a7.008 7.008 0 00-3.319.236 5.627 5.627 0 00-2.61 2.716c-4.055 7.618.265 17.598 7.42 22.418 8.357 5.626 20.291 6.48 25.843 14.876 3.3 4.996 3.365 11.424 5.539 17.003 1.038 2.669 2.552 5.12 3.76 7.706 2.305 4.931 3.484 10.293 5.269 15.43 2.558 7.347 6.348 14.193 10.125 20.998 2.912 5.255 5.894 10.605 10.373 14.623 2.947 2.639 6.412 4.595 9.877 6.481 8.522 4.654 18.571 9.132 27.6 5.561.518-8.048-1.503-17.021-4.426-24.568zm29.061 253.622c-.725 7.688-5.393 14.652-6.483 22.052-7.19-1.125-14.268-2.575-21.116-4.224-.843-.201-1.68-.407-2.523-.59 3.878-10.604.501-22.482 1.527-33.776.1-1.084.241-2.168.43-3.24 8.881-3.029 16.902-7.07 26.214-5.892.183 1.885.371 3.776.554 5.662.373 3.766.743 7.529 1.108 11.288.374 2.891.471 5.811.289 8.72zm61.421 19.23a117.585 117.585 0 01-10.814 2.745c-.625.13-1.255.254-1.886.371a124.65 124.65 0 01-11.628 1.603c-.401-8.189-5.893-15.719-6.695-24.126a35.45 35.45 0 01.065-6.275c.071-.824.153-1.649.23-2.474l1.662-16.95a26.082 26.082 0 013.99-.195c7.661.183 14.633 3.5 22.224 6.086.566 3.576.763 7.201.589 10.817-.289 9.203-1.768 18.518 1.65 26.96.195.477.407.955.613 1.438z" fill="#FBBEBE"/><path d="M408.843 285.46c1.032 8.036-3.076 15.73-4.856 23.631-1.179 5.226-1.338 10.605-1.497 15.966l-.931 32.115c-.094 3.211-.177 6.481.801 9.562 1.969 6.174 8.033 10.346 14.345 11.83 6.312 1.485 12.913.731 19.343-.117 3.153-.419 6.441-.908 9.052-2.728 3.589-2.504 5.157-6.964 6.512-11.124l3.825-11.742c4.403 9.91 2.54 20.745 5.181 31.261a6.05 6.05 0 001.178 2.669c1.114 1.237 2.947 1.432 4.615 1.55 11.551.813 23.261 1.62 34.624-.589 3.124-.59 6.383-1.544 8.54-3.889 2.51-2.728 2.947-6.74 2.917-10.446-.159-12.731-4.762-25.015-5.787-37.706-.442-5.438-.224-10.905-.419-16.361a109.379 109.379 0 00-1.149-12.254 16.47 16.47 0 00-1.509-5.362c-1.768-3.299-5.439-5.09-8.917-6.481-27.015-10.97-56.73-10.864-85.868-9.785z" fill="#F86D70"/><path d="M458.862 127.37c13.996 0 25.342-11.342 25.342-25.334 0-13.991-11.346-25.333-25.342-25.333-13.996 0-25.342 11.342-25.342 25.333 0 13.992 11.346 25.334 25.342 25.334z" fill="#FBBEBE"/><path d="M480.951 146.659c-1.88 4.125-4.839 8.249-9.241 9.297-4.049.973-8.34-.978-11.322-3.882-2.982-2.905-4.933-6.675-7.001-10.287-1.509-2.639-3.189-5.302-5.741-6.964-3.488-2.262-7.991-2.203-12.105-1.537-4.113.665-8.198 1.855-12.376 1.584-5.204-.347-10.508-2.945-15.417-1.213 1.591 7.117 1.019 14.941.836 22.235a10.005 10.005 0 01-.471 3.322 10.755 10.755 0 01-1.715 2.758l-4.715 6.074c5.057 3.782 9.43 8.72 11.198 14.782.996 3.452.689 7.117.654 10.711-.112 10.552 2.181 21.062 1.456 31.591-.849 12.331-5.776 23.984-8.316 36.08a94.424 94.424 0 00-1.214 31.579c26.415 9.138 53.631 13.815 81.554 15.347 4.933.271 10.261.313 14.309-2.521 3.366-2.357 5.252-6.393 5.894-10.458.642-4.065.2-8.201-.248-12.29a93339.397 93339.397 0 01-3.636-33.169c-.689-6.293-1.379-12.62-.931-18.93.336-4.713 1.302-9.338 2.263-13.951l5.894-28.315c.842-4.024 1.691-8.078 3.359-11.831 1.367-3.063 3.259-5.891 4.768-8.872a39.204 39.204 0 003.677-11.354 7.52 7.52 0 00-.047-3.476c-.631-1.932-2.558-3.093-4.355-4.041a126.52 126.52 0 00-34.866-12.225c-.825 3.47-.666 6.722-2.145 9.956z" fill="#E3E8F4"/><path d="M478.505 129.692c2.946-5.644 8.457-9.604 11.657-15.118a22.338 22.338 0 00.719-20.62c-1.126-2.298-2.652-4.408-3.536-6.811-.984-2.734-1.079-5.745-2.216-8.42-1.562-3.664-4.945-6.303-8.628-7.823-3.684-1.52-7.662-2.069-11.628-2.599l-13.39-1.803c-1.939-.259-3.949-.518-5.835 0-1.886.519-3.642 2.057-3.795 4.013-.183 2.315 1.85 4.471 1.379 6.746-.171.8-.642 1.614-.371 2.391.241.52.659.937 1.178 1.179 3.177 1.767 6.972 1.926 10.414 3.081 3.442 1.155 6.896 4.053 6.548 7.66-.189 1.938-1.438 3.952-.589 5.69.813 1.609 2.946 1.903 4.65 2.404 5.51 1.597 9.376 7.571 8.575 13.256-.248 1.768-.884 3.459-1.014 5.232-.43 6.21.548 7.983 5.622 11.595l.26-.053z" fill="#3F3D56"/><path d="M512.929 156.545a8.593 8.593 0 01-.631 3.435c-1.839 3.918-7.467 3.671-11.198 5.892-4.644 2.769-5.669 8.949-6.093 14.334-.484 6.098-.814 12.284.436 18.264 1.249 5.98 4.255 11.813 9.276 15.318 6.112 4.248 14.421 4.395 21.399 1.809 6.978-2.586 12.807-7.588 17.863-13.056 4.798-5.184 9.094-10.964 11.67-17.545.453-1.178.854-2.427.489-3.606-.548-1.767-2.476-2.568-4.043-3.535-3.66-2.209-6.1-6.062-7.367-10.133-1.267-4.071-1.479-8.402-1.521-12.673-.047-4.436-.059-9.285-2.887-12.708-2.829-3.423-7.733-4.383-12.2-4.348-3.654 0-13.767.347-16.26 3.535-2.045 2.651 1.214 11.223 1.067 15.017z" fill="#BE6F72"/><path opacity=".1" d="M512.929 156.545a8.593 8.593 0 01-.631 3.435c-1.839 3.918-7.467 3.671-11.198 5.892-4.644 2.769-5.669 8.949-6.093 14.334-.484 6.098-.814 12.284.436 18.264 1.249 5.98 4.255 11.813 9.276 15.318 6.112 4.248 14.421 4.395 21.399 1.809 6.978-2.586 12.807-7.588 17.863-13.056 4.798-5.184 9.094-10.964 11.67-17.545.453-1.178.854-2.427.489-3.606-.548-1.767-2.476-2.568-4.043-3.535-3.66-2.209-6.1-6.062-7.367-10.133-1.267-4.071-1.479-8.402-1.521-12.673-.047-4.436-.059-9.285-2.887-12.708-2.829-3.423-7.733-4.383-12.2-4.348-3.654 0-13.767.347-16.26 3.535-2.045 2.651 1.214 11.223 1.067 15.017z" fill="#000"/><path d="M481.504 314.546a5.049 5.049 0 001.226 2.404c.582.46 1.262.78 1.986.937 19.343 5.674 40.005 3.411 60.032 1.096-2.741-8.343-5.499-16.779-6.259-25.528-.631-7.218.076-14.729-2.482-21.499-.754-2.003-44.719 7.217-49.057 7.966-2.222.382-4.78.253-6.353 2.014-1.898 2.133-2.057 7.212-2.257 9.869-.566 7.677 1.019 15.406 3.164 22.741zm44.043 93.523a137.136 137.136 0 01-10.962 4.531c-2.043.742-4.13 1.438-6.259 2.086a117.525 117.525 0 01-10.815 2.745c-2.133-5.408-4.269-10.819-6.406-16.231-1.574-3.983-3.147-7.983-4.461-12.054a75.435 75.435 0 01-2.252-8.478 60.466 60.466 0 011.462-29.323c8.168 1.538 16.154 2.539 24.199 3.706 4.296.589 8.604 1.284 12.965 2.103.342 2.84.653 5.68.931 8.52.425 4.383.772 8.766 1.044 13.15.601 9.74.785 19.489.554 29.245z" fill="#BE6F72"/><path opacity=".1" d="M525.547 408.069a137.136 137.136 0 01-10.962 4.531c-2.043.742-4.13 1.438-6.259 2.086a117.525 117.525 0 01-10.815 2.745c-2.133-5.408-4.269-10.819-6.406-16.231-1.574-3.983-3.147-7.983-4.461-12.054a75.435 75.435 0 01-2.252-8.478 60.466 60.466 0 011.462-29.323c8.168 1.538 16.154 2.539 24.199 3.706 4.296.589 8.604 1.284 12.965 2.103.342 2.84.653 5.68.931 8.52.425 4.383.772 8.766 1.044 13.15.601 9.74.785 19.489.554 29.245z" fill="#000"/><path d="M570.868 382.541c.047 3.394-.92 6.858-1.816 10.187-.064.235-.123.465-.182.701a9.711 9.711 0 01-5.204-3.9 11.136 11.136 0 01-1.397-3.27 577.8 577.8 0 01-8.074 5.391c-8.882 5.832-18.27 11.624-28.648 16.419a136.983 136.983 0 01-10.962 4.531 287.712 287.712 0 01-2.24-8.301 76.793 76.793 0 01-1.815-8.714 44.247 44.247 0 011.957-19.825l.265-.766a43.302 43.302 0 013.86-8.124c1.468-2.357 4.373-1.962 7.338-1.179 1.343.348 2.705.766 3.942 1.025 7.703 1.615 15.701-.053 23.574.389a28.178 28.178 0 0110.815 2.752c3.789 1.903 6.842 4.813 8.039 8.837.169.58.299 1.17.388 1.768.1.688.153 1.383.16 2.079zM429.082 111.204c-12.17-11.783-26.002-21.77-40.153-31.108a110.267 110.267 0 01-10.608-7.559c-3.536-2.945-6.618-6.404-10.372-9.055-3.755-2.651-8.399-4.472-12.907-3.6-4.509.872-8.516 5.185-7.856 9.698.589 3.97 4.161 6.693 7.461 8.973 6.247 4.318 12.524 8.649 19.319 12.036 2.36 1.07 4.65 2.29 6.854 3.653 4.232 2.852 7.314 7.07 10.514 11.035a153.48 153.48 0 0043.612 37.117c.2.118 7.172-14.923 6.878-16.873-.649-4.484-9.536-11.206-12.742-14.317z" fill="#BE6F72"/><path d="M533.173 301.597c-9.395.589-18.406 3.759-27.594 5.779-9.188 2.021-19.171 2.805-27.699-1.178l5.186 35.403c.289 1.967.589 3.982.159 5.921-.395 1.85-1.42 3.594-1.332 5.485.136 2.993 2.947 5.096 5.593 6.48a50.018 50.018 0 0024.989 5.757c-.643 2.592-1.444 5.155-2.092 7.747 4.331 4.649 11.415 4.961 17.597 6.434 4.715 1.113 9.135 3.046 13.756 4.407a58.746 58.746 0 0017.215 2.397c3.931-.041 8.098-.589 11.15-3.04 3.754-3.022 4.921-8.159 5.735-12.908.453-2.651.872-5.338.589-8.013-.306-3.075-1.497-5.986-2.676-8.837l-8.074-19.59c-1.467-3.535-2.946-7.123-4.714-10.534-5.776-11.035-15.359-22.482-27.788-21.71z" fill="#3F3D56"/><path d="M540.363 179.275a8.84 8.84 0 019.253-5.638c2.357.33 4.461 1.62 6.482 2.881l11.257 7.023a49.072 49.072 0 015.357 3.688c7.762 6.434 10.756 17.009 11.61 27.054.855 10.045 0 20.261 1.998 30.142-4.75 3.935-10.019 7.264-14.769 11.194-2.487 2.056-5.003 4.124-6.889 6.769-1.497 2.08-2.564 4.46-4.126 6.481a15.592 15.592 0 01-10.331 5.738c2.575 1.497 4.019 4.401 4.715 7.294.695 2.893.884 5.892 1.656 8.784 1.061 3.93 3.259 7.518 3.984 11.524.507 2.764.283 5.597.465 8.402.92 14.511 12.312 27.195 11.575 41.712a63.295 63.295 0 01-15.123-7.947c-2.098-1.503-4.125-3.129-6.111-4.749l-15.011-12.166c-7.302-5.892-14.675-11.913-20.48-19.313-3.642-4.642-6.612-9.78-10.266-14.411s-8.151-8.837-13.732-10.781c-.819 1.231-2.275 2.085-3.094 3.317-.145.194-.26.408-.342.636a2.784 2.784 0 00.195 1.626 33.86 33.86 0 011.178 7.3l.372 4.43a15.144 15.144 0 010 3.535c-.56 3.788-4.073 6.728-7.862 7.317a3.401 3.401 0 01-1.656-.053c-1.055-.353-1.639-1.467-1.957-2.527-1.491-5.031.796-10.34.978-15.577a37.286 37.286 0 00-.135-3.983l-.354-5.226c-3.424-.713-5.392-4.389-6.3-7.765-2.452-9.114-4.921-18.547-3.501-27.879.377-2.498 1.037-5.032.59-7.53-.59-3.34-2.994-6.05-4.261-9.196-4.126-10.258 4.638-21.393 3.824-32.404-.341-4.625-3.276-8.643-5.044-12.932a36.522 36.522 0 00-3.536-7.135c-1.804-2.575-4.238-4.637-6.601-6.71a251.761 251.761 0 01-20.733-20.421 15.316 15.316 0 01-8.929-4.089c-1.556-1.472-2.835-3.417-2.876-5.555-.041-2.139 1.538-4.384 3.677-4.496 1.25-.064 2.417.554 3.637.825 3.819.837 7.661-1.973 9.364-5.503 1.704-3.529 1.704-7.588 1.674-11.5a11.04 11.04 0 0110.214 3.576c2.634 2.864 4.349 6.434 6.423 9.721a15.064 15.064 0 003.207 3.871c2.834 2.251 6.919 2.675 9.394 5.303 1.255 1.343 1.951 3.122 3.1 4.56 3.229 4.047 9.141 4.542 13.555 7.205 4.414 2.663 7.485 7.53 12.376 9.109 1.768.589 3.695.665 5.446 1.319 4.043 1.503 6.512 5.798 7.072 10.069.56 4.271-.395 8.59-1.361 12.797l-2.269 9.844c-.501 2.18-.884 4.802.724 6.357a6.56 6.56 0 002.611 1.314c4.126 1.344 8.723 2.663 12.601.76 1.832-.907 3.27-2.439 4.585-4.006 5.752-6.775 9.577-15.648 12.5-23.985z" fill="#6C63FF"/><path d="M586.88 379.619c-.813 5.391-3.784 10.693-8.646 13.162a12.38 12.38 0 01-9.365.648 9.712 9.712 0 01-5.203-3.9 11.125 11.125 0 01-1.397-3.27c0-.059-.03-.124-.041-.183a25.899 25.899 0 01-.549-6.345 82.803 82.803 0 01.59-9.892 53.575 53.575 0 011.626-8.178c1.097-3.823 2.676-7.505 4.126-11.194.754-1.944 1.479-3.894 2.074-5.891.36-1.178.666-2.392.914-3.618l.088-.441c.047-.248.089-.495.13-.743.589-3.358.76-6.834 2.275-9.868 3.536-7.123 10.419-5.303 11.468 1.266.08.509.125 1.023.136 1.538.159 8.313-3.141 16.438-1.632 24.78.425 2.035.96 4.045 1.603 6.021.53 1.821 1.007 3.665 1.373 5.533.74 3.475.885 7.051.43 10.575z" fill="#BE6F72"/><path d="M590.121 287.18c.16 3.405 0 6.852.684 10.192 1.597 7.895 7.662 14.883 6.99 22.907-.165 1.956-.89 4.059-2.599 5.025-1.709.967-4.538.89-5.098 2.834-.159.542-.077 1.131-.253 1.668-.372 1.143-1.769 1.632-2.947 1.602-1.179-.029-2.358-.418-3.578-.318-4.272.359-5.84 6.074-9.647 8.036-2.564 1.32-5.894.589-8.01-1.361-2.115-1.95-3.041-4.99-2.876-7.871.124-2.174.814-4.271 1.179-6.416.666-3.824.318-7.742-.029-11.606-.513-5.662-1.043-11.395-2.906-16.762-.878-2.533-2.045-4.955-2.805-7.524-1.084-3.635-1.332-7.458-1.444-11.247-.23-7.971.318-16.496 5.08-22.906 3.578-4.808 8.705-8.714 12.754-13.162 2.534-2.787 3.265-3.659 6.064-1.296 2.304 1.938 4.715 4.613 4.974 7.241.707 6.734 0 13.356 1.261 20.214 1.262 6.858 2.876 13.709 3.206 20.75z" fill="#6C63FF"/><path d="M528.994 157.418c16.6 0 30.057-13.453 30.057-30.048 0-16.594-13.457-30.047-30.057-30.047-16.6 0-30.056 13.453-30.056 30.047 0 16.595 13.456 30.048 30.056 30.048z" fill="#BE6F72"/><path d="M556.517 184.849c.66-.925 1.443-1.921 2.563-2.115a4.476 4.476 0 012.44.512l7.915 3.305a25.825 25.825 0 003.678-11.641c.165-2.528-.036-5.091.448-7.577.719-3.688 2.905-6.993 3.412-10.717.401-3.004-.324-6.027-.76-9.026-1.344-9.261.1-18.711-.672-28.038-.772-9.326-4.515-19.318-12.836-23.602-2.358-1.178-4.898-1.885-7.349-2.816-5.464-2.08-10.361-5.408-15.76-7.659-5.398-2.25-11.74-3.281-16.973-.695-5.233 2.586-8.28 9.862-4.88 14.611 1.12 1.561 2.758 2.669 4.326 3.794 3.188 2.28 6.442 5.097 7.178 8.95 1.32 6.934-5.893 12.372-7.926 19.153a16.278 16.278 0 00-.195 8.125c.878 4.018 3.023 7.812 2.947 11.924-.059 4.507-2.758 8.59-3.265 13.074-.183 1.644-.071 3.311-.277 4.949a25.507 25.507 0 01-1.904 6.262c-4.715 11.784-9.494 23.691-16.502 34.284a45.43 45.43 0 0021.588-5.044 35.654 35.654 0 01-5.404 12.691 40.914 40.914 0 0016.891-5.892 54.861 54.861 0 01-5.363 12.732c.2-.342 3.907-1.178 4.591-1.567a8.001 8.001 0 003.241-3.458c2.004-3.583 3.253-7.901 5.11-11.625a169.256 169.256 0 0113.738-22.894zM328.568 4.537a27.905 27.905 0 01-4.296.1.936.936 0 00-1.032.813L320.5 26a8.345 8.345 0 01-1.768 4.07 8.878 8.878 0 00-1.998 6.782V71.76s-.177 4.654 3.4 4.654c4.282.538 8.614.538 12.895 0 0 0 2.865-.542 2.865-4.837V37.205a8.417 8.417 0 00-1.768-6.834 8.546 8.546 0 01-1.715-4.047l-2.847-20.98a.935.935 0 00-.996-.808z" fill="#3F3D56"/><path d="M328.586 37.476h-4.344a6.511 6.511 0 00-6.512 6.51v16.338a6.511 6.511 0 006.512 6.51h4.344a6.51 6.51 0 006.512-6.51V43.987a6.51 6.51 0 00-6.512-6.51z" fill="#6C63FF"/><path d="M369.234 34.584a27.912 27.912 0 01-4.297.1.938.938 0 00-1.031.813l-2.741 20.55a8.327 8.327 0 01-1.768 4.07 8.876 8.876 0 00-1.998 6.781v34.909s-.176 4.654 3.401 4.654c4.281.538 8.613.538 12.895 0 0 0 2.864-.542 2.864-4.837V67.253a8.397 8.397 0 00-1.768-6.834 8.556 8.556 0 01-1.715-4.048l-2.846-20.98a.94.94 0 00-.996-.807z" fill="#3F3D56"/><path d="M369.251 67.524h-4.344a6.511 6.511 0 00-6.512 6.51V90.37a6.511 6.511 0 006.512 6.51h4.344a6.511 6.511 0 006.512-6.51V74.034a6.511 6.511 0 00-6.512-6.51z" fill="#6C63FF"/><g opacity=".2"><path opacity=".2" d="M323.523 386.624a11.226 11.226 0 01-.218 1.891 396.557 396.557 0 00-12.376-1.767v-.507a9.944 9.944 0 011.473-4.996c1.214-1.921 3.059-3.122 5.092-3.058 2.033.065 3.795 1.379 4.886 3.364a9.945 9.945 0 011.143 5.073z" fill="#3F3D56"/><path opacity=".2" d="M323.854 376.564c.144-4.557-2.561-8.34-6.042-8.45-3.481-.11-6.42 3.495-6.564 8.051-.144 4.557 2.561 8.339 6.042 8.449 3.481.11 6.42-3.494 6.564-8.05z" fill="#3F3D56"/><path opacity=".2" d="M324.176 366.477c.144-4.557-2.561-8.339-6.042-8.449-3.481-.11-6.42 3.494-6.564 8.051-.144 4.556 2.561 8.339 6.042 8.449 3.481.11 6.42-3.495 6.564-8.051z" fill="#3F3D56"/><path opacity=".2" d="M324.491 356.39c.144-4.556-2.561-8.339-6.042-8.449-3.481-.11-6.42 3.495-6.564 8.051-.144 4.556 2.561 8.339 6.042 8.449 3.481.11 6.42-3.494 6.564-8.051z" fill="#3F3D56"/><path opacity=".2" d="M324.813 346.303c.144-4.556-2.561-8.339-6.042-8.449-3.481-.11-6.42 3.495-6.564 8.051-.144 4.557 2.561 8.339 6.042 8.449 3.481.11 6.42-3.494 6.564-8.051z" fill="#3F3D56"/><path opacity=".2" d="M297.062 276.31a29.224 29.224 0 01-2.24-3.535l16.655-2.198-17.928-.43a30.249 30.249 0 01.183-23.943l23.645 13.227-21.659-16.992a30.212 30.212 0 0119.846-13.751 30.24 30.24 0 0123.587 5.171 30.211 30.211 0 0111.241 33.077 30.219 30.219 0 01-5.852 10.853 29.967 29.967 0 013.271 5.614l-21.859 10.487 23.179-6.969a30.24 30.24 0 01-5.788 28.226 30.208 30.208 0 01-9.106 44.025 30.225 30.225 0 01-42.81-13.766 30.199 30.199 0 014.438-31.755 30.207 30.207 0 011.179-37.341h.018z" fill="#6C63FF"/><path opacity=".1" d="M350.415 296.683a30.036 30.036 0 01-7.072 18.464 30.2 30.2 0 012.429 31.972 30.225 30.225 0 01-54.345-1.712 30.201 30.201 0 014.438-31.756c-3.872-5.261 54.657-20.356 54.55-16.968z" fill="#000"/></g></g><defs><clipPath id="clip0"><path fill="#fff" d="M0 0h669v420H0z"/></clipPath></defs></svg>