<svg fill="none" stroke-linecap="square" stroke-miterlimit="10" width="600" height="371" xmlns="http://www.w3.org/2000/svg"><path fill="#fff" d="M0 0h600v371H0V0z"/><path stroke="#333" stroke-linecap="butt" d="M55.5 331.5h526"/><path stroke="#fff" stroke-linecap="butt" d="M55.5 277.5h526m-526-54h526m-526-55h526m-526-54h526m-526-54h526"/><clipPath id="a"><path d="M55.55 60.417h525.9V331.45H55.55V60.417z"/></clipPath><path clip-path="url(#a)" d="M280 331H135v-52a2 2 0 012-2h141a2 2 0 012 2z"/><path fill="#3b61e3" clip-path="url(#a)" d="M280 331H135v-52a2 2 0 012-2h141a2 2 0 012 2z"/><path clip-path="url(#a)" d="M503 331H358V106a2 2 0 012-2h141a2 2 0 012 2z"/><path fill="#3b61e3" clip-path="url(#a)" d="M503 331H358V106a2 2 0 012-2h141a2 2 0 012 2z"/><path stroke="#3b61e3" stroke-width="3" stroke-linejoin="round" stroke-linecap="round" d="M195.86 307.69q0-.906-.641-1.515-.625-.625-2.11-1.125-2.078-.625-3.03-1.64-.954-1.032-.954-2.595 0-1.609.922-2.625.937-1.03 2.578-1.234v-2.14h1.453v2.156q1.64.218 2.547 1.375.922 1.156.922 3.156h-1.797q0-1.375-.656-2.188-.656-.812-1.766-.812-1.172 0-1.797.61-.61.593-.61 1.671 0 .985.657 1.578.656.594 2.14 1.078 1.485.485 2.313 1.063.844.578 1.235 1.36.406.765.406 1.796 0 1.656-1 2.672-.984 1-2.781 1.188v1.859h-1.438v-1.86q-1.812-.171-2.844-1.296-1.03-1.125-1.03-3.063h1.796q0 1.36.719 2.094.719.719 2.015.719 1.282 0 2.016-.61t.734-1.672zm4.656-3.468l.718-7.094h7.282v1.672h-5.75l-.422 3.875q1.047-.61 2.375-.61 1.937 0 3.078 1.282 1.14 1.28 1.14 3.468 0 2.204-1.187 3.47-1.188 1.265-3.313 1.265-1.89 0-3.078-1.047-1.187-1.047-1.359-2.89h1.719q.156 1.218.86 1.843.702.61 1.858.61 1.266 0 1.985-.86.719-.86.719-2.375 0-1.422-.782-2.281-.78-.875-2.062-.875-1.188 0-1.86.515l-.484.391-1.437-.36zm13.062-7.094l4.64 11.594 4.657-11.594h2.422v14.219h-1.875v-5.532l.187-5.984-4.672 11.516H217.5l-4.656-11.485.187 5.953v5.532h-1.875v-14.22h2.422z"/><path fill="#fff" d="M195.86 307.69q0-.906-.641-1.515-.625-.625-2.11-1.125-2.078-.625-3.03-1.64-.954-1.032-.954-2.595 0-1.609.922-2.625.937-1.03 2.578-1.234v-2.14h1.453v2.156q1.64.218 2.547 1.375.922 1.156.922 3.156h-1.797q0-1.375-.656-2.188-.656-.812-1.766-.812-1.172 0-1.797.61-.61.593-.61 1.671 0 .985.657 1.578.656.594 2.14 1.078 1.485.485 2.313 1.063.844.578 1.235 1.36.406.765.406 1.796 0 1.656-1 2.672-.984 1-2.781 1.188v1.859h-1.438v-1.86q-1.812-.171-2.844-1.296-1.03-1.125-1.03-3.063h1.796q0 1.36.719 2.094.719.719 2.015.719 1.282 0 2.016-.61t.734-1.672zm4.656-3.468l.718-7.094h7.282v1.672h-5.75l-.422 3.875q1.047-.61 2.375-.61 1.937 0 3.078 1.282 1.14 1.28 1.14 3.468 0 2.204-1.187 3.47-1.188 1.265-3.313 1.265-1.89 0-3.078-1.047-1.187-1.047-1.359-2.89h1.719q.156 1.218.86 1.843.702.61 1.858.61 1.266 0 1.985-.86.719-.86.719-2.375 0-1.422-.782-2.281-.78-.875-2.062-.875-1.188 0-1.86.515l-.484.391-1.437-.36zm13.062-7.094l4.64 11.594 4.657-11.594h2.422v14.219h-1.875v-5.532l.187-5.984-4.672 11.516H217.5l-4.656-11.485.187 5.953v5.532h-1.875v-14.22h2.422z"/><path stroke="#3b61e3" stroke-width="3" stroke-linejoin="round" stroke-linecap="round" d="M413.36 220.96q0-.906-.641-1.516-.625-.625-2.11-1.125-2.078-.625-3.03-1.64-.954-1.032-.954-2.594 0-1.61.922-2.625.937-1.031 2.578-1.235v-2.14h1.453v2.156q1.64.219 2.547 1.375.922 1.156.922 3.156h-1.797q0-1.375-.656-2.187-.656-.813-1.766-.813-1.172 0-1.797.61-.61.593-.61 1.672 0 .984.657 1.578.656.593 2.14 1.078 1.485.484 2.313 1.062.844.578 1.235 1.36.406.765.406 1.797 0 1.656-1 2.671-.985 1-2.781 1.188v1.86h-1.438v-1.86q-1.812-.172-2.844-1.297-1.03-1.125-1.03-3.063h1.796q0 1.36.719 2.094.719.719 2.015.719 1.282 0 2.016-.61.734-.609.734-1.671zm13.14 3.656h-9.313v-1.297l4.922-5.469q1.094-1.25 1.5-2.015.422-.781.422-1.61 0-1.109-.672-1.828-.671-.718-1.796-.718-1.36 0-2.11.78-.734.766-.734 2.126h-1.813q0-1.969 1.266-3.172 1.265-1.219 3.39-1.219 1.985 0 3.125 1.047 1.157 1.047 1.157 2.766 0 2.109-2.672 5l-3.813 4.14h7.141v1.469zm7.625 0h-1.828v-12.047l-3.64 1.344v-1.64l5.187-1.938h.281v14.281zm7.953-14.219l4.64 11.594 4.657-11.594h2.422v14.219h-1.875v-5.531l.187-5.985-4.671 11.516H446l-4.656-11.484.187 5.953v5.531h-1.875v-14.219h2.422z"/><path fill="#fff" d="M413.36 220.96q0-.906-.641-1.516-.625-.625-2.11-1.125-2.078-.625-3.03-1.64-.954-1.032-.954-2.594 0-1.61.922-2.625.937-1.031 2.578-1.235v-2.14h1.453v2.156q1.64.219 2.547 1.375.922 1.156.922 3.156h-1.797q0-1.375-.656-2.187-.656-.813-1.766-.813-1.172 0-1.797.61-.61.593-.61 1.672 0 .984.657 1.578.656.593 2.14 1.078 1.485.484 2.313 1.062.844.578 1.235 1.36.406.765.406 1.797 0 1.656-1 2.671-.985 1-2.781 1.188v1.86h-1.438v-1.86q-1.812-.172-2.844-1.297-1.03-1.125-1.03-3.063h1.796q0 1.36.719 2.094.719.719 2.015.719 1.282 0 2.016-.61.734-.609.734-1.671zm13.14 3.656h-9.313v-1.297l4.922-5.469q1.094-1.25 1.5-2.015.422-.781.422-1.61 0-1.109-.672-1.828-.671-.718-1.796-.718-1.36 0-2.11.78-.734.766-.734 2.126h-1.813q0-1.969 1.266-3.172 1.265-1.219 3.39-1.219 1.985 0 3.125 1.047 1.157 1.047 1.157 2.766 0 2.109-2.672 5l-3.813 4.14h7.141v1.469zm7.625 0h-1.828v-12.047l-3.64 1.344v-1.64l5.187-1.938h.281v14.281zm7.953-14.219l4.64 11.594 4.657-11.594h2.422v14.219h-1.875v-5.531l.187-5.985-4.671 11.516H446l-4.656-11.484.187 5.953v5.531h-1.875v-14.219h2.422z"/><path fill="#000" d="M30.566 333.747q0-.531-.375-.89-.375-.376-1.282-.688-1.25-.375-1.828-.985-.562-.609-.562-1.562 0-.953.562-1.563.563-.625 1.547-.734v-1.297h.86v1.297q.984.14 1.53.828.563.688.563 1.89h-1.078q0-.827-.406-1.312-.39-.484-1.047-.484-.703 0-1.078.36-.36.359-.36 1 0 .593.391.952.39.36 1.281.657.891.28 1.391.64.5.344.734.813.235.453.235 1.078 0 .984-.594 1.594-.594.593-1.656.703v1.125h-.875v-1.125q-1.094-.094-1.719-.766-.61-.687-.61-1.844h1.094q0 .813.422 1.25.422.438 1.219.438.766 0 1.203-.36.438-.375.438-1.015zm8.046-1.438q0 1.907-.656 2.844-.64.922-2.031.922-1.36 0-2.016-.906-.656-.906-.687-2.719v-1.438q0-1.89.64-2.796.657-.922 2.047-.922 1.375 0 2.032.89.656.875.671 2.72v1.405zm-1.093-1.484q0-1.375-.39-2-.376-.64-1.22-.64-.828 0-1.218.64-.375.625-.375 1.922v1.734q0 1.375.39 2.047.406.656 1.219.656.797 0 1.188-.625.39-.625.406-1.953v-1.781zm4.468-3.406l2.797 6.953 2.782-6.953h1.468v8.531H47.91v-3.328l.11-3.578-2.813 6.906h-.86l-2.796-6.89.11 3.562v3.328h-1.126v-8.531h1.453zM30.566 279.54q0-.531-.375-.89-.375-.375-1.282-.688-1.25-.375-1.828-.984-.562-.61-.562-1.563t.562-1.562q.563-.625 1.547-.735v-1.297h.86v1.297q.984.141 1.53.828.563.688.563 1.891h-1.078q0-.828-.406-1.312-.39-.485-1.047-.485-.703 0-1.078.36-.36.359-.36 1 0 .593.391.953.39.36 1.281.656.891.281 1.391.64.5.344.734.813.235.453.235 1.078 0 .985-.594 1.594-.594.594-1.656.703v1.125h-.875v-1.125q-1.094-.094-1.719-.766-.61-.687-.61-1.843h1.094q0 .812.422 1.25.422.437 1.219.437.766 0 1.203-.36.438-.374.438-1.015zm3.187-2.078l.438-4.25h4.375v1h-3.454l-.265 2.328q.64-.375 1.437-.375 1.157 0 1.844.781.688.766.688 2.079 0 1.312-.72 2.078-.702.765-1.983.765-1.126 0-1.844-.625-.719-.64-.813-1.75h1.016q.11.735.531 1.11.422.375 1.11.375.75 0 1.187-.516.438-.516.438-1.422 0-.86-.47-1.375-.468-.515-1.25-.515-.702 0-1.109.296l-.28.235-.876-.219zm8.234-4.25l2.797 6.953 2.782-6.953h1.468v8.531H47.91v-3.328l.11-3.578-2.813 6.906h-.86l-2.796-6.89.11 3.562v3.328h-1.126v-8.53h1.453zm-18.421-47.878q0-.532-.375-.891-.375-.375-1.282-.688-1.25-.375-1.828-.984-.562-.61-.562-1.562 0-.954.562-1.563.563-.625 1.547-.734v-1.297h.86v1.297q.984.14 1.53.828.563.687.563 1.89h-1.078q0-.828-.406-1.312-.39-.484-1.047-.484-.703 0-1.078.359-.36.36-.36 1 0 .594.391.953.39.36 1.281.656.891.282 1.391.64.5.345.734.813.235.454.235 1.079 0 .984-.594 1.593-.594.594-1.656.703v1.125h-.875v-1.125q-1.094-.093-1.719-.765-.61-.688-.61-1.844h1.094q0 .813.422 1.25.422.438 1.219.438.766 0 1.203-.36.438-.375.438-1.015zm6.25 2.203h-1.078v-7.22l-2.188.798v-.985l3.11-1.171h.156v8.578zm8.796-3.641q0 1.906-.656 2.844-.64.922-2.031.922-1.36 0-2.016-.907-.656-.906-.687-2.718v-1.438q0-1.89.64-2.797.657-.922 2.047-.922 1.375 0 2.032.891.656.875.671 2.719v1.406zm-1.093-1.484q0-1.375-.39-2-.376-.641-1.22-.641-.828 0-1.218.64-.375.626-.375 1.923v1.734q0 1.375.39 2.047.406.656 1.219.656.797 0 1.188-.625.39-.625.406-1.953v-1.781zm4.468-3.407l2.797 6.954 2.782-6.954h1.468v8.532H47.91v-3.328l.11-3.579-2.813 6.907h-.86l-2.796-6.891.11 3.563v3.328h-1.126v-8.532h1.453zm-18.421-47.878q0-.531-.375-.89-.375-.376-1.282-.688-1.25-.375-1.828-.985-.562-.609-.562-1.562 0-.953.562-1.563.563-.625 1.547-.734v-1.297h.86v1.297q.984.14 1.53.828.563.688.563 1.89h-1.078q0-.827-.406-1.312-.39-.484-1.047-.484-.703 0-1.078.36-.36.359-.36 1 0 .593.391.952.39.36 1.281.657.891.28 1.391.64.5.344.734.813.235.453.235 1.078 0 .984-.594 1.594-.594.593-1.656.703v1.125h-.875v-1.125q-1.094-.094-1.719-.766-.61-.687-.61-1.844h1.094q0 .813.422 1.25.422.438 1.219.438.766 0 1.203-.36.438-.374.438-1.015zm6.25 2.203h-1.078v-7.219l-2.188.797v-.984l3.11-1.172h.156v8.578zm3.937-4.281l.438-4.25h4.375v1h-3.454l-.265 2.328q.64-.375 1.437-.375 1.157 0 1.844.781.688.766.688 2.078 0 1.313-.72 2.078-.702.766-1.983.766-1.126 0-1.844-.625-.719-.64-.813-1.75h1.016q.11.734.531 1.11.422.374 1.11.374.75 0 1.187-.515.438-.516.438-1.422 0-.86-.47-1.375-.468-.516-1.25-.516-.702 0-1.109.297l-.28.235-.876-.22zm8.234-4.25l2.797 6.953 2.782-6.953h1.468v8.531H47.91v-3.328l.11-3.578-2.813 6.906h-.86l-2.796-6.89.11 3.562v3.328h-1.126v-8.531h1.453zM23.566 116.92q0-.531-.375-.89-.375-.375-1.282-.688-1.25-.375-1.828-.984-.562-.61-.562-1.563t.562-1.562q.563-.625 1.547-.735v-1.297h.86v1.297q.984.141 1.53.828.563.688.563 1.891h-1.078q0-.828-.406-1.312-.39-.485-1.047-.485-.703 0-1.078.36-.36.359-.36 1 0 .593.391.953.39.36 1.281.656.891.281 1.391.64.5.344.734.813.235.453.235 1.078 0 .985-.594 1.594-.594.594-1.656.703v1.125h-.875v-1.125q-1.094-.094-1.719-.766-.61-.687-.61-1.843h1.094q0 .812.422 1.25.422.437 1.219.437.766 0 1.203-.36.438-.374.438-1.015zm8.28 2.203h-5.593v-.78l2.953-3.282q.657-.75.907-1.203.25-.469.25-.969 0-.672-.407-1.094-.39-.437-1.078-.437-.797 0-1.25.468-.453.454-.453 1.282h-1.078q0-1.188.75-1.907.765-.734 2.031-.734 1.203 0 1.89.625.688.625.688 1.672 0 1.25-1.61 3l-2.28 2.469h4.28v.89zm6.766-3.64q0 1.906-.656 2.843-.64.922-2.031.922-1.36 0-2.016-.906-.656-.906-.687-2.719v-1.437q0-1.89.64-2.797.657-.922 2.047-.922 1.375 0 2.032.89.656.876.671 2.72v1.406zm-1.093-1.485q0-1.375-.39-2-.376-.64-1.22-.64-.828 0-1.218.64-.375.625-.375 1.922v1.735q0 1.375.39 2.046.406.657 1.219.657.797 0 1.188-.625.39-.625.406-1.953v-1.782zm4.468-3.406l2.797 6.953 2.782-6.953h1.468v8.531H47.91v-3.328l.11-3.578-2.813 6.906h-.86l-2.796-6.89.11 3.562v3.328h-1.126v-8.53h1.453zM23.566 62.714q0-.532-.375-.891-.375-.375-1.282-.688-1.25-.375-1.828-.984-.562-.61-.562-1.562 0-.954.562-1.563.563-.625 1.547-.734v-1.297h.86v1.297q.984.14 1.53.828.563.687.563 1.89h-1.078q0-.828-.406-1.312-.39-.484-1.047-.484-.703 0-1.078.359-.36.36-.36 1 0 .594.391.953.39.36 1.281.656.891.282 1.391.64.5.345.734.813.235.454.235 1.079 0 .984-.594 1.593-.594.594-1.656.703v1.125h-.875V65.01q-1.094-.093-1.719-.765-.61-.688-.61-1.844h1.094q0 .813.422 1.25.422.438 1.219.438.766 0 1.203-.36.438-.375.438-1.015zm8.28 2.203h-5.593v-.782l2.953-3.28q.657-.75.907-1.204.25-.469.25-.969 0-.672-.407-1.093-.39-.438-1.078-.438-.797 0-1.25.469-.453.453-.453 1.281h-1.078q0-1.187.75-1.906.765-.735 2.031-.735 1.203 0 1.89.625.688.625.688 1.672 0 1.25-1.61 3l-2.28 2.469h4.28v.89zm1.907-4.282l.438-4.25h4.375v1h-3.454l-.265 2.329q.64-.375 1.437-.375 1.157 0 1.844.78.688.766.688 2.079 0 1.312-.72 2.078-.702.766-1.983.766-1.126 0-1.844-.625-.719-.641-.813-1.75h1.016q.11.734.531 1.109.422.375 1.11.375.75 0 1.187-.516.438-.515.438-1.421 0-.86-.47-1.375-.468-.516-1.25-.516-.702 0-1.109.297l-.28.234-.876-.219zm8.234-4.25l2.797 6.954 2.782-6.954h1.468v8.532H47.91v-3.328l.11-3.579-2.813 6.907h-.86l-2.796-6.891.11 3.563v3.328h-1.126v-8.532h1.453zM198.903 349.45h-5.593v-.781l2.953-3.281q.656-.75.906-1.204.25-.468.25-.968 0-.672-.406-1.094-.391-.438-1.078-.438-.797 0-1.25.47-.454.452-.454 1.28h-1.078q0-1.187.75-1.906.766-.734 2.032-.734 1.203 0 1.89.625.688.625.688 1.672 0 1.25-1.61 3l-2.281 2.468h4.281v.891zm6.766-3.64q0 1.906-.656 2.843-.641.922-2.032.922-1.359 0-2.015-.906-.656-.906-.688-2.719v-1.438q0-1.89.64-2.796.657-.922 2.048-.922 1.375 0 2.031.89.656.875.672 2.72v1.405zm-1.094-1.485q0-1.375-.39-2-.375-.64-1.22-.64-.827 0-1.218.64-.375.625-.375 1.922v1.734q0 1.375.39 2.047.407.656 1.22.656.796 0 1.187-.625.39-.625.406-1.953v-1.781zm6.297 5.125h-1.078v-7.219l-2.188.797v-.984l3.11-1.172h.156v8.578zm8.625-6.313q0 .641-.344 1.141-.343.5-.906.781.656.282 1.047.844.39.547.39 1.25 0 1.094-.75 1.766-.734.656-1.953.656-1.234 0-1.984-.656-.734-.672-.734-1.766 0-.703.375-1.25.375-.562 1.047-.844-.563-.28-.891-.78-.328-.5-.328-1.142 0-1.078.687-1.703.688-.64 1.828-.64 1.125 0 1.813.64.703.625.703 1.703zm-.89 3.985q0-.719-.454-1.156-.453-.454-1.187-.454-.735 0-1.188.454-.437.437-.437 1.171 0 .72.437 1.141.438.406 1.203.406.75 0 1.188-.422.437-.421.437-1.14zm-1.626-5.438q-.64 0-1.046.407-.391.39-.391 1.078 0 .64.39 1.047.391.406 1.032.406.656 0 1.047-.406.39-.407.39-1.047 0-.656-.406-1.063-.406-.422-1.016-.422zm205.709 7.766h-5.593v-.781l2.953-3.281q.656-.75.906-1.204.25-.468.25-.968 0-.672-.406-1.094-.39-.438-1.078-.438-.797 0-1.25.47-.453.452-.453 1.28h-1.079q0-1.187.75-1.906.766-.734 2.032-.734 1.203 0 1.89.625.688.625.688 1.672 0 1.25-1.61 3l-2.28 2.468h4.28v.891zm6.766-3.64q0 1.906-.656 2.843-.64.922-2.031.922-1.36 0-2.016-.906-.656-.906-.688-2.719v-1.438q0-1.89.641-2.796.656-.922 2.047-.922 1.375 0 2.031.89.656.875.672 2.72v1.405zm-1.094-1.485q0-1.375-.39-2-.375-.64-1.219-.64-.828 0-1.219.64-.375.625-.375 1.922v1.734q0 1.375.39 2.047.407.656 1.22.656.796 0 1.187-.625.39-.625.406-1.953v-1.781zm6.297 5.125h-1.078v-7.219l-2.187.797v-.984l3.109-1.172h.156v8.578zm7.594-3.75q-.328.406-.813.656-.468.235-1.03.235-.735 0-1.282-.36t-.844-1.015q-.297-.672-.297-1.47 0-.843.313-1.53.328-.688.922-1.047.61-.375 1.406-.375 1.266 0 1.984.953.735.953.735 2.578v.313q0 2.5-.985 3.64-.984 1.14-2.968 1.172h-.22v-.906h.235q1.344-.031 2.063-.703.719-.672.781-2.141zm-1.672 0q.547 0 1-.328.469-.344.688-.828v-.438q0-1.062-.47-1.734-.468-.672-1.171-.672-.719 0-1.156.547-.422.547-.422 1.453 0 .875.406 1.438.422.562 1.125.562zM236.172 22.753l4.172 10.438 4.187-10.438h2.188V35.55h-1.688v-4.984l.156-5.375-4.203 10.359h-1.28L235.5 25.206l.172 5.36v4.984h-1.688V22.753h2.188zm17.5 12.969q-1.922 0-3.14-1.266-1.22-1.265-1.22-3.39v-.313q0-1.406.547-2.515.547-1.11 1.516-1.735.969-.64 2.094-.64 1.86 0 2.89 1.218 1.032 1.219 1.032 3.5v.672h-6.454q.047 1.406.829 2.281.78.86 2 .86.859 0 1.453-.344.61-.36 1.047-.938l1 .782q-1.204 1.828-3.594 1.828zm-.203-8.516q-.985 0-1.656.719-.657.703-.813 2h4.766V29.8q-.078-1.234-.672-1.906-.594-.688-1.625-.688zm7.797-1.172l.03 1.063q1.048-1.235 2.829-1.235 2 0 2.719 1.532.469-.688 1.234-1.11.766-.421 1.797-.421 3.125 0 3.188 3.312v6.375h-1.641v-6.281q0-1.016-.469-1.516-.453-.515-1.547-.515-.906 0-1.515.546-.594.547-.688 1.454v6.312h-1.64v-6.234q0-2.078-2.032-2.078-1.594 0-2.187 1.375v6.937h-1.625v-9.516h1.547zm22.515 4.86q0 2.187-1 3.515-1 1.313-2.687 1.313-1.813 0-2.797-1.266l-.078 1.094h-1.485v-13.5h1.625v5.031q.985-1.218 2.704-1.218 1.734 0 2.718 1.312 1 1.313 1 3.578v.14zm-1.625-.172q0-1.672-.64-2.578-.641-.906-1.844-.906-1.61 0-2.313 1.5v4.109q.75 1.5 2.329 1.5 1.171 0 1.812-.906.656-.907.656-2.72zm7.516 5q-1.922 0-3.14-1.266-1.22-1.265-1.22-3.39v-.313q0-1.406.547-2.515.547-1.11 1.516-1.735.969-.64 2.094-.64 1.86 0 2.89 1.218 1.032 1.219 1.032 3.5v.672h-6.454q.047 1.406.829 2.281.78.86 2 .86.859 0 1.453-.344.61-.36 1.047-.938l1 .782q-1.204 1.828-3.594 1.828zm-.203-8.516q-.985 0-1.656.719-.657.703-.813 2h4.766V29.8q-.079-1.234-.672-1.906-.594-.688-1.625-.688zm10.86.297q-.376-.062-.798-.062-1.61 0-2.172 1.359v6.75h-1.625v-9.516h1.579l.03 1.11q.798-1.281 2.266-1.281.47 0 .72.125v1.515zm9.421 2.344q-2.172-.625-3.156-1.531-.985-.907-.985-2.25 0-1.516 1.204-2.5 1.218-.985 3.14-.985 1.328 0 2.36.516 1.03.5 1.593 1.406.563.89.563 1.953h-1.688q0-1.156-.75-1.812-.734-.672-2.078-.672-1.25 0-1.953.547-.688.547-.688 1.515 0 .782.657 1.329.672.546 2.265 1 1.594.437 2.485.984.906.531 1.344 1.25.437.719.437 1.703 0 1.547-1.219 2.484-1.203.938-3.234.938-1.313 0-2.469-.5-1.14-.5-1.765-1.375-.61-.89-.61-2h1.703q0 1.156.844 1.828.86.672 2.297.672 1.328 0 2.047-.547.719-.547.719-1.484 0-.938-.672-1.454-.657-.515-2.391-1.015zm12.86 5.703q-.141-.281-.235-1-1.14 1.172-2.703 1.172-1.406 0-2.313-.797-.906-.797-.906-2.016 0-1.484 1.125-2.296 1.14-.829 3.188-.829h1.578v-.75q0-.843-.516-1.343-.5-.516-1.5-.516-.86 0-1.453.438-.594.437-.594 1.062h-1.625q0-.703.5-1.36.5-.671 1.36-1.062.875-.39 1.921-.39 1.641 0 2.563.828.938.812.969 2.265v4.375q0 1.297.344 2.078v.141h-1.704zm-2.704-1.234q.766 0 1.453-.391.688-.406.985-1.031V30.94h-1.266q-3 0-3 1.75 0 .765.516 1.203.515.422 1.312.422zm9.969-.97l2.344-7.312h1.672l-3.422 9.516h-1.235l-3.437-9.516h1.656l2.422 7.313zm7.625 2.204h-1.625v-9.516h1.625v9.516zm-1.766-12.031q0-.39.235-.656.25-.282.719-.282.484 0 .734.282.25.265.25.656 0 .39-.25.656t-.735.266q-.468 0-.718-.266-.235-.266-.235-.656zm5.532 2.515l.062 1.204q1.078-1.375 2.844-1.375 3.015 0 3.031 3.406v6.281h-1.625v-6.297q0-1.031-.469-1.515-.453-.5-1.437-.5-.781 0-1.39.421-.594.422-.923 1.11v6.781h-1.625v-9.516h1.532zm8.078 4.688q0-2.235 1.031-3.547 1.031-1.313 2.719-1.313 1.75 0 2.719 1.235l.078-1.063h1.484v9.282q0 1.859-1.094 2.921-1.094 1.063-2.937 1.063-1.031 0-2.016-.453-.984-.438-1.5-1.203l.844-.969q1.047 1.297 2.562 1.297 1.188 0 1.844-.672.672-.672.672-1.875v-.828q-.984 1.125-2.672 1.125-1.672 0-2.703-1.344t-1.031-3.656zm1.64.172q0 1.61.657 2.531.656.922 1.843.922 1.532 0 2.266-1.406v-4.329q-.75-1.374-2.25-1.374-1.188 0-1.86.937-.656.922-.656 2.719zm14.282 2.14q0-.672-.5-1.03-.485-.36-1.72-.626-1.233-.265-1.968-.625-.719-.375-1.078-.89-.344-.516-.344-1.22 0-1.155.985-1.968 1-.813 2.53-.813 1.626 0 2.626.844 1.015.828 1.015 2.125h-1.64q0-.672-.578-1.14-.563-.485-1.422-.485-.89 0-1.39.39-.5.376-.5 1 0 .595.468.892.469.296 1.688.578 1.218.265 1.968.64.766.375 1.125.907.36.53.36 1.296 0 1.282-1.016 2.047-1.016.766-2.64.766-1.141 0-2.032-.406-.875-.407-1.375-1.125-.5-.72-.5-1.563h1.64q.032.813.641 1.297.625.469 1.625.469.922 0 1.47-.375.562-.375.562-.985z"/></svg>