<svg xmlns="http://www.w3.org/2000/svg" fill="none" stroke-linecap="square" stroke-miterlimit="10" width="600" height="371"><path fill="#fff" d="M0 0h600v371H0V0z"/><path stroke="#333" stroke-linecap="butt" d="M47.5 331.5h534"/><path stroke="#fff" stroke-linecap="butt" d="M47.5 262.5h534m-534-69h534m-534-68h534m-534-69h534"/><clipPath id="a"><path d="M47.55 56.417h533.9V331.45H47.55V56.417z"/></clipPath><path clip-path="url(#a)" d="M275 331H127V111h148z"/><path fill="#d9d9d9" clip-path="url(#a)" d="M275 331H127V111h148z"/><path clip-path="url(#a)" d="M502 331H354V194h148z"/><path fill="#d9d9d9" clip-path="url(#a)" d="M502 331H354V194h148z"/><path clip-path="url(#a)" d="M275 111H127h148z"/><path fill="#3b61e3" clip-path="url(#a)" d="M275 111H127h148z"/><path clip-path="url(#a)" d="M502 194H354v-81a2 2 0 012-2h144a2 2 0 012 2z"/><path clip-path="url(#a)" d="M502 194H354v-81a2 2 0 012-2h144a2 2 0 012 2z" fill="#3b61e3"/><path stroke="#d9d9d9" stroke-width="3" stroke-linejoin="round" stroke-linecap="round" d="M427.406 268.192h-7.453v-1.047l3.938-4.375q.875-.985 1.203-1.61.328-.625.328-1.28 0-.891-.547-1.454-.531-.578-1.422-.578-1.078 0-1.687.61-.594.609-.594 1.702h-1.438q0-1.562 1-2.53 1.016-.97 2.72-.97 1.577 0 2.5.829.921.828.921 2.218 0 1.672-2.14 4l-3.048 3.297h5.72v1.188zm8.672-4.86q0 2.547-.875 3.782-.86 1.234-2.703 1.234-1.813 0-2.688-1.203-.875-1.219-.906-3.61v-1.937q0-2.5.86-3.719.875-1.219 2.718-1.219 1.844 0 2.704 1.172.875 1.172.89 3.625v1.875zm-1.437-1.968q0-1.844-.516-2.672-.516-.844-1.64-.844-1.11 0-1.626.844-.5.828-.515 2.562v2.313q0 1.843.531 2.718.547.875 1.625.875 1.078 0 1.594-.828.515-.828.547-2.61v-2.358z"/><path stroke="#3b61e3" stroke-width="3" stroke-linejoin="round" stroke-linecap="round" d="M424.703 158.178h-1.453v-9.64l-2.922 1.078v-1.313l4.14-1.562h.235v11.437zm11.703 0h-7.453v-1.047l3.938-4.375q.875-.984 1.203-1.609.328-.625.328-1.281 0-.89-.547-1.453-.531-.578-1.422-.578-1.078 0-1.687.609-.594.61-.594 1.703h-1.438q0-1.562 1-2.531 1.016-.969 2.72-.969 1.577 0 2.5.828.921.828.921 2.219 0 1.672-2.14 4l-3.048 3.297h5.72v1.187z"/><path fill="#000" d="M28.738 333.122q0-.453-.329-.75-.312-.313-1.062-.563-1.031-.328-1.516-.828-.468-.515-.468-1.297 0-.797.468-1.312.469-.516 1.282-.61v-1.078h.718v1.078q.828.11 1.282.688.453.578.453 1.578h-.891q0-.687-.328-1.094-.328-.406-.89-.406-.579 0-.891.297-.297.297-.297.844 0 .5.312.797.328.296 1.078.53.75.235 1.157.532.422.297.609.688.203.375.203.89 0 .828-.5 1.328-.484.5-1.375.594v.938h-.734v-.938q-.906-.078-1.422-.64-.516-.563-.516-1.532h.907q0 .672.359 1.047.36.36 1.015.36.641 0 1-.297.376-.313.376-.844zm6.859-1.203q0 1.578-.547 2.36-.531.765-1.688.765-1.14 0-1.687-.75-.547-.75-.563-2.25v-1.203q0-1.579.532-2.329.547-.765 1.703-.765 1.156 0 1.687.734.547.735.563 2.266v1.172zm-.906-1.235q0-1.156-.329-1.672-.312-.53-1.015-.53-.688 0-1.016.53-.312.516-.312 1.594v1.453q0 1.157.328 1.703.344.547 1.015.547.672 0 .985-.515.328-.516.344-1.625v-1.485zm4.484.953l-.86.907v2.406h-.937v-7.11h.938v3.516l3.156-3.515h1.14l-2.812 3.14 3.031 3.969h-1.125l-2.531-3.313zm-16.437-67.273q0-.454-.329-.75-.312-.313-1.062-.563-1.031-.328-1.516-.828-.468-.516-.468-1.297 0-.797.468-1.312.469-.516 1.282-.61v-1.078h.718v1.078q.828.11 1.282.688.453.578.453 1.578h-.891q0-.688-.328-1.094-.328-.406-.89-.406-.579 0-.891.297-.297.297-.297.843 0 .5.312.797.328.297 1.078.532.75.234 1.157.53.422.298.609.688.203.375.203.89 0 .83-.5 1.33-.484.5-1.375.593v.937h-.734v-.937q-.906-.078-1.422-.64-.516-.563-.516-1.532h.907q0 .672.359 1.047.36.36 1.015.36.641 0 1-.298.376-.312.376-.843zm5.375 1.828h-.907v-6.016l-1.828.656v-.812l2.594-.969h.14v7.14zm7.484-3.032q0 1.579-.547 2.36-.531.765-1.688.765-1.14 0-1.687-.75-.547-.75-.563-2.25v-1.203q0-1.578.532-2.328.547-.765 1.703-.765 1.156 0 1.687.734.547.734.563 2.266v1.171zm-.906-1.234q0-1.156-.329-1.672-.312-.531-1.015-.531-.688 0-1.016.531-.312.516-.312 1.594v1.453q0 1.156.328 1.703.344.547 1.015.547.672 0 .985-.516.328-.515.344-1.625v-1.484zm4.484.953l-.86.906v2.407h-.937v-7.11h.938v3.516l3.156-3.516h1.14l-2.812 3.14 3.031 3.97h-1.125l-2.531-3.313zm-16.437-67.274q0-.453-.329-.75-.312-.312-1.062-.562-1.031-.328-1.516-.828-.468-.516-.468-1.297 0-.797.468-1.313.469-.515 1.282-.61v-1.077h.718v1.078q.828.11 1.282.687.453.578.453 1.578h-.891q0-.687-.328-1.093-.328-.407-.89-.407-.579 0-.891.297-.297.297-.297.844 0 .5.312.797.328.297 1.078.531.75.235 1.157.531.422.297.609.688.203.375.203.89 0 .829-.5 1.329-.484.5-1.375.593v.938h-.734v-.938q-.906-.078-1.422-.64-.516-.563-.516-1.531h.907q0 .671.359 1.046.36.36 1.015.36.641 0 1-.297.376-.313.376-.844zm7.062 1.828h-4.656v-.656l2.453-2.734q.547-.61.75-1 .219-.39.219-.813 0-.547-.344-.906-.328-.36-.89-.36-.673 0-1.048.391-.375.375-.375 1.063h-.906q0-.985.625-1.578.64-.61 1.703-.61.985 0 1.563.516.578.515.578 1.39 0 1.047-1.344 2.5l-1.89 2.063H29.8v.734zm5.797-3.03q0 1.577-.547 2.358-.531.766-1.688.766-1.14 0-1.687-.75-.547-.75-.563-2.25v-1.203q0-1.578.532-2.328.547-.766 1.703-.766 1.156 0 1.687.735.547.734.563 2.265v1.172zm-.906-1.235q0-1.157-.329-1.672-.312-.531-1.015-.531-.688 0-1.016.53-.312.516-.312 1.595v1.453q0 1.156.328 1.703.344.547 1.015.547.672 0 .985-.516.328-.516.344-1.625v-1.484zm4.484.953l-.86.906v2.406h-.937v-7.109h.938v3.516l3.156-3.516h1.14l-2.812 3.14 3.031 3.97h-1.125l-2.531-3.313zm-16.437-67.274q0-.453-.329-.75-.312-.313-1.062-.563-1.031-.328-1.516-.828-.468-.515-.468-1.297 0-.797.468-1.312.469-.516 1.282-.61v-1.078h.718v1.078q.828.11 1.282.688.453.578.453 1.578h-.891q0-.687-.328-1.094-.328-.406-.89-.406-.579 0-.891.297-.297.297-.297.844 0 .5.312.797.328.296 1.078.53.75.235 1.157.532.422.297.609.688.203.375.203.89 0 .828-.5 1.328-.484.5-1.375.594v.938h-.734v-.938q-.906-.078-1.422-.64-.516-.563-.516-1.532h.907q0 .672.359 1.047.36.36 1.015.36.641 0 1-.297.376-.313.376-.844zm3.718-2.172h.672q.64 0 1-.328.375-.328.375-.89 0-1.25-1.25-1.25-.578 0-.937.343-.344.328-.344.875h-.906q0-.844.625-1.39.625-.563 1.562-.563 1.016 0 1.578.531.578.531.578 1.469 0 .469-.296.906-.297.438-.829.656.594.172.907.61.328.422.328 1.047 0 .953-.625 1.515-.625.563-1.625.563t-1.64-.531q-.626-.547-.626-1.438h.922q0 .563.36.906.359.328.984.328.656 0 1-.343.344-.344.344-.985 0-.61-.391-.937-.375-.344-1.094-.344h-.672v-.75zm9.14.969q0 1.578-.546 2.36-.531.765-1.688.765-1.14 0-1.687-.75-.547-.75-.563-2.25v-1.203q0-1.579.532-2.329.547-.765 1.703-.765 1.156 0 1.687.734.547.735.563 2.266v1.172zm-.905-1.235q0-1.156-.329-1.672-.312-.53-1.015-.53-.688 0-1.016.53-.312.516-.312 1.594v1.453q0 1.157.328 1.703.344.547 1.015.547.672 0 .985-.515.328-.516.344-1.625v-1.485zm4.484.953l-.86.907v2.406h-.937v-7.11h.938v3.516l3.156-3.515h1.14l-2.812 3.14 3.031 3.969h-1.125l-2.531-3.313zM22.738 58.089q0-.454-.329-.75-.312-.313-1.062-.563-1.031-.328-1.516-.828-.468-.516-.468-1.297 0-.797.468-1.312.469-.516 1.282-.61v-1.078h.718v1.078q.828.11 1.282.688.453.578.453 1.578h-.891q0-.688-.328-1.094-.328-.406-.89-.406-.579 0-.891.297-.297.297-.297.843 0 .5.312.797.328.297 1.078.532.75.234 1.157.53.422.298.609.688.203.375.203.89 0 .829-.5 1.329-.484.5-1.375.594v.937h-.734v-.937q-.906-.078-1.422-.64-.516-.563-.516-1.532h.907q0 .672.359 1.047.36.36 1.015.36.641 0 1-.298.376-.312.376-.843zm6.218-.563h.985v.734h-.985v1.657h-.906V58.26h-3.234v-.53l3.172-4.923h.968v4.719zm-3.125 0h2.219v-3.484l-.11.203-2.109 3.281zm9.766-.64q0 1.578-.547 2.359-.531.765-1.688.765-1.14 0-1.687-.75-.547-.75-.563-2.25v-1.203q0-1.578.532-2.328.547-.765 1.703-.765 1.156 0 1.687.734.547.734.563 2.266v1.171zm-.906-1.235q0-1.156-.329-1.672-.312-.531-1.015-.531-.688 0-1.016.531-.312.516-.312 1.594v1.453q0 1.156.328 1.703.344.547 1.015.547.672 0 .985-.516.328-.515.344-1.625v-1.484zm4.484.953l-.86.906v2.407h-.937v-7.11h.938v3.516l3.156-3.516h1.14l-2.812 3.14 3.031 3.97h-1.125l-2.531-3.313zm147.432 289.08h-3.593v3.766h-1.125v-8.531h5.296v.922h-4.171v2.921h3.593v.922zm4.75 3.891q-1.297 0-2.109-.844-.797-.86-.797-2.281v-.188q0-.953.36-1.687.359-.75 1-1.156.656-.422 1.406-.422 1.234 0 1.922.812.687.813.687 2.328v.454h-4.297q.031.937.547 1.515.531.578 1.344.578.562 0 .953-.234.406-.234.719-.625l.656.516q-.797 1.234-2.39 1.234zm-.14-5.688q-.657 0-1.11.485-.437.469-.53 1.328h3.171v-.078q-.047-.828-.453-1.281-.39-.454-1.078-.454zm3.25 2.344q0-1.469.687-2.344.688-.89 1.813-.89 1.11 0 1.765.75v-3.297h1.078v9h-1l-.046-.688q-.657.813-1.813.813-1.094 0-1.797-.906-.687-.906-.687-2.36v-.078zm1.078.125q0 1.078.437 1.688.453.61 1.235.61 1.031 0 1.515-.938v-2.907q-.484-.89-1.5-.89-.797 0-1.25.61-.437.608-.437 1.827zm8.812 3.219q-1.297 0-2.109-.844-.797-.86-.797-2.281v-.188q0-.953.36-1.687.359-.75 1-1.156.656-.422 1.406-.422 1.234 0 1.922.812.687.813.687 2.328v.454h-4.297q.031.937.547 1.515.531.578 1.344.578.562 0 .953-.234.406-.234.719-.625l.656.516q-.797 1.234-2.39 1.234zm-.14-5.688q-.657 0-1.11.485-.437.469-.53 1.328h3.171v-.078q-.047-.828-.453-1.281-.39-.454-1.078-.454zm6.578.188q-.25-.031-.531-.031-1.079 0-1.454.906v4.5h-1.078v-6.344h1.047l.016.735q.531-.844 1.516-.844.312 0 .484.078v1zm4.844 5.375q-.094-.188-.157-.672-.75.797-1.797.797-.937 0-1.546-.531-.594-.531-.594-1.36 0-.984.75-1.53.75-.548 2.125-.548h1.047v-.5q0-.562-.344-.89-.328-.344-1-.344-.578 0-.969.297-.39.281-.39.703h-1.094q0-.485.328-.922.344-.438.922-.688.578-.265 1.266-.265 1.109 0 1.718.547.625.547.656 1.5v2.922q0 .875.22 1.39v.094h-1.141zm-1.797-.828q.515 0 .968-.266.454-.265.657-.687v-1.297h-.844q-2 0-2 1.172 0 .5.344.797.343.28.875.28zm6.062.828h-1.078v-9h1.078v9zm151.316-.922h4.048v.922h-5.188v-8.531h1.14v7.61zm7.329 1.047q-1.297 0-2.11-.844-.796-.86-.796-2.281v-.188q0-.953.359-1.687.36-.75 1-1.156.656-.422 1.406-.422 1.235 0 1.922.812.688.813.688 2.328v.454h-4.297q.031.937.547 1.515.53.578 1.343.578.563 0 .953-.234.407-.234.72-.625l.655.516q-.796 1.234-2.39 1.234zm-.14-5.688q-.657 0-1.11.485-.438.469-.531 1.328h3.171v-.078q-.046-.828-.453-1.281-.39-.454-1.078-.454zm5.593 4.094l1.578-4.875h1.11l-2.282 6.344h-.828l-2.297-6.344h1.11l1.609 4.875zm6.547 1.594q-1.297 0-2.11-.844-.796-.86-.796-2.281v-.188q0-.953.359-1.687.36-.75 1-1.156.656-.422 1.406-.422 1.235 0 1.922.812.688.813.688 2.328v.454h-4.297q.031.937.547 1.515.53.578 1.343.578.563 0 .953-.234.407-.234.72-.625l.655.516q-.796 1.234-2.39 1.234zm-.14-5.688q-.657 0-1.11.485-.438.469-.531 1.328h3.171v-.078q-.046-.828-.453-1.281-.39-.454-1.078-.454zm6.577.188q-.25-.031-.53-.031-1.079 0-1.454.906v4.5h-1.078v-6.344h1.047l.015.735q.532-.844 1.516-.844.312 0 .484.078v1zm5.922 1.438h-3.703v3.015h4.297v.922h-5.422v-8.531h5.375v.922h-4.25v2.75h3.703v.921zm1.75.718q0-1.469.688-2.344.687-.89 1.812-.89 1.11 0 1.766.75v-3.297h1.078v9h-1l-.047-.688q-.656.813-1.812.813-1.094 0-1.797-.906-.688-.906-.688-2.36v-.078zm1.078.125q0 1.078.438 1.688.453.61 1.234.61 1.031 0 1.516-.938v-2.907q-.485-.89-1.5-.89-.797 0-1.25.61-.438.608-.438 1.827zm5.922-.125q0-1.484.688-2.36.687-.874 1.812-.874 1.156 0 1.813.812l.047-.703h1v6.188q0 1.234-.735 1.937-.734.719-1.953.719-.687 0-1.344-.297-.656-.297-1-.797l.563-.656q.687.86 1.703.86.781 0 1.219-.454.453-.437.453-1.25v-.547q-.656.766-1.781.766-1.11 0-1.797-.89-.688-.907-.688-2.454zm1.094.125q0 1.063.437 1.688.438.61 1.235.61 1.015 0 1.5-.938v-2.891q-.5-.906-1.5-.906-.781 0-1.235.61-.437.608-.437 1.827zm8.797 3.219q-1.297 0-2.11-.844-.796-.86-.796-2.281v-.188q0-.953.359-1.687.36-.75 1-1.156.656-.422 1.406-.422 1.235 0 1.922.812.688.813.688 2.328v.454h-4.297q.031.937.547 1.515.53.578 1.343.578.563 0 .953-.234.407-.234.72-.625l.655.516q-.796 1.234-2.39 1.234zm-.14-5.688q-.657 0-1.11.485-.438.469-.531 1.328h3.171v-.078q-.046-.828-.453-1.281-.39-.454-1.078-.454zm13.234 5.563h-1.125l-4.297-6.578v6.578h-1.14v-8.531h1.14l4.297 6.61v-6.61h1.125v8.531zm4.906.125q-1.297 0-2.11-.844-.796-.86-.796-2.281v-.188q0-.953.359-1.687.36-.75 1-1.156.656-.422 1.406-.422 1.235 0 1.922.812.688.813.688 2.328v.454h-4.297q.031.937.547 1.515.53.578 1.343.578.563 0 .953-.234.407-.234.72-.625l.655.516q-.796 1.234-2.39 1.234zm-.14-5.688q-.657 0-1.11.485-.438.469-.531 1.328h3.171v-.078q-.046-.828-.453-1.281-.39-.454-1.078-.454zm3.25 2.344q0-1.484.687-2.36.687-.874 1.812-.874 1.156 0 1.813.812l.047-.703h1v6.188q0 1.234-.735 1.937-.734.719-1.953.719-.687 0-1.344-.297-.656-.297-1-.797l.563-.656q.687.86 1.703.86.781 0 1.219-.454.453-.437.453-1.25v-.547q-.656.766-1.781.766-1.11 0-1.797-.89-.688-.907-.688-2.454zm1.093.125q0 1.063.437 1.688.438.61 1.235.61 1.015 0 1.5-.938v-2.891q-.5-.906-1.5-.906-.781 0-1.235.61-.437.608-.437 1.827zm5.875-.14q0-.922.36-1.672.374-.75 1.03-1.14.657-.407 1.485-.407 1.297 0 2.094.89.812.891.812 2.391v.078q0 .922-.36 1.656-.359.735-1.015 1.157-.656.406-1.515.406-1.282 0-2.094-.89-.797-.907-.797-2.391v-.078zm1.094.14q0 1.047.484 1.688.5.64 1.313.64.828 0 1.312-.64.484-.656.484-1.828 0-1.032-.5-1.672-.484-.656-1.312-.656-.797 0-1.297.64-.484.625-.484 1.828zm7.672-4.781v1.531h1.171v.844h-1.171v3.922q0 .39.156.578.156.188.531.188.188 0 .516-.063v.875q-.422.125-.828.125-.72 0-1.094-.438-.375-.453-.375-1.265v-3.922h-1.156v-.844h1.156v-1.531h1.094zm3.703 7.875h-1.078v-6.344h1.078v6.344zm-1.172-8.016q0-.265.156-.453.172-.187.484-.187.313 0 .47.187.171.188.171.453 0 .25-.172.438-.156.172-.469.172-.312 0-.484-.172-.156-.188-.156-.438zm6.906 8.016q-.094-.188-.156-.672-.75.797-1.797.797-.938 0-1.547-.531-.594-.531-.594-1.36 0-.984.75-1.53.75-.548 2.125-.548h1.047v-.5q0-.562-.344-.89-.328-.344-1-.344-.578 0-.968.297-.39.281-.39.703h-1.095q0-.485.328-.922.344-.438.922-.688.578-.265 1.266-.265 1.11 0 1.719.547.625.547.656 1.5v2.922q0 .875.219 1.39v.094h-1.14zm-1.797-.828q.516 0 .969-.266.453-.265.656-.687v-1.297h-.844q-2 0-2 1.172 0 .5.344.797.344.28.875.28zm6.36-7.047v1.531h1.171v.844h-1.171v3.922q0 .39.156.578.156.188.531.188.188 0 .516-.063v.875q-.422.125-.828.125-.72 0-1.094-.438-.375-.453-.375-1.265v-3.922h-1.156v-.844h1.156v-1.531h1.094zm5.156 8q-1.297 0-2.11-.844-.796-.86-.796-2.281v-.188q0-.953.359-1.687.36-.75 1-1.156.656-.422 1.406-.422 1.235 0 1.922.812.688.813.688 2.328v.454h-4.297q.031.937.547 1.515.53.578 1.343.578.563 0 .953-.234.407-.234.72-.625l.655.516q-.796 1.234-2.39 1.234zm-.14-5.688q-.657 0-1.11.485-.438.469-.531 1.328h3.171v-.078q-.046-.828-.453-1.281-.39-.454-1.078-.454zm3.25 2.344q0-1.469.687-2.344.687-.89 1.812-.89 1.11 0 1.766.75v-3.297h1.078v9h-1l-.047-.688q-.656.813-1.812.813-1.094 0-1.797-.906-.688-.906-.688-2.36v-.078zm1.077.125q0 1.078.438 1.688.453.61 1.234.61 1.031 0 1.516-.938v-2.907q-.485-.89-1.5-.89-.797 0-1.25.61-.438.608-.438 1.827z"/><path fill="#3b61e3" d="M209 65.917a1 1 0 011-1h10a1 1 0 011 1v10a1 1 0 01-1 1h-10a1 1 0 01-1-1z"/><path stroke="#fff" stroke-width="3" stroke-linejoin="round" stroke-linecap="round" d="M232.219 71.432q-1.328-.39-1.938-.937-.61-.563-.61-1.375 0-.922.735-1.516.75-.61 1.922-.61.813 0 1.438.313.64.297.984.86.344.547.344 1.187h-1.031q0-.703-.454-1.11-.453-.405-1.28-.405-.75 0-1.188.343-.422.328-.422.922 0 .485.406.813.406.328 1.375.609.984.266 1.531.594.547.328.813.781.265.438.265 1.031 0 .953-.75 1.532-.734.562-1.968.562-.813 0-1.516-.312-.688-.313-1.063-.844-.375-.531-.375-1.219h1.032q0 .703.515 1.125.532.406 1.407.406.812 0 1.25-.328.437-.344.437-.906 0-.578-.406-.89-.406-.329-1.453-.626zm8.125 3.485q-.094-.172-.14-.61-.704.719-1.657.719-.86 0-1.422-.484-.547-.485-.547-1.235 0-.906.688-1.406.703-.516 1.953-.516h.969v-.453q0-.515-.313-.828-.313-.312-.922-.312-.531 0-.89.28-.36.267-.36.642h-1q0-.438.313-.844.312-.406.828-.64.531-.235 1.172-.235 1 0 1.562.5.578.5.594 1.39v2.672q0 .797.203 1.266v.094h-1.031zm-1.656-.75q.468 0 .89-.235.422-.25.61-.64v-1.188h-.782q-1.828 0-1.828 1.063 0 .468.313.734.312.266.797.266zm5.984-.594l1.437-4.469h1.016l-2.078 5.813h-.766l-2.11-5.813h1.017l1.484 4.469zm4.156 1.344h-.984v-5.813h.984v5.813zm-1.078-7.36q0-.234.14-.39.157-.172.454-.172.297 0 .437.172.156.156.156.406 0 .234-.156.39-.14.157-.437.157t-.453-.156q-.141-.157-.141-.407zm3.938 1.547l.03.735q.673-.844 1.75-.844 1.845 0 1.86 2.078v3.844h-1v-3.844q0-.625-.281-.922-.281-.312-.89-.312-.47 0-.845.265-.359.25-.562.672v4.14h-1v-5.812h.938zm4.828 2.86q0-1.36.625-2.157.625-.812 1.671-.812 1.063 0 1.657.75l.047-.64h.906v5.671q0 1.125-.672 1.766-.656.656-1.797.656-.625 0-1.234-.266-.594-.265-.906-.734l.515-.594q.64.797 1.563.797.718 0 1.125-.422.406-.406.406-1.14v-.5q-.594.687-1.625.687-1.016 0-1.656-.812-.625-.829-.625-2.25zm1 .109q0 .984.406 1.547.406.562 1.125.562.937 0 1.375-.86v-2.655q-.453-.828-1.36-.828-.734 0-1.14.562-.406.563-.406 1.672zm8.625 1.297q0-.39-.313-.61-.297-.234-1.062-.39-.75-.172-1.188-.39-.437-.22-.656-.532-.219-.313-.219-.75 0-.719.61-1.203.609-.5 1.546-.5.985 0 1.594.515.625.5.625 1.297h-1q0-.406-.344-.703-.343-.297-.875-.297-.546 0-.859.25-.297.235-.297.61 0 .359.281.547.282.171 1.032.343.75.172 1.203.407.469.218.687.546.219.329.219.797 0 .782-.625 1.25-.61.469-1.61.469-.702 0-1.234-.25-.531-.25-.844-.687-.296-.438-.296-.954h.984q.031.485.406.782.375.297.985.297.562 0 .906-.22.344-.234.344-.624z"/><path fill="#666" d="M232.219 71.432q-1.328-.39-1.938-.937-.61-.563-.61-1.375 0-.922.735-1.516.75-.61 1.922-.61.813 0 1.438.313.64.297.984.86.344.547.344 1.187h-1.031q0-.703-.454-1.11-.453-.405-1.28-.405-.75 0-1.188.343-.422.328-.422.922 0 .485.406.813.406.328 1.375.609.984.266 1.531.594.547.328.813.781.265.438.265 1.031 0 .953-.75 1.532-.734.562-1.968.562-.813 0-1.516-.312-.688-.313-1.063-.844-.375-.531-.375-1.219h1.032q0 .703.515 1.125.532.406 1.407.406.812 0 1.25-.328.437-.344.437-.906 0-.578-.406-.89-.406-.329-1.453-.626zm8.125 3.485q-.094-.172-.14-.61-.704.719-1.657.719-.86 0-1.422-.484-.547-.485-.547-1.235 0-.906.688-1.406.703-.516 1.953-.516h.969v-.453q0-.515-.313-.828-.313-.312-.922-.312-.531 0-.89.28-.36.267-.36.642h-1q0-.438.313-.844.312-.406.828-.64.531-.235 1.172-.235 1 0 1.562.5.578.5.594 1.39v2.672q0 .797.203 1.266v.094h-1.031zm-1.656-.75q.468 0 .89-.235.422-.25.61-.64v-1.188h-.782q-1.828 0-1.828 1.063 0 .468.313.734.312.266.797.266zm5.984-.594l1.437-4.469h1.016l-2.078 5.813h-.766l-2.11-5.813h1.017l1.484 4.469zm4.156 1.344h-.984v-5.813h.984v5.813zm-1.078-7.36q0-.234.14-.39.157-.172.454-.172.297 0 .437.172.156.156.156.406 0 .234-.156.39-.14.157-.437.157t-.453-.156q-.141-.157-.141-.407zm3.938 1.547l.03.735q.673-.844 1.75-.844 1.845 0 1.86 2.078v3.844h-1v-3.844q0-.625-.281-.922-.281-.312-.89-.312-.47 0-.845.265-.359.25-.562.672v4.14h-1v-5.812h.938zm4.828 2.86q0-1.36.625-2.157.625-.812 1.671-.812 1.063 0 1.657.75l.047-.64h.906v5.671q0 1.125-.672 1.766-.656.656-1.797.656-.625 0-1.234-.266-.594-.265-.906-.734l.515-.594q.64.797 1.563.797.718 0 1.125-.422.406-.406.406-1.14v-.5q-.594.687-1.625.687-1.016 0-1.656-.812-.625-.829-.625-2.25zm1 .109q0 .984.406 1.547.406.562 1.125.562.937 0 1.375-.86v-2.655q-.453-.828-1.36-.828-.734 0-1.14.562-.406.563-.406 1.672zm8.625 1.297q0-.39-.313-.61-.297-.234-1.062-.39-.75-.172-1.188-.39-.437-.22-.656-.532-.219-.313-.219-.75 0-.719.61-1.203.609-.5 1.546-.5.985 0 1.594.515.625.5.625 1.297h-1q0-.406-.344-.703-.343-.297-.875-.297-.546 0-.859.25-.297.235-.297.61 0 .359.281.547.282.171 1.032.343.75.172 1.203.407.469.218.687.546.219.329.219.797 0 .782-.625 1.25-.61.469-1.61.469-.702 0-1.234-.25-.531-.25-.844-.687-.296-.438-.296-.954h.984q.031.485.406.782.375.297.985.297.562 0 .906-.22.344-.234.344-.624z"/><path fill="#d9d9d9" d="M284 65.917a1 1 0 011-1h10a1 1 0 011 1v10a1 1 0 01-1 1h-10a1 1 0 01-1-1z"/><path stroke="#fff" stroke-width="3" stroke-linejoin="round" stroke-linecap="round" d="M306.016 74.917h-1.032v-7.828h1.032v7.828zm2.671-5.813l.032.735q.672-.844 1.75-.844 1.844 0 1.86 2.078v3.844h-1v-3.844q0-.625-.282-.922-.281-.312-.89-.312-.47 0-.844.265-.36.25-.563.672v4.14h-1v-5.812h.938zm6.407-1.406v1.406h1.094v.766h-1.094v3.61q0 .343.14.53.157.172.5.172.172 0 .485-.078v.813q-.406.109-.766.109-.672 0-1.015-.406-.329-.406-.329-1.14v-3.61h-1.062v-.766h1.062v-1.406h.985zm5.062 7.328q-1.172 0-1.922-.766-.734-.78-.734-2.093v-.172q0-.875.328-1.547.328-.688.922-1.063.594-.39 1.297-.39 1.125 0 1.75.75.64.75.64 2.14v.407H318.5q.016.859.484 1.39.485.532 1.235.532.531 0 .89-.22.36-.218.641-.562l.61.469q-.735 1.125-2.204 1.125zm-.11-5.219q-.608 0-1.015.438-.406.437-.5 1.234h2.906v-.078q-.046-.75-.421-1.172-.36-.422-.97-.422zm6.517.188q-.235-.031-.485-.031-.984 0-1.328.828v4.125h-1v-5.813h.969l.015.672q.485-.781 1.391-.781.281 0 .438.078v.922zm3.593 5.031q-1.172 0-1.922-.766-.734-.78-.734-2.093v-.172q0-.875.328-1.547.328-.688.922-1.063.594-.39 1.297-.39 1.125 0 1.75.75.64.75.64 2.14v.407H328.5q.016.859.484 1.39.485.532 1.235.532.531 0 .89-.22.36-.218.641-.562l.61.469q-.735 1.125-2.204 1.125zm-.11-5.219q-.608 0-1.015.438-.406.437-.5 1.234h2.906v-.078q-.046-.75-.421-1.172-.36-.422-.97-.422zm7.095 3.563q0-.39-.313-.61-.297-.234-1.062-.39-.75-.172-1.188-.39-.437-.22-.656-.532-.219-.313-.219-.75 0-.719.61-1.203.609-.5 1.546-.5.985 0 1.594.515.625.5.625 1.297h-1q0-.406-.344-.703-.343-.297-.875-.297-.546 0-.859.25-.297.235-.297.61 0 .359.281.547.282.171 1.032.343.75.172 1.203.407.469.218.687.546.219.329.219.797 0 .782-.625 1.25-.61.469-1.61.469-.702 0-1.234-.25-.531-.25-.844-.687-.296-.438-.296-.954h.984q.031.485.406.782.375.297.985.297.562 0 .906-.22.344-.234.344-.624zm3.953-5.672v1.406h1.094v.766h-1.094v3.61q0 .343.14.53.157.172.5.172.172 0 .485-.078v.813q-.406.109-.766.109-.672 0-1.015-.406-.329-.406-.329-1.14v-3.61h-1.062v-.766h1.062v-1.406h.985zm9.25 7.219q-.094-.172-.14-.61-.704.719-1.657.719-.86 0-1.422-.484-.547-.485-.547-1.235 0-.906.688-1.406.703-.516 1.953-.516h.969v-.453q0-.515-.313-.828-.313-.312-.922-.312-.531 0-.89.28-.36.267-.36.642h-1q0-.438.313-.844.312-.406.828-.64.531-.235 1.172-.235 1 0 1.562.5.578.5.594 1.39v2.672q0 .797.203 1.266v.094h-1.031zm-1.656-.75q.468 0 .89-.235.422-.25.61-.64v-1.188h-.782q-1.828 0-1.828 1.063 0 .468.313.734.312.266.796.266zm5-5.063l.03.735q.673-.844 1.75-.844 1.844 0 1.86 2.078v3.844h-1v-3.844q0-.625-.281-.922-.281-.312-.89-.312-.47 0-.844.265-.36.25-.563.672v4.14h-1v-5.812h.938zm4.828 2.86q0-1.344.625-2.157.64-.812 1.656-.812 1.031 0 1.625.703v-3.031h1v8.25h-.922l-.047-.625q-.594.734-1.656.734-1.016 0-1.656-.828-.625-.828-.625-2.156v-.078zm.984.109q0 .984.406 1.547.422.562 1.14.562.938 0 1.376-.843v-2.672q-.453-.828-1.375-.828-.719 0-1.14.562-.407.563-.407 1.672zm12.719-.61h-3.281v3.454h-1.032v-7.828h4.844v.859h-3.813v2.672h3.282v.844zm3.937 3.563q-1.172 0-1.922-.766-.734-.78-.734-2.093v-.172q0-.875.328-1.547.328-.688.922-1.063.594-.39 1.297-.39 1.125 0 1.75.75.64.75.64 2.14v.407H374.5q.016.859.484 1.39.485.532 1.235.532.531 0 .89-.22.36-.218.641-.562l.61.469q-.735 1.125-2.204 1.125zm-.11-5.219q-.608 0-1.015.438-.406.437-.5 1.234h2.906v-.078q-.046-.75-.421-1.172-.36-.422-.97-.422zm6.11 5.219q-1.172 0-1.922-.766-.734-.78-.734-2.093v-.172q0-.875.328-1.547.328-.688.922-1.063.594-.39 1.297-.39 1.125 0 1.75.75.64.75.64 2.14v.407H380.5q.016.859.484 1.39.485.532 1.235.532.531 0 .89-.22.36-.218.641-.562l.61.469q-.735 1.125-2.204 1.125zm-.11-5.219q-.608 0-1.015.438-.406.437-.5 1.234h2.906v-.078q-.046-.75-.421-1.172-.36-.422-.97-.422zm7.095 3.563q0-.39-.313-.61-.297-.234-1.062-.39-.75-.172-1.188-.39-.437-.22-.656-.532-.219-.313-.219-.75 0-.719.61-1.203.609-.5 1.546-.5.985 0 1.594.515.625.5.625 1.297h-1q0-.406-.344-.703-.343-.297-.875-.297-.546 0-.859.25-.297.235-.297.61 0 .359.281.547.282.171 1.032.343.75.172 1.203.407.469.218.687.546.219.329.219.797 0 .782-.625 1.25-.61.469-1.61.469-.702 0-1.234-.25-.531-.25-.844-.687-.296-.438-.296-.954h.984q.031.485.406.782.375.297.985.297.562 0 .906-.22.344-.234.344-.624z"/><path fill="#666" d="M306.016 74.917h-1.032v-7.828h1.032v7.828zm2.671-5.813l.032.735q.672-.844 1.75-.844 1.844 0 1.86 2.078v3.844h-1v-3.844q0-.625-.282-.922-.281-.312-.89-.312-.47 0-.844.265-.36.25-.563.672v4.14h-1v-5.812h.938zm6.407-1.406v1.406h1.094v.766h-1.094v3.61q0 .343.14.53.157.172.5.172.172 0 .485-.078v.813q-.406.109-.766.109-.672 0-1.015-.406-.329-.406-.329-1.14v-3.61h-1.062v-.766h1.062v-1.406h.985zm5.062 7.328q-1.172 0-1.922-.766-.734-.78-.734-2.093v-.172q0-.875.328-1.547.328-.688.922-1.063.594-.39 1.297-.39 1.125 0 1.75.75.64.75.64 2.14v.407H318.5q.016.859.484 1.39.485.532 1.235.532.531 0 .89-.22.36-.218.641-.562l.61.469q-.735 1.125-2.204 1.125zm-.11-5.219q-.608 0-1.015.438-.406.437-.5 1.234h2.906v-.078q-.046-.75-.421-1.172-.36-.422-.97-.422zm6.517.188q-.235-.031-.485-.031-.984 0-1.328.828v4.125h-1v-5.813h.969l.015.672q.485-.781 1.391-.781.281 0 .438.078v.922zm3.593 5.031q-1.172 0-1.922-.766-.734-.78-.734-2.093v-.172q0-.875.328-1.547.328-.688.922-1.063.594-.39 1.297-.39 1.125 0 1.75.75.64.75.64 2.14v.407H328.5q.016.859.484 1.39.485.532 1.235.532.531 0 .89-.22.36-.218.641-.562l.61.469q-.735 1.125-2.204 1.125zm-.11-5.219q-.608 0-1.015.438-.406.437-.5 1.234h2.906v-.078q-.046-.75-.421-1.172-.36-.422-.97-.422zm7.095 3.563q0-.39-.313-.61-.297-.234-1.062-.39-.75-.172-1.188-.39-.437-.22-.656-.532-.219-.313-.219-.75 0-.719.61-1.203.609-.5 1.546-.5.985 0 1.594.515.625.5.625 1.297h-1q0-.406-.344-.703-.343-.297-.875-.297-.546 0-.859.25-.297.235-.297.61 0 .359.281.547.282.171 1.032.343.75.172 1.203.407.469.218.687.546.219.329.219.797 0 .782-.625 1.25-.61.469-1.61.469-.702 0-1.234-.25-.531-.25-.844-.687-.296-.438-.296-.954h.984q.031.485.406.782.375.297.985.297.562 0 .906-.22.344-.234.344-.624zm3.953-5.672v1.406h1.094v.766h-1.094v3.61q0 .343.14.53.157.172.5.172.172 0 .485-.078v.813q-.406.109-.766.109-.672 0-1.015-.406-.329-.406-.329-1.14v-3.61h-1.062v-.766h1.062v-1.406h.985zm9.25 7.219q-.094-.172-.14-.61-.704.719-1.657.719-.86 0-1.422-.484-.547-.485-.547-1.235 0-.906.688-1.406.703-.516 1.953-.516h.969v-.453q0-.515-.313-.828-.313-.312-.922-.312-.531 0-.89.28-.36.267-.36.642h-1q0-.438.313-.844.312-.406.828-.64.531-.235 1.172-.235 1 0 1.562.5.578.5.594 1.39v2.672q0 .797.203 1.266v.094h-1.031zm-1.656-.75q.468 0 .89-.235.422-.25.61-.64v-1.188h-.782q-1.828 0-1.828 1.063 0 .468.313.734.312.266.796.266zm5-5.063l.03.735q.673-.844 1.75-.844 1.844 0 1.86 2.078v3.844h-1v-3.844q0-.625-.281-.922-.281-.312-.89-.312-.47 0-.844.265-.36.25-.563.672v4.14h-1v-5.812h.938zm4.828 2.86q0-1.344.625-2.157.64-.812 1.656-.812 1.031 0 1.625.703v-3.031h1v8.25h-.922l-.047-.625q-.594.734-1.656.734-1.016 0-1.656-.828-.625-.828-.625-2.156v-.078zm.984.109q0 .984.406 1.547.422.562 1.14.562.938 0 1.376-.843v-2.672q-.453-.828-1.375-.828-.719 0-1.14.562-.407.563-.407 1.672zm12.719-.61h-3.281v3.454h-1.032v-7.828h4.844v.859h-3.813v2.672h3.282v.844zm3.937 3.563q-1.172 0-1.922-.766-.734-.78-.734-2.093v-.172q0-.875.328-1.547.328-.688.922-1.063.594-.39 1.297-.39 1.125 0 1.75.75.64.75.64 2.14v.407H374.5q.016.859.484 1.39.485.532 1.235.532.531 0 .89-.22.36-.218.641-.562l.61.469q-.735 1.125-2.204 1.125zm-.11-5.219q-.608 0-1.015.438-.406.437-.5 1.234h2.906v-.078q-.046-.75-.421-1.172-.36-.422-.97-.422zm6.11 5.219q-1.172 0-1.922-.766-.734-.78-.734-2.093v-.172q0-.875.328-1.547.328-.688.922-1.063.594-.39 1.297-.39 1.125 0 1.75.75.64.75.64 2.14v.407H380.5q.016.859.484 1.39.485.532 1.235.532.531 0 .89-.22.36-.218.641-.562l.61.469q-.735 1.125-2.204 1.125zm-.11-5.219q-.608 0-1.015.438-.406.437-.5 1.234h2.906v-.078q-.046-.75-.421-1.172-.36-.422-.97-.422zm7.095 3.563q0-.39-.313-.61-.297-.234-1.062-.39-.75-.172-1.188-.39-.437-.22-.656-.532-.219-.313-.219-.75 0-.719.61-1.203.609-.5 1.546-.5.985 0 1.594.515.625.5.625 1.297h-1q0-.406-.344-.703-.343-.297-.875-.297-.546 0-.859.25-.297.235-.297.61 0 .359.281.547.282.171 1.032.343.75.172 1.203.407.469.218.687.546.219.329.219.797 0 .782-.625 1.25-.61.469-1.61.469-.702 0-1.234-.25-.531-.25-.844-.687-.296-.438-.296-.954h.984q.031.485.406.782.375.297.985.297.562 0 .906-.22.344-.234.344-.624z"/><path fill="#000" d="M130.188 23.41h-3.657v10.14h-1.5V23.41h-3.64v-1.235h8.796v1.234zm4.671 8.015l1.97-6.328h1.546l-3.39 9.765q-.798 2.11-2.516 2.11l-.266-.031-.547-.094v-1.172l.39.031q.735 0 1.142-.297.421-.297.687-1.093l.313-.86-3.016-8.36h1.578l2.11 6.329zm12.375-2.016q0 1.938-.89 3.125-.875 1.172-2.375 1.172-1.547 0-2.422-.984V36.8h-1.453V25.097h1.328l.062.937q.891-1.093 2.453-1.093 1.532 0 2.407 1.156.89 1.14.89 3.187v.125zm-1.437-.156q0-1.437-.61-2.265-.609-.829-1.671-.829-1.313 0-1.97 1.172v4.032q.642 1.156 1.985 1.156 1.031 0 1.64-.813.626-.828.626-2.453zm4.875 4.297h-1.453v-8.453h1.453v8.453zm-1.563-10.703q0-.344.203-.578.22-.25.641-.25.422 0 .64.25.22.234.22.594 0 .343-.22.578-.218.234-.64.234-.422 0-.64-.234-.204-.235-.204-.594zm7.375 9.672q.782 0 1.36-.469.578-.469.64-1.172h1.36q-.031.735-.5 1.39-.453.657-1.235 1.048-.765.39-1.625.39-1.718 0-2.75-1.156-1.015-1.156-1.015-3.156v-.235q0-1.234.453-2.187.453-.969 1.297-1.5.86-.531 2.015-.531 1.422 0 2.36.859.937.844 1 2.203h-1.36q-.062-.828-.625-1.344-.562-.53-1.375-.53-1.109 0-1.718.796-.594.781-.594 2.281v.282q0 1.453.594 2.25.609.78 1.718.78zm9.828 1.031q-.125-.25-.203-.89-1 1.046-2.406 1.046-1.25 0-2.047-.703-.797-.719-.797-1.797 0-1.328 1-2.047 1-.734 2.828-.734h1.407v-.672q0-.75-.453-1.203-.453-.453-1.344-.453-.766 0-1.297.39-.516.391-.516.954h-1.453q0-.641.438-1.22.453-.593 1.219-.937.78-.343 1.703-.343 1.453 0 2.28.734.829.719.86 2v3.89q0 1.172.297 1.86v.125h-1.516zm-2.39-1.11q.672 0 1.281-.343.61-.36.89-.922v-1.734h-1.14q-2.656 0-2.656 1.562 0 .672.453 1.063.453.375 1.172.375zm7.75 1.11h-1.453v-12h1.453v12zm8.594-11.375l3.718 9.281 3.72-9.281h1.937V33.55h-1.5v-4.437l.14-4.782-3.734 9.219h-1.14l-3.735-9.187.156 4.75v4.437h-1.5V22.175h1.938zm15.343 11.531q-1.718 0-2.797-1.125-1.078-1.14-1.078-3.031v-.266q0-1.25.47-2.234.483-1 1.343-1.547.875-.562 1.875-.562 1.656 0 2.562 1.093.922 1.079.922 3.094v.61h-5.734q.031 1.25.734 2.015.703.766 1.781.766.766 0 1.297-.313.532-.312.922-.828l.89.688q-1.062 1.64-3.187 1.64zm-.187-7.578q-.875 0-1.469.64-.594.626-.734 1.782h4.234v-.11q-.062-1.109-.594-1.703-.53-.609-1.437-.609zm6.031-1.031l.047.937q.922-1.093 2.5-1.093 1.781 0 2.422 1.359.422-.61 1.094-.984.672-.375 1.593-.375 2.782 0 2.828 2.937v5.672H210.5v-5.578q0-.906-.422-1.36-.406-.453-1.39-.453-.797 0-1.329.485-.53.484-.625 1.297v5.609h-1.453v-5.547q0-1.844-1.797-1.844-1.422 0-1.953 1.22v6.171h-1.437v-8.453h1.36zm19.797 4.312q0 1.938-.89 3.125-.891 1.172-2.391 1.172-1.594 0-2.469-1.14l-.078.984h-1.328v-12h1.453v4.469q.875-1.078 2.406-1.078 1.547 0 2.422 1.172.875 1.156.875 3.171v.125zm-1.438-.156q0-1.484-.578-2.281-.562-.813-1.64-.813-1.422 0-2.047 1.329v3.656q.656 1.328 2.062 1.328 1.047 0 1.625-.797.578-.813.578-2.422zm6.797 4.453q-1.718 0-2.797-1.125-1.078-1.14-1.078-3.031v-.266q0-1.25.47-2.234.483-1 1.343-1.547.875-.562 1.875-.562 1.656 0 2.562 1.093.922 1.079.922 3.094v.61h-5.734q.031 1.25.734 2.015.703.766 1.781.766.766 0 1.297-.313.532-.312.922-.828l.89.688q-1.062 1.64-3.187 1.64zm-.187-7.578q-.875 0-1.469.64-.594.626-.734 1.782h4.234v-.11q-.062-1.109-.594-1.703-.53-.609-1.437-.609zm8.766.266q-.329-.063-.72-.063-1.421 0-1.921 1.219v6h-1.453v-8.453h1.406l.031.969q.703-1.125 2.016-1.125.422 0 .64.109v1.344zm8.484 2.078q-1.922-.547-2.813-1.36-.875-.812-.875-2 0-1.343 1.078-2.218 1.079-.875 2.797-.875 1.172 0 2.078.453.922.453 1.422 1.25.516.797.516 1.734h-1.516q0-1.031-.656-1.61-.656-.593-1.844-.593-1.109 0-1.734.485-.625.484-.625 1.359 0 .687.594 1.172.594.484 2 .89 1.422.391 2.219.875.812.47 1.187 1.11.39.64.39 1.515 0 1.375-1.077 2.22-1.079.827-2.875.827-1.172 0-2.188-.453-1.016-.453-1.578-1.234-.547-.781-.547-1.766h1.516q0 1.031.75 1.625.765.594 2.047.594 1.187 0 1.812-.485.64-.484.64-1.312 0-.844-.593-1.297-.578-.453-2.125-.906zm11.64 5.078q-.125-.25-.203-.89-1 1.046-2.406 1.046-1.25 0-2.047-.703-.797-.719-.797-1.797 0-1.328 1-2.047 1-.734 2.828-.734h1.407v-.672q0-.75-.453-1.203-.453-.453-1.344-.453-.766 0-1.297.39-.516.391-.516.954h-1.453q0-.641.438-1.22.453-.593 1.219-.937.78-.343 1.703-.343 1.453 0 2.28.734.829.719.86 2v3.89q0 1.172.297 1.86v.125h-1.515zm-2.39-1.11q.672 0 1.281-.343.61-.36.89-.922v-1.734h-1.14q-2.656 0-2.656 1.562 0 .672.453 1.063.453.375 1.172.375zm8.969-.859l2.093-6.484h1.47l-3.032 8.453h-1.094l-3.062-8.453h1.468l2.157 6.484zm6.78 1.969h-1.452v-8.453h1.453v8.453zm-1.562-10.703q0-.344.204-.578.218-.25.64-.25.422 0 .64.25.22.234.22.594 0 .343-.22.578-.218.234-.64.234-.422 0-.64-.234-.204-.235-.204-.594zm5.36 2.25l.047 1.062q.968-1.218 2.53-1.218 2.673 0 2.704 3.015v5.594h-1.453v-5.594q0-.922-.422-1.36-.406-.437-1.266-.437-.703 0-1.234.375t-.828.985v6.031h-1.453v-8.453h1.375zm7.281 4.156q0-1.984.906-3.14.922-1.172 2.438-1.172 1.547 0 2.406 1.093l.078-.937h1.313v8.25q0 1.64-.97 2.578-.968.953-2.608.953-.922 0-1.797-.39-.875-.391-1.329-1.063l.75-.875q.922 1.156 2.266 1.156 1.063 0 1.64-.594.594-.593.594-1.687v-.719q-.859 1-2.359 1-1.484 0-2.406-1.187-.922-1.203-.922-3.266zm1.453.156q0 1.438.578 2.25.594.813 1.656.813 1.36 0 2-1.235v-3.859q-.656-1.219-1.984-1.219-1.062 0-1.656.829-.594.812-.594 2.421zm12.813 1.891q0-.578-.438-.906-.437-.328-1.547-.563-1.094-.234-1.734-.562-.64-.328-.953-.781-.313-.454-.313-1.079 0-1.03.875-1.75.89-.718 2.25-.718 1.438 0 2.328.75.907.734.907 1.89h-1.454q0-.593-.515-1.015-.5-.438-1.266-.438-.781 0-1.234.344-.438.344-.438.89 0 .532.407.797.421.266 1.5.516 1.078.234 1.75.578.671.328 1 .797.328.469.328 1.156 0 1.125-.906 1.813-.907.687-2.36.687-1.015 0-1.797-.36-.781-.358-1.219-1-.437-.655-.437-1.405h1.438q.046.734.578 1.156.546.422 1.437.422.828 0 1.313-.328.5-.329.5-.891zm6.703-2.063q0-1.234.484-2.218.485-1 1.36-1.531.875-.547 1.984-.547 1.734 0 2.797 1.203 1.062 1.187 1.062 3.172v.093q0 1.235-.469 2.22-.468.983-1.359 1.53-.875.547-2.015.547-1.72 0-2.782-1.187-1.062-1.203-1.062-3.172v-.11zm1.453.172q0 1.407.64 2.266.657.844 1.75.844 1.11 0 1.75-.86.657-.859.657-2.421 0-1.391-.672-2.25-.656-.86-1.75-.86-1.063 0-1.719.86-.656.843-.656 2.421zm9.297-4.312l.047 1.062q.968-1.218 2.53-1.218 2.673 0 2.704 3.015v5.594h-1.453v-5.594q0-.922-.422-1.36-.406-.437-1.266-.437-.703 0-1.234.375t-.828.985v6.031h-1.453v-8.453h1.375zm18.14 5.484h-4.765l-1.078 2.969h-1.547l4.344-11.375h1.312l4.36 11.375h-1.548l-1.078-2.969zm-4.312-1.234h3.86l-1.938-5.328-1.922 5.328zm10.594 2.234l2.093-6.484h1.47l-3.032 8.453h-1.094l-3.062-8.453h1.468l2.157 6.484zm8.718 2.125q-1.718 0-2.796-1.125-1.079-1.14-1.079-3.031v-.266q0-1.25.47-2.234.483-1 1.343-1.547.875-.562 1.875-.562 1.656 0 2.562 1.093.922 1.079.922 3.094v.61h-5.734q.031 1.25.734 2.015.703.766 1.781.766.766 0 1.297-.313.532-.312.922-.828l.89.688q-1.062 1.64-3.187 1.64zm-.187-7.578q-.875 0-1.469.64-.594.626-.734 1.782h4.234v-.11q-.062-1.109-.594-1.703-.53-.609-1.437-.609zm8.765.266q-.328-.063-.718-.063-1.422 0-1.922 1.219v6h-1.453v-8.453h1.406l.031.969q.703-1.125 2.016-1.125.422 0 .64.109v1.344zm6.125 7.156q-.125-.25-.203-.89-1 1.046-2.406 1.046-1.25 0-2.047-.703-.797-.719-.797-1.797 0-1.328 1-2.047 1-.734 2.829-.734h1.406v-.672q0-.75-.453-1.203-.454-.453-1.344-.453-.766 0-1.297.39-.516.391-.516.954h-1.453q0-.641.438-1.22.453-.593 1.219-.937.78-.343 1.703-.343 1.453 0 2.28.734.829.719.86 2v3.89q0 1.172.297 1.86v.125h-1.515zm-2.39-1.11q.672 0 1.281-.343.61-.36.89-.922v-1.734h-1.14q-2.656 0-2.656 1.562 0 .672.453 1.063.453.375 1.172.375zm5.828-3.187q0-1.984.906-3.14.922-1.172 2.438-1.172 1.547 0 2.406 1.093l.078-.937h1.313v8.25q0 1.64-.97 2.578-.968.953-2.608.953-.922 0-1.797-.39-.875-.391-1.329-1.063l.75-.875q.922 1.156 2.266 1.156 1.063 0 1.64-.594.594-.593.594-1.687v-.719q-.859 1-2.359 1-1.484 0-2.406-1.187-.922-1.203-.922-3.266zm1.453.156q0 1.438.578 2.25.594.813 1.656.813 1.36 0 2-1.235v-3.859q-.656-1.219-1.984-1.219-1.062 0-1.656.829-.594.812-.594 2.421zm11.406 4.297q-1.718 0-2.796-1.125-1.079-1.14-1.079-3.031v-.266q0-1.25.47-2.234.483-1 1.343-1.547.875-.562 1.875-.562 1.656 0 2.562 1.093.922 1.079.922 3.094v.61h-5.734q.031 1.25.734 2.015.703.766 1.781.766.766 0 1.297-.313.532-.312.922-.828l.89.688q-1.062 1.64-3.187 1.64zm-.187-7.578q-.875 0-1.469.64-.594.626-.734 1.782h4.234v-.11q-.062-1.109-.594-1.703-.53-.609-1.437-.609zm10.406 6.188h5.39v1.234h-6.89V22.175h1.5v10.14zm6.89-3.079q0-1.234.485-2.218.485-1 1.36-1.531.875-.547 1.984-.547 1.734 0 2.797 1.203 1.062 1.187 1.062 3.172v.093q0 1.235-.469 2.22-.468.983-1.359 1.53-.875.547-2.015.547-1.72 0-2.782-1.187-1.062-1.203-1.062-3.172v-.11zm1.454.172q0 1.407.64 2.266.657.844 1.75.844 1.11 0 1.75-.86.657-.859.657-2.421 0-1.391-.672-2.25-.656-.86-1.75-.86-1.063 0-1.719.86-.656.843-.656 2.421zm13.14 4.141q-.125-.25-.203-.89-1 1.046-2.406 1.046-1.25 0-2.047-.703-.797-.719-.797-1.797 0-1.328 1-2.047 1-.734 2.829-.734h1.406v-.672q0-.75-.453-1.203-.454-.453-1.344-.453-.766 0-1.297.39-.516.391-.516.954h-1.453q0-.641.438-1.22.453-.593 1.219-.937.78-.343 1.703-.343 1.453 0 2.28.734.829.719.86 2v3.89q0 1.172.297 1.86v.125h-1.515zm-2.39-1.11q.672 0 1.281-.343.61-.36.89-.922v-1.734h-1.14q-2.656 0-2.656 1.562 0 .672.453 1.063.453.375 1.172.375zm7.547-7.343l.047 1.062q.968-1.218 2.53-1.218 2.673 0 2.704 3.015v5.594h-1.453v-5.594q0-.922-.422-1.36-.406-.437-1.266-.437-.703 0-1.234.375t-.828.985v6.031h-1.453v-8.453h1.375zm18.14 5.484h-4.765l-1.078 2.969h-1.547l4.344-11.375h1.312l4.36 11.375h-1.548l-1.078-2.969zm-4.312-1.234h3.86l-1.938-5.328-1.922 5.328zm9.156-4.25l.047.937q.922-1.093 2.5-1.093 1.781 0 2.422 1.359.422-.61 1.094-.984.671-.375 1.593-.375 2.782 0 2.829 2.937v5.672H444.5v-5.578q0-.906-.422-1.36-.406-.453-1.39-.453-.797 0-1.329.485-.53.484-.625 1.297v5.609h-1.453v-5.547q0-1.844-1.797-1.844-1.421 0-1.953 1.22v6.171h-1.437v-8.453h1.36zm12.266 4.14q0-1.234.484-2.218.485-1 1.36-1.531.875-.547 1.984-.547 1.734 0 2.797 1.203 1.062 1.187 1.062 3.172v.093q0 1.235-.469 2.22-.468.983-1.359 1.53-.875.547-2.015.547-1.72 0-2.782-1.187-1.062-1.203-1.062-3.172v-.11zm1.453.172q0 1.407.64 2.266.657.844 1.75.844 1.11 0 1.75-.86.657-.859.657-2.421 0-1.391-.672-2.25-.656-.86-1.75-.86-1.063 0-1.719.86-.656.843-.656 2.421zm13.14 3.297q-.843 1-2.468 1-1.36 0-2.063-.781-.703-.797-.719-2.328v-5.5h1.454v5.453q0 1.922 1.562 1.922 1.656 0 2.203-1.235v-6.14h1.438v8.453h-1.375l-.031-.844zm5.157-7.61l.047 1.063q.968-1.218 2.53-1.218 2.673 0 2.704 3.015v5.594h-1.453v-5.594q0-.922-.422-1.36-.406-.437-1.266-.437-.703 0-1.234.375t-.828.985v6.031h-1.453v-8.453h1.375zm9.594-2.046v2.047h1.578v1.11h-1.579v5.25q0 .5.204.765.218.25.718.25.25 0 .688-.094v1.172q-.563.156-1.11.156-.968 0-1.468-.578-.485-.594-.485-1.672v-5.25h-1.53v-1.11h1.53V23.05h1.454z"/><text style="line-height:1.25" x="378.594" y="157.406" font-weight="400" font-size="40" font-family="sans-serif" letter-spacing="0" word-spacing="0" fill="#000"><tspan x="378.594" y="157.406" style="-inkscape-font-specification:roboto" font-size="16" font-family="roboto" fill="#fff">$12K Savings</tspan></text><text style="line-height:1.25" x="376.154" y="259.51" font-weight="400" font-size="40" font-family="sans-serif" letter-spacing="0" word-spacing="0" fill="#000"><tspan x="376.154" y="259.51" style="line-height:.30000001px;-inkscape-font-specification:roboto" font-size="13.333" font-family="roboto">Interest and Fees</tspan></text><text style="line-height:1.25" x="412.024" y="275.334" font-weight="400" font-size="40" font-family="sans-serif" letter-spacing="0" word-spacing="0" fill="#000"><tspan x="412.024" y="275.334" style="line-height:.30000001px;-inkscape-font-specification:roboto" font-size="13.333" font-family="roboto">$20K</tspan></text><text style="line-height:1.25" x="149.154" y="218.01" font-weight="400" font-size="40" font-family="sans-serif" letter-spacing="0" word-spacing="0" fill="#000"><tspan x="149.154" y="218.01" style="line-height:.30000001px;-inkscape-font-specification:roboto" font-size="13.333" font-family="roboto">Interest and Fees</tspan></text><text style="line-height:1.25" x="185.024" y="233.834" font-weight="400" font-size="40" font-family="sans-serif" letter-spacing="0" word-spacing="0" fill="#000"><tspan x="185.024" y="233.834" style="line-height:.30000001px;-inkscape-font-specification:roboto" font-size="13.333" font-family="roboto">$32K</tspan></text></svg>