<?xml version="1.0" encoding="utf-8"?>
<!-- Generator: Adobe Illustrator 16.0.0, SVG Export Plug-In . SVG Version: 6.00 Build 0)  -->
<!DOCTYPE svg PUBLIC "-//W3C//DTD SVG 1.1//EN" "http://www.w3.org/Graphics/SVG/1.1/DTD/svg11.dtd">
<svg version="1.1" id="Layer_1" xmlns="http://www.w3.org/2000/svg" xmlns:xlink="http://www.w3.org/1999/xlink" x="0px" y="0px"
	 width="512px" height="512px" viewBox="0 0 512 512" enable-background="new 0 0 512 512" xml:space="preserve">
<g id="_x38_._box_x2C__save_x2C__money_x2C__coin_x2C__money_x2C__finance_x2C__bank">
	<g>
		<g>
			<circle fill="#F6BB42" cx="376.758" cy="40.224" r="19.979"/>
		</g>
	</g>
	<g opacity="0.4">
		<g>
			<path fill="#FFFFFF" d="M364.771,40.224c0-9.666,6.86-17.724,15.983-19.577c-1.288-0.262-2.63-0.402-3.996-0.402
				c-11.035,0-19.979,8.944-19.979,19.979s8.943,19.979,19.979,19.979c1.366,0,2.708-0.141,3.996-0.402
				C371.631,57.947,364.771,49.89,364.771,40.224z"/>
		</g>
	</g>
	<g>
		<g>
			<polygon fill="#82AF48" points="316.82,151.64 180.96,159.631 180.96,28.236 316.82,28.236 			"/>
		</g>
	</g>
	<g>
		<g>
			<polygon fill="#A0D468" points="300.837,156.604 196.944,156.604 196.944,52.211 204.935,44.22 292.845,44.22 300.837,52.211 			
				"/>
		</g>
	</g>
	<g opacity="0.3">
		<g>
			<rect x="180.96" y="28.236" fill="#FFFFFF" width="7.991" height="117.378"/>
		</g>
	</g>
	<g opacity="0.2">
		<g>
			<rect x="308.828" y="36.228" width="7.992" height="109.387"/>
		</g>
	</g>
	<g>
		<g>
			<circle fill="#F6BB42" cx="117.026" cy="108.153" r="23.975"/>
		</g>
	</g>
	<g opacity="0.4">
		<g>
			<path fill="#FFFFFF" d="M109.035,108.153c0-10.423,6.692-19.203,15.983-22.508c-2.513-0.89-5.174-1.468-7.992-1.468
				c-13.24,0-23.975,10.735-23.975,23.976s10.735,23.976,23.975,23.976c2.817,0,5.479-0.578,7.992-1.468
				C115.727,127.356,109.035,118.576,109.035,108.153z"/>
		</g>
	</g>
	<g>
		<g>
			<path fill="#82AF48" d="M276.861,125.159c0,13.24-10.738,23.976-23.975,23.976s-23.976-10.735-23.976-23.976
				c0-13.236,10.739-23.972,23.976-23.972S276.861,111.923,276.861,125.159z"/>
		</g>
	</g>
	<g>
		<g>
			<path fill="#EC87C0" d="M45.101,172.087c0,0-28.795,34.359,15.905,85.775l16.089-34.344
				C38.44,208.05,45.101,172.087,45.101,172.087z"/>
		</g>
	</g>
	<g>
		<g>
			<path fill="#EC87C0" d="M428.704,259.996c-5.674-31.967-20.136-59.938-39.958-69.928l-9.428,0.238
				c-0.961-42.753,17.419-74.161,17.419-74.161s-50.425-7.594-85.989,20.537c-4.16,3.359-8.155,7.113-11.831,11.508l-14.063-9.03
				c-11.668-1.998-23.655-3.036-35.963-3.036c-17.182,0-33.805,1.838-49.71,5.276c-84.073,18.461-146.087,83.031-146.087,166.546
				c0,0-4.714,104.049,81.038,141.058l-1.12,2.794l7.992,55.942h87.909l7.992-54.429h23.976l7.991,54.429h87.91l7.991-54.429
				l-0.476-1.67c64.409-16.623,64.409-79.761,64.409-79.761c39.959-7.992,47.95-15.983,47.95-15.983v-79.918
				C476.654,275.979,468.265,268.308,428.704,259.996z"/>
		</g>
	</g>
	<g opacity="0.2">
		<g>
			<path d="M428.704,259.996c-5.674-31.967-20.136-59.938-39.958-69.928l-8.117,0.203v4.995
				c15.758,12.658,27.198,37.176,32.092,64.729c39.561,8.312,47.95,15.983,47.95,15.983v79.918c0,0-7.991,7.991-47.95,15.983
				c0,0,0,63.138-64.41,79.761l0.477,1.67l-7.992,54.429h15.984l7.991-54.429l-0.476-1.67
				c64.409-16.623,64.409-79.761,64.409-79.761c39.959-7.992,47.95-15.983,47.95-15.983v-79.918
				C476.654,275.979,468.265,268.308,428.704,259.996z"/>
		</g>
	</g>
	<g opacity="0.3">
		<g>
			<g>
				<path fill="#FFFFFF" d="M304.333,178.58c10.489-46.451,75.063-61.022,92.404-62.435c-12.276-1.108-84.912-3.996-111.884,55.941
					C284.369,173.168,304.333,178.58,304.333,178.58z"/>
			</g>
		</g>
		<g>
			<g>
				<path fill="#FFFFFF" d="M158.105,449.004c-85.751-37.009-81.037-141.058-81.037-141.058
					c0-83.515,62.014-148.085,146.087-166.546c11.59-2.506,23.569-4.137,35.858-4.847c-3.369-0.16-6.705-0.43-10.123-0.43
					c-17.182,0-33.805,1.838-49.71,5.276c-84.073,18.461-146.087,83.031-146.087,166.546c0,0-4.714,104.049,81.038,141.058
					l-1.12,2.794l7.992,55.942h23.976l-7.992-55.942L158.105,449.004z"/>
			</g>
		</g>
	</g>
	<g>
		<g>
			<circle fill="#FFCE54" cx="117.026" cy="92.17" r="23.975"/>
		</g>
	</g>
	<g opacity="0.4">
		<g>
			<path fill="#FFFFFF" d="M101.043,92.17c0-11.87,8.651-21.661,19.979-23.573c-1.307-0.219-2.626-0.402-3.996-0.402
				c-13.24,0-23.975,10.735-23.975,23.976s10.735,23.976,23.975,23.976c1.37,0,2.689-0.184,3.996-0.402
				C109.694,113.831,101.043,104.04,101.043,92.17z"/>
		</g>
	</g>
	<g>
		<g>
			<circle fill="#FFCE54" cx="376.758" cy="24.24" r="19.979"/>
		</g>
	</g>
	<g opacity="0.4">
		<g>
			<path fill="#FFFFFF" d="M364.771,24.24c0-9.666,6.86-17.724,15.983-19.577c-1.288-0.262-2.63-0.402-3.996-0.402
				c-11.035,0-19.979,8.944-19.979,19.979s8.943,19.979,19.979,19.979c1.366,0,2.708-0.141,3.996-0.402
				C371.631,41.964,364.771,33.906,364.771,24.24z"/>
		</g>
	</g>
	<g opacity="0.3">
		<g>
			<polygon fill="#FFFFFF" points="284.854,507.74 268.869,507.74 260.878,453.312 276.861,453.312 			"/>
		</g>
	</g>
	<g opacity="0.3">
		<g>
			<rect x="188.952" y="28.236" fill="#FFFFFF" width="127.869" height="7.991"/>
		</g>
	</g>
	<g>
		<g>
			<g>
				<path fill="#3A3847" d="M117.026,120.141c-15.421,0-27.971-12.549-27.971-27.971s12.55-27.971,27.971-27.971
					s27.971,12.549,27.971,27.971S132.448,120.141,117.026,120.141z M117.026,72.19c-11.016,0-19.979,8.964-19.979,19.979
					s8.963,19.979,19.979,19.979s19.979-8.964,19.979-19.979S128.042,72.19,117.026,72.19z"/>
			</g>
		</g>
		<g>
			<g>
				<path fill="#3A3847" d="M117.026,136.124c-15.421,0-27.971-12.549-27.971-27.971c0-2.209,1.787-3.996,3.996-3.996
					c2.208,0,3.996,1.787,3.996,3.996c0,11.016,8.963,19.979,19.979,19.979s19.979-8.964,19.979-19.979
					c0-2.209,1.788-3.996,3.996-3.996c2.209,0,3.996,1.787,3.996,3.996C144.998,123.575,132.448,136.124,117.026,136.124z"/>
			</g>
		</g>
		<g>
			<g>
				<path fill="#3A3847" d="M117.026,104.157c-2.208,0-3.996-1.787-3.996-3.995V84.178c0-2.208,1.787-3.995,3.996-3.995
					s3.996,1.787,3.996,3.995v15.984C121.022,102.37,119.235,104.157,117.026,104.157z"/>
			</g>
		</g>
		<g>
			<g>
				<path fill="#3A3847" d="M93.051,112.149c-2.209,0-3.996-1.787-3.996-3.996V92.17c0-2.209,1.787-3.996,3.996-3.996
					c2.208,0,3.996,1.787,3.996,3.996v15.983C97.047,110.362,95.26,112.149,93.051,112.149z"/>
			</g>
		</g>
		<g>
			<g>
				<path fill="#3A3847" d="M141.001,112.149c-2.208,0-3.996-1.787-3.996-3.996V92.17c0-2.209,1.788-3.996,3.996-3.996
					c2.209,0,3.996,1.787,3.996,3.996v15.983C144.998,110.362,143.21,112.149,141.001,112.149z"/>
			</g>
		</g>
		<g>
			<g>
				<path fill="#3A3847" d="M376.758,48.216c-13.221,0-23.975-10.755-23.975-23.976s10.754-23.976,23.975-23.976
					s23.976,10.755,23.976,23.976S389.979,48.216,376.758,48.216z M376.758,8.257c-8.811,0-15.983,7.168-15.983,15.983
					s7.173,15.983,15.983,15.983c8.812,0,15.983-7.168,15.983-15.983S385.569,8.257,376.758,8.257z"/>
			</g>
		</g>
		<g>
			<g>
				<path fill="#3A3847" d="M376.758,64.199c-13.221,0-23.975-10.755-23.975-23.976c0-2.209,1.787-3.996,3.996-3.996
					c2.208,0,3.995,1.787,3.995,3.996c0,8.815,7.173,15.983,15.983,15.983c8.812,0,15.983-7.168,15.983-15.983
					c0-2.209,1.788-3.996,3.996-3.996c2.209,0,3.996,1.787,3.996,3.996C400.733,53.444,389.979,64.199,376.758,64.199z"/>
			</g>
		</g>
		<g>
			<g>
				<path fill="#3A3847" d="M356.779,43.26c-2.209,0-3.996-1.787-3.996-3.996V24.24c0-2.209,1.787-3.996,3.996-3.996
					c2.208,0,3.995,1.787,3.995,3.996v15.023C360.774,41.473,358.987,43.26,356.779,43.26z"/>
			</g>
		</g>
		<g>
			<g>
				<path fill="#3A3847" d="M396.737,43.821c-2.208,0-3.996-1.787-3.996-3.996V24.24c0-2.209,1.788-3.996,3.996-3.996
					c2.209,0,3.996,1.787,3.996,3.996v15.585C400.733,42.034,398.946,43.821,396.737,43.821z"/>
			</g>
		</g>
		<g>
			<g>
				<path fill="#3A3847" d="M376.758,32.232c-2.209,0-3.996-1.788-3.996-3.996v-7.992c0-2.208,1.787-3.996,3.996-3.996
					s3.996,1.788,3.996,3.996v7.992C380.754,30.444,378.967,32.232,376.758,32.232z"/>
			</g>
		</g>
		<g>
			<g>
				<path fill="#3A3847" d="M53.092,311.942c-2.208,0-3.996-1.787-3.996-3.996c0-82.352,59.969-150.848,149.224-170.448
					c16.487-3.562,33.497-5.369,50.569-5.369c2.209,0,3.996,1.787,3.996,3.995c0,2.209-1.787,3.996-3.996,3.996
					c-16.507,0-32.946,1.744-48.868,5.187c-85.486,18.773-142.934,84.131-142.934,162.64
					C57.088,310.155,55.301,311.942,53.092,311.942z"/>
			</g>
		</g>
		<g>
			<g>
				<path fill="#3A3847" d="M428.696,375.876c-1.865,0-3.527-1.311-3.91-3.215c-0.437-2.162,0.968-4.262,3.138-4.698
					c37.305-7.461,45.897-14.892,45.983-14.969c1.608-1.437,4.113-1.39,5.611,0.187c1.491,1.577,1.491,4.012-0.039,5.541
					c-0.905,0.906-10.005,9.077-49.995,17.076C429.227,375.853,428.962,375.876,428.696,375.876z"/>
			</g>
		</g>
		<g>
			<g>
				<path fill="#3A3847" d="M476.654,279.976c-0.968,0-1.928-0.344-2.7-1.046c-0.016-0.016-8.936-7.219-46.069-15.023
					c-2.162-0.452-3.543-2.571-3.091-4.733c0.461-2.158,2.599-3.527,4.729-3.086c39.49,8.295,48.887,16.084,49.832,16.943
					c1.623,1.49,1.74,4.019,0.249,5.65C478.816,279.538,477.739,279.976,476.654,279.976z"/>
			</g>
		</g>
		<g>
			<g>
				<path fill="#3A3847" d="M476.654,359.893c-2.208,0-3.996-1.787-3.996-3.995v-79.918c0-2.208,1.788-3.996,3.996-3.996
					c2.209,0,3.996,1.788,3.996,3.996v79.918C480.65,358.105,478.863,359.893,476.654,359.893z"/>
			</g>
		</g>
		<g>
			<g>
				<path fill="#3A3847" d="M356.771,457.308c-1.889,0-3.575-1.342-3.926-3.277c-0.391-2.17,1.045-4.246,3.215-4.645
					c2.529-0.46,4.901-0.99,7.203-1.615c60.578-15.624,61.438-73.439,61.445-75.89c0.008-2.209,1.795-3.996,3.995-3.996
					c0,0,0,0,0.008,0c2.201,0.008,3.988,1.795,3.988,3.996c0,0.663-0.772,66.431-67.407,83.632
					c-2.474,0.655-5.049,1.233-7.796,1.732C357.255,457.292,357.013,457.308,356.771,457.308z"/>
			</g>
		</g>
		<g>
			<g>
				<path fill="#3A3847" d="M428.696,263.992c-1.896,0-3.582-1.362-3.926-3.298c-5.774-32.513-20.268-58.209-37.819-67.06
					c-1.975-0.991-2.764-3.395-1.772-5.365c0.991-1.975,3.419-2.763,5.362-1.768c20.064,10.106,35.799,37.32,42.097,72.796
					c0.39,2.174-1.062,4.246-3.239,4.632C429.165,263.973,428.931,263.992,428.696,263.992z"/>
			</g>
		</g>
		<g>
			<g>
				<path fill="#3A3847" d="M284.861,143.156c-0.227,0-0.453-0.02-0.68-0.059c-11.543-1.975-23.417-2.978-35.292-2.978
					c-2.209,0-3.996-1.787-3.996-3.996c0-2.208,1.787-3.995,3.996-3.995c12.324,0,24.655,1.042,36.634,3.094
					c2.177,0.371,3.637,2.436,3.271,4.612C288.459,141.782,286.766,143.156,284.861,143.156z"/>
			</g>
		</g>
		<g>
			<g>
				<path fill="#3A3847" d="M380.27,208.05c-1.99,0-3.715-1.49-3.956-3.523c-0.586-4.897-0.913-9.525-0.991-14.149
					c-0.75-33.458,9.888-59.888,15.148-70.825c-13.854-0.933-50.315-1.034-77.24,20.264c-4.34,3.505-8.031,7.091-11.246,10.938
					c-5.604,6.743-9.998,14.208-13.416,22.812c-0.82,2.049-3.146,3.047-5.19,2.231c-2.052-0.815-3.052-3.137-2.239-5.189
					c3.691-9.264,8.639-17.665,14.703-24.971c3.566-4.261,7.617-8.206,12.394-12.065c36.54-28.899,86.965-21.704,89.095-21.38
					c1.312,0.199,2.436,1.034,3.013,2.228c0.569,1.194,0.516,2.596-0.155,3.738c-0.18,0.309-17.795,31.031-16.874,72.059
					c0.078,4.37,0.383,8.737,0.929,13.365c0.266,2.189-1.303,4.179-3.488,4.44C380.59,208.042,380.434,208.05,380.27,208.05z"/>
			</g>
		</g>
		<g>
			<g>
				<path fill="#3A3847" d="M268.861,511.735c-1.95,0-3.652-1.428-3.948-3.418l-7.989-54.42c-0.319-2.186,1.191-4.215,3.373-4.535
					c2.216-0.335,4.21,1.187,4.53,3.372l7.999,54.428c0.32,2.186-1.193,4.215-3.379,4.526
					C269.252,511.72,269.057,511.735,268.861,511.735z"/>
			</g>
		</g>
		<g>
			<g>
				<path fill="#3A3847" d="M356.779,511.735h-87.91c-2.208,0-3.995-1.787-3.995-3.995c0-2.209,1.787-3.996,3.995-3.996h87.91
					c2.208,0,3.995,1.787,3.995,3.996C360.774,509.948,358.987,511.735,356.779,511.735z"/>
			</g>
		</g>
		<g>
			<g>
				<path fill="#3A3847" d="M356.787,511.735c-0.195,0-0.391-0.016-0.586-0.047c-2.186-0.312-3.699-2.341-3.379-4.526l7.991-54.428
					c0.328-2.186,2.396-3.707,4.534-3.372c2.186,0.32,3.699,2.35,3.38,4.535l-7.992,54.42
					C360.439,510.308,358.729,511.735,356.787,511.735z"/>
			</g>
		</g>
		<g>
			<g>
				<path fill="#3A3847" d="M140.998,511.735c-1.959,0-3.668-1.436-3.953-3.434l-7.991-55.942c-0.312-2.185,1.206-4.206,3.391-4.519
					c2.166-0.32,4.207,1.21,4.523,3.395l7.992,55.942c0.312,2.186-1.206,4.207-3.391,4.519
					C141.376,511.72,141.185,511.735,140.998,511.735z"/>
			</g>
		</g>
		<g>
			<g>
				<path fill="#3A3847" d="M228.911,511.735h-87.909c-2.208,0-3.996-1.787-3.996-3.995c0-2.209,1.788-3.996,3.996-3.996h87.909
					c2.208,0,3.996,1.787,3.996,3.996C232.907,509.948,231.119,511.735,228.911,511.735z"/>
			</g>
		</g>
		<g>
			<g>
				<path fill="#3A3847" d="M228.915,511.735c-0.191,0-0.387-0.016-0.585-0.047c-2.181-0.312-3.691-2.341-3.372-4.526l7.992-54.428
					c0.319-2.186,2.313-3.715,4.534-3.372c2.181,0.32,3.691,2.35,3.371,4.535l-7.991,54.42
					C232.571,510.308,230.866,511.735,228.915,511.735z"/>
			</g>
		</g>
		<g>
			<g>
				<path fill="#3A3847" d="M141.001,455.794c-0.472,0-0.948-0.078-1.417-0.258c-2.408-0.913-4.815-1.834-7.137-2.911
					c-87.175-37.617-83.394-143.788-83.347-144.858c0.102-2.208,2.048-3.762,4.171-3.815c2.205,0.108,3.91,1.966,3.812,4.175
					c-0.043,1.007-3.527,101.762,78.63,137.21c2.247,1.038,4.476,1.881,6.704,2.724c2.064,0.788,3.102,3.09,2.322,5.158
					C144.135,454.811,142.613,455.794,141.001,455.794z"/>
			</g>
		</g>
		<g>
			<g>
				<path fill="#3A3847" d="M53.092,248.009c-1.019,0-2.033-0.387-2.813-1.159c-36.755-36.415-8.717-76.683-8.429-77.084
					c1.093-1.534,3.11-2.08,4.823-1.347c1.725,0.741,2.704,2.587,2.349,4.433c-0.226,1.19-5.28,29.298,21.918,43.65
					c1.951,1.03,2.701,3.45,1.67,5.4c-1.034,1.947-3.434,2.701-5.401,1.671c-17.349-9.155-23.616-23.301-25.68-34.57
					c-3.976,13.065-4.948,33.024,14.375,52.173c1.565,1.553,1.577,4.082,0.023,5.65C55.149,247.614,54.123,248.009,53.092,248.009z"
					/>
			</g>
		</g>
		<g>
			<g>
				<path fill="#3A3847" d="M180.96,136.124c-2.209,0-3.996-1.787-3.996-3.995V28.236c0-2.209,1.787-3.996,3.996-3.996
					c2.208,0,3.996,1.787,3.996,3.996v103.893C184.956,134.337,183.169,136.124,180.96,136.124z"/>
			</g>
		</g>
		<g>
			<g>
				<path fill="#3A3847" d="M316.82,32.232H180.96c-2.209,0-3.996-1.788-3.996-3.996c0-2.209,1.787-3.996,3.996-3.996h135.86
					c2.209,0,3.996,1.787,3.996,3.996C320.816,30.444,319.029,32.232,316.82,32.232z"/>
			</g>
		</g>
		<g>
			<g>
				<path fill="#3A3847" d="M316.82,112.149c-2.209,0-3.996-1.787-3.996-3.996V28.236c0-2.209,1.787-3.996,3.996-3.996
					s3.996,1.787,3.996,3.996v79.917C320.816,110.362,319.029,112.149,316.82,112.149z"/>
			</g>
		</g>
		<g>
			<g>
				<path fill="#3A3847" d="M196.944,136.124c-2.209,0-3.996-1.787-3.996-3.995V52.211c0-2.208,1.787-3.995,3.996-3.995
					c2.205,0,3.996-1.792,3.996-3.996c0-2.209,1.788-3.996,3.996-3.996h87.91c2.209,0,3.996,1.787,3.996,3.996
					c0,2.204,1.795,3.996,3.996,3.996c2.208,0,3.995,1.787,3.995,3.995v71.926c0,2.209-1.787,3.996-3.995,3.996
					c-2.209,0-3.996-1.787-3.996-3.996V55.524c-3.403-1.206-6.103-3.906-7.305-7.309h-81.288c-1.206,3.402-3.906,6.103-7.309,7.309
					v76.604C200.939,134.337,199.152,136.124,196.944,136.124z"/>
			</g>
		</g>
		<g>
			<g>
				<path fill="#3A3847" d="M276.861,128.133c-2.209,0-3.996-1.787-3.996-3.996c0-11.016-8.963-19.979-19.979-19.979
					c-11.017,0-19.979,8.964-19.979,19.979c0,2.209-1.788,3.996-3.996,3.996c-2.209,0-3.996-1.787-3.996-3.996
					c0-15.422,12.55-27.971,27.972-27.971c15.421,0,27.971,12.549,27.971,27.971C280.857,126.346,279.07,128.133,276.861,128.133z"
					/>
			</g>
		</g>
		<g>
			<g>
				<path fill="#3A3847" d="M248.89,391.86c-2.209,0-3.996-1.788-3.996-3.996V220.037c0-2.208,1.787-3.995,3.996-3.995
					s3.996,1.787,3.996,3.995v167.827C252.886,390.072,251.099,391.86,248.89,391.86z"/>
			</g>
		</g>
		<g>
			<g>
				<path fill="#3A3847" d="M276.861,367.885h-71.926c-2.208,0-3.996-1.787-3.996-3.996c0-2.208,1.788-3.996,3.996-3.996h71.926
					c6.493,0,11.191-1.592,12.253-4.167c1.069-2.576-1.132-7.024-5.729-11.629l-74.478-66.494
					c-9.938-9.927-9.033-17.091-7.625-20.49c1.409-3.402,5.83-9.104,19.636-9.104h71.926c2.209,0,3.996,1.787,3.996,3.996
					c0,2.208-1.787,3.995-3.996,3.995h-71.926c-6.494,0-11.188,1.597-12.253,4.168c-1.065,2.575,1.127,7.024,5.728,11.629
					l74.479,66.493c9.935,9.928,9.037,17.092,7.624,20.494C295.093,362.18,290.668,367.885,276.861,367.885z"/>
			</g>
		</g>
		<g>
			<g>
				<path fill="#3A3847" d="M268.869,457.308h-39.958c-2.209,0-3.996-1.779-3.996-3.996c0-2.2,1.787-3.996,3.996-3.996h39.958
					c2.209,0,3.996,1.796,3.996,3.996C272.865,455.528,271.078,457.308,268.869,457.308z"/>
			</g>
		</g>
	</g>
</g>
</svg>
