<?xml version="1.0" encoding="utf-8"?>
<!-- Generator: Adobe Illustrator 21.1.0, SVG Export Plug-In . SVG Version: 6.00 Build 0)  -->
<svg version="1.1" id="Icon_Set" xmlns="http://www.w3.org/2000/svg" xmlns:xlink="http://www.w3.org/1999/xlink" x="0px" y="0px"
	 viewBox="0 0 64 64" style="enable-background:new 0 0 64 64;" xml:space="preserve">
<style type="text/css">
	.st0{fill:none;stroke:#1A237E;stroke-linecap:round;stroke-linejoin:round;stroke-miterlimit:10;}
	.st1{fill:#4FC3F7;stroke:#1A237E;stroke-linecap:round;stroke-linejoin:round;stroke-miterlimit:10;}
	.st2{fill:#66BB6A;stroke:#1A237E;stroke-linecap:round;stroke-linejoin:round;stroke-miterlimit:10;}
	.st3{fill:#4FC3F7;}
	.st4{fill:#66BB6A;}
	.st5{fill:#E53935;stroke:#1A237E;stroke-linecap:round;stroke-linejoin:round;stroke-miterlimit:10;}
	.st6{fill:#FFA000;stroke:#1A237E;stroke-linecap:round;stroke-linejoin:round;stroke-miterlimit:10;}
	.st7{fill:#FFFFFF;stroke:#1A237E;stroke-linecap:round;stroke-linejoin:round;stroke-miterlimit:10;}
	.st8{fill:#FFA000;}
	.st9{fill:#E53935;}
	.st10{fill:#FAFAFA;stroke:#1A237E;stroke-linecap:round;stroke-linejoin:round;stroke-miterlimit:10;}
	.st11{fill:none;stroke:#1A237E;stroke-miterlimit:10;}
	.st12{fill:#FFD740;stroke:#1A237E;stroke-linecap:round;stroke-linejoin:round;stroke-miterlimit:10;}
	.st13{fill:none;stroke:#263238;stroke-linecap:round;stroke-linejoin:round;stroke-miterlimit:10;}
	.st14{fill:#4FC3F7;stroke:#1A237E;stroke-miterlimit:10;}
	.st15{fill:#FFFFFF;}
	.st16{fill:#FB8C00;stroke:#1A237E;stroke-linecap:round;stroke-linejoin:round;stroke-miterlimit:10;}
</style>
<g id="Beach">
	<g>
		<path class="st3" d="M62.5,44.3h-54v1c0,8.3,6.7,15,15,15h24c8.3,0,15-6.7,15-15V44.3z"/>
		<path class="st5" d="M7,41.5c2.6-1.1,3.8-4,2.7-6.5l-9.2,3.8C1.6,41.4,4.5,42.6,7,41.5z"/>
		<path class="st5" d="M16.3,37.7c2.6-1.1,3.8-4,2.7-6.5L9.7,35C10.8,37.5,13.7,38.8,16.3,37.7z"/>
		<polygon class="st5" points="9.7,35 10.2,9.9 0.5,38.8 		"/>
		<polygon class="st5" points="9.7,35 10.2,9.9 19,31.2 		"/>
		<path class="st5" d="M34.7,30c-2.6,1.1-5.5-0.2-6.5-2.7l9.2-3.8C38.5,26.1,37.3,29,34.7,30z"/>
		<path class="st5" d="M25.5,33.9C23,34.9,20,33.7,19,31.2l9.2-3.8C29.3,29.9,28.1,32.8,25.5,33.9z"/>
		<polygon class="st5" points="28.2,27.3 10.2,9.9 37.5,23.5 		"/>
		<polygon class="st5" points="28.2,27.3 10.2,9.9 19,31.2 		"/>
		<g>
			<circle class="st0" cx="46.5" cy="8.5" r="3"/>
			<line class="st0" x1="46.5" y1="0.5" x2="46.5" y2="3.5"/>
			<line class="st0" x1="46.5" y1="13.5" x2="46.5" y2="16.5"/>
			<line class="st0" x1="54.5" y1="8.5" x2="51.5" y2="8.5"/>
			<line class="st0" x1="41.5" y1="8.5" x2="38.5" y2="8.5"/>
			<line class="st0" x1="51.4" y1="3.6" x2="50" y2="5"/>
			<line class="st0" x1="43" y1="12" x2="41.6" y2="13.4"/>
			<line class="st0" x1="51.4" y1="13.4" x2="50" y2="12"/>
			<line class="st0" x1="43" y1="5" x2="41.6" y2="3.6"/>
		</g>
		<path class="st3" d="M48.5,31.8c0-1.1-0.9-2-2-2s-2,0.9-2,2c-1.1,0-2,0.9-2,2s0.9,2,2,2h4c1.1,0,2-0.9,2-2S49.6,31.8,48.5,31.8z"
			/>
		<path class="st3" d="M58.5,21.8c0-1.1-0.9-2-2-2s-2,0.9-2,2c-1.1,0-2,0.9-2,2s0.9,2,2,2h4c1.1,0,2-0.9,2-2S59.6,21.8,58.5,21.8z"
			/>
		<polyline class="st10" points="19.9,37.3 30.7,63.5 34,63.5 22.7,36.1 		"/>
		<g>
			<line class="st0" x1="26.6" y1="63.5" x2="38.6" y2="63.5"/>
			<line class="st0" x1="24.6" y1="63.5" x2="23.6" y2="63.5"/>
		</g>
		<path class="st0" d="M34.7,50.6c1.8,0,3.6-0.8,4.8-2.3l0,0l0,0c2.5,3.1,7.1,3.1,9.6,0l0,0l0,0c2.5,3.1,7.1,3.1,9.6,0l0,0l0,0
			c1.2,1.5,3,2.3,4.8,2.3"/>
		<path class="st0" d="M34.7,55.1c1.8,0,3.6-0.8,4.8-2.3l0,0l0,0c2.5,3.1,7.1,3.1,9.6,0l0,0l0,0c2.5,3.1,7.1,3.1,9.6,0l0,0l0,0
			c1.2,1.5,3,2.3,4.8,2.3"/>
	</g>
</g>
</svg>
