<svg version="1.1" id="Layer_1" xmlns="http://www.w3.org/2000/svg" x="0" y="0" viewBox="0 0 512 512" xml:space="preserve"><style>.st2{fill:#4a555f}</style><path class="st2" d="M.768 0v449.762h420.565l-24.428-24.135-18.912-38.233-14.525 9.711c-22.201 14.813-49.25 21.386-76.139 18.514-23.028-2.474-45.345-12.282-62.842-27.618-25.162-22.046-39.447-53.857-39.193-87.275.255-33.4 15.032-64.989 40.544-86.663 18.216-15.465 41.34-24.969 65.112-26.758 34.062-2.559 66.033 9.249 90.034 33.268 38.539 38.541 44.589 99.366 14.386 144.629l-9.711 14.526 38.249 18.942 17.054 16.847V0H.768zm433.888 400.42l-7.038-6.951-32.724-16.208 5.721-8.558c31.868-47.757 25.487-111.931-15.171-152.59-25.317-25.34-59.046-37.805-94.968-35.098-25.09 1.888-49.495 11.917-68.72 28.239-26.912 22.864-42.499 56.187-42.768 91.422-.268 35.254 14.801 68.812 41.344 92.067 18.463 16.184 42.017 26.534 66.325 29.145 28.37 3.028 56.886-3.907 80.313-19.54l8.555-5.719 16.196 32.739 14.255 14.086H7.075V6.307h427.581V400.42z"/><path d="M14.432 13.665v422.432H388.07l-2.397-2.355-13.034-26.342-1.577 1.072c-21.065 14.043-45.682 21.485-71.141 21.485-4.667 0-9.397-.252-14.043-.756-25.816-2.775-50.812-13.749-70.405-30.925-28.15-24.66-44.127-60.252-43.833-97.651.273-37.378 16.818-72.718 45.346-96.978l.694-.568H45.987V39.628h352.468V203.08H382.12a129.46 129.46 0 018.535 7.82c20.981 21.002 33.363 47.932 36.643 75.871V13.665H14.432zm85.899 211.216l41.31 41.625h-20.75v138.856h-40.7V266.506H59.042l41.289-41.625zm305.335 149.514l21.632 10.701v-68.24a127.499 127.499 0 01-20.56 55.941l-1.072 1.598z" fill="#dfdfdf"/><path class="st2" d="M205.605 316.028l-6.235.948c.326 2.141.724 4.295 1.184 6.4l6.161-1.344a96.883 96.883 0 01-1.11-6.004zm-1.061-12.158l-6.305.152c.051 2.164.172 4.349.36 6.495l6.282-.548a98.022 98.022 0 01-.337-6.099zm3.663 24.081l-6.062 1.737a102.07 102.07 0 001.99 6.197l5.939-2.121a94.8 94.8 0 01-1.867-5.813zm-1.143-48.304l-6.138-1.445a102.226 102.226 0 00-1.288 6.378l6.219 1.051a95.688 95.688 0 011.207-5.984zm-2.033 12.032l-6.274-.653c-.223 2.149-.38 4.333-.467 6.49l6.303.252c.081-2.024.228-4.073.438-6.089zm12.826 58.634l-5.422 3.221a100.689 100.689 0 003.507 5.489l5.202-3.566a93.599 93.599 0 01-3.287-5.144zm21.731-130.592l3.745 5.075a96.241 96.241 0 015.028-3.469l-3.414-5.303a102.693 102.693 0 00-5.359 3.697zm-1.329 162.794a102.839 102.839 0 005.292 3.782l3.5-5.247a94.975 94.975 0 01-4.961-3.546l-3.831 5.011zm-9.809-8.536a101.886 101.886 0 004.768 4.424l4.141-4.757a96.647 96.647 0 01-4.474-4.151l-4.435 4.484zm-3.695-13.598l-4.962 3.892a102.86 102.86 0 004.178 4.992l4.706-4.198a96.103 96.103 0 01-3.922-4.686zm-12.444-20.937l-5.792 2.499a101.829 101.829 0 002.771 5.892l5.619-2.866a94.383 94.383 0 01-2.598-5.525zm9.721-92.95l-5.143-3.65a102.71 102.71 0 00-3.592 5.421l5.367 3.314a96.184 96.184 0 013.368-5.085zm163.149 12.334l5.635-2.831a102.273 102.273 0 00-3.108-5.722l-5.443 3.188a95.212 95.212 0 012.916 5.365zm4.762 11.234l5.954-2.084a101.908 101.908 0 00-2.347-6.072l-5.806 2.461a96.627 96.627 0 012.199 5.695zm-10.934-21.764l5.227-3.531a101.018 101.018 0 00-3.819-5.275l-4.987 3.86a93.03 93.03 0 013.579 4.946zm-7.469-9.657l4.732-4.17a104.063 104.063 0 00-4.452-4.741l-.912-.901-4.404 4.515.856.846a96.742 96.742 0 014.18 4.451zm23.446 55.25l6.286-.511a102.803 102.803 0 00-.732-6.465l-6.241.907c.291 2 .523 4.041.687 6.069zm-1.76-12.077l6.171-1.304a102.179 102.179 0 00-1.55-6.323l-6.075 1.698a93.969 93.969 0 011.454 5.929zm-163.513-44.796l-4.636-4.275a102.586 102.586 0 00-4.256 4.921l4.898 3.973a98.011 98.011 0 013.994-4.619zm19.363 152.713c1.87 1.081 3.8 2.114 5.735 3.071l2.796-5.654a94.6 94.6 0 01-5.376-2.878l-3.155 5.461zm-33.445-132.862l-5.57-2.96a101.75 101.75 0 00-2.866 5.842l5.749 2.593a93.612 93.612 0 012.687-5.475zm22.909-28.293l-4.065-4.823a103.922 103.922 0 00-4.842 4.348l4.358 4.558a98.36 98.36 0 014.549-4.083zm-27.924 39.406l-5.905-2.219a101.805 101.805 0 00-2.092 6.159l6.034 1.837a94.536 94.536 0 011.963-5.777zm155.497-43.545a101.695 101.695 0 00-5.068-4.081l-3.796 5.036a95.64 95.64 0 014.754 3.829l4.11-4.784zm-41.569-14.975a95.151 95.151 0 015.843 1.758l2.012-5.976c-2.044-.689-4.14-1.32-6.231-1.878l-1.624 6.096zm31.455 169.355l3.712 5.1a101.082 101.082 0 005.138-4.001l-4.032-4.849a95.43 95.43 0 01-4.818 3.75zm17.718-16.732l4.872 4.005a101.222 101.222 0 003.965-5.155l-5.12-3.683a94.508 94.508 0 01-3.717 4.833zm-39.084 28.429l2.293 5.876c2.016-.787 4.03-1.649 5.986-2.56l-2.665-5.716a95.615 95.615 0 01-5.614 2.4zm12.433-171.825a94.353 94.353 0 015.198 3.185l3.47-5.266a100.417 100.417 0 00-5.547-3.401l-3.121 5.482zm-1.373 166.667l3.028 5.533c1.893-1.037 3.78-2.15 5.608-3.31l-3.377-5.325a94.952 94.952 0 01-5.259 3.102zm-95.16-172.677l3.065 5.512a94.164 94.164 0 015.427-2.791l-2.7-5.699c-1.95.924-3.9 1.926-5.792 2.978zm116.828 156.417c-.65.65-1.307 1.288-1.971 1.914l4.328 4.589a101.793 101.793 0 004.587-4.615l-4.611-4.303a98.011 98.011 0 01-2.333 2.415zm26.496-50.876l6.212 1.092c.372-2.117.682-4.283.92-6.441l-6.268-.694a96.754 96.754 0 01-.864 6.043zm7.735-18.344l-6.307.113a95.508 95.508 0 01-.09 6.104l6.301.292a102.419 102.419 0 00.096-6.509zm-10.605 30.199l6.021 1.875a100.716 100.716 0 001.734-6.272l-6.13-1.484a96.382 96.382 0 01-1.625 5.881zm-4.365 11.389l5.732 2.63c.901-1.965 1.75-3.982 2.522-5.996l-5.888-2.258a96.232 96.232 0 01-2.366 5.624zm-5.789 10.727l5.346 3.349a101.325 101.325 0 003.272-5.623l-5.551-2.995a93.222 93.222 0 01-3.067 5.269zm-44.73-138.84a95.226 95.226 0 015.568 2.492l2.761-5.67a102.99 102.99 0 00-5.937-2.659l-2.392 5.837zm-13.099 180.855l1.517 6.122a102.58 102.58 0 006.266-1.77l-1.909-6.011a94.975 94.975 0 01-5.874 1.659zm-49.974 5.518c2.082.568 4.21 1.077 6.326 1.512l1.271-6.177a96.273 96.273 0 01-5.936-1.42l-1.661 6.085zm1.641-196.638l1.558 6.112a95.365 95.365 0 015.96-1.318l-1.162-6.198c-2.124.398-4.264.87-6.356 1.404zm-12.376 4.019l2.328 5.861a95.736 95.736 0 015.742-2.069l-1.946-5.999a101.923 101.923 0 00-6.124 2.207zm-1.566 188.393c1.995.832 4.04 1.61 6.082 2.31l2.049-5.964a96.09 96.09 0 01-5.702-2.166l-2.429 5.82zm25.038 6.843c2.132.3 4.309.534 6.47.697l.474-6.288a96.232 96.232 0 01-6.068-.654l-.876 6.245zm1.69-201.655l.766 6.26a96.749 96.749 0 016.081-.548l-.367-6.297c-2.157.126-4.337.323-6.48.585zm25.121 6.393c2.015.269 4.042.606 6.021 1l1.232-6.186c-2.112-.42-4.27-.778-6.418-1.065l-.835 6.251zm-1.579 189.304l.725 6.266c2.142-.248 4.309-.57 6.438-.956l-1.125-6.206a95.52 95.52 0 01-6.038.896zm-10.592-190.146c2.031.011 4.082.087 6.098.228l.437-6.292a101.946 101.946 0 00-6.503-.242l-.032 6.306zm-.455 190.785l-1.138-.007-.082 6.307 1.223.007c1.761-.001 3.524-.046 5.285-.138l-.326-6.299a96.67 96.67 0 01-4.962.13z"/><path d="M360.255 241.293c-16.123-16.128-37.563-25.01-60.366-25.01-22.79 0-44.216 8.873-60.33 24.984-33.275 33.269-33.274 87.415.002 120.699 16.124 16.129 37.563 25.011 60.366 25.011 22.791 0 44.215-8.873 60.331-24.984 16.12-16.116 24.996-37.546 24.996-60.343-.001-22.799-8.879-44.233-24.999-60.357z" fill="#ffd452"/><path class="st2" d="M351.407 250.14c-13.757-13.761-32.051-21.34-51.511-21.34-19.446 0-37.729 7.571-51.481 21.32-13.735 13.732-21.298 32.019-21.298 51.493.001 19.474 7.564 37.763 21.299 51.5 13.758 13.762 32.052 21.341 51.511 21.341 19.448-.001 37.73-7.573 51.481-21.32 13.754-13.751 21.33-32.038 21.33-51.492-.001-19.453-7.576-37.744-21.331-51.502zm-4.458 98.534c-12.559 12.556-29.26 19.472-47.022 19.473-17.774 0-34.484-6.923-47.052-19.493-12.543-12.545-19.45-29.251-19.451-47.04 0-17.789 6.907-34.493 19.45-47.033 12.56-12.557 29.26-19.473 47.022-19.473 17.775 0 34.484 6.923 47.051 19.492 12.564 12.566 19.484 29.274 19.484 47.042 0 17.77-6.919 34.473-19.482 47.032z"/><path class="st2" d="M503.684 468.583l-76.068-75.113-32.721-16.203 5.712-8.555c31.88-47.754 25.505-111.935-15.16-152.607-25.322-25.33-59.053-37.806-94.961-35.096-25.096 1.885-49.504 11.917-68.729 28.248-26.909 22.861-42.496 56.181-42.766 91.414-.269 35.253 14.799 68.811 41.34 92.067 18.485 16.198 42.037 26.55 66.318 29.15 28.352 3.033 56.883-3.906 80.318-19.545l8.556-5.709 16.205 32.743 76.287 75.328c4.927 4.865 11.38 7.295 17.832 7.295 6.506 0 13.011-2.471 17.948-7.408 4.816-4.815 7.457-11.218 7.435-18.028-.02-6.81-2.7-13.195-7.546-17.981zm-4.346 31.549c-7.391 7.39-19.452 7.429-26.89.085l-75.534-74.585-18.921-38.229-14.524 9.694c-22.209 14.82-49.25 21.395-76.146 18.518-23.002-2.462-45.316-12.271-62.833-27.62-25.162-22.048-39.445-53.859-39.191-87.276.256-33.398 15.033-64.983 40.543-86.656 18.215-15.475 41.341-24.98 65.117-26.766 34.052-2.551 66.027 9.257 90.028 33.267 38.545 38.552 44.591 99.385 14.375 144.646l-9.698 14.525 38.244 18.937 75.344 74.4a18.938 18.938 0 015.672 13.513 18.93 18.93 0 01-5.586 13.547z"/><path d="M492.902 479.504l-74.31-73.378-28.145-13.936 13.896 28.074 74.457 73.521a9.97 9.97 0 007.05 2.894 9.965 9.965 0 007.094-2.938 9.974 9.974 0 002.941-7.129 9.97 9.97 0 00-2.983-7.108z" fill="#71cce0"/><path transform="rotate(-44.992 383.506 385.261)" class="st2" d="M373.959 382.105h19.12v6.308h-19.12z"/><path transform="rotate(-44.153 185.444 125.956)" class="st2" d="M182.289 99.079h6.307v53.759h-6.307z"/><path transform="rotate(-42.794 318.398 95.222)" class="st2" d="M315.237 79.963h6.306v30.541h-6.306z"/><path transform="rotate(-43.533 358.427 93.012)" class="st2" d="M339.609 89.864h37.628v6.307h-37.628z"/><path transform="rotate(-41.623 255.773 114.495)" class="st2" d="M208.446 111.338h94.634v6.306h-94.634z"/><path transform="rotate(-42.845 114.093 142.223)" class="st2" d="M61.319 139.066h105.545v6.306H61.319z"/><path class="st2" d="M100.337 220.403l-48.865 49.253h25.56v138.859h47.007V269.656h25.165l-48.867-49.253zm17.394 42.946v138.859H83.339V263.349H66.613l33.725-33.991 33.725 33.991h-16.332z"/><path fill="#f58e6f" d="M100.337 239.805l-16.058 16.186h6.418v138.858h19.678V255.991h6.021z"/><path class="st2" d="M142.686 408.737h6.307v-6.307h-6.307v6.307zm0-25.227h6.307v-6.307h-6.307v6.307zm0 12.613h6.307v-6.307h-6.307v6.307zm0-44.148v6.307h6.307v-6.307h-6.307zm0 18.921h6.307v-6.307h-6.307v6.307zm-93.893 10.841H55.1v-6.307h-6.307v6.307zm0-12.614H55.1v-6.307h-6.307v6.307zm0 25.227H55.1v-6.307h-6.307v6.307zm0 12.614H55.1v-6.307h-6.307v6.307zm0-81.989v6.307H55.1v-6.307h-6.307zm0 31.535H55.1v-6.307h-6.307v6.307zm0-12.614H55.1v-6.307h-6.307v6.307z"/><path class="st2" d="M52.034 306.157L36.98 322.865l4.685 4.221 10.193-11.312L61.252 327l4.837-4.049zm94.342 25.223l-15.053 16.708 4.684 4.221 10.193-11.312 9.394 11.226 4.837-4.049zM159.935 85.6c-7.391 0-13.404 6.013-13.404 13.404s6.013 13.404 13.404 13.404 13.404-6.013 13.404-13.404S167.326 85.6 159.935 85.6zm0 20.501c-3.913 0-7.097-3.184-7.097-7.097 0-3.913 3.184-7.097 7.097-7.097 3.913 0 7.097 3.184 7.097 7.097 0 3.913-3.184 7.097-7.097 7.097zm52.084 32.316c-7.391 0-13.404 6.013-13.404 13.404s6.013 13.404 13.404 13.404c7.392 0 13.405-6.013 13.405-13.404s-6.013-13.404-13.405-13.404zm0 20.501c-3.913 0-7.097-3.184-7.097-7.097 0-3.913 3.184-7.097 7.097-7.097 3.914 0 7.098 3.184 7.098 7.097 0 3.913-3.184 7.097-7.098 7.097zm87.889-94.54c-7.391 0-13.404 6.013-13.404 13.405 0 7.391 6.013 13.404 13.404 13.404s13.404-6.013 13.404-13.404c0-7.392-6.013-13.405-13.404-13.405zm0 20.502c-3.913 0-7.097-3.184-7.097-7.097 0-3.914 3.184-7.098 7.097-7.098 3.913 0 7.097 3.184 7.097 7.098 0 3.913-3.184 7.097-7.097 7.097zm37.056 14.278c-7.391 0-13.404 6.013-13.404 13.404 0 7.392 6.013 13.405 13.404 13.405s13.404-6.013 13.404-13.405c0-7.391-6.014-13.404-13.404-13.404zm0 20.502c-3.913 0-7.097-3.184-7.097-7.098 0-3.913 3.184-7.097 7.097-7.097s7.097 3.184 7.097 7.097c0 3.914-3.184 7.098-7.097 7.098zm-231.786 74.917h6.307v-6.307h-6.307v6.307zm-12.613 0h6.307v-6.307h-6.307v6.307zm-37.841 0h6.307v-6.307h-6.307v6.307zm63.068 0h6.307v-6.307h-6.307v6.307zm-50.455 0h6.307v-6.307h-6.307v6.307zm12.614 0h6.307v-6.307h-6.307v6.307zm63.069 0h6.307v-6.307h-6.307v6.307zm37.84 0h6.307v-6.307h-6.307v6.307zm12.614-6.307v6.307h6.307v-6.307h-6.307zm-25.227 6.307h6.307v-6.307h-6.307v6.307zm-12.614 0h6.307v-6.307h-6.307v6.307zm-25.227 0h6.307v-6.307h-6.307v6.307zm-75.809-62.635h6.307v-6.307h-6.307v6.307zm0 25.227h6.307v-6.307h-6.307v6.307zm0 12.613h6.307v-6.307h-6.307v6.307zm0 12.614h6.307v-6.307h-6.307v6.307zm0-37.841h6.307v-6.307h-6.307v6.307zm0-63.068h6.307V75.18h-6.307v6.307zm0-18.921v6.307h6.307v-6.307h-6.307zm0 56.762h6.307v-6.307h-6.307v6.307zm0-12.614h6.307v-6.307h-6.307v6.307zm0-12.613h6.307v-6.307h-6.307v6.307zm328.158 38.939h6.307v-6.307h-6.307v6.307zm0 12.614h6.307v-6.307h-6.307v6.307zm0 25.227h6.307v-6.307h-6.307v6.307zm0 12.614h6.307v-6.307h-6.307v6.307zm0-25.228h6.307v-6.307h-6.307v6.307zm0-75.682h6.307v-6.307h-6.307v6.307zm0 37.841h6.307v-6.307h-6.307v6.307zm0-56.761v6.307h6.307v-6.307h-6.307zm0 31.534h6.307v-6.307h-6.307v6.307zm0 12.613h6.307v-6.307h-6.307v6.307zm-164.09-50.456h6.307v-6.307h-6.307v6.307zm-50.455 0h6.307v-6.307h-6.307v6.307zm-37.841 0h6.307v-6.307h-6.307v6.307zm12.613 0h6.307v-6.307h-6.307v6.307zm50.455 0h6.307v-6.307h-6.307v6.307zm-12.614 0h6.307v-6.307h-6.307v6.307zm-25.227 0h6.307v-6.307h-6.307v6.307zm-37.841 0h6.307v-6.307h-6.307v6.307zm-50.454 0h6.307v-6.307h-6.307v6.307zm-12.614 0h6.307v-6.307h-6.307v6.307zm25.227 0h6.307v-6.307h-6.307v6.307zm25.228 0h6.307v-6.307h-6.307v6.307zm-12.614 0h6.307v-6.307h-6.307v6.307zm113.523 0h6.307v-6.307h-6.307v6.307zm138.75 0h6.307v-6.307h-6.307v6.307zm-25.227 0h6.307v-6.307h-6.307v6.307zm12.614 0h6.307v-6.307h-6.307v6.307zm25.227 0h6.307v-6.307h-6.307v6.307zm12.613 0h6.307v-6.307h-6.307v6.307zm12.614-6.307v6.307h6.307v-6.307h-6.307zm-100.909 6.307h6.307v-6.307h-6.307v6.307zm-25.228 0h6.307v-6.307h-6.307v6.307zm50.455 0h6.307v-6.307h-6.307v6.307zm-63.068 0h6.307v-6.307h-6.307v6.307zm25.227 0h6.307v-6.307h-6.307v6.307zm25.227 0h6.307v-6.307h-6.307v6.307zm-63.068 0h6.307v-6.307h-6.307v6.307z"/></svg>