<svg version="1.1" id="Layer_1" xmlns="http://www.w3.org/2000/svg" x="0" y="0" viewBox="0 0 256 256" xml:space="preserve"><style>.st0{fill:#e9e9ea}.st1{fill:#60bae2}.st2{fill:#f9d0b4}.st4{fill:#f75c64}.st5{fill:#6dcc6d}.st6{fill:#231f20}</style><g id="_40_Deal-Agreement"><path class="st0" d="M97.91 114.8l-5.75-5.75L57.2 144l5.75 5.75a1.76 1.76 0 002.49.001l.001-.001 32.469-32.463c.685-.687.685-1.8 0-2.487zm60.18 0l5.75-5.75L198.8 144l-5.75 5.75a1.76 1.76 0 01-2.49.001l-.001-.001-32.469-32.463a1.762 1.762 0 010-2.487z"/><path class="st0" d="M93.346 105.369l-49.841-49.84a1.945 1.945 0 00-2.75 0L3.07 93.2a1.945 1.945 0 000 2.751L52.918 145.8a1.76 1.76 0 002.49.001l.001-.001 37.937-37.94a1.761 1.761 0 000-2.491z"/><path class="st1" d="M252.93 93.2l-37.685-37.672a1.945 1.945 0 00-2.75 0l-49.841 49.841a1.76 1.76 0 00-.001 2.49l.001.001 37.938 37.94a1.76 1.76 0 002.49.001l.001-.001 49.847-49.85a1.945 1.945 0 000-2.75z"/><path class="st2" d="M123.034 155.136l5.05-4.953 32.232 32.3 7.292-7.292a24.447 24.447 0 004.481-6.159l2.083-4.074a26.844 26.844 0 014.92-6.763l9.953-9.953-29.418-29.418-5.188 5.044a22.707 22.707 0 01-11.809 6.092l-6.175 1.131a29.228 29.228 0 00-15.47 8.094l-6.951 6.951a6.365 6.365 0 009 9z"/><path class="st2" d="M160.066 190.315a5.713 5.713 0 000-8.079c-3.81-3.81-26.568-26.628-26.568-26.628l-5.413-5.425-5.05 4.953a6.383 6.383 0 01-8.939.06 6.511 6.511 0 01.061-9.183l6.829-6.828a29.189 29.189 0 017.014-5.174 29.224 29.224 0 00-8.455-2.92l-6.176-1.131a22.707 22.707 0 01-11.809-6.092l-5.188-5.044-29.418 29.418 9.953 9.953a26.844 26.844 0 014.92 6.763l2.083 4.075a24.447 24.447 0 004.481 6.159l39.246 39.246a5.819 5.819 0 007.992.306 5.713 5.713 0 00.2-8.267 5.713 5.713 0 108.076-8.082 5.711 5.711 0 008.079-8.075 5.712 5.712 0 008.078-.001l.004-.004z"/><path d="M86.8 204.123a11.072 11.072 0 01-8.788-8.788.2.2 0 00-.239-.151.202.202 0 00-.151.151 11.072 11.072 0 01-8.788 8.788.2.2 0 00-.151.239.202.202 0 00.151.151 11.072 11.072 0 018.788 8.788.2.2 0 00.239.151.202.202 0 00.151-.151 11.072 11.072 0 018.788-8.788.2.2 0 000-.39z" fill="#ffcd29"/><path class="st4" d="M52.858 175a2.5 2.5 0 11-.026-5l8.689-.094a2.5 2.5 0 11.054 5l-8.69.094h-.027z"/><path class="st4" d="M57.249 179.3a2.5 2.5 0 01-2.5-2.473l-.094-8.689a2.5 2.5 0 012.473-2.527h.027a2.5 2.5 0 012.5 2.473l.094 8.689a2.5 2.5 0 01-2.473 2.527h-.027z"/><path class="st5" d="M42.379 206.817a2.256 2.256 0 01-.485-.05 2.49 2.49 0 01-.47-.14 2.772 2.772 0 01-.43-.23 2.462 2.462 0 01-.92-1.125 2.531 2.531 0 01-.145-.465 2.69 2.69 0 010-.98 2.61 2.61 0 01.375-.895 2.22 2.22 0 01.31-.38c.116-.117.244-.222.38-.315a2.664 2.664 0 01.9-.37 2.462 2.462 0 011.445.145c.15.062.294.137.43.225a2.8 2.8 0 01.38.315c.117.115.221.242.31.38a2.61 2.61 0 01.375.895 2.69 2.69 0 010 .98 2.456 2.456 0 01-.145.465 2.438 2.438 0 01-.92 1.125c-.136.089-.28.166-.43.23a2.49 2.49 0 01-.47.14 2.302 2.302 0 01-.49.05z"/><path class="st1" d="M166.084 69.157h-8.69a2.5 2.5 0 110-5h8.69a2.5 2.5 0 110 5z"/><path class="st1" d="M161.739 73.5a2.5 2.5 0 01-2.5-2.5v-8.687a2.5 2.5 0 115 0V71a2.5 2.5 0 01-2.5 2.5z"/><path class="st5" d="M139.019 42.312a2.483 2.483 0 01-2.305-1.545 2.456 2.456 0 01-.145-.465 2.39 2.39 0 010-.975 2.505 2.505 0 01.375-.9 2.497 2.497 0 014.575 1.385c0 .164-.015.328-.045.49a2.531 2.531 0 01-.145.465 2.438 2.438 0 01-.92 1.125c-.136.089-.28.166-.43.23a3.23 3.23 0 01-.47.145 2.69 2.69 0 01-.49.045z"/><path class="st6" d="M64.2 152.769a4.24 4.24 0 01-3.014-1.248l-5.749-5.751a2.5 2.5 0 010-3.535l34.956-34.957a2.57 2.57 0 013.535 0l5.75 5.75a4.258 4.258 0 01.005 6.022l-.005.005-32.467 32.465a4.23 4.23 0 01-3.011 1.249zM60.738 144l3.46 3.46 31.421-31.421-3.46-3.459L60.738 144zm35.4-27.437zm95.662 36.206a4.234 4.234 0 01-3.014-1.249l-32.465-32.466a4.258 4.258 0 01-.003-6.022l.003-.003 5.75-5.75a2.57 2.57 0 013.535 0l34.956 34.957a2.5 2.5 0 010 3.535l-5.75 5.75a4.23 4.23 0 01-3.012 1.248zm-31.421-36.728l31.421 31.421 3.46-3.459-31.421-31.421-3.46 3.459zm-2.29-1.245z"/><path class="st6" d="M54.163 148.813a4.231 4.231 0 01-3.013-1.248L1.3 97.717a4.446 4.446 0 010-6.287l37.687-37.67a4.452 4.452 0 016.286 0l49.84 49.84a4.26 4.26 0 01.002 6.025l-.002.002-37.937 37.938a4.231 4.231 0 01-3.013 1.248zM5.23 94.575l48.933 48.933 36.893-36.893L42.13 57.688 5.23 94.575zm86.348 12.563zm110.259 41.675a4.234 4.234 0 01-3.014-1.249l-37.937-37.937a4.26 4.26 0 01-.002-6.025l.002-.002 49.84-49.839a4.45 4.45 0 016.286 0l37.688 37.67a4.447 4.447 0 010 6.288l-31.04 31.04-18.807 18.808a4.24 4.24 0 01-3.016 1.246zm-36.893-42.2l36.893 36.893 18.285-18.285 30.648-30.646-36.9-36.886-48.926 48.924zm86.218-11.647zm-90.846 90.017c-.664 0-1.3-.264-1.769-.734L128.065 153.7l-3.272 3.209a8.864 8.864 0 01-12.526-12.545l6.95-6.95a31.572 31.572 0 0116.794-8.787l6.169-1.13a20.433 20.433 0 0010.568-5.474l5.137-5a2.5 2.5 0 013.511.025l29.418 29.418a2.5 2.5 0 010 3.535l-9.953 9.953a24.298 24.298 0 00-4.461 6.146l-2.084 4.075a26.878 26.878 0 01-4.937 6.788l-7.294 7.293a2.5 2.5 0 01-1.769.727zm-32.232-37.3a2.492 2.492 0 011.77.734l30.465 30.53 5.523-5.523a21.872 21.872 0 004.021-5.529l2.084-4.075a29.288 29.288 0 015.378-7.393l8.186-8.185-25.911-25.908-3.421 3.326a25.397 25.397 0 01-13.177 6.771l-6.1 1.118a26.606 26.606 0 00-14.153 7.4l-6.95 6.95a3.883 3.883 0 000 5.464 3.977 3.977 0 005.465 0l.017-.017 5.05-4.953a2.49 2.49 0 011.753-.71z"/><path class="st6" d="M146.64 154.116a29.694 29.694 0 01-14.82-4.065l-2 1.93a2.5 2.5 0 11-3.475-3.6l3.431-3.315a2.5 2.5 0 013.263-.183 23.948 23.948 0 0019.9 3.358 2.5 2.5 0 011.34 4.817 28.507 28.507 0 01-7.639 1.058z"/><path class="st6" d="M131.843 218.7a8.44 8.44 0 01-5.974-2.494l-39.246-39.247a26.933 26.933 0 01-4.939-6.789L79.6 166.1a24.296 24.296 0 00-4.462-6.132l-9.953-9.954a2.5 2.5 0 010-3.535L94.6 117.056a2.5 2.5 0 013.511-.025l5.188 5.044a20.305 20.305 0 0010.441 5.413l6.25 1.144a31.693 31.693 0 019.173 3.169 2.5 2.5 0 010 4.421 26.713 26.713 0 00-6.416 4.731l-6.828 6.829a4.14 4.14 0 00-1.192 2.941 3.734 3.734 0 001.108 2.682 3.876 3.876 0 005.427-.037l5.066-4.97a2.5 2.5 0 013.521.019l5.414 5.425s22.757 22.817 26.565 26.627a8.21 8.21 0 01.003 11.611l-.003.003a8.188 8.188 0 01-5.679 2.4 8.2 8.2 0 01-8.073 8.083A8.207 8.207 0 01140 210.64v.069a8.166 8.166 0 01-8.158 7.99l.001.001zm-61.354-70.458l8.186 8.186a29.292 29.292 0 015.379 7.393l2.082 4.075a21.91 21.91 0 004.023 5.53l39.241 39.243a3.334 3.334 0 004.543.223 3.212 3.212 0 00.116-4.651 2.501 2.501 0 013.536-3.536 3.212 3.212 0 104.541-4.544 2.501 2.501 0 013.535-3.536 3.29 3.29 0 004.544 0 3.216 3.216 0 000-4.541 2.501 2.501 0 013.536-3.536 3.21 3.21 0 004.538-4.547l-.001-.001c-3.811-3.811-26.57-26.631-26.57-26.631l-3.662-3.67-3.28 3.218a8.893 8.893 0 01-12.434.067 8.695 8.695 0 01-2.62-6.231 9.17 9.17 0 012.657-6.51l6.828-6.829a31.597 31.597 0 013.431-2.971 26.704 26.704 0 00-3.547-.9l-6.182-1.132a25.276 25.276 0 01-13.05-6.71l-3.459-3.367-25.911 25.908z"/><path class="st6" d="M151.99 192.818a2.49 2.49 0 01-1.768-.732l-25.939-25.94a2.5 2.5 0 013.535-3.535l25.939 25.94a2.5 2.5 0 01-1.768 4.268l.001-.001zm-8.082 8.075a2.49 2.49 0 01-1.768-.732l-25.94-25.937a2.5 2.5 0 013.535-3.535l25.937 25.937a2.5 2.5 0 01-1.768 4.268l.004-.001zm-8.075 8.082a2.49 2.49 0 01-1.768-.732L108.126 182.3a2.5 2.5 0 113.535-3.535l25.939 25.942a2.5 2.5 0 01-1.767 4.268z"/></g></svg>