<svg version="1.1" id="Layer_1" xmlns="http://www.w3.org/2000/svg" x="0" y="0" viewBox="0 0 512 512" xml:space="preserve"><style>.st2{fill:#4a555f}.st4{fill:#f58e6f}</style><path class="st2" d="M404.438 255.046l16.797-48.12V0H29.325v512h391.91V285.676l-42.769 122.458c-.08.231-8.29 23.267-25.798 38.75l-2.21 2.095-.439-3.128c-4.03-22.872 3.843-45.957 3.948-46.259l50.471-144.546zm-61.187 191.875l2.271 16.177 11.772-11.163c18.795-16.617 27.288-40.532 27.64-41.541l29.449-84.321v179.075H36.176V6.852h378.207v198.912l-66.885 191.569c-.355 1.014-8.582 24.997-4.247 49.588z"/><path d="M406.389 204.404V14.844H44.17v482.303h362.218V373.203l-13.909 39.83c-.388 1.073-9.501 26.767-29.736 44.763l-22.975 21.765-4.408-31.334c-4.636-26.676 4.202-52.437 4.591-53.533l66.438-190.29zM334.927 95.076H115.609V51.82h219.318v43.256z" fill="#dfdfdf"/><path class="st2" d="M112.195 48.397v50.099h226.168V48.397H112.195zm219.316 43.247H119.046V55.248h212.465v36.396zm-230.588 58.963h253.721v6.851H100.923zm0 45.694h253.721v6.851H100.923zm0 45.693h253.721v6.852H100.923zm0 45.694h253.721v6.852H100.923zm40.522 45.693h167.664v6.852H141.445zm115.058 120.824h79.232v6.852h-79.232zm-145.533 0h79.234v6.852H110.97zm288.119-204.643l-52.722 151.006 37.44 13.072 52.722-151.006-37.44-13.072zm-19.493 155.35l-24.504-8.555L403.3 258.289l24.505 8.555-48.209 138.068z"/><path transform="rotate(-70.756 391.438 331.608)" class="st4" d="M326.321 326.617h130.255v9.967H326.321z"/><path class="st2" d="M426.857 170.033l-30.024 85.998 37.44 13.072 30.022-85.997-37.438-13.073zm3.205 90.342l-24.505-8.555 25.51-73.06 24.502 8.556-25.507 73.059z"/><path transform="rotate(-70.756 430.561 219.577)" class="st4" d="M399.866 214.584h61.398v9.967h-61.398z"/><path class="st2" d="M431.039 158.054l-5.31 15.213 6.467 2.259 3.054-8.745 38.7 13.512-38.482 110.212 6.468 2.259 40.739-116.681zm-82.415 236.045l-1.128 3.234c-.353 1.009-8.58 25-4.222 49.714l.35 1.976 12.171 4.251 1.503-1.33c18.792-16.63 27.286-40.528 27.638-41.538l1.128-3.235-37.44-13.072zm5.605 51.372l-4.525-1.581c-2.527-17.165 1.336-34.08 3.267-41.016l24.235 8.461c-2.797 6.625-10.284 22.249-22.977 34.136z"/><path class="st4" d="M358.723 413.347c-.926 4.814-1.751 10.825-1.853 17.291 3.943-5.125 7.041-10.343 9.312-14.686l-7.459-2.605z"/><path class="st2" d="M342.471 441.364l3.064 21.736 15.927-15.105z"/><path fill="#ffd452" d="M127.029 63.24h196.48v20.418h-196.48z"/></svg>