<svg version="1.1" id="Layer_1" xmlns="http://www.w3.org/2000/svg" x="0" y="0" viewBox="0 0 512 512" xml:space="preserve"><style>.st1{fill:#dfdfdf}.st2{fill:#4a555f}</style><path class="st2" d="M165.819 37.217l32.413 216.721 20.725-16.621v-1.257L263.12 22.677l-97.301 14.54zm46.815 196.684l-9.55 7.644-29.729-198.752 81.352-12.155-42.073 203.263z"/><path class="st1" d="M182.426 49.508l28.42 190.057 4.796-3.823v-.022l11.978-57.879 23.624-114.079 5.238-25.326z"/><path class="st2" d="M251.733 67.04l-.98-6.556-43.079 6.435 16.668 111.413 6.556-.982L215.21 72.496z"/><path class="st2" d="M261.044 0l-48.127 232.531-.814.037.045 2.174-.79 1.119.682.9-.842 4.069 3.056-1.082c4.213 6.146 17.419 22.379 43.515 29.872l.218.078c6.94 2.468 14.887 3.719 23.623 3.719h126.56c1.243 0 2.426.096 3.624.296a22.15 22.15 0 0110.532 4.773l4.698 3.919L476.237 44.54 261.044 0zM422.68 270.683a28.789 28.789 0 00-9.807-3.512 28.69 28.69 0 00-4.703-.384H281.611c-7.053 0-13.497-.877-19.197-2.609v-.135l-2.415-.681c-25.697-7.245-38.066-24.001-40.85-28.242L266.193 7.836l202.21 41.852-45.723 220.995z"/><path class="st1" d="M272.39 17.277l-44.71 216.07c3.707 4.837 12.364 14.082 27.554 20.004 0-.045-.022-.068-.022-.113-.317-1.627-.542-3.278-.746-4.928v-.045c-.61-5.357-.565-10.872.136-16.41.068-.588.158-1.198.249-1.786.181-1.176.384-2.351.633-3.549a60.42 60.42 0 011.108-4.543 58.652 58.652 0 011.379-4.408 60.951 60.951 0 011.65-4.249 66.86 66.86 0 011.899-4.092 72.854 72.854 0 012.916-5.199 74.099 74.099 0 013.323-4.883 68.908 68.908 0 0116.84-16.071c1.605-1.085 3.255-2.102 4.95-3.052s3.436-1.831 5.199-2.645a87.4 87.4 0 013.345-1.424 69.608 69.608 0 013.436-1.243c.407-.135.814-.271 1.198-.384.361-.113.723-.226 1.062-.316 10.624-3.165 22.152-3.797 33.747-1.401 1.537.316 3.052.678 4.543 1.085 1.492.43 2.961.882 4.408 1.379a97.113 97.113 0 014.25 1.65 67.143 67.143 0 014.091 1.898 72.635 72.635 0 015.199 2.916c1.673 1.04 3.301 2.17 4.883 3.323 20.977 15.619 32.188 42.473 26.537 69.778a62.298 62.298 0 01-1.017 4.159h17.744c2.034 0 4.069.158 5.99.497.881.135 1.74.316 2.622.52l42.179-203.932L272.39 17.277z"/><path class="st2" d="M366.861 182.184a83.86 83.86 0 00-5.102-3.469 75.696 75.696 0 00-5.43-3.047 70.8 70.8 0 00-4.312-2 98.326 98.326 0 00-4.455-1.728 93.734 93.734 0 00-4.614-1.443 77.982 77.982 0 00-4.744-1.133c-11.753-2.43-23.979-1.919-35.275 1.445-.382.103-.792.229-1.144.339-.408.121-.844.266-1.31.42a77.634 77.634 0 00-3.617 1.31 95.473 95.473 0 00-3.503 1.492 78.198 78.198 0 00-5.428 2.761 72.709 72.709 0 00-5.184 3.195 72.076 72.076 0 00-17.656 16.851 77.656 77.656 0 00-3.479 5.118 75.834 75.834 0 00-3.047 5.431 69.275 69.275 0 00-1.981 4.269 62.086 62.086 0 00-1.731 4.452 61.264 61.264 0 00-1.446 4.612 64.1 64.1 0 00-1.168 4.789 70.233 70.233 0 00-.662 3.715 49.637 49.637 0 00-.261 1.875c-.725 5.731-.779 11.453-.162 17.013l.024.265c.188 1.521.427 3.323.775 5.122a69.779 69.779 0 001.836 7.591 56.398 56.398 0 001.999 5.787v1.698l2.204.783c6.94 2.468 14.887 3.719 23.623 3.719h106.728l1.068-2.142c.071-.146.143-.297.225-.448l.125-.255c.419-.956.814-1.911 1.217-2.907a75.901 75.901 0 002.113-6.029 79.892 79.892 0 001.604-6.318v-.006c5.708-27.584-5.206-56.28-27.83-73.127zm21.338 71.782a73.414 73.414 0 01-1.463 5.771 68.57 68.57 0 01-1.914 5.459c-.216.536-.434 1.065-.654 1.591H281.611c-7.385 0-14.106-.961-20.002-2.861a51.174 51.174 0 01-1.466-4.375 63.056 63.056 0 01-1.679-6.943c-.3-1.554-.514-3.136-.684-4.501l-.022-.217c-.581-5.093-.535-10.348.136-15.661.062-.545.146-1.11.231-1.661.171-1.118.367-2.236.602-3.378a57.74 57.74 0 011.06-4.34 56.446 56.446 0 011.31-4.19 57.799 57.799 0 011.571-4.043c.594-1.392 1.2-2.7 1.804-3.891a68.724 68.724 0 012.778-4.949 70.172 70.172 0 013.168-4.656 65.415 65.415 0 0116.033-15.299 66.13 66.13 0 014.716-2.906 70.41 70.41 0 014.938-2.513 83.999 83.999 0 013.194-1.361 68.262 68.262 0 013.302-1.195c.361-.12.721-.24 1.118-.357.313-.099.628-.198 1.012-.302 10.342-3.078 21.452-3.541 32.131-1.332 1.47.302 2.918.647 4.297 1.024 1.439.415 2.853.849 4.191 1.308a92.141 92.141 0 014.085 1.586 62.96 62.96 0 013.893 1.804c1.636.83 3.259 1.74 4.944 2.775 1.42.882 2.95 1.924 4.655 3.166 20.539 15.295 30.458 41.377 25.272 66.447z"/><path class="st2" d="M290.08 42.324l-23.639 114.23 6.492 1.344L295.229 50.16l134.618 27.859-22.296 107.738 6.492 1.345L437.681 72.87zm65.524 190.555a19.746 19.746 0 00-12.584-8.55 18.405 18.405 0 00-13.948 2.662 18.426 18.426 0 00-7.979 11.745l-.537 2.596a11.844 11.844 0 01-5.128 7.548 11.838 11.838 0 01-8.963 1.711l-1.21-.25a13.16 13.16 0 01-8.387-5.699 13.168 13.168 0 01-1.901-9.96c1.48-7.154 8.514-11.771 15.657-10.289l.328.068 1.347-6.492-.33-.068c-10.726-2.224-21.273 4.703-23.494 15.436a19.747 19.747 0 002.853 14.946 19.737 19.737 0 0012.582 8.549l1.211.25a18.436 18.436 0 0013.948-2.662 18.436 18.436 0 007.979-11.746l.538-2.596a11.84 11.84 0 015.128-7.547 11.85 11.85 0 018.965-1.711 13.163 13.163 0 018.387 5.698 13.165 13.165 0 011.901 9.959c-1.483 7.153-8.508 11.765-15.66 10.289l-1.343 6.492c1.355.281 2.717.42 4.068.419 3.837 0 7.595-1.115 10.875-3.271a19.741 19.741 0 008.551-12.584 19.746 19.746 0 00-2.854-14.943z"/><path transform="rotate(-78.317 284.367 232.487)" class="st2" d="M281.06 224.991h6.629v15.002h-6.629z"/><path transform="rotate(-78.317 362.561 248.665)" class="st2" d="M359.241 241.171h6.629v15h-6.629z"/><path class="st2" d="M369.455 246.792l.011 3.366-.671 3.193.42.088.257-1.223.005 1.206v-1.225l1.102-5.245z"/><path class="st1" d="M391.24 409.024v.068h1.289z"/><path class="st2" d="M35.763 255.546v249.872h117.666V255.546H35.763zm111.036 243.242H42.393V262.176h104.406v236.612z"/><path fill="#ffd452" d="M50.381 270.163h88.431V490.8H50.381z"/><path class="st2" d="M94.595 283.29c-13.05 0-23.669 10.618-23.669 23.67s10.618 23.67 23.669 23.67c13.053 0 23.671-10.618 23.671-23.67s-10.619-23.67-23.671-23.67zm0 40.71c-9.395 0-17.039-7.644-17.039-17.04 0-9.396 7.644-17.04 17.039-17.04 9.397 0 17.041 7.644 17.041 17.04 0 9.395-7.645 17.04-17.041 17.04zm337.499-44.409c-3.928-5.815-9.731-10.005-16.34-11.799a28.962 28.962 0 00-7.584-1.006H281.611c-42.736 0-62.941-32.433-63.137-32.756l-1.895-3.14-2.933 2.201c-.192.145-4.811 3.616-12.636 9.984L170.992 267.5l-24.204 19.122v192.174L210.249 512h173.735c11.973 0 21.715-9.741 21.715-21.714v-9.539c0-6.181-2.596-11.768-6.755-15.727 13.055-2.799 22.872-14.428 22.872-28.306v-13.29c0-9.671-4.767-18.278-12.131-23.531a28.924 28.924 0 0015.657-11.533 28.771 28.771 0 004.949-16.18v-13.314c0-7.604-3.099-15.053-8.508-20.438a29.074 29.074 0 00-4.18-3.442 28.883 28.883 0 008.971-5.029 28.868 28.868 0 002.05-1.868 28.962 28.962 0 003.531-4.283 28.818 28.818 0 004.94-16.183v-11.889c.001-5.716-1.73-11.299-5.001-16.143zm-1.627 28.033c0 4.47-1.317 8.785-3.805 12.475a22.571 22.571 0 01-4.308 4.747 22.318 22.318 0 01-14.184 5.095h-5.188l-1.068 6.195 3.032.736.268.055c4.431.775 8.654 2.977 11.894 6.2 4.165 4.148 6.554 9.885 6.554 15.739v13.314c0 4.469-1.317 8.781-3.811 12.468a22.301 22.301 0 01-18.5 9.838h-7.062l-2.624.08-1.56 6.411 3.988.215c11.829.635 21.094 10.4 21.094 22.232v13.29c0 12.307-10.012 22.319-22.32 22.319h-8.883v6.63c8.317 0 15.085 6.767 15.085 15.085v9.539c0 8.317-6.768 15.084-15.085 15.084H211.881l-58.463-30.587V289.835l21.72-17.162 30.055-24.454c4.23-3.44 7.545-6.051 9.684-7.713 6.425 8.733 27.735 32.911 66.735 32.911H408.17c1.988 0 3.954.26 5.849.775 5.074 1.377 9.543 4.613 12.58 9.111v.001c2.529 3.744 3.867 8.042 3.867 12.431v11.889z"/><path class="st1" d="M420.038 287.732a14.53 14.53 0 00-1.763-2.147c-.317-.317-.656-.611-1.017-.927-1.786-1.469-4.837-3.255-9.087-3.255H281.612c-35.036 0-57.143-17.993-67.902-29.792-1.063.859-2.238 1.786-3.481 2.803l-30.176 24.548-18.648 14.738v176.242l52.441 27.441h170.139c3.904 0 7.098-3.194 7.098-7.098v-9.539c0-3.904-3.194-7.098-7.098-7.098a3.843 3.843 0 01-3.843-3.843v-14.919a3.843 3.843 0 013.843-3.843h8.883c7.915 0 14.331-6.416 14.331-14.331v-13.291c0-1.582-.249-3.097-.746-4.521-.113-.362-.249-.701-.384-1.04a12.928 12.928 0 00-1.221-2.261 7.408 7.408 0 00-.61-.859c-.023-.068-.068-.113-.135-.181a3.848 3.848 0 00-.475-.588c-.181-.203-.339-.384-.542-.565a14.292 14.292 0 00-.859-.814c-.317-.271-.611-.52-.927-.746-.362-.271-.746-.497-1.13-.723s-.768-.452-1.176-.633a20.808 20.808 0 00-1.266-.52 16.151 16.151 0 00-.972-.316 14.063 14.063 0 00-3.097-.497l-1.13-.068-1.289-.068c-5.832-.362-9.9-5.9-8.499-11.573l.949-3.843a9.331 9.331 0 019.064-7.12h8.589c6.284 0 12.025-4.091 13.834-10.533.361-1.289.497-2.622.497-3.933v-13.156c0-.407-.023-.791-.068-1.266l-.045-.362a14.836 14.836 0 00-.158-1.108l-.09-.407c-.09-.316-.159-.633-.249-.949l-.136-.407a9.574 9.574 0 00-.316-.859l-.181-.429a10.304 10.304 0 00-.339-.701l-.271-.52c-.113-.204-.249-.384-.452-.746l-.249-.362-.723-.972-.339-.384a15.099 15.099 0 00-3.571-2.916l-.113-.068c-.271-.158-.588-.293-.882-.452l-.203-.091a11.724 11.724 0 00-1.13-.452 11.253 11.253 0 00-.972-.316l-.249-.068c-.361-.09-.724-.181-1.13-.249l-1.944-.316c-5.13-.835-8.583-5.708-7.671-10.825l.71-3.984a9.344 9.344 0 019.199-7.705h4.069a14.05 14.05 0 009.087-3.278c.362-.294.701-.587 1.04-.927a14.516 14.516 0 001.74-2.125c1.605-2.351 2.442-5.131 2.442-8.002v-11.89c-.001-2.864-.837-5.644-2.442-7.995z"/></svg>