<svg version="1.1" id="Layer_1" xmlns="http://www.w3.org/2000/svg" x="0" y="0" viewBox="0 0 512 512" xml:space="preserve"><style>.st1{fill:#dfdfdf}.st2{fill:#4a555f}.st3{fill:#ffd452}.st4{fill:#f58e6f}</style><path class="st1" d="M278.593 150.049h-46.375c-28.281 0-51.653 21.464-54.555 49.024v.019c16.711 21.795 42.363 36.364 71.481 38.194 2.065.156 4.168.215 6.272.215 1.013 0 2.045-.02 3.058-.059a97.13 97.13 0 0037.006-8.492c.117-.039.214-.098.331-.156 17.354-8.609 29.819-21.074 37.318-30.111-3.097-27.346-26.411-48.634-54.536-48.634z"/><path class="st2" d="M283.907 69.37c-8.097-8.098-18.865-12.557-30.317-12.556-23.641.002-42.874 19.236-42.874 42.877 0 11.452 4.459 22.218 12.557 30.316 8.098 8.097 18.865 12.556 30.317 12.556 23.641-.001 42.874-19.236 42.874-42.876.001-11.453-4.46-22.22-12.557-30.317zm-30.316 67.349c-9.892 0-19.191-3.851-26.185-10.844-6.995-6.994-10.847-16.293-10.847-26.184 0-20.418 16.613-37.032 37.031-37.034 9.891 0 19.192 3.851 26.186 10.845 6.994 6.994 10.846 16.292 10.846 26.184 0 20.42-16.613 37.032-37.031 37.033z"/><path class="st3" d="M274.483 78.795c-5.58-5.58-12.999-8.653-20.89-8.653-16.292.001-29.547 13.256-29.547 29.548 0 7.892 3.073 15.312 8.654 20.891 5.579 5.58 13 8.653 20.891 8.652 16.293-.001 29.546-13.256 29.546-29.548-.001-7.891-3.074-15.31-8.654-20.89z"/><path class="st4" d="M241.135 139.641l7.733 18.258h10.292l7.593-18.258z"/><path class="st4" d="M259.175 157.898h-10.304l-11.959 62.716 12.231 16.672c2.065.156 4.168.215 6.272.215 1.013 0 2.045-.02 3.058-.059l11.823-16.614c-3.506-21.6-11.121-62.93-11.121-62.93z"/><path class="st2" d="M236.725 136.719l10.206 24.102h14.178l10.022-24.102h-34.406zm20.485 18.259h-6.406l-5.259-12.416h16.829l-5.164 12.416z"/><path class="st2" d="M273.18 220.36c-3.471-21.383-11.055-62.579-11.131-62.992l-.441-2.392h-15.154l-12.65 66.341 13.779 18.781 1.339.101c1.988.15 4.112.223 6.492.223 1.052 0 2.123-.021 3.171-.061l1.436-.055 13.35-18.762-.191-1.184zm-16.246 14.204c-2.225.044-4.35 0-6.241-.105l-10.673-14.548 11.269-59.092h5.451c1.638 8.935 7.441 40.749 10.478 59.294l-10.284 14.451z"/><path class="st2" d="M344.113 185.786c-8.46-28.886-35.403-49.06-65.52-49.06h-46.375c-30.105 0-57.04 20.174-65.5 49.06l-.341 1.165.584 1.063a101.333 101.333 0 007.78 12.042l.603.813c17.768 23.172 44.599 37.509 73.579 39.33 1.988.15 4.112.223 6.492.223 1.052 0 2.123-.021 3.144-.06 13.219-.392 26.013-3.321 38.03-8.708a4.93 4.93 0 00.521-.243c17.786-8.823 30.627-21.653 38.275-30.872a125.353 125.353 0 003.943-5.052 96.477 96.477 0 004.54-7.469l.588-1.065-.343-1.167zm-9.552 6.324a121.309 121.309 0 01-3.68 4.708c-7.281 8.774-19.5 20.991-36.369 29.359l-.23.108c-11.338 5.096-23.416 7.867-35.92 8.237a76.18 76.18 0 01-2.946.057c-2.231 0-4.211-.068-6.089-.209-27.003-1.698-52.002-14.905-68.742-36.278l-.604-.798a95.345 95.345 0 01-7.302-11.026c8.109-25.791 32.417-43.699 59.54-43.699h46.375c27.135 0 51.451 17.907 59.561 43.698a89.07 89.07 0 01-3.594 5.843z"/><path class="st2" d="M255.415 38.854c-55.577 0-100.793 45.216-100.793 100.794 0 16.897 4.266 33.621 12.339 48.366a101.333 101.333 0 007.78 12.042l.603.813c17.768 23.172 44.599 37.509 73.579 39.33 1.988.15 4.112.223 6.492.223 1.052 0 2.123-.021 3.144-.06 13.219-.392 26.013-3.321 38.03-8.708.175-.068.341-.147.521-.243 17.786-8.823 30.627-21.653 38.275-30.872a125.353 125.353 0 003.943-5.052 96.411 96.411 0 004.544-7.477c8.07-14.741 12.337-31.465 12.337-48.363-.001-55.578-45.216-100.793-100.794-100.793zm83.336 146.342c-1.425 2.584-2.821 4.881-4.19 6.914a121.309 121.309 0 01-3.68 4.708c-7.281 8.774-19.5 20.991-36.369 29.359l-.23.108c-11.338 5.096-23.416 7.867-35.92 8.237a76.18 76.18 0 01-2.946.057c-2.231 0-4.211-.068-6.089-.209-27.003-1.698-52.002-14.905-68.742-36.278l-.604-.798a95.358 95.358 0 01-7.895-12.089c-7.602-13.885-11.62-29.638-11.62-45.557 0-52.356 42.595-94.951 94.95-94.951 52.356 0 94.951 42.595 94.951 94.951-.002 15.92-4.019 31.673-11.616 45.548zM135.225 139.64c-.001-1.393.023-2.78.07-4.162l-5.839-.2a124.026 124.026 0 00-.064 5.979l5.843-.074c-.007-.513-.01-1.027-.01-1.543zm.215 7.245l-5.834.346c.118 1.986.285 3.991.496 5.961l5.811-.622a119.309 119.309 0 01-.473-5.685zm1.214 11.344l-5.775.896c.303 1.957.66 3.939 1.059 5.889l5.725-1.172a119.41 119.41 0 01-1.009-5.613zm-.436-34.116l-5.795-.748a126.876 126.876 0 00-.624 5.947l5.824.472c.152-1.888.352-3.795.595-5.671zm1.994-11.225l-5.698-1.295c-.436 1.918-.835 3.89-1.186 5.858l5.752 1.027c.335-1.88.715-3.76 1.132-5.59zm20.064 97.539l-4.719 3.445a126.895 126.895 0 003.64 4.746l4.552-3.663a120.674 120.674 0 01-3.473-4.528zm-19.338-41.026l-5.662 1.442c.492 1.93 1.035 3.869 1.616 5.762l5.586-1.714a117.142 117.142 0 01-1.54-5.49zm2.329-67.494l-5.548-1.833a124.865 124.865 0 00-1.74 5.722l5.63 1.565a117.32 117.32 0 011.658-5.454zm19.789 121.278a127.095 127.095 0 004.069 4.382l4.187-4.078a119.225 119.225 0 01-3.882-4.179l-4.374 3.875zm-14.412-32.349l-5.284 2.494a128.186 128.186 0 002.678 5.347l5.162-2.739a121.392 121.392 0 01-2.556-5.102zm5.35 10.071l-5.023 2.984a126.38 126.38 0 003.174 5.069l4.877-3.22a121.033 121.033 0 01-3.028-4.833zm-6.643-109.629l-5.349-2.353a127.216 127.216 0 00-2.272 5.515l5.453 2.098a123.136 123.136 0 012.168-5.26zm226.23 17.434l5.649-1.497a125.604 125.604 0 00-1.672-5.744l-5.569 1.769c.57 1.796 1.107 3.637 1.592 5.472zm-3.452-10.877l5.478-2.033a126.309 126.309 0 00-2.218-5.565l-5.375 2.288a127.461 127.461 0 012.115 5.31zm-4.48-10.505l5.257-2.549a127.287 127.287 0 00-2.737-5.324l-5.132 2.792a119.925 119.925 0 012.612 5.081zm-5.461-10.028l4.991-3.036a126.354 126.354 0 00-3.23-5.04l-4.843 3.27a119.09 119.09 0 013.082 4.806zm17.119 53.879l5.828-.403a122.35 122.35 0 00-.555-5.955l-5.801.683c.218 1.868.397 3.777.528 5.675zm-1.33-11.324l5.763-.955a125.079 125.079 0 00-1.117-5.875l-5.714 1.23c.397 1.832.755 3.716 1.068 5.6zM163.358 62.365l-4.474-3.759a126.662 126.662 0 00-3.736 4.665l4.645 3.543c1.147-1.503 2.347-3 3.565-4.449zm-6.912 9.062l-4.808-3.321a127.49 127.49 0 00-3.277 4.993l4.959 3.091a119.221 119.221 0 013.126-4.763zm195.357-3.585l4.683-3.494a127.105 127.105 0 00-3.688-4.708l-4.516 3.709a123.171 123.171 0 013.521 4.493zM150.425 81.093l-5.101-2.851a128.77 128.77 0 00-2.788 5.279l5.229 2.606a119.409 119.409 0 012.66-5.034zm198.464-25.982a130.494 130.494 0 00-4.112-4.338l-4.146 4.118a121.713 121.713 0 013.926 4.14l4.332-3.92zm-186.052-.988l4.291 3.966a121.89 121.89 0 013.969-4.096l-4.099-4.164a125.985 125.985 0 00-4.161 4.294zm-20.558 126.18l-5.499 1.978c.674 1.873 1.4 3.75 2.159 5.58l5.398-2.239a117.61 117.61 0 01-2.058-5.319zm218.686 16.855l5.128 2.8c.949-1.74 1.872-3.528 2.741-5.316l-5.257-2.552a118.705 118.705 0 01-2.612 5.068zm-12.764 18.869l4.508 3.717a124.956 124.956 0 003.696-4.704l-4.683-3.498a118.166 118.166 0 01-3.521 4.485zm6.828-9.132l4.839 3.273a123.791 123.791 0 003.233-5.034l-4.991-3.038a121.564 121.564 0 01-3.081 4.799zm-14.492 17.582l4.139 4.125a122.723 122.723 0 004.12-4.336l-4.329-3.922a118.477 118.477 0 01-3.93 4.133zM332.22 47.196a123.531 123.531 0 014.297 3.75l3.945-4.312a129.364 129.364 0 00-4.502-3.929l-3.74 4.491zm-9.098-6.865a122.132 122.132 0 014.63 3.326l3.519-4.664a127.223 127.223 0 00-4.85-3.486l-3.299 4.824zm51.631 113.63l5.801.688c.236-1.989.426-3.991.563-5.954l-5.828-.409c-.131 1.87-.311 3.78-.536 5.675zm6.656-17.212l-5.843.129a121.026 121.026 0 01-.004 5.706l5.843.145a132.48 132.48 0 00.004-5.98zm-15.46 50.153l5.371 2.298a126.549 126.549 0 002.224-5.555l-5.478-2.037a118.612 118.612 0 01-2.117 5.294zm-52.52-152.543c1.657.916 3.312 1.881 4.917 2.87l3.066-4.974a128.688 128.688 0 00-5.156-3.011l-2.827 5.115zM171.354 45.737l3.9 4.351c1.4-1.255 2.859-2.501 4.339-3.706l-3.69-4.531c-1.55 1.263-3.08 2.57-4.549 3.886zM369.932 176.22l5.565 1.775a124.146 124.146 0 001.681-5.74l-5.645-1.506a122.398 122.398 0 01-1.601 5.471zm2.942-11.015l5.71 1.236c.422-1.944.801-3.921 1.126-5.875l-5.763-.96c-.31 1.862-.671 3.746-1.073 5.599zM212.172 21.227l2.007 5.487a119.883 119.883 0 015.414-1.832l-1.74-5.579c-1.909.597-3.82 1.243-5.681 1.924zm23.135-6.019l.926 5.769c1.858-.298 3.759-.556 5.649-.768l-.651-5.807c-1.981.222-3.974.493-5.924.806zm-11.704 2.453l1.47 5.655c1.834-.477 3.7-.915 5.55-1.302l-1.196-5.719c-1.942.406-3.901.866-5.824 1.366zm-22.474 8.208l2.52 5.272a118.7 118.7 0 015.212-2.34l-2.266-5.386a127.57 127.57 0 00-5.466 2.454zm-10.544 5.673l3.009 5.008a121.766 121.766 0 014.964-2.824l-2.769-5.145a126.13 126.13 0 00-5.204 2.961zm-9.954 6.644l3.471 4.7a121.176 121.176 0 014.671-3.28l-3.245-4.86c-1.653 1.103-3.3 2.26-4.897 3.44zm122.582-8.849c1.733.751 3.471 1.556 5.166 2.39l2.579-5.244a126.334 126.334 0 00-5.417-2.506l-2.328 5.36zM281.57 22.31c1.843.409 3.705.869 5.535 1.369l1.537-5.638a126.315 126.315 0 00-5.805-1.435l-1.267 5.704zm-34.384-8.434l.377 5.832c1.883-.122 3.798-.201 5.697-.233l-.103-5.843c-1.988.035-3.996.117-5.971.244zm45.382 11.432c1.805.588 3.614 1.223 5.377 1.891l2.069-5.465c-1.849-.7-3.747-1.367-5.64-1.982l-1.806 5.556zm-33.602-5.801c1.887.054 3.804.154 5.695.299l.445-5.826a127.298 127.298 0 00-5.972-.314l-.168 5.841zm11.372.866c1.881.233 3.779.515 5.64.834l.993-5.758a126.652 126.652 0 00-5.914-.876l-.719 5.8z"/><path class="st1" d="M148.722 382.931h-46.375c-28.281 0-51.653 21.464-54.555 49.023v.02c16.711 21.794 42.363 36.363 71.481 38.194 2.065.156 4.168.214 6.272.214 1.013 0 2.045-.019 3.058-.058a97.13 97.13 0 0037.006-8.492c.117-.039.214-.098.331-.156 17.354-8.609 29.819-21.074 37.318-30.112-3.097-27.344-26.411-48.633-54.536-48.633z"/><path class="st2" d="M154.037 302.253c-8.098-8.097-18.862-12.555-30.313-12.555h-.004c-23.641.001-42.874 19.235-42.874 42.876 0 11.452 4.459 22.218 12.557 30.316 8.098 8.097 18.865 12.557 30.317 12.556 23.641-.001 42.874-19.236 42.874-42.876 0-11.453-4.459-22.22-12.557-30.317zm-30.317 67.349c-9.892 0-19.191-3.851-26.185-10.844-6.995-6.994-10.847-16.293-10.847-26.184 0-20.419 16.613-37.032 37.031-37.033h.004c9.89 0 19.188 3.852 26.182 10.845 6.994 6.994 10.845 16.292 10.845 26.184.001 20.419-16.611 37.031-37.03 37.032z"/><path class="st3" d="M144.612 311.678c-5.579-5.58-12.999-8.653-20.89-8.652-16.292.001-29.547 13.256-29.547 29.548 0 7.892 3.073 15.311 8.654 20.891 5.58 5.58 13 8.653 20.891 8.652 16.293-.001 29.546-13.256 29.546-29.548 0-7.892-3.074-15.311-8.654-20.891z"/><path class="st4" d="M111.264 372.524l7.734 18.258h10.292l7.592-18.258z"/><path class="st4" d="M129.304 390.781H119l-11.959 62.716 12.231 16.672c2.065.156 4.168.214 6.272.214 1.013 0 2.045-.019 3.058-.058l11.823-16.614c-3.506-21.6-11.121-62.93-11.121-62.93z"/><path class="st2" d="M106.854 369.602l10.208 24.101h14.178l10.021-24.101h-34.407zm20.487 18.258h-6.408l-5.259-12.415h16.83l-5.163 12.415z"/><path class="st2" d="M143.308 453.243c-3.47-21.383-11.056-62.579-11.132-62.992l-.44-2.392h-15.154l-12.65 66.341 13.779 18.781 1.341.101c1.988.15 4.111.224 6.491.224 1.05 0 2.121-.021 3.171-.061l1.435-.055 13.35-18.762-.191-1.185zm-16.243 14.204c-2.233.047-4.351 0-6.243-.105l-10.673-14.548 11.269-59.092h5.452c1.638 8.934 7.442 40.748 10.479 59.294l-10.284 14.451z"/><path class="st2" d="M214.242 418.668c-8.46-28.885-35.403-49.06-65.519-49.06h-46.375c-30.106 0-57.041 20.174-65.5 49.061l-.342 1.164.584 1.063a101.208 101.208 0 007.78 12.042l.603.813c17.768 23.172 44.599 37.508 73.58 39.33 1.988.15 4.111.224 6.491.224 1.05 0 2.121-.021 3.145-.06 13.218-.392 26.014-3.322 38.032-8.709a5.34 5.34 0 00.517-.242c17.783-8.822 30.626-21.652 38.277-30.873a126.248 126.248 0 003.943-5.051 96.578 96.578 0 004.538-7.469l.587-1.065-.341-1.168zm-9.549 6.324a123.378 123.378 0 01-3.682 4.708c-7.282 8.776-19.502 20.994-36.368 29.36l-.23.108c-11.339 5.096-23.416 7.867-35.921 8.237a76.18 76.18 0 01-2.946.057c-2.231 0-4.21-.067-6.088-.209-27.004-1.698-52.003-14.905-68.743-36.278l-.604-.798a95.345 95.345 0 01-7.302-11.026c8.108-25.791 32.416-43.699 59.54-43.699h46.375c27.134 0 51.45 17.908 59.559 43.699a89.44 89.44 0 01-3.59 5.841z"/><path class="st2" d="M125.544 271.737c-55.578 0-100.794 45.216-100.794 100.794 0 16.897 4.266 33.621 12.34 48.366a101.208 101.208 0 007.78 12.042l.603.813c17.768 23.172 44.599 37.508 73.58 39.33 1.988.15 4.111.224 6.491.224 1.05 0 2.121-.021 3.145-.06 13.218-.392 26.014-3.322 38.033-8.709.169-.067.333-.146.516-.242 17.783-8.822 30.626-21.652 38.277-30.873a126.248 126.248 0 003.943-5.051 96.824 96.824 0 004.543-7.477c8.07-14.742 12.337-31.466 12.337-48.363 0-55.579-45.216-100.794-100.794-100.794zM208.88 418.08c-1.422 2.578-2.816 4.875-4.187 6.912a123.378 123.378 0 01-3.682 4.708c-7.282 8.776-19.502 20.994-36.368 29.36l-.23.108c-11.339 5.096-23.416 7.867-35.921 8.237a76.18 76.18 0 01-2.946.057c-2.231 0-4.21-.067-6.088-.209-27.004-1.698-52.003-14.905-68.743-36.278l-.604-.798a95.287 95.287 0 01-7.895-12.089c-7.603-13.884-11.621-29.638-11.621-45.557 0-52.356 42.595-94.95 94.951-94.95s94.951 42.594 94.951 94.95c-.002 15.919-4.02 31.671-11.617 45.549z"/><path class="st1" d="M408.464 382.931h-46.375c-28.281 0-51.653 21.464-54.555 49.023v.02c16.711 21.794 42.363 36.363 71.481 38.194 2.065.156 4.168.214 6.272.214 1.013 0 2.045-.019 3.058-.058a97.13 97.13 0 0037.006-8.492c.117-.039.214-.098.331-.156 17.354-8.609 29.819-21.074 37.318-30.112-3.097-27.344-26.412-48.633-54.536-48.633z"/><path class="st2" d="M413.778 302.253c-8.097-8.097-18.863-12.555-30.313-12.555h-.004c-23.641.001-42.874 19.235-42.874 42.876 0 11.451 4.46 22.218 12.557 30.316 8.099 8.097 18.865 12.557 30.317 12.556 23.641-.001 42.874-19.236 42.874-42.876 0-11.453-4.46-22.22-12.557-30.317zm-30.317 67.349c-9.891 0-19.19-3.851-26.184-10.844-6.996-6.994-10.847-16.293-10.847-26.184 0-20.419 16.613-37.032 37.031-37.033h.004c9.889 0 19.188 3.852 26.182 10.845 6.994 6.994 10.846 16.292 10.846 26.184-.001 20.419-16.613 37.031-37.032 37.032z"/><path class="st3" d="M404.353 311.678c-5.58-5.58-12.999-8.653-20.89-8.652-16.292.001-29.547 13.256-29.547 29.548 0 7.892 3.073 15.311 8.654 20.891 5.58 5.58 13 8.653 20.891 8.652 16.292-.001 29.546-13.256 29.546-29.548 0-7.892-3.073-15.311-8.654-20.891z"/><path class="st4" d="M371.005 372.524l7.734 18.258h10.292l7.592-18.258z"/><path class="st4" d="M389.045 390.781h-10.304l-11.959 62.716 12.231 16.672c2.065.156 4.168.214 6.272.214 1.013 0 2.045-.019 3.058-.058l11.823-16.614c-3.506-21.6-11.121-62.93-11.121-62.93z"/><path class="st2" d="M366.595 369.602l10.206 24.101h14.178l10.022-24.101h-34.406zm20.486 18.258h-6.406l-5.257-12.415h16.827l-5.164 12.415z"/><path class="st2" d="M403.05 453.243c-3.469-21.383-11.055-62.579-11.131-62.992l-.441-2.392h-15.154l-12.65 66.341 13.78 18.781 1.339.101a86 86 0 006.492.224c1.052 0 2.123-.021 3.171-.061l1.436-.055 13.351-18.762-.193-1.185zm-16.245 14.204c-2.224.045-4.348 0-6.241-.105l-10.674-14.548 11.27-59.092h5.451c1.638 8.934 7.443 40.748 10.478 59.294l-10.284 14.451z"/><path class="st2" d="M473.984 418.668c-8.46-28.885-35.403-49.06-65.52-49.06H362.09c-30.106 0-57.041 20.174-65.501 49.06l-.34 1.165.584 1.063a101.223 101.223 0 007.779 12.042l.603.813c17.767 23.172 44.599 37.508 73.579 39.33a86 86 0 006.492.224c1.052 0 2.123-.021 3.144-.06 13.219-.392 26.012-3.321 38.03-8.708.175-.069.34-.148.521-.244 17.786-8.823 30.627-21.653 38.275-30.872a125.835 125.835 0 003.945-5.053 97.111 97.111 0 004.538-7.468l.588-1.065-.343-1.167zm-9.549 6.323a123.429 123.429 0 01-3.684 4.709c-7.281 8.774-19.5 20.991-36.369 29.359l-.23.108c-11.338 5.096-23.416 7.867-35.92 8.237a76.22 76.22 0 01-2.946.057c-2.231 0-4.209-.067-6.089-.209-27.003-1.698-52.002-14.905-68.742-36.278l-.603-.798a95.452 95.452 0 01-7.304-11.026c8.11-25.791 32.419-43.699 59.542-43.699h46.374c27.135 0 51.451 17.907 59.561 43.698a89.877 89.877 0 01-3.59 5.842z"/><path class="st2" d="M385.285 271.737c-55.576 0-100.792 45.216-100.792 100.794 0 16.898 4.266 33.622 12.339 48.366a101.223 101.223 0 007.779 12.042l.603.813c17.767 23.172 44.599 37.508 73.579 39.33a86 86 0 006.492.224c1.052 0 2.123-.021 3.144-.06 13.219-.392 26.012-3.321 38.03-8.708.175-.069.34-.148.521-.244 17.786-8.823 30.627-21.653 38.275-30.872a125.128 125.128 0 003.945-5.053c1.546-2.291 3.03-4.734 4.542-7.476 8.07-14.741 12.337-31.465 12.337-48.363 0-55.578-45.216-100.793-100.794-100.793zm83.337 146.342c-1.423 2.58-2.817 4.877-4.186 6.912a123.429 123.429 0 01-3.684 4.709c-7.281 8.774-19.5 20.991-36.369 29.359l-.23.108c-11.338 5.096-23.416 7.867-35.92 8.237a76.22 76.22 0 01-2.946.057c-2.231 0-4.209-.067-6.089-.209-27.003-1.698-52.002-14.905-68.742-36.278l-.603-.798a95.533 95.533 0 01-7.897-12.089c-7.601-13.884-11.618-29.637-11.618-45.557 0-52.356 42.595-94.95 94.949-94.95 52.356 0 94.95 42.594 94.95 94.95-.001 15.921-4.018 31.673-11.615 45.549zm-233.659-42.637h5.843v-5.843h-5.843v5.843zm11.687 0h5.843v-5.843h-5.843v5.843zm11.686 0h5.843v-5.843h-5.843v5.843zm11.686-5.843v5.843h5.318v-5.843h-5.318zm-89.458-108.786l5.029 2.977 2.976-5.028-5.029-2.977-2.976 5.028zm-5.952 10.057l5.029 2.977 2.976-5.028-5.029-2.977-2.976 5.028zm20.565-34.746l-2.708 4.576 5.029 2.977 2.708-4.576-5.029-2.977zm-8.661 14.633l5.029 2.977 2.976-5.028-5.029-2.977-2.976 5.028zm134.248-5.028l-5.029 2.975 2.975 5.029 5.029-2.975-2.975-5.029zm-5.686-9.605l-5.029 2.977 2.708 4.576 5.029-2.977-2.708-4.576zm11.637 19.661l-5.029 2.977 2.977 5.028 5.029-2.977-2.977-5.028zm5.952 10.057l-5.029 2.977 2.977 5.028 5.029-2.977-2.977-5.028zm-53.811 160.78l-5.208 2.649a128.4 128.4 0 002.836 5.265l5.079-2.891c-.94-1.649-1.85-3.339-2.707-5.023zm19.619 27.898l-4.253 4.008a123.213 123.213 0 004.209 4.254l4.051-4.209a118.695 118.695 0 01-4.007-4.053zm13.718 19.745a124.613 124.613 0 004.936 3.377l3.184-4.899a118.348 118.348 0 01-4.704-3.219l-3.416 4.741zm-27.696-37.732l-4.934 3.131a126.873 126.873 0 003.325 4.973l4.778-3.363a119.89 119.89 0 01-3.169-4.741zm40.668 39.207l-2.948 5.044c.884.517 1.776 1.025 2.678 1.525.846.47 1.699.928 2.553 1.376l2.712-5.176a121.271 121.271 0 01-4.995-2.769zm-34.11-29.88l-4.615 3.585a124.292 124.292 0 003.783 4.635l4.436-3.804a117.562 117.562 0 01-3.604-4.416zm11.778 20.968a125.887 125.887 0 004.593 3.831l3.633-4.578a118.047 118.047 0 01-4.38-3.65l-3.846 4.397zm67.464-219.817c-1.967.247-3.956.546-5.914.887l1 5.756c1.87-.325 3.768-.61 5.644-.845l-.73-5.798zm-37.49 239.328c1.799.839 3.642 1.646 5.478 2.399l2.218-5.406a124.886 124.886 0 01-5.227-2.289l-2.469 5.296zm22.519 8.005c1.931.484 3.895.927 5.837 1.317l1.149-5.729a120.488 120.488 0 01-5.563-1.256l-1.423 5.668zm3.191-245.28c-1.929.431-3.88.916-5.803 1.44l1.541 5.637c1.834-.5 3.698-.963 5.537-1.374l-1.275-5.703zm-14.643 241.813c1.881.669 3.795 1.297 5.685 1.869l1.689-5.594a117.613 117.613 0 01-5.415-1.781l-1.959 5.506zm161.868-128.646l5.824-.485c-.166-1.981-.38-3.982-.637-5.947l-5.794.759c.246 1.874.451 3.783.607 5.673zM367.058 496.698c1.961.298 3.958.552 5.936.755l.597-5.813a120.298 120.298 0 01-5.659-.719l-.874 5.777zM493.56 318.532l5.234-2.6a129.695 129.695 0 00-2.785-5.289l-5.105 2.842c.923 1.66 1.817 3.358 2.656 5.047zm8.158 21.269l5.63-1.569a126.27 126.27 0 00-1.744-5.722l-5.546 1.837a121.613 121.613 0 011.66 5.454zm-13.705-31.228l4.964-3.083a128.966 128.966 0 00-3.273-5.002l-4.812 3.317a118.985 118.985 0 013.121 4.768zm16.247 42.348l5.752-1.033a126.496 126.496 0 00-1.196-5.859l-5.695 1.301c.424 1.857.807 3.738 1.139 5.591zm-230.087 65.301l-5.436 2.146a125.49 125.49 0 002.328 5.509l5.326-2.4a119.6 119.6 0 01-2.218-5.255zm186.536-145.625a124.283 124.283 0 00-4.902-3.426l-3.234 4.867a118.75 118.75 0 014.673 3.267l3.463-4.708zM270.494 405.428l-5.615 1.621a122.97 122.97 0 001.799 5.709l5.527-1.893a120.563 120.563 0 01-1.711-5.437zM478.514 286.5a121.778 121.778 0 00-4.162-4.29l-4.093 4.169a117.332 117.332 0 013.964 4.087l4.291-3.966zm3.036 12.69l4.649-3.542a127.348 127.348 0 00-3.736-4.667l-4.474 3.76a119.1 119.1 0 013.561 4.449zm-11.555-21.063a124.515 124.515 0 00-4.555-3.876l-3.679 4.538a120.405 120.405 0 014.342 3.696l3.892-4.358zm28.147 50.843l5.455-2.09a123.87 123.87 0 00-2.273-5.532l-5.349 2.351a120.873 120.873 0 012.167 5.271zm-26.087 126.988l4.188 4.076a122.91 122.91 0 004.063-4.383l-4.382-3.865a114.764 114.764 0 01-3.869 4.172zm7.547-8.533l4.557 3.656a127.424 127.424 0 003.631-4.751l-4.725-3.437a124.446 124.446 0 01-3.463 4.532zm6.709-9.223l4.881 3.211a125.733 125.733 0 003.167-5.074l-5.029-2.975a122.07 122.07 0 01-3.019 4.838zm-22.578 25.528l3.781 4.457a126.043 126.043 0 004.462-3.974l-3.99-4.268a118.18 118.18 0 01-4.253 3.785zm28.392-35.347l5.162 2.741c.934-1.76 1.835-3.56 2.68-5.349l-5.284-2.494a119.637 119.637 0 01-2.558 5.102zm-37.422 42.294l3.34 4.795a128.504 128.504 0 004.822-3.529l-3.561-4.632a121.696 121.696 0 01-4.601 3.366zm42.296-52.612l5.394 2.242a123.89 123.89 0 002.166-5.579l-5.497-1.982a118.02 118.02 0 01-2.063 5.319zm8.471-33.048l5.809.626c.211-1.962.38-3.968.498-5.961l-5.832-.348c-.113 1.9-.273 3.813-.475 5.683zm6.45-17.297l-5.839.207c.049 1.417.076 2.837.076 4.259l-.009 1.448 5.843.067.01-1.515c-.001-1.49-.028-2.979-.081-4.466zm-11.049 39.611l5.584 1.723c.586-1.901 1.134-3.84 1.624-5.762l-5.66-1.448a116.164 116.164 0 01-1.548 5.487zm2.834-11.045l5.721 1.177a126.48 126.48 0 001.067-5.887l-5.775-.904a117.914 117.914 0 01-1.013 5.614zm-58.653 80.448l2.865 5.092c1.731-.974 3.46-2.002 5.139-3.057l-3.108-4.949a117.731 117.731 0 01-4.896 2.914zm-54.369 15.438l.236 5.837c1.986-.08 3.994-.208 5.971-.382l-.51-5.82c-1.887.166-3.804.288-5.697.365zm15.382-244.547c-1.953-.316-3.949-.59-5.927-.813l-.654 5.807c1.885.212 3.785.473 5.649.775l.932-5.769zm-23.846-1.546c-1.995.062-4.006.171-5.972.325l.456 5.826c1.875-.147 3.793-.252 5.695-.31l-.179-5.841zm19.829 245.094l.787 5.79c1.961-.266 3.947-.585 5.904-.945l-1.057-5.746c-1.868.344-3.764.647-5.634.901zm-23.089 6.75c1.978.108 3.989.171 5.978.186l.042-5.843a121.413 121.413 0 01-5.7-.176l-.32 5.833zm38.815-247.827a126.15 126.15 0 00-5.824-1.375l-1.206 5.718c1.843.388 3.711.829 5.55 1.311l1.48-5.654zm-23.595-3.814c-1.972-.127-3.983-.21-5.978-.244l-.099 5.843c1.902.032 3.817.11 5.697.233l.38-5.832zm40.685 235.572l2.374 5.339a126.6 126.6 0 005.402-2.556l-2.621-5.221a122.249 122.249 0 01-5.155 2.438zm5.349-223.534a127.646 127.646 0 00-5.457-2.452l-2.267 5.385c1.74.733 3.492 1.521 5.206 2.34l2.518-5.273zm-26.949 230.785l1.331 5.689c1.933-.452 3.88-.955 5.788-1.497l-1.594-5.621c-1.821.517-3.68.998-5.525 1.429zm37.488-225.126a127.042 127.042 0 00-5.206-2.953l-2.762 5.151a116.2 116.2 0 014.966 2.816l3.002-5.014zm-21.564-10.304a125.904 125.904 0 00-5.666-1.926l-1.746 5.577c1.803.565 3.62 1.182 5.4 1.834l2.012-5.485zm-4.953 232.314l1.86 5.539a127.518 127.518 0 005.622-2.035l-2.119-5.446c-1.76.685-3.565 1.338-5.363 1.942zM7.279 390.931l-5.773.903c.306 1.959.666 3.939 1.066 5.887l5.723-1.177a121.394 121.394 0 01-1.016-5.613zm10.038 32.608l-5.284 2.494c.845 1.79 1.746 3.589 2.681 5.35l5.16-2.741a123.296 123.296 0 01-2.557-5.103zm5.35 10.081l-5.027 2.979a128.75 128.75 0 003.166 5.071l4.883-3.209a123.256 123.256 0 01-3.022-4.841zm-9.729-20.616l-5.497 1.982c.671 1.863 1.4 3.74 2.165 5.579l5.396-2.243a118.097 118.097 0 01-2.064-5.318zm-3.357-10.901l-5.66 1.448a125.88 125.88 0 001.623 5.76l5.584-1.72c-.56-1.818-1.08-3.664-1.547-5.488zm19.354 41.049l-4.727 3.433c1.161 1.6 2.383 3.199 3.631 4.754l4.557-3.657a121.388 121.388 0 01-3.461-4.53zm30.009 35.876a128.703 128.703 0 005.137 3.056l2.866-5.092a121.842 121.842 0 01-4.9-2.915l-3.103 4.951zm6.054-216.949c-1.268.701-2.516 1.42-3.749 2.158l3.001 5.014a121.083 121.083 0 014.968-2.818l-2.766-5.147c-.485.26-.971.525-1.454.793zm4.361 222.817c1.779.893 3.598 1.753 5.403 2.555l2.374-5.339a122.579 122.579 0 01-5.156-2.439l-2.621 5.223zM49.134 472.2a124.47 124.47 0 004.824 3.532l3.338-4.797a117.707 117.707 0 01-4.597-3.365l-3.565 4.63zm-9.111-7.728a125.396 125.396 0 004.463 3.973l3.779-4.457a120.13 120.13 0 01-4.254-3.787l-3.988 4.271zm-8.331-8.562a122.959 122.959 0 004.064 4.382l4.186-4.076a118.416 118.416 0 01-3.87-4.173l-4.38 3.867zm40.095-197.331l2.52 5.271a119.719 119.719 0 015.205-2.338l-2.265-5.387a126.674 126.674 0 00-5.46 2.454zm-50.692 55.165L15.99 310.9c-.963 1.73-1.9 3.51-2.784 5.292l5.234 2.596a119.634 119.634 0 012.655-5.044zm6.013-9.682l-4.812-3.315a127.002 127.002 0 00-3.273 5.001l4.964 3.083c.997-1.606 2.046-3.21 3.121-4.769zm14.634-17.425l-4.095-4.169a125.659 125.659 0 00-4.162 4.29l4.291 3.966a119.42 119.42 0 013.966-4.087zm-7.732 8.361l-4.474-3.759a124.402 124.402 0 00-3.734 4.667l4.649 3.54a119.025 119.025 0 013.559-4.448zm25.417-22.702l-3.234-4.867a127.626 127.626 0 00-4.901 3.426l3.46 4.709a119.696 119.696 0 014.675-3.268zm-9.189 6.752l-3.679-4.54a125.712 125.712 0 00-4.555 3.877l3.892 4.358a118.688 118.688 0 014.342-3.695zM6.058 379.592l-5.834.346c.118 1.973.285 3.98.499 5.962l5.809-.626a119.079 119.079 0 01-.474-5.682zm9.967-55.636l-5.351-2.349a127.451 127.451 0 00-2.272 5.53l5.455 2.092a121.19 121.19 0 012.168-5.273zM5.843 372.444c0-1.421.025-2.841.076-4.257l-5.839-.211c-.053 1.486-.08 2.977-.08 4.473l.01 1.509 5.843-.067-.01-1.447zm1.021-15.629l-5.794-.759a125.309 125.309 0 00-.636 5.947l5.822.485c.158-1.889.362-3.798.608-5.673zm2.014-11.227l-5.697-1.301a127.399 127.399 0 00-1.194 5.859l5.752 1.033a121.08 121.08 0 011.139-5.591zm3.064-10.988l-5.55-1.83a129.884 129.884 0 00-1.74 5.719l5.628 1.569a124.838 124.838 0 011.662-5.458zm129.032-81.532c1.875.236 3.774.52 5.643.846l1.002-5.758c-1.959-.34-3.95-.639-5.914-.886l-.731 5.798zm50.714 219.935l3.184 4.9a126.266 126.266 0 004.934-3.377l-3.414-4.742a120.405 120.405 0 01-4.704 3.219zm-39.477-217.978c1.838.411 3.702.874 5.538 1.375l1.539-5.638a130.597 130.597 0 00-5.802-1.44l-1.275 5.703zm32.066 222.432c-.81.448-1.623.886-2.438 1.315l2.718 5.172a126.908 126.908 0 005.229-2.902L186.833 476c-.845.495-1.698.981-2.556 1.457zm16.663-11.115l3.633 4.576a124.59 124.59 0 004.594-3.832l-3.85-4.396a118.513 118.513 0 01-4.377 3.652zm-29.441 17.248l2.212 5.408a126.16 126.16 0 005.483-2.399l-2.469-5.295a120.963 120.963 0 01-5.226 2.286zm-10.751 3.822l1.689 5.594a125.803 125.803 0 005.686-1.869l-1.957-5.505a119.38 119.38 0 01-5.418 1.78zm48.768-28.578l4.053 4.207a125.008 125.008 0 004.208-4.253l-4.251-4.008a117.915 117.915 0 01-4.01 4.054zm26.093-37.096l5.328 2.398a126.853 126.853 0 002.325-5.509l-5.436-2.144a123.513 123.513 0 01-2.217 5.255zm5.897-16.052a124.263 124.263 0 01-1.713 5.444l5.531 1.883a130.215 130.215 0 001.796-5.702l-5.614-1.625zm-17.175 35.849l4.78 3.361a125.778 125.778 0 003.323-4.974l-4.934-3.129a119.589 119.589 0 01-3.169 4.742zm6.11-9.63l5.078 2.891c.98-1.723 1.934-3.495 2.835-5.266l-5.21-2.648a119.878 119.878 0 01-2.703 5.023zm-13.104 18.633l4.438 3.802a126.037 126.037 0 003.782-4.634l-4.614-3.585a119.885 119.885 0 01-3.606 4.417zM105.936 247.884l.93 5.769c1.872-.302 3.773-.563 5.651-.774l-.654-5.807c-1.971.222-3.965.495-5.927.812zm-2.676 248.392c1.953.361 3.94.678 5.905.945l.787-5.79a120.85 120.85 0 01-5.633-.902l-1.059 5.747zm-9.03-245.92l1.478 5.653c1.84-.481 3.708-.923 5.55-1.311l-1.204-5.718a124.95 124.95 0 00-5.824 1.376zm55.454 239.834l1.151 5.729c1.945-.391 3.909-.834 5.836-1.317l-1.423-5.668c-1.837.462-3.709.885-5.564 1.256zm-58.068 3.365c1.913.543 3.86 1.046 5.789 1.497l1.329-5.689c-1.84-.431-3.699-.911-5.523-1.429l-1.595 5.621zm-11.337-3.805a126.93 126.93 0 005.624 2.036l1.858-5.541c-1.8-.603-3.604-1.256-5.361-1.941l-2.121 5.446zm2.534-235.816l2.011 5.486c1.783-.653 3.6-1.271 5.402-1.834l-1.746-5.577c-1.891.592-3.798 1.24-5.667 1.925zm32.297 243.952c1.974.174 3.982.302 5.97.382l.236-5.837c-1.895-.077-3.811-.2-5.694-.365l-.512 5.82zm14.494-245.706c1.894.058 3.811.162 5.696.309l.455-5.826a129.08 129.08 0 00-5.971-.324l-.18 5.841zm8.806 239.718l.597 5.813c1.972-.202 3.969-.456 5.934-.754l-.873-5.776c-1.875.283-3.779.525-5.658.717zm-11.39.627l.044 5.843c1.989-.014 4-.077 5.978-.185l-.319-5.834c-1.886.103-3.805.162-5.703.176zm-9.198-245.982l.379 5.832c1.878-.123 3.795-.201 5.699-.233l-.101-5.843c-1.995.034-4.007.117-5.977.244z"/></svg>