<svg version="1.1" id="Layer_1" xmlns="http://www.w3.org/2000/svg" x="0" y="0" viewBox="0 0 512 512" xml:space="preserve"><style>.st2{fill:#4a555f}.st3{fill:#ffd452}</style><path d="M365.643 312.503l-6.009-16.866c-3.19-8.92-9.596-16.758-18.033-22.065l-18.184-11.421-32.406-20.375a32.085 32.085 0 01-15.007-27.273l.051-14.823 3.038-12.634c1.394-5.796 8.953-7.272 12.424-2.426l16.263 22.702c.197-.336.316-.815.316-1.287 0-.489-.124-.965-.277-1.224L265.74 136.4l.019-6.327H233.67l-.023 7.061-11.128 14.027c-5.89 7.435-9.151 17.018-9.185 26.982l-.065 21.471-.243 65.255-14.101 7.345-11.119 2.742c-6.35 1.566-11.615-5.034-8.676-10.877l11.832-23.525-.078-.005c-.382 0-.813.116-1.151.293-.47.249-.855.593-1.004.832l-41.01 69.059-5.612 2.921 14.901 28.414 6.261-3.271 17.59 3.357c2.465.463 5.014.698 7.574.698 7.055 0 14.178-1.77 20.604-5.121l19.045-9.92 44.756-23.271 17.28 10.86 8.405 8.478c4.494 4.533 1.569 12.249-4.801 12.663l-26.848 1.746c.134.265.446.65.88.924.421.26.901.415 1.365.44l80.169.468 5.362 3.368 16.974-27.225-5.981-3.759z" fill="#dfdfdf"/><path class="st2" d="M199.085 57.21v65.344h102.973V57.21H199.085zm96.535 58.905h-90.095V63.649h90.095v52.466z"/><path class="st3" d="M213.038 71.162h75.07v37.441h-75.07z"/><path class="st2" d="M377.162 303.262l-4.391-12.324c-4.238-11.849-12.673-22.213-23.749-29.18L289.92 224.61l.062-18.175 6.55 9.14c2.723 3.791 6.821 5.962 11.248 5.962h.036c4.448-.012 8.558-2.213 11.277-6.042 1.905-2.687 2.956-6.047 2.956-9.461 0-3.017-.803-5.956-2.346-8.534l-40.002-65.029.052-16.351h-59.992l-.051 16.131-8.128 10.247c-7.823 9.875-12.155 22.517-12.202 35.602l-.174 50.974c-1.803-1.222-3.926-2.029-6.246-2.338-3.258-.441-6.723.19-9.772 1.785a16.819 16.819 0 00-6.456 6.028l-38.981 65.644-14.501 7.551 27.876 53.138 14.298-7.469 12.859 2.453c12.401 2.331 25.61.282 37.2-5.76l40.689-21.175a13.274 13.274 0 00-1.4 1.875c-2.339 3.782-2.637 8.432-.823 12.74 1.247 3.008 3.536 5.678 6.479 7.539a16.895 16.895 0 008.454 2.518l76.354.446 13.849 8.7 31.739-50.904-13.662-8.583zm-20.122 50.597l-9.931-6.239-78.124-.455a10.364 10.364 0 01-5.146-1.543c-1.798-1.137-3.199-2.75-3.947-4.557-1.002-2.38-.87-4.885.358-6.872 1.23-1.988 3.41-3.225 5.984-3.391l26.843-1.748-7.422-7.487-13.17-8.374-59.978 31.203c-10.315 5.379-22.049 7.208-33.024 5.144l-15.052-2.871-10.592 5.533-21.885-41.729 10.396-5.413 39.893-67.176c.939-1.526 2.31-2.796 3.945-3.664 1.864-.974 3.964-1.362 5.917-1.1 2.553.341 4.643 1.722 5.737 3.789 1.094 2.069 1.058 4.577-.095 6.876l-12.053 23.955 10.183-2.51 9.655-4.926.287-82.181c.042-11.646 3.88-22.877 10.808-31.624l9.514-11.993.038-11.945h47.114l-.036 11.725 40.941 66.554a10.132 10.132 0 011.411 5.195c0 2.091-.629 4.127-1.767 5.734-1.499 2.11-3.702 3.323-6.043 3.33h-.019c-2.329 0-4.521-1.195-6.016-3.276l-15.651-21.844-2.461 10.238-.185 27.944 62.126 39.048c9.86 6.202 17.358 15.4 21.112 25.894l5.14 14.424 10.12 6.356-24.925 39.976zm-92.317-29.373l7.46-3.879 4.838 3.04-11.206.728c-.367.025-.732.061-1.092.111zm-65.612-69.084l-.004.987-.667.347.671-1.334z"/><path class="st2" d="M396.308 290.896l-54.484 87.378 55.45 34.574 54.482-87.377-55.448-34.575zm-1.092 113.082l-44.521-27.76 47.671-76.451 44.52 27.761-47.67 76.45z"/><path transform="rotate(-58.057 396.769 351.86)" class="st3" d="M359.255 333.153h75.07v37.44h-75.07z"/><path class="st2" d="M319.704 197.5l-40.002-65.029.052-16.351h-59.992l-.051 16.131-8.128 10.247c-7.823 9.875-12.155 22.517-12.202 35.602l-.3 85.533c-.027 8.24 6.121 14.965 13.703 14.992 2.698.113 5.198-.824 7.324-2.273l-.013 3.1c-.027 8.21 6.114 14.937 13.702 14.992h.05c3.27 0 6.292-1.252 8.664-3.349 2.226 4.96 6.909 8.394 12.321 8.414h.05c3.721 0 7.202-1.581 9.812-4.455a15.201 15.201 0 003.35-6.084c2.229 1.721 4.947 2.738 7.877 2.748 3.544-.006 6.764-1.351 9.315-3.875 2.838-2.808 4.475-6.813 4.488-10.988l.258-70.425 6.552 9.143c2.723 3.791 6.821 5.962 11.248 5.962h.036c4.448-.012 8.558-2.213 11.277-6.042 1.905-2.687 2.956-6.047 2.956-9.461a16.596 16.596 0 00-2.347-8.532zm-5.861 14.269c-1.499 2.11-3.702 3.323-6.043 3.33h-.019c-2.329 0-4.521-1.195-6.016-3.276l-15.647-21.839-2.553 10.598-.281 76.254c-.009 2.476-.948 4.82-2.576 6.432-1.314 1.3-2.979 2.013-4.706 2.013h-.046c-4.019-.015-7.288-3.828-7.288-8.5l-6.439-.008v.01l-.021 7.821c-.008 2.336-.819 4.511-2.285 6.126-1.371 1.511-3.161 2.342-5.043 2.342h-.023c-4.035-.015-7.303-3.842-7.288-8.529l.021-4.854v-.139l-6.439-.014-.036.616c-.264 4.409-3.454 7.854-7.256 7.854h-.025c-4.039-.029-7.313-3.857-7.298-8.529l.065-15.747-6.439-.022c-.031 4.682-3.316 8.479-7.328 8.479h-.023c-4.035-.015-7.303-3.842-7.288-8.531l.3-85.534c.042-11.646 3.88-22.877 10.808-31.624l9.514-11.993.038-11.945h47.114l-.036 11.725 40.941 66.554a10.132 10.132 0 011.411 5.195c-.003 2.091-.632 4.128-1.77 5.735z"/><path class="st2" d="M262.122 212.867h6.439v63.878h-6.439zm-21.016 0h6.439v69.081h-6.439zm-20.955 0h6.439v51.484h-6.439zm77.059 31.711c-1.972-3.779-5.664-6.315-10.124-6.955l-3.666-.526-.09 30.251 6.978-3.658c7.301-3.801 10.399-12.371 6.902-19.112zm-7.407 11.571l.032-10.614a6.342 6.342 0 011.664 2.014c1.438 2.77.649 6.19-1.696 8.6z"/><path class="st2" d="M292.842 286.093l2.744-1.432c7.286-3.793 10.386-12.351 6.907-19.091-3.042-5.824-10.151-8.507-16.891-6.39l-2.245.705-.076 16.952c-.008 2.476-.947 4.82-2.576 6.432a6.928 6.928 0 01-4.751 2.013c-4.021-.016-7.291-3.828-7.291-8.5l-6.439-.008-.021 7.832c-.008 2.335-.818 4.511-2.283 6.125-1.371 1.511-3.161 2.342-5.043 2.342h-.023c-4.035-.015-7.305-3.841-7.29-8.542l.023-4.828v-.152l-6.439-.016-.04.636a8.971 8.971 0 01-.818 3.303c-1.251 2.798-3.712 4.533-6.45 4.533a6.487 6.487 0 01-1.53-.204c-3.364-.842-5.796-4.343-5.781-8.32l.065-15.751-6.439-.021c-.029 4.681-3.316 8.479-7.326 8.479h-.023c-4.035-.016-7.305-3.843-7.29-8.529l.046-10.635-7.123 3.709 5.062-10.062c2.101-4.188 2.113-8.845.031-12.778-2.077-3.93-5.934-6.54-10.572-7.159-3.258-.441-6.723.19-9.772 1.785a16.819 16.819 0 00-6.456 6.028l-38.981 65.644-14.501 7.551 27.87 53.141 14.304-7.473 12.859 2.453c12.401 2.331 25.61.282 37.2-5.76l75.875-39.473c3.477-1.811 6.125-4.757 7.451-8.296 1.373-3.661 1.178-7.502-.545-10.81-1.232-2.376-3.141-4.218-5.422-5.433zm-3.121-9.23l.052-11.951c3.031-.174 5.733 1.189 7.003 3.624 1.851 3.583-.017 8.255-4.163 10.413l-3.373 1.76c.313-1.245.477-2.537.481-3.846zm3.06 23.213c-.769 2.049-2.331 3.77-4.396 4.844l-75.879 39.475c-10.315 5.379-22.049 7.208-33.024 5.144l-15.052-2.871-10.594 5.534-21.883-41.73 10.396-5.413 39.893-67.176c.939-1.526 2.31-2.796 3.945-3.664 1.864-.974 3.964-1.362 5.917-1.1 2.553.341 4.643 1.722 5.737 3.789 1.094 2.069 1.058 4.577-.095 6.876l-12.053 23.955 10.183-2.51 3.199-1.564c-.013 8.226 6.129 14.937 13.704 14.965h.046c2.668 0 5.165-.834 7.28-2.275l-.017 3.1c-.027 7.019 4.357 13.022 10.612 14.585 1.042.277 2.048.422 3.155.409 3.199 0 6.25-1.229 8.653-3.342 2.226 4.957 6.906 8.388 12.318 8.407 3.717.019 7.24-1.569 9.862-4.455a15.162 15.162 0 003.348-6.084c2.23 1.72 4.949 2.736 7.879 2.748a12.66 12.66 0 005.655-1.277l.584 1.216c4.075-1.801 8.634-.554 10.395 2.836.874 1.67.953 3.651.232 5.578z"/><path transform="rotate(-27.699 257.879 300.744)" class="st2" d="M232.162 297.529h51.485v6.439h-51.485z"/><path class="st2" d="M118.574 285.015l-57.859 30.371 47.858 91.175 57.859-30.372-47.858-91.174zM69.41 318.094l46.456-24.385 41.872 79.772-46.456 24.385-41.872-79.772z"/><path transform="rotate(-27.699 113.56 345.786)" class="st3" d="M94.854 308.253h37.441v75.07H94.854z"/><path class="st2" d="M37.817 205.019l-6.271-1.461a228.162 228.162 0 00-1.39 6.382l6.309 1.281c.422-2.078.872-4.145 1.352-6.202zm3.23-12.273l-6.179-1.815a224.573 224.573 0 00-1.75 6.29l6.225 1.639a230.766 230.766 0 011.704-6.114zm-5.751 24.708l-6.347-1.096c-.369 2.139-.71 4.288-1.023 6.446l6.372.922c.304-2.1.637-4.189.998-6.272zm-2.916 25.208l-6.426-.379a223.437 223.437 0 00-.292 6.523l6.435.194c.065-2.121.159-4.234.283-6.338zM31.99 256v-.661h-6.439V256c0 1.958.023 3.91.071 5.858l6.439-.161A224.865 224.865 0 0131.99 256zm12.986-75.341l-6.062-2.167a230.748 230.748 0 00-2.117 6.202l6.125 1.99c.656-2.021 1.341-4.03 2.054-6.025zm15.846-34.672l-5.605-3.171a229.283 229.283 0 00-3.138 5.742l5.693 3.006c.99-1.875 2.006-3.733 3.05-5.577zm-11.224 22.815l-5.928-2.517a211.754 211.754 0 00-2.467 6.071l5.999 2.337a212.826 212.826 0 012.396-5.891zm17.787-33.704l-5.421-3.477a238.943 238.943 0 00-3.452 5.548l5.513 3.326a229.454 229.454 0 013.36-5.397zm14.914-20.555l-4.989-4.071a230.125 230.125 0 00-4.058 5.121l5.102 3.928a219.09 219.09 0 013.945-4.978zm-7.749 10.065l-5.211-3.781a227.036 227.036 0 00-3.765 5.345l5.317 3.63a234.309 234.309 0 013.659-5.194zM32.307 268.041l-6.431.34c.115 2.18.262 4.352.438 6.516l6.418-.524a220.078 220.078 0 01-.425-6.332zM54.886 157.23l-5.776-2.844a225.07 225.07 0 00-2.807 5.913l5.857 2.677c.882-1.93 1.791-3.845 2.726-5.746zm18.743 228.88l-5.24 3.744a238.083 238.083 0 003.867 5.253l5.131-3.892a217.426 217.426 0 01-3.758-5.105zm16.964-281.179l-4.754-4.343a230.433 230.433 0 00-4.337 4.883l4.875 4.207a228.208 228.208 0 014.216-4.747zM33.336 280.692l-6.401.702c.239 2.169.507 4.329.805 6.479l6.376-.882c-.29-2.091-.55-4.191-.78-6.299zM81.284 396.21l-5.018 4.037a238.89 238.89 0 004.159 5.027l4.905-4.173a228.571 228.571 0 01-4.046-4.891zm-21.202-31.512l-5.626 3.136a249.413 249.413 0 003.247 5.646l5.538-3.287a230.656 230.656 0 01-3.159-5.495zm33.647 54.931a223.436 223.436 0 004.702 4.534l4.402-4.699a225.8 225.8 0 01-4.568-4.404l-4.536 4.569zm-4.222-13.757l-4.783 4.31a235.878 235.878 0 004.435 4.788l4.662-4.442a231.578 231.578 0 01-4.314-4.656zm-22.956-30.278l-5.441 3.444a234.264 234.264 0 003.561 5.457l5.345-3.593a225.775 225.775 0 01-3.465-5.308zm-12.304-22.129l-5.793 2.809a230.6 230.6 0 002.92 5.819l5.714-2.966a230.069 230.069 0 01-2.841-5.662zm-16.721-47.749l-6.28 1.419c.48 2.129.994 4.245 1.532 6.349l6.238-1.601a216.37 216.37 0 01-1.49-6.167zm-2.455-12.459l-6.351 1.073c.365 2.151.752 4.29 1.172 6.418l6.318-1.241a237.236 237.236 0 01-1.139-6.25zm5.61 24.745l-6.188 1.784a238.256 238.256 0 001.893 6.246l6.138-1.954a223.314 223.314 0 01-1.843-6.076zm3.852 12.091l-6.074 2.136a234.274 234.274 0 002.245 6.127l6.016-2.299a242.146 242.146 0 01-2.187-5.964zm4.528 11.832l-5.945 2.476a231.167 231.167 0 002.584 5.973l5.874-2.639c-.864-1.923-1.7-3.858-2.513-5.81zM360.844 50.729a223.432 223.432 0 00-5.869-2.9l-2.767 5.814a230.17 230.17 0 015.702 2.817l2.934-5.731zm94.364 102.719l5.723-2.953a238.836 238.836 0 00-3.067-5.744l-5.638 3.111a219.105 219.105 0 012.982 5.586zm5.484 11.404l5.882-2.62a217.004 217.004 0 00-2.738-5.91l-5.802 2.791a221.207 221.207 0 012.658 5.739zm-11.606-22.492l5.546-3.268a215.739 215.739 0 00-3.392-5.569l-5.45 3.429a217.138 217.138 0 013.296 5.408zm-6.743-10.725l5.354-3.58a231.12 231.12 0 00-3.702-5.369l-5.249 3.731a223.334 223.334 0 013.597 5.218zm23.177 44.931l6.02-2.281a218.189 218.189 0 00-2.402-6.073l-5.953 2.455c.804 1.954 1.584 3.92 2.335 5.899zm-30.516-55.263l5.14-3.88a240.868 240.868 0 00-4-5.15l-5.031 4.018a225.034 225.034 0 013.891 5.012zm42.971 104.366l6.38-.859a228.294 228.294 0 00-.966-6.46l-6.355 1.046c.343 2.082.657 4.173.941 6.273zm1.347 12.624l6.418-.507a234.57 234.57 0 00-.602-6.497l-6.401.681c.222 2.099.417 4.207.585 6.323zm-52.235-126.901l4.917-4.159a230.55 230.55 0 00-4.287-4.923l-4.796 4.297a217.082 217.082 0 014.166 4.785zm52.868 139.578l6.439-.145a238.82 238.82 0 00-.237-6.523l-6.431.322c.106 2.107.183 4.224.229 6.346zm-10.277-62.415l6.142-1.935a221.458 221.458 0 00-2.052-6.199l-6.083 2.111a225.743 225.743 0 011.993 6.023zm6.24 24.593l6.322-1.224a228.383 228.383 0 00-1.333-6.393l-6.284 1.406a214.86 214.86 0 011.295 6.211zm-2.771-12.385l6.242-1.583c-.537-2.114-1.1-4.215-1.693-6.305l-6.196 1.759a222.624 222.624 0 011.647 6.129zM372.31 57.013a238.407 238.407 0 00-5.688-3.224l-3.096 5.647a229.561 229.561 0 015.536 3.136l3.248-5.559zm-47.798-21.105a223.452 223.452 0 00-6.265-1.851l-1.736 6.2c2.042.571 4.069 1.171 6.085 1.798l1.916-6.147zm12.39 4.246a222.11 222.11 0 00-6.165-2.212l-2.088 6.091c2.01.689 4.008 1.406 5.993 2.149l2.26-6.028zm-24.966-7.766a223.218 223.218 0 00-6.357-1.49l-1.379 6.29c2.071.453 4.129.936 6.177 1.446l1.559-6.246zM118.524 79.126l-3.958-5.081a230.427 230.427 0 00-5.089 4.079l4.096 4.968a226.03 226.03 0 014.951-3.966zM349.03 45.1a222.732 222.732 0 00-6.028-2.56l-2.432 5.963c1.966.802 3.92 1.631 5.857 2.487l2.603-5.89zm74.267 52.414a225.736 225.736 0 00-4.557-4.676l-4.549 4.559a217.778 217.778 0 014.427 4.542l4.679-4.425zM108.735 87.197l-4.23-4.855a230.89 230.89 0 00-4.858 4.362l4.368 4.731a217.956 217.956 0 014.72-4.238zm295.57-7.591a240.905 240.905 0 00-5.056-4.135l-4.008 5.041a225.41 225.41 0 014.917 4.021l4.147-4.927zm-10.229-8.128a237.2 237.2 0 00-5.284-3.843l-3.714 5.259a232.883 232.883 0 015.138 3.738l3.86-5.154zm19.982 16.815a231.133 231.133 0 00-4.817-4.413l-4.28 4.811c1.58 1.406 3.14 2.836 4.678 4.288l4.419-4.686zM99.42 95.805l-4.502-4.603a241.988 241.988 0 00-4.603 4.628l4.628 4.477a220.978 220.978 0 014.477-4.502zm3.836 332.754a233.224 233.224 0 004.949 4.261l4.133-4.938a226.265 226.265 0 01-4.814-4.144l-4.268 4.821zM383.402 63.941a231.458 231.458 0 00-5.494-3.541l-3.412 5.46a227.09 227.09 0 015.343 3.443l3.563-5.362zM33.482 230.018l-6.397-.744c-.25 2.159-.47 4.324-.658 6.499l6.414.557c.185-2.111.396-4.216.641-6.312zm355.46 206.296l3.828 5.18a233.938 233.938 0 005.19-3.949l-3.97-5.068a227.85 227.85 0 01-5.048 3.837zm-10.407 7.242l3.53 5.385a238.542 238.542 0 005.402-3.647l-3.677-5.286a233.318 233.318 0 01-5.255 3.548zm-10.788 6.636l3.22 5.576a234.986 234.986 0 005.596-3.334l-3.375-5.485a230.744 230.744 0 01-5.441 3.243zm31.179-21.697l4.112 4.957a236.095 236.095 0 004.961-4.236l-4.247-4.84a215.558 215.558 0 01-4.826 4.119zm9.533-8.37l4.385 4.716a238.727 238.727 0 004.716-4.509l-4.515-4.593a225.812 225.812 0 01-4.586 4.386zm-51.855 36.079l2.897 5.75a230.386 230.386 0 005.775-3.01l-3.056-5.668a237.109 237.109 0 01-5.616 2.928zm-59.901 20.117l1.166 6.332c2.145-.394 4.278-.817 6.401-1.27l-1.341-6.297c-2.065.441-4.14.852-6.226 1.235zm12.409-2.645l1.526 6.257a236.847 236.847 0 006.32-1.634l-1.698-6.211a226.828 226.828 0 01-6.148 1.588zm108.396-62.45l4.641 4.465a231.172 231.172 0 004.46-4.771l-4.767-4.331a220.613 220.613 0 01-4.334 4.637zM299.181 29.59a236.556 236.556 0 00-6.431-1.124l-1.019 6.358c2.094.336 4.177.701 6.254 1.094l1.196-6.328zm45.965 431.981l2.562 5.907a231.523 231.523 0 005.936-2.678l-2.733-5.831a218.405 218.405 0 01-5.765 2.602zm-60.986 16.685l.801 6.389c2.165-.27 4.322-.572 6.466-.904l-.981-6.364c-2.085.321-4.179.615-6.286.879zm49.223-11.971l2.226 6.042a226.087 226.087 0 006.096-2.344l-2.398-5.976a223.46 223.46 0 01-5.924 2.278zm-12.029 4.042l1.878 6.16a235.565 235.565 0 006.217-1.992l-2.05-6.104a221.44 221.44 0 01-6.045 1.936zm154.309-170.186l6.313 1.266c.427-2.131.824-4.272 1.188-6.424l-6.347-1.08c-.356 2.09-.739 4.169-1.154 6.238zm2.131-12.505l6.376.895c.302-2.148.577-4.306.82-6.474l-6.397-.721a237.09 237.09 0 01-.799 6.3zm-4.972 24.873l6.234 1.62a237.304 237.304 0 001.551-6.341l-6.276-1.444a224.327 224.327 0 01-1.509 6.165zm-46.774 89.323l4.884 4.194a225.32 225.32 0 004.184-5.016l-5.001-4.054a231.704 231.704 0 01-4.067 4.876zM480.01 256c0 2.122-.029 4.237-.088 6.346l6.435.182c.063-2.169.092-4.345.092-6.528h-6.439zm-.795 19.015l6.414.549c.187-2.163.337-4.337.459-6.517l-6.431-.359a212.5 212.5 0 01-.442 6.327zm-9.935 49.68l6.129 1.977a222.183 222.183 0 001.914-6.246l-6.184-1.796a212.417 212.417 0 01-1.859 6.065zm-4.247 12.003l6.007 2.323a231.13 231.13 0 002.272-6.144l-6.07-2.148a213.75 213.75 0 01-2.209 5.969zm-16.725 34.251l5.525 3.31c1.12-1.87 2.211-3.756 3.281-5.658l-5.618-3.15a211.601 211.601 0 01-3.188 5.498zm-14.266 21.019l5.115 3.909a228.737 228.737 0 003.895-5.245l-5.224-3.765a232.744 232.744 0 01-3.786 5.101zm7.431-10.305l5.329 3.614a239.957 239.957 0 003.595-5.458l-5.429-3.465a232.389 232.389 0 01-3.495 5.309zm18.638-33.228l5.865 2.656a233.569 233.569 0 002.618-5.996l-5.936-2.494a240.247 240.247 0 01-2.547 5.834zm-5.582 11.428l5.702 2.989a227.843 227.843 0 002.956-5.837l-5.785-2.828a233.782 233.782 0 01-2.873 5.676zM169.616 469.709c2.021.82 4.056 1.609 6.106 2.371l2.243-6.037a215.941 215.941 0 01-5.934-2.303l-2.415 5.969zm1.298-427.94a232.727 232.727 0 00-6.01 2.488l2.545 5.915c1.935-.833 3.884-1.64 5.846-2.421l-2.381-5.982zm-13.285 422.687a231.79 231.79 0 005.955 2.712l2.586-5.898a220.74 220.74 0 01-5.792-2.637l-2.749 5.823zm-44.356-27.514a229.46 229.46 0 005.184 3.976l3.849-5.163a225.666 225.666 0 01-5.041-3.867l-3.992 5.054zm82.411-403.416a226.405 226.405 0 00-6.278 1.795l1.857 6.165a219.63 219.63 0 016.102-1.743l-1.681-6.217zM158.96 46.918a229.31 229.31 0 00-5.865 2.829l2.88 5.76a219.855 219.855 0 015.701-2.749l-2.716-5.84zm22.933 427.354c2.065.701 4.144 1.375 6.238 2.017l1.891-6.154a221.65 221.65 0 01-6.058-1.961l-2.071 6.098zm1.289-436.979a230.22 230.22 0 00-6.167 2.151l2.209 6.049a219.46 219.46 0 015.991-2.09l-2.033-6.11zM123.75 444.746a228.446 228.446 0 005.406 3.681l3.546-5.375a218.39 218.39 0 01-5.25-3.576l-3.702 5.27zm1.333-378.419c-1.79 1.238-3.562 2.5-5.313 3.786l3.811 5.19a225.121 225.121 0 015.163-3.679l-3.661-5.297zm10.926-7.108a229.363 229.363 0 00-5.517 3.477l3.513 5.397a222.44 222.44 0 015.357-3.379l-3.353-5.495zm9.953 399.31a232.581 232.581 0 005.789 3.047l2.918-5.741a225.033 225.033 0 01-5.63-2.961l-3.077 5.655zm1.35-405.787a228.574 228.574 0 00-5.697 3.157l3.199 5.588a227.745 227.745 0 015.542-3.071l-3.044-5.674zm-12.652 399.21a222.249 222.249 0 005.605 3.369l3.236-5.565a228.142 228.142 0 01-5.446-3.274l-3.395 5.47zm86.565-423.794c-2.155.327-4.301.683-6.437 1.069l1.144 6.336c2.078-.375 4.165-.721 6.261-1.04l-.968-6.365zm39.038-2.569a241.907 241.907 0 00-4.266-.038l-2.262.011.062 6.439L256 31.99c1.386 0 2.767.013 4.144.037l.119-6.438zm-14.384 460.64c2.169.094 4.343.158 6.527.192l.096-6.439a215.176 215.176 0 01-6.343-.186l-.28 6.433zm12.971-6.238l.084 6.439a242.69 242.69 0 006.517-.173l-.26-6.435c-2.107.085-4.22.142-6.341.169zm12.679-.511l.44 6.425a231.52 231.52 0 006.506-.538l-.621-6.41c-2.099.204-4.206.378-6.325.523zm1.775-453.287a232.57 232.57 0 00-6.517-.394l-.297 6.433c2.119.098 4.232.225 6.336.381l.478-6.42zm-26.088-.478a237.68 237.68 0 00-6.521.337l.423 6.425a233.34 233.34 0 016.341-.327l-.243-6.435zM232.86 485.301c2.159.215 4.327.4 6.504.556l.457-6.423a227.353 227.353 0 01-6.324-.541l-.637 6.408zm-25.791-4.058c2.124.461 4.26.89 6.406 1.29l1.178-6.33a218.356 218.356 0 01-6.217-1.252l-1.367 6.292zm1.311-450.765c-2.134.449-4.26.927-6.37 1.434l1.505 6.261c2.052-.493 4.115-.958 6.189-1.394l-1.324-6.301zm77.908-2.953c-2.15-.283-4.312-.536-6.483-.759l-.658 6.406c2.108.217 4.211.463 6.303.738l.838-6.385zM194.395 478.12c2.094.581 4.201 1.132 6.317 1.654l1.543-6.253a220.377 220.377 0 01-6.142-1.606l-1.718 6.205zm39.792-451.55c-2.174.204-4.337.438-6.49.702l.784 6.391c2.094-.256 4.198-.483 6.309-.683l-.603-6.41zm-14.279 457.069c2.145.337 4.301.646 6.466.923l.818-6.387a216.714 216.714 0 01-6.282-.898l-1.002 6.362z"/><path class="st2" d="M256.001 0C114.841 0 0 114.841 0 256s114.841 256 256.001 256c141.158 0 256-114.84 256-256S397.159 0 256.001 0zm0 505.561C118.392 505.561 6.438 393.609 6.438 256S118.392 6.439 256.001 6.439c137.607 0 249.561 111.953 249.561 249.561S393.608 505.561 256.001 505.561z"/><path class="st2" d="M325.587 111.267l-2.792 5.802c53.455 25.732 87.217 80.671 86.012 139.963a153.266 153.266 0 01-2.188 22.912l6.347 1.094a160.27 160.27 0 002.281-23.876c1.253-61.806-33.938-119.073-89.66-145.895zm-146.503 12.349l-3.31-5.523c-47.104 28.224-75.89 77.81-77.005 132.643-.13 6.505.136 13.066.792 19.5l6.406-.654a154.595 154.595 0 01-.759-18.716c1.07-52.603 28.687-100.173 73.876-127.25zm152.041 262.872c-23.459 13.149-50.097 19.825-77.2 19.259-26.23-.533-51.945-7.855-74.366-21.176l-3.291 5.536c23.375 13.888 50.185 21.522 77.526 22.077 1.078.022 2.153.033 3.228.033 27.082 0 53.725-6.927 77.25-20.112l-3.147-5.617z"/><path class="st2" d="M148.396 116.119l-.336 6.431 25.562 1.33-4.402 24.81 6.339 1.126 5.676-31.988zm280.628 142.657l-18.995 17.158-14.457-20.637-5.274 3.696 18.641 26.605 24.403-22.043zm-227.905 124.62l-1.824-6.175-26.08 7.704 9.886 26.738 6.041-2.233-7.5-20.28z"/></svg>