<svg xmlns="http://www.w3.org/2000/svg" viewBox="0 0 648 144"><path d="M39.5 38.7v2.6l6.6 7.4v50.4l-8.9 2.5v2.9h23.9v-2.9l-7.5-2-1.9-2.4V55.1L93.6 105h3.7V45l8.9-2.6v-3.2H81.9v3.6l7.7 1.9 1.9 2.3v39.9H91L50.3 38.7zm89.8 66.9c-11.8 0-23.2-7.6-23.2-23.8 0-16.1 12-24.2 23.2-24.2 11.6 0 23.4 7.3 23.4 23.4 0 15.5-12.5 24.6-23.4 24.6zm14.2-23.2c0-11-6-20.4-15.5-20.4-8.5 0-12.7 7.4-12.7 18.4 0 11 5.3 20.7 15.3 20.7 8.5.1 12.9-7.6 12.9-18.7zm128.3-4.7c0-11-6.2-13.2-13.4-13.2-6.1 0-10.1 4.5-10.1 4.5v28.4l1.9 2.4 6.4 2.2v2.5h-23V102l6.5-2.5V51.9c0-8.6-2.2-11-6.9-11v-2.3l14.6-4.9h1s-.5 10.2-.5 17.8v13.7s9.5-7.6 16-7.6c8.1 0 15.6 3.4 15.6 15.3v24.5l1.9 2.4 6.4 2.2v2.5h-23V102l6.3-2.4.3-21.9zm93.1 1.5c0 13.7 7.8 19.4 16.7 19.4 5.5 0 12.1-2.3 12.1-2.3l1 1.9c-2.4 2.4-9 7.4-17.3 7.4-11.2 0-21.3-8.4-21.3-23.8 0-14 9.7-24.2 21.7-24.2 9.4 0 16.7 5.6 16.7 16.3 0 2.8-.5 5.2-.5 5.2h-29.1zm14.5-3.8c4.7-.2 6.4-1.1 6.4-5.9 0-4.1-3-7.3-9.3-7.3-6.6 0-11.6 5.8-11.6 13.7l14.5-.5zm26 28.4c-.7-.3-2.5-1.3-2.6-3.4l-.6-9.4h4.3c1.2 6.4 5.5 10.6 11.1 10.6 5.7 0 8-3 8-6.9 0-3.8-3.1-5.7-6.8-7.7l-5-2.6c-7.2-3.7-10.8-6.6-10.8-13.7 0-8.9 6.4-13.1 16.4-13.1 7 0 12.4 2.7 12.4 2.7l-1.3 11.5h-4c0-7.2-3-9.9-9-9.9-4 0-7.8 1.6-7.8 5.5 0 3.2 1.3 4.5 9.1 8.6l4.4 2.3c8.1 4.1 10.4 7.6 10.4 14.3 0 8.1-8.1 12.9-16 12.9-4.9.1-9.4-.5-12.2-1.7zM483 79.2c0 13.7 7.8 19.4 16.7 19.4 5.5 0 12.1-2.3 12.1-2.3l1 1.9c-2.4 2.4-9 7.4-17.3 7.4-11.2 0-21.3-8.4-21.3-23.8 0-14 9.7-24.2 21.7-24.2 9.4 0 16.7 5.6 16.7 16.3 0 2.8-.5 5.2-.5 5.2H483zm14.5-3.8c4.7-.2 6.4-1.1 6.4-5.9 0-4.1-3-7.3-9.3-7.3-6.6 0-11.6 5.8-11.6 13.7l14.5-.5zm106.9 24.4l-1.9-2.4.1-25c0-11.5-7.5-14.8-15.2-14.8-6.5 0-15.7 7.6-15.7 7.6 0-4.1.2-7.9.2-7.9h-.8l-14.4 5.2V65c5.5 0 7 4.9 7 13.8v20.7l-6.5 2.5v2.6h22.7l.2-2.5-6.4-2.2-1.9-2.4V69.2s3.5-4.6 9.7-4.6c6.4 0 13 2.3 13 13.2l-.3 21.9-6.3 2.4v2.6h22.7l.2-2.5-6.4-2.4zM330.6 105L320 75.7 307.9 105h-4.1l-11.9-36.2c-1.7-4.5-2.6-7.2-5.8-7.2v-2.8h19.5v2.8l-5.9 1.9 8.9 30 7.8-18.7 1.8-4.8-2.7-7.6-3.4-.8v-2.8h18.8v3l-5.9 1.8 10 30 10.4-29.8-6.7-2.4v-2.6h17.7v2.8c-4 .5-6 1.6-9.2 9.7l-12 33.7h-4.6zm-102.5-7.3s-2.8 1.8-6.9 1.8c-4.4 0-8.5-2.5-8.4-8.6l.4-25.8h14.7l.2-1.6 1-8.1-1.9-.3-1.4 3.1-.8.7-11.6.5h-.1V47.5l-5.7 1-2.5 11.1-8.1.8v3.8c4.4 0 8.1.4 8.1 4.6 0 4.2-.4 17.6-.4 22.9 0 10.1 3.8 13.8 10.3 13.8 5.5 0 10.1-2.3 14.2-5.6l-1.1-2.2zm241.6 0s-2.8 1.8-6.9 1.8c-4.4 0-8.5-2.5-8.4-8.6l.4-25.8h14.6l.2-1.6 1-8.1-1.9-.3-1.4 3.1-.8.7-11.6.5V47.5l-5.7 1-2.5 11.1-8.1.8v3.8c4.4 0 8.1.4 8.1 4.6 0 4.2-.4 17.6-.4 22.9 0 10.1 3.8 13.8 10.3 13.8 5.5 0 10.1-2.3 14.2-5.6l-1.1-2.2zM191.4 58.3c-.1 0-1.7-.6-4.9-.6-6.9 0-14.1 10.9-14.1 10.9 0-6 .2-11.1.2-11.1h-.8l-14.1 5.2V65c5.3 0 7 4.8 7 13v21.5l-6.5 2.5v2.6h22.7v-2.5l-6.4-2.2-1.9-2.4V76.3c0-6.5 5.1-10.2 10.7-10.2 1.1 0 2.3.3 3.3.6l1.5 2.3 1.9.2 1.4-10.9zm360.8 0c-.1 0-1.7-.6-4.9-.6-6.9 0-14.1 10.9-14.1 10.9 0-6 .2-11.1.2-11.1h-.8l-14.1 5.2V65c5.3 0 7 4.8 7 13v21.5L519 102v2.6h22.7v-2.5l-6.4-2.2-1.9-2.4V76.3c0-6.5 5.1-10.2 10.7-10.2 1.1 0 2.3.3 3.3.6l1.5 2.3 1.9.2 1.4-10.9z" fill="#4e2a84"/></svg>