<svg width="54" height="51" viewBox="0 0 54 51" fill="none" xmlns="http://www.w3.org/2000/svg">
<path fill-rule="evenodd" clip-rule="evenodd" d="M0.695161 22.3469C-0.0858878 23.1279 -0.0858865 24.3942 0.695162 25.1753L23.0149 47.495C23.0938 47.6212 23.1881 47.7405 23.2978 47.8502L25.657 50.2094C26.0547 50.6071 26.5782 50.8023 27.0994 50.795C27.6259 50.8066 28.1562 50.6115 28.558 50.2097L30.9172 47.8505C31.0274 47.7403 31.122 47.6205 31.2011 47.4938L53.2369 25.458C54.0179 24.6769 54.0179 23.4106 53.2369 22.6295L50.8777 20.2703C50.0966 19.4893 48.8303 19.4892 48.0492 20.2703L27.1073 41.2122L5.88281 19.9876C5.10176 19.2066 3.83543 19.2066 3.05438 19.9876L0.695161 22.3469Z" fill="white"/>
<rect width="7.33645" height="26.2087" rx="2" transform="matrix(-0.707107 -0.707107 -0.707107 0.707107 45.6035 14.5288)" fill="white"/>
<rect width="7.33645" height="26.2087" rx="2" transform="matrix(-0.707107 -0.707107 -0.707107 0.707107 36.3818 5.5127)" fill="white"/>
</svg>
