<svg width="26" height="27" viewBox="0 0 26 27" fill="none" xmlns="http://www.w3.org/2000/svg">
<circle cx="13" cy="13.3677" r="13" fill="#EDF6F5"/>
<path d="M16.4164 7.30368C16.4164 7.69834 16.275 8.03968 15.9924 8.32768C15.7097 8.61568 15.3657 8.75968 14.9604 8.75968C14.5657 8.75968 14.2244 8.61568 13.9364 8.32768C13.6484 8.03968 13.5044 7.69834 13.5044 7.30368C13.5044 6.90901 13.6484 6.56768 13.9364 6.27968C14.2244 5.99168 14.5657 5.84768 14.9604 5.84768C15.3657 5.84768 15.7097 5.99168 15.9924 6.27968C16.275 6.56768 16.4164 6.90901 16.4164 7.30368ZM15.1844 15.5597C15.1844 15.7303 14.7817 16.1303 13.9764 16.7597C13.171 17.389 12.443 17.7037 11.7924 17.7037C11.3444 17.7037 11.019 17.589 10.8164 17.3597C10.6137 17.1303 10.5124 16.8717 10.5124 16.5837C10.5124 16.4023 10.539 16.2343 10.5924 16.0797C10.6457 15.925 10.7044 15.7677 10.7684 15.6077L12.2884 12.4557C12.3737 12.2743 12.435 12.1277 12.4724 12.0157C12.5097 11.9037 12.5284 11.805 12.5284 11.7197C12.5284 11.6343 12.5124 11.573 12.4804 11.5357C12.4484 11.4983 12.4057 11.4797 12.3524 11.4797C12.2137 11.4797 11.9444 11.6903 11.5444 12.1117C11.1444 12.533 10.907 12.7437 10.8324 12.7437C10.747 12.7437 10.6617 12.685 10.5764 12.5677C10.491 12.4503 10.4484 12.3757 10.4484 12.3437C10.4484 12.237 10.5497 12.0637 10.7524 11.8237C10.955 11.5837 11.211 11.3303 11.5204 11.0637C11.7977 10.8183 12.131 10.589 12.5204 10.3757C12.9097 10.1623 13.2537 10.0557 13.5524 10.0557C14.0324 10.0557 14.3924 10.1917 14.6324 10.4637C14.8724 10.7357 14.9924 11.0637 14.9924 11.4477C14.9924 11.6077 14.9764 11.7783 14.9444 11.9597C14.9124 12.141 14.843 12.3277 14.7364 12.5197L13.5204 15.1917C13.4244 15.4157 13.355 15.597 13.3124 15.7357C13.2697 15.8743 13.2484 15.9703 13.2484 16.0237C13.2484 16.0877 13.2644 16.1277 13.2964 16.1437C13.3284 16.1597 13.3604 16.1677 13.3924 16.1677C13.627 16.1677 13.9017 15.9997 14.2164 15.6637C14.531 15.3277 14.731 15.1597 14.8164 15.1597C14.891 15.1597 14.971 15.2157 15.0564 15.3277C15.1417 15.4397 15.1844 15.517 15.1844 15.5597Z" fill="black"/>
</svg>
