<?xml version="1.0" encoding="utf-8"?>
<!-- Generator: Adobe Illustrator 21.0.0, SVG Export Plug-In . SVG Version: 6.00 Build 0)  -->
<svg version="1.1" id="Layer_1" xmlns="http://www.w3.org/2000/svg" xmlns:xlink="http://www.w3.org/1999/xlink" x="0px" y="0px"
	 viewBox="0 0 161.5 41.1" style="enable-background:new 0 0 161.5 41.1;" xml:space="preserve">
<style type="text/css">
	.st0{fill:#2A2E2D;}
	.st1{fill:#488C89;}
</style>
<path class="st0" d="M65,24.8v-9h-2.6V27h5.8v-2.2H65z M78,17.9v-2.1h-6.8V27H78v-2.1h-4.2v-2.5H78v-2h-4.2v-2.5H78z M91,15.8h-2.8
	l-2.4,7.9l-2.4-7.9h-2.8l4,11.2h2.4L91,15.8z M100.4,17.9v-2.1h-6.8V27h6.8v-2.1h-4.2v-2.5h4.2v-2h-4.2v-2.5H100.4z M108.4,21.8
	h-1.8v-3.9h1.8c1.1,0,1.8,0.9,1.8,1.9C110.2,20.9,109.5,21.8,108.4,21.8z M104.1,27h2.6v-3.1h1.2l2,3.1h3l-2.2-3.5
	c1.4-0.7,2.2-2,2.2-3.6c0-2.2-1.6-4-4.1-4h-4.7V27z M123,17.9v-2.1h-6.8V27h6.8v-2.1h-4.2v-2.5h4.2v-2h-4.2v-2.5H123z M126.6,15.8
	V27h4.1c3.7,0,5.8-2.7,5.8-5.6s-2.1-5.6-5.8-5.6H126.6z M130.6,18c2.1,0,3.3,1.6,3.3,3.4c0,1.7-1.2,3.4-3.3,3.4h-1.4V18H130.6z
	 M145.9,23h2c-0.2,1.1-1.1,2.1-2.7,2.1c-2.3,0-3.4-1.7-3.4-3.7c0-1.9,1.1-3.7,3.2-3.7c1.4,0,2.3,0.8,2.4,1.7h2.8
	c-0.2-2.1-2.2-3.9-5.2-3.9c-3.7,0-5.9,2.8-5.9,5.9c0,3.1,2.1,5.9,5.9,5.9c3.2,0,5.1-1.7,5.6-4.3h1.2v-1.9h-5.8V23z M161.5,17.9v-2.1
	h-6.8V27h6.8v-2.1h-4.2v-2.5h4.2v-2h-4.2v-2.5H161.5z"/>
<path class="st1" d="M0.6,17.8c-0.8,0.8-0.8,2,0,2.8l18.2,18.2c0.1,0.1,0.2,0.2,0.3,0.3l1.4,1.4c0.4,0.4,0.9,0.6,1.4,0.6
	c0.5,0,1-0.2,1.4-0.6l1.4-1.4c0.1-0.1,0.2-0.2,0.3-0.3l18-18c0.8-0.8,0.8-2,0-2.8l-1.4-1.4c-0.8-0.8-2-0.8-2.8,0L21.9,33.5L4.8,16.3
	c-0.8-0.8-2-0.8-2.8,0L0.6,17.8z"/>
<path class="st1" d="M35.7,10.2l-1.4-1.4c-0.8-0.8-2-0.8-2.8,0L19.1,21.1c-0.8,0.8-0.8,2,0,2.8l1.4,1.4c0.8,0.8,2,0.8,2.8,0L35.7,13
	C36.4,12.3,36.4,11,35.7,10.2z"/>
<path class="st1" d="M28.1,2.8l-1.4-1.4c-0.8-0.8-2-0.8-2.8,0L11.5,13.7c-0.8,0.8-0.8,2,0,2.8L13,18c0.8,0.8,2,0.8,2.8,0L28.1,5.7
	C28.9,4.9,28.9,3.6,28.1,2.8z"/>
</svg>
