<svg width="37" height="32" viewBox="0 0 37 32" fill="none" xmlns="http://www.w3.org/2000/svg">
<path d="M36.0918 24.1211C36.0918 26.237 35.3919 28.0111 33.9922 29.4434C32.625 30.8757 30.8997 31.5918 28.8164 31.5918C26.5378 31.5918 24.6335 30.6478 23.1035 28.7598C21.5736 26.8392 20.8086 24.4141 20.8086 21.4844C20.8086 19.3034 21.248 17.0247 22.127 14.6484C23.0384 12.2721 24.6009 9.35872 26.8145 5.9082C27.9863 4.05273 28.9303 2.75065 29.6465 2.00195C30.3626 1.25326 31.0137 0.878906 31.5996 0.878906C32.5762 0.878906 33.4062 1.04167 34.0898 1.36719C34.7734 1.69271 35.1152 2.06706 35.1152 2.49023C35.1152 2.7832 34.7897 3.35286 34.1387 4.19922C33.6504 4.85026 33.276 5.38737 33.0156 5.81055C31.7786 7.73112 30.7858 9.52148 30.0371 11.1816C29.2884 12.8092 28.9141 13.9811 28.9141 14.6973C28.9141 15.6413 29.4674 16.3411 30.5742 16.7969C30.7044 16.862 30.7858 16.8945 30.8184 16.8945C32.6413 17.6107 33.9759 18.5547 34.8223 19.7266C35.6686 20.8659 36.0918 22.3307 36.0918 24.1211ZM15.291 24.1211C15.291 26.237 14.5911 28.0111 13.1914 29.4434C11.7917 30.8757 10.0339 31.5918 7.91797 31.5918C5.63932 31.5918 3.7513 30.6478 2.25391 28.7598C0.75651 26.8392 0.0078125 24.4141 0.0078125 21.4844C0.0078125 19.3034 0.447266 17.0247 1.32617 14.6484C2.23763 12.2721 3.80013 9.35872 6.01367 5.9082C7.18555 4.05273 8.12956 2.75065 8.8457 2.00195C9.56185 1.25326 10.2129 0.878906 10.7988 0.878906C11.7754 0.878906 12.6055 1.04167 13.2891 1.36719C13.9727 1.69271 14.3145 2.06706 14.3145 2.49023C14.3145 2.7832 13.9889 3.35286 13.3379 4.19922C12.8496 4.85026 12.4753 5.38737 12.2148 5.81055C10.9779 7.73112 9.98503 9.52148 9.23633 11.1816C8.48763 12.8092 8.11328 13.9811 8.11328 14.6973C8.11328 15.6413 8.66667 16.3411 9.77344 16.7969C9.90365 16.862 9.98503 16.8945 10.0176 16.8945C11.8405 17.6107 13.1751 18.5547 14.0215 19.7266C14.8678 20.8659 15.291 22.3307 15.291 24.1211Z" fill="white"/>
</svg>
