<svg width="297" height="300" viewBox="0 0 297 300" fill="none" xmlns="http://www.w3.org/2000/svg">
<path fill-rule="evenodd" clip-rule="evenodd" d="M3.15105 0.628543C2.04648 0.628546 1.15105 1.52398 1.15105 2.62855L1.15105 244.089C0.907272 244.421 0.763241 244.83 0.763252 245.273V296.873C0.763252 297.528 1.07781 298.109 1.56404 298.474C1.92964 298.95 2.50452 299.257 3.15105 299.257H54.7513C55.1916 299.257 55.5987 299.115 55.9291 298.873L294.359 298.873C295.464 298.873 296.359 297.978 296.359 296.873L296.359 245.273C296.359 244.169 295.464 243.273 294.359 243.273L56.7513 243.273L56.7513 2.62855C56.7513 1.52397 55.8559 0.628544 54.7513 0.628545L3.15105 0.628543Z" fill="#3E8683"/>
</svg>
