<svg xmlns="http://www.w3.org/2000/svg" width="512" height="512"><circle fill="#F6BB42" cx="376.758" cy="40.224" r="19.979"/><path fill="#FFF" d="M364.771 40.224c0-9.666 6.86-17.724 15.983-19.577a20.073 20.073 0 00-3.996-.402c-11.035 0-19.979 8.944-19.979 19.979s8.943 19.979 19.979 19.979c1.366 0 2.708-.141 3.996-.402-9.123-1.854-15.983-9.911-15.983-19.577z" opacity=".4"/><path fill="#82AF48" d="M316.82 151.64l-135.86 7.991V28.236h135.86z"/><path fill="#A0D468" d="M300.837 156.604H196.944V52.211l7.991-7.991h87.91l7.992 7.991z"/><path fill="#FFF" d="M180.96 28.236h7.991v117.378h-7.991z" opacity=".3"/><path d="M308.828 36.228h7.992v109.387h-7.992z" opacity=".2"/><circle fill="#F6BB42" cx="117.026" cy="108.153" r="23.975"/><path fill="#FFF" d="M109.035 108.153c0-10.423 6.692-19.203 15.983-22.508-2.513-.89-5.174-1.468-7.992-1.468-13.24 0-23.975 10.735-23.975 23.976s10.735 23.976 23.975 23.976c2.817 0 5.479-.578 7.992-1.468-9.291-3.305-15.983-12.085-15.983-22.508z" opacity=".4"/><path fill="#82AF48" d="M276.861 125.159c0 13.24-10.738 23.976-23.975 23.976S228.91 138.4 228.91 125.159c0-13.236 10.739-23.972 23.976-23.972s23.975 10.736 23.975 23.972z"/><path fill="#EC87C0" d="M45.101 172.087s-28.795 34.359 15.905 85.775l16.089-34.344c-38.655-15.468-31.994-51.431-31.994-51.431z"/><path fill="#EC87C0" d="M428.704 259.996c-5.674-31.967-20.136-59.938-39.958-69.928l-9.428.238c-.961-42.753 17.419-74.161 17.419-74.161s-50.425-7.594-85.989 20.537c-4.16 3.359-8.155 7.113-11.831 11.508l-14.063-9.03a212.704 212.704 0 00-35.963-3.036c-17.182 0-33.805 1.838-49.71 5.276-84.073 18.461-146.087 83.031-146.087 166.546 0 0-4.714 104.049 81.038 141.058l-1.12 2.794 7.992 55.942h87.909l7.992-54.429h23.976l7.991 54.429h87.91l7.991-54.429-.476-1.67c64.409-16.623 64.409-79.761 64.409-79.761 39.959-7.992 47.95-15.983 47.95-15.983v-79.918c-.002 0-8.391-7.671-47.952-15.983z"/><path d="M428.704 259.996c-5.674-31.967-20.136-59.938-39.958-69.928l-8.117.203v4.995c15.758 12.658 27.198 37.176 32.092 64.729 39.561 8.312 47.95 15.983 47.95 15.983v79.918s-7.991 7.991-47.95 15.983c0 0 0 63.138-64.41 79.761l.477 1.67-7.992 54.429h15.984l7.991-54.429-.476-1.67c64.409-16.623 64.409-79.761 64.409-79.761 39.959-7.992 47.95-15.983 47.95-15.983v-79.918c0 .001-8.389-7.67-47.95-15.982z" opacity=".2"/><path fill="#FFF" d="M304.333 178.58c10.489-46.451 75.063-61.022 92.404-62.435-12.276-1.108-84.912-3.996-111.884 55.941-.484 1.082 19.48 6.494 19.48 6.494zM158.105 449.004c-85.751-37.009-81.037-141.058-81.037-141.058 0-83.515 62.014-148.085 146.087-166.546 11.59-2.506 23.569-4.137 35.858-4.847-3.369-.16-6.705-.43-10.123-.43-17.182 0-33.805 1.838-49.71 5.276C115.107 159.86 53.093 224.43 53.093 307.945c0 0-4.714 104.049 81.038 141.058l-1.12 2.794 7.992 55.942h23.976l-7.992-55.942 1.118-2.793z" opacity=".3"/><circle fill="#FFCE54" cx="117.026" cy="92.17" r="23.975"/><path fill="#FFF" d="M101.043 92.17c0-11.87 8.651-21.661 19.979-23.573-1.307-.219-2.626-.402-3.996-.402-13.24 0-23.975 10.735-23.975 23.976s10.735 23.976 23.975 23.976c1.37 0 2.689-.184 3.996-.402-11.328-1.914-19.979-11.705-19.979-23.575z" opacity=".4"/><circle fill="#FFCE54" cx="376.758" cy="24.24" r="19.979"/><path fill="#FFF" d="M364.771 24.24c0-9.666 6.86-17.724 15.983-19.577a20.073 20.073 0 00-3.996-.402c-11.035 0-19.979 8.944-19.979 19.979s8.943 19.979 19.979 19.979c1.366 0 2.708-.141 3.996-.402-9.123-1.853-15.983-9.911-15.983-19.577z" opacity=".4"/><path fill="#FFF" d="M284.854 507.74h-15.985l-7.991-54.428h15.983zM188.952 28.236h127.869v7.991H188.952z" opacity=".3"/><path fill="#3A3847" d="M117.026 120.141c-15.421 0-27.971-12.549-27.971-27.971s12.55-27.971 27.971-27.971 27.971 12.549 27.971 27.971-12.549 27.971-27.971 27.971zm0-47.951c-11.016 0-19.979 8.964-19.979 19.979s8.963 19.979 19.979 19.979 19.979-8.964 19.979-19.979-8.963-19.979-19.979-19.979z"/><path fill="#3A3847" d="M117.026 136.124c-15.421 0-27.971-12.549-27.971-27.971a3.993 3.993 0 013.996-3.996 3.994 3.994 0 013.996 3.996c0 11.016 8.963 19.979 19.979 19.979s19.979-8.964 19.979-19.979a3.994 3.994 0 013.996-3.996 3.993 3.993 0 013.996 3.996c.001 15.422-12.549 27.971-27.971 27.971z"/><path fill="#3A3847" d="M117.026 104.157a3.994 3.994 0 01-3.996-3.995V84.178c0-2.208 1.787-3.995 3.996-3.995s3.996 1.787 3.996 3.995v15.984a3.993 3.993 0 01-3.996 3.995zm-23.975 7.992a3.993 3.993 0 01-3.996-3.996V92.17a3.993 3.993 0 013.996-3.996 3.994 3.994 0 013.996 3.996v15.983a3.993 3.993 0 01-3.996 3.996zm47.95 0a3.994 3.994 0 01-3.996-3.996V92.17a3.994 3.994 0 013.996-3.996 3.993 3.993 0 013.996 3.996v15.983a3.993 3.993 0 01-3.996 3.996zm235.757-63.933c-13.221 0-23.975-10.755-23.975-23.976S363.537.264 376.758.264s23.976 10.755 23.976 23.976-10.755 23.976-23.976 23.976zm0-39.959c-8.811 0-15.983 7.168-15.983 15.983s7.173 15.983 15.983 15.983c8.812 0 15.983-7.168 15.983-15.983s-7.172-15.983-15.983-15.983z"/><path fill="#3A3847" d="M376.758 64.199c-13.221 0-23.975-10.755-23.975-23.976a3.993 3.993 0 013.996-3.996 3.993 3.993 0 013.995 3.996c0 8.815 7.173 15.983 15.983 15.983 8.812 0 15.983-7.168 15.983-15.983a3.994 3.994 0 013.996-3.996 3.993 3.993 0 013.996 3.996c.001 13.221-10.753 23.976-23.974 23.976z"/><path fill="#3A3847" d="M356.779 43.26a3.993 3.993 0 01-3.996-3.996V24.24a3.993 3.993 0 013.996-3.996 3.993 3.993 0 013.995 3.996v15.023a3.993 3.993 0 01-3.995 3.997zm39.958.561a3.994 3.994 0 01-3.996-3.996V24.24a3.994 3.994 0 013.996-3.996 3.993 3.993 0 013.996 3.996v15.585a3.993 3.993 0 01-3.996 3.996zm-19.979-11.589a3.994 3.994 0 01-3.996-3.996v-7.992c0-2.208 1.787-3.996 3.996-3.996s3.996 1.788 3.996 3.996v7.992a3.994 3.994 0 01-3.996 3.996zM53.092 311.942a3.994 3.994 0 01-3.996-3.996c0-82.352 59.969-150.848 149.224-170.448 16.487-3.562 33.497-5.369 50.569-5.369a3.993 3.993 0 013.996 3.995 3.993 3.993 0 01-3.996 3.996c-16.507 0-32.946 1.744-48.868 5.187-85.486 18.773-142.934 84.131-142.934 162.64a3.992 3.992 0 01-3.995 3.995zm375.604 63.934a3.993 3.993 0 01-3.91-3.215 3.99 3.99 0 013.138-4.698c37.305-7.461 45.897-14.892 45.983-14.969 1.608-1.437 4.113-1.39 5.611.187 1.491 1.577 1.491 4.012-.039 5.541-.905.906-10.005 9.077-49.995 17.076a3.768 3.768 0 01-.788.078zm47.958-95.9a3.987 3.987 0 01-2.7-1.046c-.016-.016-8.936-7.219-46.069-15.023a3.996 3.996 0 01-3.091-4.733c.461-2.158 2.599-3.527 4.729-3.086 39.49 8.295 48.887 16.084 49.832 16.943a4.005 4.005 0 01.249 5.65 3.995 3.995 0 01-2.95 1.295z"/><path fill="#3A3847" d="M476.654 359.893a3.994 3.994 0 01-3.996-3.995V275.98a3.995 3.995 0 013.996-3.996 3.994 3.994 0 013.996 3.996v79.918a3.994 3.994 0 01-3.996 3.995zm-119.883 97.415a3.99 3.99 0 01-3.926-3.277 4 4 0 013.215-4.645 86.23 86.23 0 007.203-1.615c60.578-15.624 61.438-73.439 61.445-75.89a4.003 4.003 0 013.995-3.996h.008a4.002 4.002 0 013.988 3.996c0 .663-.772 66.431-67.407 83.632a100.51 100.51 0 01-7.796 1.732 3.772 3.772 0 01-.725.063zm71.925-193.316a3.998 3.998 0 01-3.926-3.298c-5.774-32.513-20.268-58.209-37.819-67.06a3.992 3.992 0 01-1.772-5.365c.991-1.975 3.419-2.763 5.362-1.768 20.064 10.106 35.799 37.32 42.097 72.796a3.99 3.99 0 01-3.239 4.632 3.79 3.79 0 01-.703.063zM284.861 143.156c-.227 0-.453-.02-.68-.059a209.865 209.865 0 00-35.292-2.978 3.993 3.993 0 01-3.996-3.996 3.993 3.993 0 013.996-3.995c12.324 0 24.655 1.042 36.634 3.094a4.002 4.002 0 013.271 4.612 4 4 0 01-3.933 3.322z"/><path fill="#3A3847" d="M380.27 208.05a3.991 3.991 0 01-3.956-3.523c-.586-4.897-.913-9.525-.991-14.149-.75-33.458 9.888-59.888 15.148-70.825-13.854-.933-50.315-1.034-77.24 20.264-4.34 3.505-8.031 7.091-11.246 10.938-5.604 6.743-9.998 14.208-13.416 22.812a3.999 3.999 0 01-7.429-2.958c3.691-9.264 8.639-17.665 14.703-24.971 3.566-4.261 7.617-8.206 12.394-12.065 36.54-28.899 86.965-21.704 89.095-21.38a3.992 3.992 0 012.858 5.966c-.18.309-17.795 31.031-16.874 72.059.078 4.37.383 8.737.929 13.365a3.992 3.992 0 01-3.975 4.467zM268.861 511.735a3.998 3.998 0 01-3.948-3.418l-7.989-54.42a3.997 3.997 0 013.373-4.535c2.216-.335 4.21 1.187 4.53 3.372l7.999 54.428a3.985 3.985 0 01-3.379 4.526c-.195.032-.39.047-.586.047z"/><path fill="#3A3847" d="M356.779 511.735h-87.91a3.993 3.993 0 01-3.995-3.995 3.993 3.993 0 013.995-3.996h87.91a3.993 3.993 0 013.995 3.996 3.993 3.993 0 01-3.995 3.995z"/><path fill="#3A3847" d="M356.787 511.735c-.195 0-.391-.016-.586-.047a3.986 3.986 0 01-3.379-4.526l7.991-54.428c.328-2.186 2.396-3.707 4.534-3.372a4 4 0 013.38 4.535l-7.992 54.42a4.004 4.004 0 01-3.948 3.418zm-215.789 0a3.995 3.995 0 01-3.953-3.434l-7.991-55.942a3.995 3.995 0 013.391-4.519c2.166-.32 4.207 1.21 4.523 3.395l7.992 55.942a3.993 3.993 0 01-3.962 4.558z"/><path fill="#3A3847" d="M228.911 511.735h-87.909a3.994 3.994 0 01-3.996-3.995 3.994 3.994 0 013.996-3.996h87.909a3.994 3.994 0 013.996 3.996 3.994 3.994 0 01-3.996 3.995z"/><path fill="#3A3847" d="M228.915 511.735a3.79 3.79 0 01-.585-.047 3.985 3.985 0 01-3.372-4.526l7.992-54.428c.319-2.186 2.313-3.715 4.534-3.372a3.996 3.996 0 013.371 4.535l-7.991 54.42a3.996 3.996 0 01-3.949 3.418zm-87.914-55.941c-.472 0-.948-.078-1.417-.258-2.408-.913-4.815-1.834-7.137-2.911C45.272 415.008 49.053 308.837 49.1 307.767c.102-2.208 2.048-3.762 4.171-3.815a4.002 4.002 0 013.812 4.175c-.043 1.007-3.527 101.762 78.63 137.21 2.247 1.038 4.476 1.881 6.704 2.724a4.005 4.005 0 012.322 5.158 4 4 0 01-3.738 2.575zM53.092 248.009a3.983 3.983 0 01-2.813-1.159c-36.755-36.415-8.717-76.683-8.429-77.084a3.997 3.997 0 014.823-1.347 4.004 4.004 0 012.349 4.433c-.226 1.19-5.28 29.298 21.918 43.65a3.998 3.998 0 01-3.731 7.071c-17.349-9.155-23.616-23.301-25.68-34.57-3.976 13.065-4.948 33.024 14.375 52.173a3.996 3.996 0 01-2.812 6.833zM180.96 136.124a3.993 3.993 0 01-3.996-3.995V28.236a3.993 3.993 0 013.996-3.996 3.994 3.994 0 013.996 3.996v103.893a3.993 3.993 0 01-3.996 3.995z"/><path fill="#3A3847" d="M316.82 32.232H180.96a3.994 3.994 0 01-3.996-3.996 3.993 3.993 0 013.996-3.996h135.86a3.993 3.993 0 013.996 3.996 3.994 3.994 0 01-3.996 3.996z"/><path fill="#3A3847" d="M316.82 112.149a3.993 3.993 0 01-3.996-3.996V28.236c0-2.209 1.787-3.996 3.996-3.996s3.996 1.787 3.996 3.996v79.917a3.993 3.993 0 01-3.996 3.996zm-119.876 23.975a3.993 3.993 0 01-3.996-3.995V52.211a3.993 3.993 0 013.996-3.995 4 4 0 003.996-3.996 3.994 3.994 0 013.996-3.996h87.91a3.993 3.993 0 013.996 3.996 4.002 4.002 0 003.996 3.996 3.993 3.993 0 013.995 3.995v71.926a3.993 3.993 0 01-3.995 3.996 3.993 3.993 0 01-3.996-3.996V55.524a12.029 12.029 0 01-7.305-7.309h-81.288a12.048 12.048 0 01-7.309 7.309v76.604a3.995 3.995 0 01-3.996 3.996z"/><path fill="#3A3847" d="M276.861 128.133a3.993 3.993 0 01-3.996-3.996c0-11.016-8.963-19.979-19.979-19.979-11.017 0-19.979 8.964-19.979 19.979a3.994 3.994 0 01-3.996 3.996 3.993 3.993 0 01-3.996-3.996c0-15.422 12.55-27.971 27.972-27.971 15.421 0 27.971 12.549 27.971 27.971a3.995 3.995 0 01-3.997 3.996zM248.89 391.86a3.994 3.994 0 01-3.996-3.996V220.037c0-2.208 1.787-3.995 3.996-3.995s3.996 1.787 3.996 3.995v167.827a3.994 3.994 0 01-3.996 3.996z"/><path fill="#3A3847" d="M276.861 367.885h-71.926a3.994 3.994 0 01-3.996-3.996 3.995 3.995 0 013.996-3.996h71.926c6.493 0 11.191-1.592 12.253-4.167 1.069-2.576-1.132-7.024-5.729-11.629l-74.478-66.494c-9.938-9.927-9.033-17.091-7.625-20.49 1.409-3.402 5.83-9.104 19.636-9.104h71.926a3.993 3.993 0 013.996 3.996 3.993 3.993 0 01-3.996 3.995h-71.926c-6.494 0-11.188 1.597-12.253 4.168-1.065 2.575 1.127 7.024 5.728 11.629l74.479 66.493c9.935 9.928 9.037 17.092 7.624 20.494-1.403 3.396-5.828 9.101-19.635 9.101zm-7.992 89.423h-39.958a3.988 3.988 0 01-3.996-3.996 4 4 0 013.996-3.996h39.958a4 4 0 013.996 3.996 3.989 3.989 0 01-3.996 3.996z"/></svg>