<svg version="1.1" id="Icon_Set" xmlns="http://www.w3.org/2000/svg" x="0" y="0" viewBox="0 0 64 64" xml:space="preserve"><style>.st0{fill:none;stroke:#1a237e;stroke-linecap:round;stroke-linejoin:round;stroke-miterlimit:10}.st3{fill:#4fc3f7}.st5{fill:#e53935;stroke:#1a237e;stroke-linecap:round;stroke-linejoin:round;stroke-miterlimit:10}</style><g id="Beach"><path class="st3" d="M62.5 44.3h-54v1c0 8.3 6.7 15 15 15h24c8.3 0 15-6.7 15-15v-1z"/><path class="st5" d="M7 41.5c2.6-1.1 3.8-4 2.7-6.5L.5 38.8c1.1 2.6 4 3.8 6.5 2.7z"/><path class="st5" d="M16.3 37.7c2.6-1.1 3.8-4 2.7-6.5L9.7 35c1.1 2.5 4 3.8 6.6 2.7zM9.7 35l.5-25.1L.5 38.8z"/><path class="st5" d="M9.7 35l.5-25.1L19 31.2zm25-5c-2.6 1.1-5.5-.2-6.5-2.7l9.2-3.8c1.1 2.6-.1 5.5-2.7 6.5z"/><path class="st5" d="M25.5 33.9c-2.5 1-5.5-.2-6.5-2.7l9.2-3.8c1.1 2.5-.1 5.4-2.7 6.5zm2.7-6.6l-18-17.4 27.3 13.6zm0 0l-18-17.4L19 31.2z"/><circle class="st0" cx="46.5" cy="8.5" r="3"/><path class="st0" d="M46.5.5v3m0 10v3m8-8h-3m-10 0h-3m12.9-4.9L50 5m-7 7l-1.4 1.4m9.8 0L50 12m-7-7l-1.4-1.4"/><path class="st3" d="M48.5 31.8c0-1.1-.9-2-2-2s-2 .9-2 2c-1.1 0-2 .9-2 2s.9 2 2 2h4c1.1 0 2-.9 2-2s-.9-2-2-2zm10-10c0-1.1-.9-2-2-2s-2 .9-2 2c-1.1 0-2 .9-2 2s.9 2 2 2h4c1.1 0 2-.9 2-2s-.9-2-2-2z"/><path fill="#fafafa" stroke="#1a237e" stroke-linecap="round" stroke-linejoin="round" stroke-miterlimit="10" d="M19.9 37.3l10.8 26.2H34L22.7 36.1"/><path class="st0" d="M26.6 63.5h12m-14 0h-1m11.1-12.9c1.8 0 3.6-.8 4.8-2.3 2.5 3.1 7.1 3.1 9.6 0 2.5 3.1 7.1 3.1 9.6 0 1.2 1.5 3 2.3 4.8 2.3m-28.8 4.5c1.8 0 3.6-.8 4.8-2.3 2.5 3.1 7.1 3.1 9.6 0 2.5 3.1 7.1 3.1 9.6 0 1.2 1.5 3 2.3 4.8 2.3"/></g></svg>