<svg width="669" height="420" viewBox="0 0 669 420" fill="none" xmlns="http://www.w3.org/2000/svg">
<g clip-path="url(#clip0)">
<path opacity="0.1" d="M664.81 289.318C658.097 305.456 644.053 320.031 628.977 333.835C615.725 345.972 601.549 357.7 586.45 369.02C582.266 372.162 578.014 375.265 573.696 378.329L570.697 380.444C568.037 382.325 565.332 384.189 562.581 386.035L562.251 386.259C559.583 388.073 556.892 389.87 554.177 391.65C545.296 397.482 535.907 403.274 525.529 408.069C521.993 409.707 518.345 411.233 514.567 412.6C512.524 413.342 510.438 414.038 508.308 414.686C504.819 415.746 501.236 416.671 497.494 417.431C496.869 417.561 496.238 417.685 495.608 417.802C491.777 418.521 487.899 419.046 483.98 419.405C469.617 420.719 454.783 419.758 440.397 417.508C433.207 416.383 426.129 414.933 419.281 413.284C418.438 413.083 417.601 412.877 416.759 412.694C393.438 406.862 371.544 398.943 348.058 393.376C339.964 391.455 331.713 389.825 323.305 388.486C319.204 387.834 315.078 387.245 310.929 386.718C301.164 385.505 291.274 384.692 281.344 384.279C267.954 383.69 254.128 383.943 241.386 386.282C239.689 386.593 238.013 386.942 236.359 387.331C234.261 387.822 232.202 388.382 230.182 389.01C224.738 390.769 219.439 392.949 214.335 395.532C213.327 396.027 212.331 396.528 211.335 397.035C208.211 398.625 205.129 400.251 202 401.83C196.367 404.777 190.506 407.264 184.472 409.265C181.168 410.309 177.807 411.167 174.406 411.834C165.407 413.637 155.83 414.35 146.212 414.397C141.574 414.397 136.93 414.297 132.339 414.055H132.197C130.629 413.973 129.056 413.879 127.482 413.761C120.316 413.272 113.173 412.518 106.136 411.487C82.0258 407.952 59.159 401.271 40.7654 391.078C15.7829 377.245 -0.0823619 356.618 2.29861 336.009C4.00772 321.163 14.6219 307.376 24.6939 293.879C43.4293 268.745 60.9801 243.04 70.2152 215.945C77.7059 193.951 79.9395 170.697 97.178 150.931C102.7 144.603 109.761 138.829 117.982 133.769C124.127 130.007 130.569 126.752 137.242 124.036C144.784 120.947 152.543 118.417 160.456 116.465C167.314 114.764 174.265 113.458 181.272 112.553C185.079 112.058 188.934 111.675 192.812 111.416C195.798 111.208 198.798 111.076 201.811 111.021H202.277C204.119 110.986 205.962 110.986 207.805 111.021C221.241 111.229 234.641 112.488 247.88 114.786C256.167 116.17 264.382 117.867 272.427 119.735C277.228 120.846 281.986 122.011 286.701 123.229C288.139 123.6 289.577 123.977 290.997 124.36C324.543 133.344 354.058 145.752 386.378 155.933C386.543 155.986 386.702 156.039 386.867 156.08C393.5 158.119 400.236 159.811 407.046 161.147C412.05 162.148 417.165 163.014 422.369 163.774C430.337 164.953 438.476 165.884 446.674 166.685L448.483 166.862C460.512 168.04 472.647 168.918 484.434 169.943C488.618 170.308 492.767 170.685 496.857 171.121C499.45 171.381 502.02 171.655 504.566 171.946C506.393 172.158 508.226 172.37 510.058 172.594C511.891 172.818 513.83 173.054 515.716 173.295C516.942 173.448 518.162 173.608 519.388 173.778C526.814 174.762 534.222 175.864 541.547 177.125C546.003 177.891 550.435 178.716 554.814 179.605C557.984 180.249 561.128 180.929 564.243 181.644C566.553 182.166 568.844 182.716 571.115 183.293C589.568 187.93 606.836 194.01 621.717 202.217C660.36 223.48 677.652 258.458 664.81 289.318Z" fill="#6C63FF"/>
<path opacity="0.1" d="M146.742 53.26C153.783 53.26 159.49 47.5545 159.49 40.5165C159.49 33.4784 153.783 27.7729 146.742 27.7729C139.702 27.7729 133.995 33.4784 133.995 40.5165C133.995 47.5545 139.702 53.26 146.742 53.26Z" fill="#6C63FF"/>
<path opacity="0.1" d="M407.299 25.487C414.34 25.487 420.047 19.7816 420.047 12.7435C420.047 5.70547 414.34 0 407.299 0C400.259 0 394.552 5.70547 394.552 12.7435C394.552 19.7816 400.259 25.487 407.299 25.487Z" fill="#6C63FF"/>
<path opacity="0.1" d="M561.797 54.026C568.838 54.026 574.545 48.3205 574.545 41.2825C574.545 34.2444 568.838 28.5389 561.797 28.5389C554.757 28.5389 549.05 34.2444 549.05 41.2825C549.05 48.3205 554.757 54.026 561.797 54.026Z" fill="#6C63FF"/>
<path opacity="0.1" d="M21.3639 92.7042C33.1629 92.7042 42.7278 83.1423 42.7278 71.3471C42.7278 59.552 33.1629 49.9901 21.3639 49.9901C9.56495 49.9901 0 59.552 0 71.3471C0 83.1423 9.56495 92.7042 21.3639 92.7042Z" fill="#6C63FF"/>
<path opacity="0.1" d="M41.8439 198.164C53.6429 198.164 63.2078 188.602 63.2078 176.807C63.2078 165.012 53.6429 155.45 41.8439 155.45C30.0449 155.45 20.48 165.012 20.48 176.807C20.48 188.602 30.0449 198.164 41.8439 198.164Z" fill="#6C63FF"/>
<path opacity="0.1" d="M615.234 159.344C627.032 159.344 636.597 149.782 636.597 137.987C636.597 126.192 627.032 116.63 615.234 116.63C603.435 116.63 593.87 126.192 593.87 137.987C593.87 149.782 603.435 159.344 615.234 159.344Z" fill="#6C63FF"/>
<path d="M208.836 141.015C208.942 142.808 208.837 144.608 208.524 146.377C207.345 151.85 202.359 155.609 197.532 158.46C192.705 161.312 187.401 164.01 184.531 168.824C181.072 174.639 182.174 182.457 186.234 187.889C190.295 193.321 196.731 196.555 203.355 197.905C215.437 200.397 228.667 196.897 237.726 188.531C246.784 180.165 251.328 167.092 249.106 154.949C244.191 155.638 239.812 151.302 238.221 146.601C236.63 141.899 236.96 136.803 236.341 131.872C236.296 131.038 236.045 130.228 235.61 129.515C234.92 128.56 233.701 128.172 232.563 127.859C226.882 126.298 217.322 122.881 211.435 124.189C206.131 125.403 208.747 136.561 208.836 141.015Z" fill="#BE6F72"/>
<path opacity="0.1" d="M208.836 141.015C208.942 142.808 208.837 144.608 208.524 146.377C207.345 151.85 202.359 155.609 197.532 158.46C192.705 161.312 187.401 164.01 184.531 168.824C181.072 174.639 182.174 182.457 186.234 187.889C190.295 193.321 196.731 196.555 203.355 197.905C215.437 200.397 228.667 196.897 237.726 188.531C246.784 180.165 251.328 167.092 249.106 154.949C244.191 155.638 239.812 151.302 238.221 146.601C236.63 141.899 236.96 136.803 236.341 131.872C236.296 131.038 236.045 130.228 235.61 129.515C234.92 128.56 233.701 128.172 232.563 127.859C226.882 126.298 217.322 122.881 211.435 124.189C206.131 125.403 208.747 136.561 208.836 141.015Z" fill="black"/>
<path d="M201.97 401.842C196.338 404.789 190.476 407.276 184.443 409.277C181.138 410.321 177.777 411.178 174.377 411.846C174.136 407.316 174.383 402.773 175.113 398.295C175.573 395.721 176.251 393.17 176.428 390.56C176.678 386.792 175.872 383.03 174.1 379.696C180.665 378.8 186.9 377.339 193.495 377.769L193.914 377.798C194.698 377.818 195.474 377.964 196.212 378.228C197.227 378.719 198.088 379.477 198.705 380.42C199.045 380.883 199.357 381.365 199.642 381.864C201.504 385.08 202.212 388.792 202.359 392.616C202.428 395.696 202.298 398.778 201.97 401.842Z" fill="#BE6F72"/>
<path d="M236.335 387.337C234.237 387.828 232.178 388.388 230.158 389.016C224.714 390.775 219.416 392.955 214.311 395.538C213.979 393.933 213.817 392.298 213.828 390.66C216.836 388.586 220.23 387.138 223.809 386.402C227.388 385.667 231.079 385.658 234.661 386.377C235.14 386.435 235.595 386.618 235.981 386.907C236.121 387.031 236.24 387.176 236.335 387.337Z" fill="#BE6F72"/>
<path d="M246.466 357.596C246.065 361.449 245.476 365.314 244.109 368.938C242.629 372.826 240.225 376.597 240.531 380.75C240.667 382.553 241.28 384.509 241.368 386.294C239.671 386.604 237.995 386.954 236.341 387.343C234.243 387.834 232.184 388.394 230.165 389.022C224.72 390.78 219.422 392.961 214.317 395.544C213.309 396.039 212.313 396.54 211.317 397.046C210.905 396.993 210.498 396.928 210.086 396.852C207.139 396.316 204.039 394.996 202.371 392.639C201.989 392.097 201.689 391.502 201.481 390.872C200.52 388.003 201.522 384.427 199.524 382.152L199.43 382.235L199.359 382.282C198.265 383.273 197.063 384.139 195.776 384.862C192.847 386.52 189.602 387.543 186.251 387.866C182.901 388.189 179.52 387.804 176.328 386.736C175.063 386.306 173.842 385.757 172.68 385.098C169.98 383.56 167.375 380.974 167.588 377.887C167.705 376.167 168.69 374.517 168.424 372.814C168.23 371.595 167.428 370.581 166.827 369.503C162.885 362.433 167.588 353.342 165.112 345.66C165.053 345.477 164.989 345.295 164.924 345.118C164.741 344.617 164.535 344.134 164.334 343.651C163.828 342.526 163.262 341.418 162.814 340.263C162.441 339.292 162.145 338.294 161.93 337.276C161.373 334.322 161.176 331.311 161.34 328.309C161.34 320.397 162.755 312.296 164.77 304.672C165.13 303.317 165.531 301.402 166.061 299.317C166.578 297.118 167.276 294.966 168.147 292.883C169.326 290.173 170.929 288.011 173.122 287.498C176.422 286.726 181.467 288.358 184.814 288.759L198.045 290.338L224.501 293.502C229.068 294.049 233.866 294.68 237.632 297.249C237.879 297.42 238.121 297.596 238.363 297.785C239.357 298.568 240.249 299.475 241.015 300.483C241.286 300.831 241.545 301.196 241.793 301.567C242.651 302.881 243.381 304.274 243.973 305.727C247.256 313.61 247.332 322.406 247.356 330.943C247.356 339.851 247.385 348.753 246.466 357.596Z" fill="#3F3D56"/>
<path opacity="0.1" d="M195.747 384.898C194.951 381.834 193.271 377.398 193.024 376.19C192.194 372.138 191.591 368.043 191.22 363.924C190.566 356.583 189.388 346.249 191.981 339.267C194.415 340.564 196.554 344.234 197.68 346.738C201.758 355.817 197.167 366.964 200.998 376.149C201.284 376.699 201.462 377.299 201.522 377.916C201.456 378.7 201.174 379.45 200.709 380.084L199.418 382.229L195.747 384.898Z" fill="black"/>
<path d="M280.625 104.611C284.962 97.5413 290.903 90.5892 290.532 82.3233C290.396 79.3775 289.43 76.4965 288.693 73.6096C286.582 65.2545 286.443 56.5231 288.286 48.1049C295.574 46.9344 303.033 48.6046 309.126 52.771C311.053 54.1025 312.88 55.7581 313.728 57.9439C314.512 59.9588 314.383 62.2035 314.241 64.3598C313.917 69.3146 313.475 74.5994 310.422 78.4996C309.473 79.7192 308.306 80.7502 307.381 81.9816C306.032 83.7491 305.242 85.9054 304.47 88.0087L294.451 115.257C289.394 128.991 283.913 143.354 272.775 152.857C272.503 153.087 264.524 141.758 263.864 140.621C261.194 135.96 262.361 133.993 265.59 130.092C271.961 122.38 275.421 113.077 280.625 104.611Z" fill="#BE6F72"/>
<path d="M165.808 336.864C165.774 338.898 165.602 340.927 165.295 342.938C165.189 343.68 165.065 344.417 164.918 345.153C162.908 355.64 157.904 365.615 154.404 375.831C149.789 389.317 147.762 401.017 146.153 414.409C141.515 414.409 136.871 414.309 132.28 414.067H132.138C130.57 413.985 128.997 413.89 127.423 413.773C128.844 401.282 126.245 388.18 128.785 375.678C129.81 370.646 131.561 365.762 132.616 360.754C132.941 359.28 133.187 357.789 133.352 356.288C133.5 354.863 133.576 353.384 134.219 352.099C134.277 351.975 134.344 351.855 134.419 351.74C134.983 350.851 135.683 350.056 136.493 349.383C143.674 343.088 152.457 338.902 161.871 337.288C163.209 337.105 164.511 336.952 165.808 336.864Z" fill="#FBBEBE"/>
<path opacity="0.1" d="M165.808 336.864C165.774 338.898 165.602 340.927 165.295 342.938C165.189 343.68 165.065 344.417 164.918 345.153C162.908 355.64 157.904 365.615 154.404 375.831C149.789 389.317 147.762 401.017 146.153 414.409C141.515 414.409 136.871 414.309 132.28 414.067H132.138C130.57 413.985 128.997 413.89 127.423 413.773C128.844 401.282 126.245 388.18 128.785 375.678C129.81 370.646 131.561 365.762 132.616 360.754C132.941 359.28 133.187 357.789 133.352 356.288C133.5 354.863 133.576 353.384 134.219 352.099C134.277 351.975 134.344 351.855 134.419 351.74C134.983 350.851 135.683 350.056 136.493 349.383C143.674 343.088 152.457 338.902 161.871 337.288C163.209 337.105 164.511 336.952 165.808 336.864Z" fill="black"/>
<path d="M135.928 363.712C135.832 366.986 135.563 370.252 135.12 373.498C133.547 386.76 133.252 400.599 132.174 414.061C130.606 413.979 129.032 413.884 127.459 413.767C120.292 413.278 113.149 412.523 106.112 411.492C106.655 408.46 107.201 405.428 107.751 402.396C108.423 398.678 109.095 394.925 108.9 391.155C108.717 387.59 107.763 384.12 107.002 380.626C105.382 373.144 104.474 365.073 101.804 358.014C100.412 354.056 98.1896 350.44 95.2861 347.41C106.331 343.073 116.945 342.826 128.808 343.285C129.651 343.239 130.488 343.444 131.213 343.875C131.775 344.362 132.193 344.993 132.421 345.701C134.204 349.988 135.323 354.522 135.739 359.146C135.881 360.663 135.944 362.187 135.928 363.712Z" fill="#FBBEBE"/>
<path d="M224.89 137.975C237.584 137.975 247.875 127.688 247.875 114.998C247.875 102.308 237.584 92.0209 224.89 92.0209C212.196 92.0209 201.905 102.308 201.905 114.998C201.905 127.688 212.196 137.975 224.89 137.975Z" fill="#BE6F72"/>
<path d="M229.67 168.7C232.616 163.674 235.198 157.4 240.867 156.003C244.067 155.208 247.397 156.292 250.515 157.359C251.418 157.572 252.238 158.048 252.872 158.725C253.333 159.456 253.58 160.301 253.585 161.165C254.572 171.551 254.539 182.01 253.485 192.39C252.737 199.737 251.475 207.048 251.251 214.43C250.939 224.664 252.625 234.898 252.071 245.12C251.652 252.867 249.955 260.479 248.269 268.05L241.197 299.747C241.071 300.727 240.677 301.655 240.06 302.427C239.463 302.974 238.75 303.377 237.973 303.606C227.737 307.223 216.855 308.654 206.031 307.807C195.206 306.96 184.68 303.852 175.131 298.686C172.579 297.284 170.033 295.664 168.371 293.272C166.014 289.878 165.796 285.389 166.562 281.324C167.328 277.258 168.984 273.423 170.098 269.434C171.819 263.248 172.226 256.791 172.615 250.381C173.133 241.944 173.652 233.454 172.75 225.047C172.131 219.256 170.841 213.553 169.868 207.808C168.436 199.151 167.605 190.404 167.381 181.632C167.234 176.394 167.475 170.579 171.1 166.803C172.868 164.965 175.225 163.857 177.624 162.961C181.649 161.477 186.146 160.605 190.213 161.96C194.279 163.315 197.556 167.58 196.595 171.758C196.153 173.696 194.898 175.393 194.591 177.361C194.185 179.965 195.564 182.586 197.538 184.348C208.158 193.939 224.371 177.796 229.67 168.7Z" fill="#E3E8F4"/>
<path d="M230.512 145.222C233.737 144.034 237.243 143.829 240.584 144.633C242.712 145.139 245.01 146.035 246.973 145.086C247.686 144.745 248.275 144.185 248.994 143.867C250.939 143.013 253.462 144.061 255.182 142.818C256.267 142.035 256.62 140.609 256.986 139.313C258.756 133.126 262.382 127.631 267.376 123.57C266.757 128.089 266.309 133.233 269.297 136.685C270.659 138.252 272.568 139.236 274.501 140.002C277.277 141.104 280.324 141.834 283.253 141.233C286.182 140.632 288.923 138.417 289.388 135.465C289.288 139.902 285.062 143.001 283.878 147.284C283.43 148.886 283.471 150.589 283.159 152.227C282.363 156.41 279.375 159.768 276.764 163.138C268.426 173.978 263.099 186.827 261.323 200.385C261.203 201.994 260.866 203.579 260.322 205.098C259.744 206.263 259.09 207.389 258.365 208.468C254.045 215.762 255.377 224.965 256.844 233.295C259.137 246.345 261.424 259.13 265.137 271.85C265.773 274.024 266.492 276.292 268.113 277.877C267.6 283.02 262.408 285.365 257.74 287.586C253.132 289.783 248.88 292.661 245.128 296.123C243.784 297.361 242.458 298.751 241.969 300.513C241.51 302.168 241.84 303.989 241.25 305.597C240.661 307.205 238.304 308.36 237.266 307.005C235.97 302.156 238.186 297.084 238.085 292.064C238.015 288.676 236.907 285.383 236.748 281.995C236.594 278.16 237.726 274.395 238.928 270.754C242.276 260.615 246.319 250.57 247.48 239.959C248.641 229.348 246.472 217.759 238.94 210.189C230 201.163 225.037 188.926 215.454 180.636C213.934 179.322 212.213 177.691 212.466 175.699C212.641 174.822 213.028 174.001 213.592 173.307C216.881 168.665 221.254 164.876 224.79 160.434C228.326 155.992 231.155 150.878 230.512 145.222Z" fill="#3F3D56"/>
<path d="M199.047 154.725C198.457 155.314 198.051 156.127 197.367 156.634C196.569 157.127 195.658 157.408 194.721 157.453C191.252 157.98 187.755 158.292 184.248 158.39C181.301 158.39 178.243 158.13 175.408 158.938C171.453 160.057 168.294 163.18 166.314 166.773C164.334 170.367 163.397 174.432 162.637 178.48C160.961 187.397 160.064 196.444 159.955 205.517C164.813 201.644 169.142 197.152 172.832 192.154C175.661 188.319 178.225 184.077 182.262 181.514C184.118 180.336 186.205 179.558 188.073 178.409C191.969 176.011 194.668 172.135 197.261 168.394C199.17 165.619 204.693 160.198 205.129 156.876C205.5 153.7 201.109 152.15 199.047 154.725Z" fill="#3F3D56"/>
<path d="M219.58 99.2674C220.307 99.7044 221.005 100.191 221.666 100.723C225.668 103.515 231.025 102.997 235.863 102.361C237.349 102.172 238.875 101.96 240.148 101.182C242.193 99.9214 243.154 97.3291 242.953 94.9312C242.753 92.5334 241.545 90.324 240.071 88.4505C238.119 85.9712 235.684 83.9137 232.914 82.4028C230.143 80.8918 227.095 79.9588 223.953 79.6602C222.326 79.447 220.672 79.6227 219.126 80.1728C217.222 80.9564 215.79 82.5707 214.034 83.6488C208.854 86.8303 200.874 85.4163 197.532 90.4949C195.086 94.2419 196.831 99.3323 195.676 103.639C194.815 106.856 192.334 109.784 192.811 113.066C193.077 114.833 194.185 116.377 195.069 117.956C197.099 121.585 198.038 125.724 197.774 129.874C200.043 131.477 203.208 128.985 203.838 126.286C204.469 123.588 203.744 120.713 204.28 117.991C205.229 113.213 209.449 109.707 211.352 105.324C212.72 102.184 214.947 96.8813 219.58 99.2674Z" fill="#3F3D56"/>
<path d="M163.851 151.567C163.674 152.639 163.562 153.824 164.157 154.731C165.336 156.498 168.035 155.862 170.157 156.127C173.463 156.534 175.903 159.662 176.545 162.95C177.188 166.237 176.422 169.584 175.585 172.812C173.691 180.13 171.436 187.343 168.819 194.452C161.782 193.621 154.374 190.917 150.638 184.914C147.243 179.452 147.591 172.494 145.434 166.438C143.919 162.172 141.202 158.46 138.515 154.819C142.835 155.361 145.923 150.424 146.176 146.076C146.43 141.728 145.062 137.315 145.993 133.068C146.212 132.06 163.238 135.236 164.894 136.384C169.679 139.701 164.605 146.96 163.851 151.567Z" fill="#FBBEBE"/>
<path opacity="0.1" d="M163.851 151.567C163.674 152.639 163.562 153.824 164.157 154.731C165.336 156.498 168.035 155.862 170.157 156.127C173.463 156.534 175.903 159.662 176.545 162.95C177.188 166.237 176.422 169.584 175.585 172.812C173.691 180.13 171.436 187.343 168.819 194.452C161.782 193.621 154.374 190.917 150.638 184.914C147.243 179.452 147.591 172.494 145.434 166.438C143.919 162.172 141.202 158.46 138.515 154.819C142.835 155.361 145.923 150.424 146.176 146.076C146.43 141.728 145.062 137.315 145.993 133.068C146.212 132.06 163.238 135.236 164.894 136.384C169.679 139.701 164.605 146.96 163.851 151.567Z" fill="black"/>
<path d="M160.061 144.456C172.755 144.456 183.046 134.169 183.046 121.479C183.046 108.789 172.755 98.5016 160.061 98.5016C147.367 98.5016 137.077 108.789 137.077 121.479C137.077 134.169 147.367 144.456 160.061 144.456Z" fill="#FBBEBE"/>
<path d="M152.983 148.268C153.82 146.96 152.394 145.134 153.048 143.725C153.437 142.877 154.421 142.512 155.181 141.958C156.135 141.182 156.895 140.196 157.403 139.077C160.982 132.203 162.065 124.301 160.468 116.718C159.926 114.173 159.442 110.791 161.77 109.649C162.416 109.361 163.123 109.239 163.827 109.295C168.023 109.431 172.078 112.241 176.151 111.245C177.541 110.867 178.782 110.074 179.709 108.972C180.636 107.869 181.204 106.51 181.337 105.077C181.602 101.271 178.75 98.0067 175.944 95.4439C170.894 90.8013 163.197 89.7703 156.337 89.6583L143.577 89.4462C139.493 89.3755 134.914 89.5051 132.073 92.4333C127.983 96.6458 130.04 103.539 129.45 109.377C128.949 114.037 126.618 118.308 122.968 121.249C120.321 123.358 116.679 125.373 116.726 128.743C116.726 129.921 117.233 130.994 117.557 132.107C118.86 136.514 117.616 141.387 115.117 145.246C112.619 149.105 108.965 152.074 105.175 154.672C103.148 156.057 101.05 157.388 99.4467 159.268C97.6892 161.438 96.6456 164.099 96.4587 166.885C96.2065 169.015 96.6444 171.168 97.7081 173.03C100.201 177.013 106.183 177.596 110.279 175.287C114.375 172.977 116.874 168.606 118.53 164.211C119.52 161.601 120.528 158.614 123.062 157.441C126.268 155.951 130.016 158.307 132.103 161.165C134.189 164.022 135.474 167.51 138.143 169.831C142.328 173.472 149.447 172.883 152.983 168.606C155.511 165.536 156.071 161.288 155.93 157.312C155.86 154.073 154.835 150.927 152.983 148.268Z" fill="#3F3D56"/>
<path d="M161.234 178.215C158.611 178.775 155.871 177.537 153.92 175.687C151.969 173.837 150.655 171.451 149.288 169.142C145.821 163.316 141.848 157.808 137.413 152.681C133.546 148.221 128.166 143.69 122.425 145.069C120.503 145.623 118.72 146.577 117.192 147.867C112.131 151.873 108.169 157.098 105.678 163.051C103.186 169.005 102.247 175.493 102.947 181.909C103.395 185.662 104.415 189.332 104.839 193.103C105.125 196.211 105.208 199.334 105.087 202.453C104.928 211.95 104.603 221.995 99.482 229.996C91.5435 242.368 87.2942 257.145 81.4656 270.648C78.3184 277.948 76.4325 285.719 74.582 293.449C73.4858 298.036 72.3916 302.622 71.2993 307.205L64.1682 337.194C63.4315 340.287 62.6948 343.527 63.4727 346.62C64.6514 351.239 68.9949 354.468 73.5742 355.782C78.1534 357.095 83.0038 356.872 87.7598 356.913C96.8594 357.001 106.03 358.132 114.569 361.29C117.009 362.192 119.443 363.27 122.042 363.482C124.641 363.694 127.229 363.017 129.663 362.074C136.305 359.505 141.998 355.004 148.115 351.369C151.936 349.067 155.961 347.12 160.138 345.554C162.236 344.77 164.487 344.028 165.931 342.313C167.021 341.023 167.511 339.338 167.87 337.689C169.862 328.403 168.524 318.782 167.87 309.309C167.216 299.835 161.552 289.825 166.238 281.565C167.181 279.898 168.306 278.295 168.789 276.445C169.426 274.03 168.89 271.432 169.426 268.993C169.821 267.19 170.77 265.57 171.418 263.843C172.55 260.803 172.703 257.492 172.691 254.246C172.664 247.118 171.914 240.012 170.451 233.036C168.595 224.199 174.736 215.462 178.254 207.113C179.516 204.126 181.301 201.304 181.826 198.105C182.297 195.218 181.69 192.278 181.237 189.385C180.559 184.902 180.283 180.367 180.411 175.835C180.523 171.769 180.954 167.628 179.981 163.674C179.009 159.721 176.233 155.886 172.243 155.073C171.796 154.942 171.325 154.911 170.864 154.983C170.404 155.056 169.965 155.229 169.579 155.491C169.119 155.942 168.794 156.514 168.642 157.141C167.346 161.112 167.599 165.389 166.874 169.513C166.149 173.637 165.301 177.343 161.234 178.215Z" fill="#F86D70"/>
<path d="M105.617 203.519C105.859 201.887 105.099 199.719 103.448 199.778C101.928 199.837 101.25 201.74 101.256 203.266C101.262 204.792 101.468 206.542 100.39 207.614C99.4349 208.563 97.8554 208.533 96.7474 209.305C96.3564 209.584 96.0382 209.952 95.8197 210.38C95.6012 210.808 95.4889 211.282 95.4921 211.762C95.4921 212.581 95.8634 213.364 95.887 214.183C95.9106 215.002 95.3625 215.951 94.5492 215.898C94.1314 216.598 93.9575 217.418 94.0545 218.228C94.1516 219.038 94.514 219.793 95.0855 220.375C95.5098 220.788 96.0638 221.141 96.2052 221.718C96.25 222.123 96.218 222.533 96.1109 222.926C95.8634 224.546 96.9832 226.361 98.6157 226.538C97.7022 227.192 97.8849 228.724 98.7217 229.484C99.5586 230.244 100.761 230.391 101.887 230.391C104.441 230.377 106.968 229.854 109.318 228.853C110.123 228.588 110.835 228.097 111.369 227.439C111.617 227.1 111.736 226.684 111.705 226.265C111.673 225.846 111.494 225.452 111.198 225.153C112.342 225.342 113.715 225.448 114.463 224.564C115.506 223.327 114.387 221.495 113.285 220.299C113.742 220.231 114.169 220.03 114.513 219.721C114.856 219.413 115.102 219.01 115.219 218.563C115.336 218.116 115.319 217.645 115.169 217.208C115.02 216.77 114.746 216.386 114.381 216.104C114.004 215.827 113.491 215.585 113.438 215.12C113.385 214.654 113.78 214.354 113.945 213.942C114.322 213.017 113.461 212.074 112.63 211.514C110.662 210.206 107.762 210.23 106.012 208.91C104.262 207.59 105.364 205.287 105.617 203.519Z" fill="#BE6F72"/>
<path d="M227.2 114.12C225.773 114.264 224.337 114.297 222.904 114.22C222.66 114.194 222.415 114.264 222.222 114.416C222.029 114.568 221.904 114.79 221.873 115.033L219.132 135.583C218.921 137.075 218.31 138.482 217.364 139.654C216.584 140.588 216.004 141.671 215.66 142.838C215.317 144.004 215.217 145.229 215.366 146.436V181.343C215.366 181.343 215.189 185.998 218.767 185.998C223.048 186.536 227.38 186.536 231.662 185.998C231.662 185.998 234.526 185.456 234.526 181.161V146.789C234.744 145.59 234.7 144.358 234.394 143.178C234.089 141.997 233.531 140.898 232.758 139.955C231.843 138.778 231.252 137.383 231.043 135.907L228.196 114.927C228.164 114.692 228.043 114.477 227.858 114.327C227.673 114.177 227.438 114.103 227.2 114.12Z" fill="#3F3D56"/>
<path opacity="0.1" d="M227.2 114.12C225.773 114.264 224.337 114.297 222.904 114.22C222.66 114.194 222.415 114.264 222.222 114.416C222.029 114.568 221.904 114.79 221.873 115.033L219.132 135.583C218.921 137.075 218.31 138.482 217.364 139.654C216.584 140.588 216.004 141.671 215.66 142.838C215.317 144.004 215.217 145.229 215.366 146.436V181.343C215.366 181.343 215.189 185.998 218.767 185.998C223.048 186.536 227.38 186.536 231.662 185.998C231.662 185.998 234.526 185.456 234.526 181.161V146.789C234.744 145.59 234.7 144.358 234.394 143.178C234.089 141.997 233.531 140.898 232.758 139.955C231.843 138.778 231.252 137.383 231.043 135.907L228.196 114.927C228.164 114.692 228.043 114.477 227.858 114.327C227.673 114.177 227.438 114.103 227.2 114.12Z" fill="black"/>
<path d="M227.218 147.06H222.874C219.277 147.06 216.362 149.975 216.362 153.57V169.908C216.362 173.503 219.277 176.418 222.874 176.418H227.218C230.814 176.418 233.73 173.503 233.73 169.908V153.57C233.73 149.975 230.814 147.06 227.218 147.06Z" fill="#6C63FF"/>
<path d="M285.587 25.3219C284.327 26.014 283.015 26.605 281.662 27.0894C281.427 27.1594 281.229 27.3177 281.109 27.531C280.989 27.7443 280.957 27.9958 281.019 28.2324L286.406 48.2638C286.791 49.7178 286.775 51.2489 286.359 52.6943C285.996 53.8555 285.876 55.0791 286.008 56.2886C286.14 57.498 286.52 58.6672 287.125 59.723L300.574 91.9382C300.574 91.9382 302.201 96.298 305.507 94.9194C309.669 93.7651 313.669 92.0904 317.412 89.9351C317.412 89.9351 319.846 88.3326 318.195 84.3734L304.953 52.6531C304.692 51.4621 304.176 50.3418 303.441 49.3694C302.705 48.397 301.767 47.5957 300.692 47.0207C299.396 46.2875 298.313 45.2296 297.551 43.9512L286.842 25.6872C286.721 25.476 286.522 25.3199 286.288 25.2518C286.054 25.1837 285.803 25.2088 285.587 25.3219Z" fill="#3F3D56"/>
<path d="M298.303 55.7208L294.294 57.3929C290.975 58.7776 289.407 62.5899 290.792 65.9081L297.086 80.9855C298.471 84.3037 302.284 85.8711 305.604 84.4865L309.612 82.8144C312.931 81.4297 314.499 77.6173 313.114 74.2992L306.821 59.2218C305.436 55.9036 301.622 54.3362 298.303 55.7208Z" fill="#6C63FF"/>
<path d="M120.198 148.875C113.862 151.485 111.358 159.603 112.843 166.284C114.328 172.965 118.801 178.533 123.162 183.829L135.386 198.735C138.762 202.859 142.458 207.201 147.609 208.639C155.141 210.742 162.672 205.947 169.185 201.61C188.624 188.661 209.402 177.844 231.161 169.348C233.288 168.523 235.469 167.687 237.219 166.214C240.85 163.162 241.869 157.535 239.848 153.252C237.826 148.969 233.117 146.182 228.373 146.147C223.629 146.112 219.014 148.621 216.162 152.416C214.8 154.224 213.804 156.292 212.49 158.13C209.166 162.749 203.98 165.607 198.906 168.187C186.671 174.428 174.076 179.936 161.187 184.684C158.83 185.544 156.172 186.363 153.95 185.226C152.589 184.525 151.669 183.199 150.844 181.903C147.084 175.987 144.094 169.616 141.945 162.944C140.336 157.936 139.034 152.48 135.167 148.922C129.686 143.879 119.762 145.086 115.654 151.278C115.654 151.278 110.839 158.319 113.786 161.265C116.733 164.21 120.198 148.875 120.198 148.875Z" fill="#FBBEBE"/>
<path d="M450.728 124.495C451.589 126.787 451.612 129.297 451.489 131.742C451.335 134.723 450.587 138.223 447.817 139.36C446.014 140.084 443.786 139.537 442.183 140.632C440.238 141.952 440.332 144.792 440.633 147.113C441.464 153.494 442.401 160.11 445.878 165.507C447.746 168.4 450.274 170.809 452.838 173.113C457.948 177.72 463.553 182.221 470.265 183.759C471.359 184.067 472.509 184.115 473.625 183.9C474.724 183.561 475.723 182.953 476.53 182.133C480.42 178.563 482.424 173.466 485.017 168.847C486.85 165.542 489.036 162.367 490.067 158.726C490.917 155.544 490.86 152.189 489.904 149.038C488.949 145.887 487.131 143.065 484.657 140.892C483.508 139.908 482.235 139.083 481.121 138.064C478.21 135.424 476.512 131.636 475.817 127.771C475.121 123.906 475.228 119.929 475.563 115.988C469.67 115.534 463.818 116.247 458.066 117.396C455.508 117.909 451.907 118.144 449.591 119.364C446.986 120.748 450.015 122.522 450.728 124.495Z" fill="#FBBEBE"/>
<path opacity="0.1" d="M450.728 124.495C451.589 126.787 451.612 129.297 451.489 131.742C451.335 134.723 450.587 138.223 447.817 139.36C446.014 140.084 443.786 139.537 442.183 140.632C440.238 141.952 440.332 144.792 440.633 147.113C441.464 153.494 442.401 160.11 445.878 165.507C447.746 168.4 450.274 170.809 452.838 173.113C457.948 177.72 463.553 182.221 470.265 183.759C471.359 184.067 472.509 184.115 473.625 183.9C474.724 183.561 475.723 182.953 476.53 182.133C480.42 178.563 482.424 173.466 485.017 168.847C486.85 165.542 489.036 162.367 490.067 158.726C490.917 155.544 490.86 152.189 489.904 149.038C488.949 145.887 487.131 143.065 484.657 140.892C483.508 139.908 482.235 139.083 481.121 138.064C478.21 135.424 476.512 131.636 475.817 127.771C475.121 123.906 475.228 119.929 475.563 115.988C469.67 115.534 463.818 116.247 458.066 117.396C455.508 117.909 451.907 118.144 449.591 119.364C446.986 120.748 450.015 122.522 450.728 124.495Z" fill="black"/>
<path d="M417.843 141.834C408.271 138.553 403.698 125.733 393.679 124.295C392.1 124.065 390.479 124.154 388.929 123.788C383.159 122.421 380.678 115.752 379.01 110.067C373.388 91.1135 366.045 72.5668 355.613 55.7639C351.211 48.694 344.25 42.8849 341.074 35.1434C340.343 33.3759 339.972 31.3609 338.658 29.9646C337.343 28.5683 334.532 28.368 333.819 30.1473C333.62 30.7775 333.576 31.4464 333.689 32.0974L334.379 39.4324L322.392 38.3543C321.283 38.1652 320.144 38.2461 319.073 38.5899C317.917 39.1685 316.995 40.1276 316.463 41.306C312.408 48.9238 316.728 58.9042 323.883 63.7235C332.24 69.35 344.174 70.2042 349.726 78.5998C353.026 83.5958 353.091 90.0236 355.265 95.6029C356.303 98.2718 357.817 100.723 359.025 103.309C361.33 108.24 362.509 113.602 364.294 118.739C366.852 126.086 370.642 132.932 374.419 139.737C377.331 144.992 380.313 150.342 384.792 154.36C387.739 156.999 391.204 158.955 394.669 160.841C403.191 165.495 413.24 169.973 422.269 166.402C422.787 158.354 420.766 149.381 417.843 141.834Z" fill="#FBBEBE"/>
<path d="M446.904 395.456C446.179 403.144 441.511 410.108 440.421 417.508C433.231 416.383 426.153 414.933 419.305 413.284C418.462 413.083 417.625 412.877 416.782 412.694C420.66 402.09 417.283 390.212 418.309 378.918C418.409 377.834 418.55 376.75 418.739 375.678C427.62 372.649 435.641 368.608 444.953 369.786C445.136 371.671 445.324 373.562 445.507 375.448C445.88 379.214 446.25 382.977 446.615 386.736C446.989 389.627 447.086 392.547 446.904 395.456Z" fill="#FBBEBE"/>
<path d="M508.325 414.686C504.836 415.746 501.253 416.671 497.511 417.431C496.886 417.561 496.256 417.685 495.625 417.802C491.794 418.521 487.916 419.046 483.997 419.405C483.596 411.216 478.104 403.686 477.302 395.279C477.138 393.19 477.16 391.09 477.367 389.004C477.438 388.18 477.52 387.355 477.597 386.53L479.259 369.58C480.582 369.413 481.916 369.348 483.249 369.385C490.91 369.568 497.882 372.885 505.473 375.471C506.039 379.047 506.236 382.672 506.062 386.288C505.773 395.491 504.294 404.806 507.712 413.248C507.907 413.725 508.119 414.203 508.325 414.686Z" fill="#FBBEBE"/>
<path d="M408.843 285.46C409.875 293.496 405.767 301.19 403.987 309.091C402.808 314.317 402.649 319.696 402.49 325.057L401.559 357.172C401.465 360.383 401.382 363.653 402.36 366.734C404.329 372.908 410.393 377.08 416.705 378.564C423.017 380.049 429.618 379.295 436.048 378.447C439.201 378.028 442.489 377.539 445.1 375.719C448.689 373.215 450.257 368.755 451.612 364.595L455.437 352.853C459.84 362.763 457.977 373.598 460.618 384.114C460.787 385.087 461.192 386.003 461.796 386.783C462.91 388.02 464.743 388.215 466.411 388.333C477.962 389.146 489.672 389.953 501.035 387.744C504.159 387.154 507.418 386.2 509.575 383.855C512.085 381.127 512.522 377.115 512.492 373.409C512.333 360.678 507.73 348.394 506.705 335.703C506.263 330.265 506.481 324.798 506.286 319.342C506.133 315.239 505.75 311.148 505.137 307.088C504.942 305.228 504.432 303.415 503.628 301.726C501.86 298.427 498.189 296.636 494.711 295.245C467.696 284.275 437.981 284.381 408.843 285.46Z" fill="#F86D70"/>
<path d="M458.862 127.37C472.858 127.37 484.204 116.028 484.204 102.036C484.204 88.045 472.858 76.7026 458.862 76.7026C444.866 76.7026 433.52 88.045 433.52 102.036C433.52 116.028 444.866 127.37 458.862 127.37Z" fill="#FBBEBE"/>
<path d="M480.951 146.659C479.071 150.784 476.112 154.908 471.71 155.956C467.661 156.929 463.37 154.978 460.388 152.074C457.406 149.169 455.455 145.399 453.387 141.787C451.878 139.148 450.198 136.485 447.646 134.823C444.158 132.561 439.655 132.62 435.541 133.286C431.428 133.951 427.343 135.141 423.165 134.87C417.961 134.523 412.657 131.925 407.748 133.657C409.339 140.774 408.767 148.598 408.584 155.892C408.615 157.018 408.456 158.141 408.113 159.214C407.684 160.215 407.106 161.145 406.398 161.972L401.683 168.046C406.74 171.828 411.113 176.766 412.881 182.828C413.877 186.28 413.57 189.945 413.535 193.539C413.423 204.091 415.716 214.601 414.991 225.13C414.142 237.461 409.215 249.114 406.675 261.21C404.499 271.593 404.089 282.269 405.461 292.789C431.876 301.927 459.092 306.604 487.015 308.136C491.948 308.407 497.276 308.449 501.324 305.615C504.69 303.258 506.576 299.222 507.218 295.157C507.86 291.092 507.418 286.956 506.97 282.867C505.756 271.811 504.544 260.754 503.334 249.698C502.645 243.405 501.955 237.078 502.403 230.768C502.739 226.055 503.705 221.43 504.666 216.817L510.56 188.502C511.402 184.478 512.251 180.424 513.919 176.671C515.286 173.608 517.178 170.78 518.687 167.799C520.485 164.224 521.725 160.395 522.364 156.445C522.62 155.299 522.604 154.108 522.317 152.969C521.686 151.037 519.759 149.876 517.962 148.928C507.001 143.169 495.254 139.05 483.096 136.703C482.271 140.173 482.43 143.425 480.951 146.659Z" fill="#E3E8F4"/>
<path d="M478.505 129.692C481.451 124.048 486.962 120.088 490.162 114.574C491.931 111.447 492.919 107.941 493.045 104.351C493.17 100.762 492.428 97.1951 490.881 93.9533C489.755 91.6555 488.229 89.5464 487.345 87.1426C486.361 84.4089 486.266 81.3983 485.129 78.7235C483.567 75.0589 480.184 72.4195 476.501 70.8995C472.817 69.3794 468.839 68.8315 464.873 68.3013L451.483 66.4984C449.544 66.2392 447.534 65.98 445.648 66.4984C443.762 67.0169 442.006 68.5546 441.853 70.5106C441.67 72.826 443.703 74.9823 443.232 77.2565C443.061 78.0577 442.59 78.8708 442.861 79.6485C443.102 80.168 443.52 80.5854 444.039 80.8268C447.216 82.5943 451.011 82.7533 454.453 83.9081C457.895 85.0628 461.349 87.9615 461.001 91.5672C460.812 93.5055 459.563 95.5204 460.412 97.2585C461.225 98.8669 463.358 99.1614 465.062 99.6622C470.572 101.259 474.438 107.233 473.637 112.918C473.389 114.686 472.753 116.377 472.623 118.15C472.193 124.36 473.171 126.133 478.245 129.745L478.505 129.692Z" fill="#3F3D56"/>
<path d="M512.929 156.545C512.956 157.722 512.741 158.891 512.298 159.98C510.459 163.898 504.831 163.651 501.1 165.872C496.456 168.641 495.431 174.821 495.007 180.206C494.523 186.304 494.193 192.49 495.443 198.47C496.692 204.45 499.698 210.283 504.719 213.788C510.831 218.036 519.14 218.183 526.118 215.597C533.096 213.011 538.925 208.009 543.981 202.541C548.779 197.357 553.075 191.577 555.651 184.996C556.104 183.818 556.505 182.569 556.14 181.39C555.592 179.623 553.664 178.822 552.097 177.855C548.437 175.646 545.997 171.793 544.73 167.722C543.463 163.651 543.251 159.32 543.209 155.049C543.162 150.613 543.15 145.764 540.322 142.341C537.493 138.918 532.589 137.958 528.122 137.993C524.468 137.993 514.355 138.34 511.862 141.528C509.817 144.179 513.076 152.751 512.929 156.545Z" fill="#BE6F72"/>
<path opacity="0.1" d="M512.929 156.545C512.956 157.722 512.741 158.891 512.298 159.98C510.459 163.898 504.831 163.651 501.1 165.872C496.456 168.641 495.431 174.821 495.007 180.206C494.523 186.304 494.193 192.49 495.443 198.47C496.692 204.45 499.698 210.283 504.719 213.788C510.831 218.036 519.14 218.183 526.118 215.597C533.096 213.011 538.925 208.009 543.981 202.541C548.779 197.357 553.075 191.577 555.651 184.996C556.104 183.818 556.505 182.569 556.14 181.39C555.592 179.623 553.664 178.822 552.097 177.855C548.437 175.646 545.997 171.793 544.73 167.722C543.463 163.651 543.251 159.32 543.209 155.049C543.162 150.613 543.15 145.764 540.322 142.341C537.493 138.918 532.589 137.958 528.122 137.993C524.468 137.993 514.355 138.34 511.862 141.528C509.817 144.179 513.076 152.751 512.929 156.545Z" fill="black"/>
<path d="M481.504 314.546C481.687 315.444 482.111 316.275 482.73 316.95C483.312 317.41 483.992 317.73 484.716 317.887C504.059 323.561 524.721 321.298 544.748 318.983C542.007 310.64 539.249 302.204 538.489 293.455C537.858 286.237 538.565 278.726 536.007 271.956C535.253 269.953 491.288 279.173 486.95 279.922C484.728 280.304 482.17 280.175 480.597 281.936C478.699 284.069 478.54 289.148 478.34 291.805C477.774 299.482 479.359 307.211 481.504 314.546Z" fill="#BE6F72"/>
<path d="M525.547 408.069C522.01 409.707 518.362 411.233 514.585 412.6C512.542 413.342 510.455 414.038 508.326 414.686C504.837 415.746 501.254 416.671 497.511 417.431C495.378 412.023 493.242 406.612 491.105 401.2C489.531 397.217 487.958 393.217 486.644 389.146C485.729 386.366 484.978 383.535 484.392 380.668C482.463 370.922 482.965 360.851 485.854 351.345C494.022 352.883 502.008 353.884 510.053 355.051C514.349 355.64 518.657 356.335 523.018 357.154C523.36 359.994 523.671 362.834 523.949 365.674C524.374 370.057 524.721 374.44 524.993 378.824C525.594 388.564 525.778 398.313 525.547 408.069Z" fill="#BE6F72"/>
<path opacity="0.1" d="M525.547 408.069C522.01 409.707 518.362 411.233 514.585 412.6C512.542 413.342 510.455 414.038 508.326 414.686C504.837 415.746 501.254 416.671 497.511 417.431C495.378 412.023 493.242 406.612 491.105 401.2C489.531 397.217 487.958 393.217 486.644 389.146C485.729 386.366 484.978 383.535 484.392 380.668C482.463 370.922 482.965 360.851 485.854 351.345C494.022 352.883 502.008 353.884 510.053 355.051C514.349 355.64 518.657 356.335 523.018 357.154C523.36 359.994 523.671 362.834 523.949 365.674C524.374 370.057 524.721 374.44 524.993 378.824C525.594 388.564 525.778 398.313 525.547 408.069Z" fill="black"/>
<path d="M570.868 382.541C570.915 385.935 569.948 389.399 569.052 392.728C568.988 392.963 568.929 393.193 568.87 393.429C566.738 392.765 564.9 391.388 563.666 389.529C563.028 388.52 562.556 387.416 562.269 386.259C559.601 388.073 556.91 389.87 554.195 391.65C545.313 397.482 535.925 403.274 525.547 408.069C522.011 409.707 518.362 411.233 514.585 412.6C513.799 409.851 513.052 407.084 512.345 404.299C511.572 401.432 510.966 398.522 510.53 395.585C509.667 388.914 510.336 382.134 512.487 375.76L512.752 374.994C513.753 372.159 515.047 369.437 516.612 366.87C518.08 364.513 520.985 364.908 523.95 365.691C525.293 366.039 526.655 366.457 527.892 366.716C535.595 368.331 543.593 366.663 551.466 367.105C555.219 367.292 558.895 368.228 562.281 369.857C566.07 371.76 569.123 374.67 570.32 378.694C570.489 379.274 570.619 379.864 570.708 380.462C570.808 381.15 570.861 381.845 570.868 382.541Z" fill="#BE6F72"/>
<path d="M429.082 111.204C416.912 99.4208 403.08 89.4345 388.929 80.0964C385.247 77.7879 381.705 75.2639 378.321 72.5374C374.785 69.5917 371.703 66.1333 367.949 63.4821C364.194 60.8309 359.55 59.0104 355.042 59.8823C350.533 60.7543 346.526 65.0669 347.186 69.5799C347.775 73.5508 351.347 76.2727 354.647 78.5528C360.894 82.8713 367.171 87.2016 373.966 90.5893C376.326 91.659 378.616 92.8791 380.82 94.2421C385.052 97.0936 388.134 101.312 391.334 105.277C403.413 120.275 418.208 132.867 434.946 142.394C435.146 142.512 442.118 127.471 441.824 125.521C441.175 121.037 432.288 114.315 429.082 111.204Z" fill="#BE6F72"/>
<path d="M533.173 301.597C523.778 302.186 514.767 305.356 505.579 307.376C496.391 309.397 486.408 310.181 477.88 306.198L483.066 341.601C483.355 343.568 483.655 345.583 483.225 347.522C482.83 349.372 481.805 351.116 481.893 353.007C482.029 356 484.84 358.103 487.486 359.487C495.174 363.545 503.786 365.529 512.475 365.244C511.832 367.836 511.031 370.399 510.383 372.991C514.714 377.64 521.798 377.952 527.98 379.425C532.695 380.538 537.115 382.471 541.736 383.832C547.323 385.48 553.125 386.288 558.951 386.229C562.882 386.188 567.049 385.64 570.101 383.189C573.855 380.167 575.022 375.03 575.836 370.281C576.289 367.63 576.708 364.943 576.425 362.268C576.119 359.193 574.928 356.282 573.749 353.431L565.675 333.841C564.208 330.306 562.729 326.718 560.961 323.307C555.185 312.272 545.602 300.825 533.173 301.597Z" fill="#3F3D56"/>
<path d="M540.363 179.275C541.061 177.442 542.349 175.894 544.024 174.873C545.699 173.852 547.666 173.417 549.616 173.637C551.973 173.967 554.077 175.257 556.098 176.518L567.355 183.541C569.22 184.65 571.01 185.883 572.712 187.229C580.474 193.663 583.468 204.238 584.322 214.283C585.177 224.328 584.322 234.544 586.32 244.425C581.57 248.36 576.301 251.689 571.551 255.619C569.064 257.675 566.548 259.743 564.662 262.388C563.165 264.468 562.098 266.848 560.536 268.869C557.979 272.063 554.268 274.124 550.205 274.607C552.78 276.104 554.224 279.008 554.92 281.901C555.615 284.794 555.804 287.793 556.576 290.685C557.637 294.615 559.835 298.203 560.56 302.209C561.067 304.973 560.843 307.806 561.025 310.611C561.945 325.122 573.337 337.806 572.6 352.323C567.223 350.37 562.136 347.696 557.477 344.376C555.379 342.873 553.352 341.247 551.366 339.627L536.355 327.461C529.053 321.569 521.68 315.548 515.875 308.148C512.233 303.506 509.263 298.368 505.609 293.737C501.955 289.106 497.458 284.9 491.877 282.956C491.058 284.187 489.602 285.041 488.783 286.273C488.638 286.467 488.523 286.681 488.441 286.909C488.342 287.458 488.409 288.025 488.636 288.535C489.294 290.918 489.689 293.366 489.814 295.835L490.186 300.265C490.324 301.439 490.324 302.626 490.186 303.8C489.626 307.588 486.113 310.528 482.324 311.117C481.776 311.236 481.207 311.218 480.668 311.064C479.613 310.711 479.029 309.597 478.711 308.537C477.22 303.506 479.507 298.197 479.689 292.96C479.715 291.631 479.67 290.301 479.554 288.977L479.2 283.751C475.776 283.038 473.808 279.362 472.9 275.986C470.448 266.872 467.979 257.439 469.399 248.107C469.776 245.609 470.436 243.075 469.989 240.577C469.399 237.237 466.995 234.527 465.728 231.381C461.602 221.123 470.366 209.988 469.552 198.977C469.211 194.352 466.276 190.334 464.508 186.045C463.593 183.545 462.407 181.152 460.972 178.91C459.168 176.335 456.734 174.273 454.371 172.2C447.072 165.798 440.149 158.98 433.638 151.779C430.293 151.433 427.156 149.996 424.709 147.69C423.153 146.218 421.874 144.273 421.833 142.135C421.792 139.996 423.371 137.751 425.51 137.639C426.76 137.575 427.927 138.193 429.147 138.464C432.966 139.301 436.808 136.491 438.511 132.961C440.215 129.432 440.215 125.373 440.185 121.461C442.051 121.13 443.972 121.285 445.761 121.911C447.55 122.538 449.147 123.614 450.399 125.037C453.033 127.901 454.748 131.471 456.822 134.758C457.667 136.219 458.751 137.528 460.029 138.629C462.863 140.88 466.948 141.304 469.423 143.932C470.678 145.275 471.374 147.054 472.523 148.492C475.752 152.539 481.664 153.034 486.078 155.697C490.492 158.36 493.563 163.227 498.454 164.806C500.222 165.395 502.149 165.471 503.9 166.125C507.943 167.628 510.412 171.923 510.972 176.194C511.532 180.465 510.577 184.784 509.611 188.991L507.342 198.835C506.841 201.015 506.458 203.637 508.066 205.192C508.827 205.821 509.719 206.27 510.677 206.506C514.803 207.85 519.4 209.169 523.278 207.266C525.11 206.359 526.548 204.827 527.863 203.26C533.615 196.485 537.44 187.612 540.363 179.275Z" fill="#6C63FF"/>
<path d="M586.88 379.619C586.067 385.01 583.096 390.312 578.234 392.781C575.319 394.218 571.955 394.451 568.869 393.429C566.738 392.765 564.9 391.388 563.666 389.529C563.028 388.52 562.556 387.417 562.269 386.259C562.269 386.2 562.239 386.135 562.228 386.076C561.785 383.992 561.6 381.861 561.679 379.731C561.678 376.425 561.875 373.122 562.269 369.839C562.598 367.075 563.141 364.341 563.895 361.661C564.992 357.838 566.571 354.156 568.021 350.467C568.775 348.523 569.5 346.573 570.095 344.576C570.455 343.398 570.761 342.184 571.009 340.958L571.097 340.517C571.144 340.269 571.186 340.022 571.227 339.774C571.816 336.416 571.987 332.94 573.502 329.906C577.038 322.783 583.921 324.603 584.97 331.172C585.05 331.681 585.095 332.195 585.106 332.71C585.265 341.023 581.965 349.148 583.474 357.49C583.899 359.525 584.434 361.535 585.077 363.511C585.607 365.332 586.084 367.176 586.45 369.044C587.19 372.519 587.335 376.095 586.88 379.619Z" fill="#BE6F72"/>
<path d="M590.121 287.18C590.281 290.585 590.121 294.032 590.805 297.372C592.402 305.267 598.467 312.255 597.795 320.279C597.63 322.235 596.905 324.338 595.196 325.304C593.487 326.271 590.658 326.194 590.098 328.138C589.939 328.68 590.021 329.269 589.845 329.806C589.473 330.949 588.076 331.438 586.898 331.408C585.719 331.379 584.54 330.99 583.32 331.09C579.048 331.449 577.48 337.164 573.673 339.126C571.109 340.446 567.779 339.715 565.663 337.765C563.548 335.815 562.622 332.775 562.787 329.894C562.911 327.72 563.601 325.623 563.966 323.478C564.632 319.654 564.284 315.736 563.937 311.872C563.424 306.21 562.894 300.477 561.031 295.11C560.153 292.577 558.986 290.155 558.226 287.586C557.142 283.951 556.894 280.128 556.782 276.339C556.552 268.368 557.1 259.843 561.862 253.433C565.44 248.625 570.567 244.719 574.616 240.271C577.15 237.484 577.881 236.612 580.68 238.975C582.984 240.913 585.395 243.588 585.654 246.216C586.361 252.95 585.654 259.572 586.915 266.43C588.177 273.288 589.791 280.139 590.121 287.18Z" fill="#6C63FF"/>
<path d="M528.994 157.418C545.594 157.418 559.051 143.965 559.051 127.37C559.051 110.776 545.594 97.3232 528.994 97.3232C512.394 97.3232 498.938 110.776 498.938 127.37C498.938 143.965 512.394 157.418 528.994 157.418Z" fill="#BE6F72"/>
<path d="M556.517 184.849C557.177 183.924 557.96 182.928 559.08 182.734C559.926 182.67 560.772 182.848 561.52 183.246L569.435 186.551C571.574 183.02 572.835 179.028 573.113 174.91C573.278 172.382 573.077 169.819 573.561 167.333C574.28 163.645 576.466 160.34 576.973 156.616C577.374 153.612 576.649 150.589 576.213 147.59C574.869 138.329 576.313 128.879 575.541 119.552C574.769 110.226 571.026 100.234 562.705 95.9505C560.347 94.7721 557.807 94.0651 555.356 93.1343C549.892 91.0545 544.995 87.7258 539.596 85.4752C534.198 83.2246 527.856 82.1936 522.623 84.78C517.39 87.3664 514.343 94.6425 517.743 99.3912C518.863 100.952 520.501 102.06 522.069 103.185C525.257 105.465 528.511 108.282 529.247 112.135C530.567 119.069 523.354 124.507 521.321 131.288C520.57 133.936 520.503 136.732 521.126 139.413C522.004 143.431 524.149 147.225 524.073 151.337C524.014 155.844 521.315 159.927 520.808 164.411C520.625 166.055 520.737 167.722 520.531 169.36C520.168 171.52 519.528 173.625 518.627 175.622C513.912 187.406 509.133 199.313 502.125 209.906C509.628 210.033 517.045 208.3 523.713 204.862C522.755 209.404 520.919 213.715 518.309 217.553C524.305 216.859 530.073 214.847 535.2 211.661C533.956 216.114 532.154 220.392 529.837 224.393C530.037 224.051 533.744 223.215 534.428 222.826C535.833 222.027 536.963 220.821 537.669 219.368C539.673 215.785 540.922 211.467 542.779 207.743C546.748 199.762 551.342 192.107 556.517 184.849Z" fill="#3F3D56"/>
<path d="M328.568 4.5365C327.141 4.68026 325.704 4.71375 324.272 4.63666C324.027 4.60998 323.783 4.68024 323.59 4.83231C323.397 4.98437 323.271 5.20608 323.24 5.4497L320.5 25.9996C320.289 27.4913 319.678 28.8981 318.732 30.0707C317.952 31.0038 317.372 32.0872 317.028 33.2538C316.684 34.4203 316.584 35.645 316.734 36.8519V71.7596C316.734 71.7596 316.557 76.414 320.134 76.414C324.416 76.9518 328.748 76.9518 333.029 76.414C333.029 76.414 335.894 75.8719 335.894 71.577V37.2054C336.112 36.0062 336.067 34.7739 335.762 33.5938C335.457 32.4137 334.898 31.3141 334.126 30.3711C333.211 29.1943 332.62 27.7991 332.411 26.3236L329.564 5.34365C329.532 5.10777 329.411 4.89305 329.226 4.74313C329.041 4.5932 328.806 4.51932 328.568 4.5365Z" fill="#3F3D56"/>
<path d="M328.586 37.4764H324.242C320.646 37.4764 317.73 40.3912 317.73 43.9867V60.324C317.73 63.9195 320.646 66.8343 324.242 66.8343H328.586C332.183 66.8343 335.098 63.9195 335.098 60.324V43.9867C335.098 40.3912 332.183 37.4764 328.586 37.4764Z" fill="#6C63FF"/>
<path d="M369.234 34.5836C367.806 34.7274 366.37 34.7609 364.937 34.6838C364.693 34.6571 364.448 34.7274 364.255 34.8794C364.062 35.0315 363.937 35.2532 363.906 35.4968L361.165 56.0467C360.955 57.5384 360.344 58.9453 359.397 60.1178C358.617 61.0509 358.037 62.1344 357.694 63.3009C357.35 64.4675 357.25 65.6922 357.399 66.899V101.807C357.399 101.807 357.223 106.461 360.8 106.461C365.081 106.999 369.413 106.999 373.695 106.461C373.695 106.461 376.559 105.919 376.559 101.624V67.2525C376.778 66.0533 376.733 64.821 376.427 63.6409C376.122 62.4608 375.564 61.3612 374.791 60.4183C373.877 59.2415 373.285 57.8462 373.076 56.3707L370.23 35.3908C370.197 35.1549 370.076 34.9402 369.891 34.7903C369.706 34.6403 369.471 34.5664 369.234 34.5836Z" fill="#3F3D56"/>
<path d="M369.251 67.5237H364.907C361.311 67.5237 358.395 70.4384 358.395 74.0339V90.3713C358.395 93.9668 361.311 96.8815 364.907 96.8815H369.251C372.847 96.8815 375.763 93.9668 375.763 90.3713V74.0339C375.763 70.4384 372.847 67.5237 369.251 67.5237Z" fill="#6C63FF"/>
<g opacity="0.2">
<path opacity="0.2" d="M323.523 386.624C323.504 387.26 323.431 387.892 323.305 388.515C319.203 387.863 315.078 387.274 310.929 386.748C310.929 386.583 310.929 386.412 310.929 386.241C310.967 384.475 311.476 382.75 312.402 381.245C313.616 379.324 315.461 378.123 317.494 378.187C319.527 378.252 321.289 379.566 322.38 381.551C323.204 383.111 323.599 384.862 323.523 386.624Z" fill="#3F3D56"/>
<path opacity="0.2" d="M323.854 376.564C323.998 372.007 321.293 368.224 317.812 368.114C314.331 368.004 311.392 371.609 311.248 376.165C311.104 380.722 313.809 384.504 317.29 384.614C320.771 384.724 323.71 381.12 323.854 376.564Z" fill="#3F3D56"/>
<path opacity="0.2" d="M324.176 366.477C324.32 361.92 321.615 358.138 318.134 358.028C314.653 357.918 311.714 361.522 311.57 366.079C311.426 370.635 314.131 374.418 317.612 374.528C321.093 374.638 324.032 371.033 324.176 366.477Z" fill="#3F3D56"/>
<path opacity="0.2" d="M324.491 356.39C324.635 351.834 321.93 348.051 318.449 347.941C314.968 347.831 312.029 351.436 311.885 355.992C311.741 360.548 314.446 364.331 317.927 364.441C321.408 364.551 324.347 360.947 324.491 356.39Z" fill="#3F3D56"/>
<path opacity="0.2" d="M324.813 346.303C324.957 341.747 322.252 337.964 318.771 337.854C315.29 337.744 312.351 341.349 312.207 345.905C312.063 350.462 314.768 354.244 318.249 354.354C321.73 354.464 324.669 350.86 324.813 346.303Z" fill="#3F3D56"/>
<path opacity="0.2" d="M297.062 276.31C296.232 275.187 295.483 274.005 294.822 272.775L311.477 270.577L293.549 270.147C291.949 266.354 291.14 262.274 291.172 258.157C291.203 254.04 292.074 249.973 293.732 246.204L317.377 259.431L295.718 242.439C297.903 238.906 300.793 235.862 304.208 233.496C307.622 231.13 311.488 229.493 315.564 228.688C319.64 227.883 323.838 227.927 327.897 228.816C331.955 229.706 335.786 231.423 339.151 233.859C342.516 236.295 345.342 239.399 347.453 242.976C349.564 246.554 350.915 250.528 351.42 254.65C351.926 258.773 351.576 262.955 350.392 266.936C349.208 270.917 347.216 274.612 344.54 277.789C345.831 279.536 346.927 281.419 347.811 283.403L325.952 293.89L349.131 286.921C350.59 291.736 350.826 296.838 349.815 301.767C348.804 306.696 346.58 311.295 343.343 315.147C346.708 319.712 348.721 325.131 349.15 330.785C349.58 336.439 348.409 342.099 345.772 347.119C343.135 352.139 339.137 356.316 334.237 359.172C329.337 362.028 323.732 363.448 318.063 363.269C312.394 363.091 306.889 361.321 302.179 358.162C297.468 355.003 293.742 350.583 291.427 345.406C289.111 340.23 288.299 334.507 289.084 328.891C289.869 323.276 292.219 317.994 295.865 313.651C291.845 308.196 289.775 301.549 289.989 294.776C290.203 288.004 292.687 281.5 297.044 276.31H297.062Z" fill="#6C63FF"/>
<path opacity="0.1" d="M350.415 296.683C350.209 303.459 347.717 309.966 343.343 315.147C346.709 319.712 348.721 325.131 349.15 330.785C349.58 336.439 348.409 342.099 345.772 347.119C343.135 352.14 339.137 356.316 334.237 359.172C329.337 362.028 323.732 363.448 318.063 363.269C312.394 363.091 306.889 361.321 302.179 358.162C297.468 355.003 293.742 350.583 291.427 345.407C289.111 340.23 288.299 334.507 289.084 328.892C289.869 323.276 292.219 317.994 295.865 313.651C291.993 308.39 350.522 293.295 350.415 296.683Z" fill="black"/>
</g>
</g>
<defs>
<clipPath id="clip0">
<rect width="669" height="420" fill="white"/>
</clipPath>
</defs>
</svg>
