<svg version="1.1" viewBox="0.0 0.0 600.0 371.0" fill="none" stroke="none" stroke-linecap="square" stroke-miterlimit="10" width="600" height="371" xmlns:xlink="http://www.w3.org/1999/xlink" xmlns="http://www.w3.org/2000/svg"><path fill="#ffffff" d="M0 0L600.0 0L600.0 371.0L0 371.0L0 0Z" fill-rule="nonzero"/><path stroke="#333333" stroke-width="1.0" stroke-linecap="butt" d="M55.5 331.5L581.5 331.5" fill-rule="nonzero"/><path stroke="#ffffff" stroke-width="1.0" stroke-linecap="butt" d="M55.5 277.5L581.5 277.5" fill-rule="nonzero"/><path stroke="#ffffff" stroke-width="1.0" stroke-linecap="butt" d="M55.5 223.5L581.5 223.5" fill-rule="nonzero"/><path stroke="#ffffff" stroke-width="1.0" stroke-linecap="butt" d="M55.5 168.5L581.5 168.5" fill-rule="nonzero"/><path stroke="#ffffff" stroke-width="1.0" stroke-linecap="butt" d="M55.5 114.5L581.5 114.5" fill-rule="nonzero"/><path stroke="#ffffff" stroke-width="1.0" stroke-linecap="butt" d="M55.5 60.5L581.5 60.5" fill-rule="nonzero"/><clipPath id="id_0"><path d="M55.55 60.416668L581.45 60.416668L581.45 331.45L55.55 331.45L55.55 60.416668Z" clip-rule="nonzero"/></clipPath><path stroke="#000000" stroke-width="0.0" stroke-linecap="butt" stroke-opacity="0.0" clip-path="url(#id_0)" d="M280.0 331.0L135.0 331.0L135.0 279.0C135.0 277.89542 135.89543 277.0 137.0 277.0L278.0 277.0C279.10458 277.0 280.0 277.89542 280.0 279.0Z" fill-rule="nonzero"/><path fill="#3b61e3" clip-path="url(#id_0)" d="M280.0 331.0L135.0 331.0L135.0 279.0C135.0 277.89542 135.89543 277.0 137.0 277.0L278.0 277.0C279.10458 277.0 280.0 277.89542 280.0 279.0Z" fill-rule="nonzero"/><path stroke="#000000" stroke-width="0.0" stroke-linecap="butt" stroke-opacity="0.0" clip-path="url(#id_0)" d="M503.0 331.0L358.0 331.0L358.0 106.0C358.0 104.89543 358.89542 104.0 360.0 104.0L501.0 104.0C502.10458 104.0 503.0 104.89543 503.0 106.0Z" fill-rule="nonzero"/><path fill="#3b61e3" clip-path="url(#id_0)" d="M503.0 331.0L358.0 331.0L358.0 106.0C358.0 104.89543 358.89542 104.0 360.0 104.0L501.0 104.0C502.10458 104.0 503.0 104.89543 503.0 106.0Z" fill-rule="nonzero"/><path stroke="#3b61e3" stroke-width="3.0" stroke-linejoin="round" stroke-linecap="round" d="M195.85938 307.69043Q195.85938 306.78418 195.21875 306.1748Q194.59375 305.5498 193.10938 305.0498Q191.03125 304.4248 190.07812 303.40918Q189.125 302.37793 189.125 300.81543Q189.125 299.20605 190.04688 298.19043Q190.98438 297.15918 192.625 296.95605L192.625 294.81543L194.07812 294.81543L194.07812 296.97168Q195.71875 297.19043 196.625 298.34668Q197.54688 299.50293 197.54688 301.50293L195.75 301.50293Q195.75 300.12793 195.09375 299.31543Q194.4375 298.50293 193.32812 298.50293Q192.15625 298.50293 191.53125 299.1123Q190.92188 299.70605 190.92188 300.78418Q190.92188 301.76855 191.57812 302.3623Q192.23438 302.95605 193.71875 303.44043Q195.20312 303.9248 196.03125 304.50293Q196.875 305.08105 197.26562 305.8623Q197.67188 306.62793 197.67188 307.65918Q197.67188 309.31543 196.67188 310.33105Q195.6875 311.33105 193.89062 311.51855L193.89062 313.37793L192.45312 313.37793L192.45312 311.51855Q190.64062 311.34668 189.60938 310.22168Q188.57812 309.09668 188.57812 307.15918L190.375 307.15918Q190.375 308.51855 191.09375 309.25293Q191.8125 309.97168 193.10938 309.97168Q194.39062 309.97168 195.125 309.3623Q195.85938 308.75293 195.85938 307.69043ZM200.51562 304.22168L201.23438 297.12793L208.51562 297.12793L208.51562 298.7998L202.76562 298.7998L202.34375 302.6748Q203.39062 302.06543 204.71875 302.06543Q206.65625 302.06543 207.79688 303.34668Q208.9375 304.62793 208.9375 306.81543Q208.9375 309.01855 207.75 310.28418Q206.5625 311.5498 204.4375 311.5498Q202.54688 311.5498 201.35938 310.50293Q200.17188 309.45605 200.0 307.6123L201.71875 307.6123Q201.875 308.83105 202.57812 309.45605Q203.28125 310.06543 204.4375 310.06543Q205.70312 310.06543 206.42188 309.20605Q207.14062 308.34668 207.14062 306.83105Q207.14062 305.40918 206.35938 304.5498Q205.57812 303.6748 204.29688 303.6748Q203.10938 303.6748 202.4375 304.19043L201.95312 304.58105L200.51562 304.22168ZM213.57812 297.12793L218.21875 308.72168L222.875 297.12793L225.29688 297.12793L225.29688 311.34668L223.42188 311.34668L223.42188 305.81543L223.60938 299.83105L218.9375 311.34668L217.5 311.34668L212.84375 299.8623L213.03125 305.81543L213.03125 311.34668L211.15625 311.34668L211.15625 297.12793L213.57812 297.12793Z" fill-rule="nonzero"/><path fill="#ffffff" d="M195.85938 307.69043Q195.85938 306.78418 195.21875 306.1748Q194.59375 305.5498 193.10938 305.0498Q191.03125 304.4248 190.07812 303.40918Q189.125 302.37793 189.125 300.81543Q189.125 299.20605 190.04688 298.19043Q190.98438 297.15918 192.625 296.95605L192.625 294.81543L194.07812 294.81543L194.07812 296.97168Q195.71875 297.19043 196.625 298.34668Q197.54688 299.50293 197.54688 301.50293L195.75 301.50293Q195.75 300.12793 195.09375 299.31543Q194.4375 298.50293 193.32812 298.50293Q192.15625 298.50293 191.53125 299.1123Q190.92188 299.70605 190.92188 300.78418Q190.92188 301.76855 191.57812 302.3623Q192.23438 302.95605 193.71875 303.44043Q195.20312 303.9248 196.03125 304.50293Q196.875 305.08105 197.26562 305.8623Q197.67188 306.62793 197.67188 307.65918Q197.67188 309.31543 196.67188 310.33105Q195.6875 311.33105 193.89062 311.51855L193.89062 313.37793L192.45312 313.37793L192.45312 311.51855Q190.64062 311.34668 189.60938 310.22168Q188.57812 309.09668 188.57812 307.15918L190.375 307.15918Q190.375 308.51855 191.09375 309.25293Q191.8125 309.97168 193.10938 309.97168Q194.39062 309.97168 195.125 309.3623Q195.85938 308.75293 195.85938 307.69043ZM200.51562 304.22168L201.23438 297.12793L208.51562 297.12793L208.51562 298.7998L202.76562 298.7998L202.34375 302.6748Q203.39062 302.06543 204.71875 302.06543Q206.65625 302.06543 207.79688 303.34668Q208.9375 304.62793 208.9375 306.81543Q208.9375 309.01855 207.75 310.28418Q206.5625 311.5498 204.4375 311.5498Q202.54688 311.5498 201.35938 310.50293Q200.17188 309.45605 200.0 307.6123L201.71875 307.6123Q201.875 308.83105 202.57812 309.45605Q203.28125 310.06543 204.4375 310.06543Q205.70312 310.06543 206.42188 309.20605Q207.14062 308.34668 207.14062 306.83105Q207.14062 305.40918 206.35938 304.5498Q205.57812 303.6748 204.29688 303.6748Q203.10938 303.6748 202.4375 304.19043L201.95312 304.58105L200.51562 304.22168ZM213.57812 297.12793L218.21875 308.72168L222.875 297.12793L225.29688 297.12793L225.29688 311.34668L223.42188 311.34668L223.42188 305.81543L223.60938 299.83105L218.9375 311.34668L217.5 311.34668L212.84375 299.8623L213.03125 305.81543L213.03125 311.34668L211.15625 311.34668L211.15625 297.12793L213.57812 297.12793Z" fill-rule="nonzero"/><path stroke="#3b61e3" stroke-width="3.0" stroke-linejoin="round" stroke-linecap="round" d="M413.35938 220.95975Q413.35938 220.0535 412.71875 219.44412Q412.09375 218.81912 410.60938 218.31912Q408.53125 217.69412 407.57812 216.6785Q406.625 215.64725 406.625 214.08475Q406.625 212.47537 407.54688 211.45975Q408.48438 210.4285 410.125 210.22537L410.125 208.08475L411.57812 208.08475L411.57812 210.241Q413.21875 210.45975 414.125 211.616Q415.04688 212.77225 415.04688 214.77225L413.25 214.77225Q413.25 213.39725 412.59375 212.58475Q411.9375 211.77225 410.82812 211.77225Q409.65625 211.77225 409.03125 212.38162Q408.42188 212.97537 408.42188 214.0535Q408.42188 215.03787 409.07812 215.63162Q409.73438 216.22537 411.21875 216.70975Q412.70312 217.19412 413.53125 217.77225Q414.375 218.35037 414.76562 219.13162Q415.17188 219.89725 415.17188 220.9285Q415.17188 222.58475 414.17188 223.60037Q413.1875 224.60037 411.39062 224.78787L411.39062 226.64725L409.95312 226.64725L409.95312 224.78787Q408.14062 224.616 407.10938 223.491Q406.07812 222.366 406.07812 220.4285L407.875 220.4285Q407.875 221.78787 408.59375 222.52225Q409.3125 223.241 410.60938 223.241Q411.89062 223.241 412.625 222.63162Q413.35938 222.02225 413.35938 220.95975ZM426.5 224.616L417.1875 224.616L417.1875 223.31912L422.10938 217.85037Q423.20312 216.60037 423.60938 215.83475Q424.03125 215.0535 424.03125 214.22537Q424.03125 213.116 423.35938 212.39725Q422.6875 211.6785 421.5625 211.6785Q420.20312 211.6785 419.45312 212.45975Q418.71875 213.22537 418.71875 214.58475L416.90625 214.58475Q416.90625 212.616 418.17188 211.41287Q419.4375 210.19412 421.5625 210.19412Q423.54688 210.19412 424.6875 211.241Q425.84375 212.28787 425.84375 214.00662Q425.84375 216.116 423.17188 219.00662L419.35938 223.14725L426.5 223.14725L426.5 224.616ZM434.125 224.616L432.29688 224.616L432.29688 212.56912L428.65625 213.91287L428.65625 212.27225L433.84375 210.33475L434.125 210.33475L434.125 224.616ZM442.07812 210.39725L446.71875 221.991L451.375 210.39725L453.79688 210.39725L453.79688 224.616L451.92188 224.616L451.92188 219.08475L452.10938 213.10037L447.4375 224.616L446.0 224.616L441.34375 213.13162L441.53125 219.08475L441.53125 224.616L439.65625 224.616L439.65625 210.39725L442.07812 210.39725Z" fill-rule="nonzero"/><path fill="#ffffff" d="M413.35938 220.95975Q413.35938 220.0535 412.71875 219.44412Q412.09375 218.81912 410.60938 218.31912Q408.53125 217.69412 407.57812 216.6785Q406.625 215.64725 406.625 214.08475Q406.625 212.47537 407.54688 211.45975Q408.48438 210.4285 410.125 210.22537L410.125 208.08475L411.57812 208.08475L411.57812 210.241Q413.21875 210.45975 414.125 211.616Q415.04688 212.77225 415.04688 214.77225L413.25 214.77225Q413.25 213.39725 412.59375 212.58475Q411.9375 211.77225 410.82812 211.77225Q409.65625 211.77225 409.03125 212.38162Q408.42188 212.97537 408.42188 214.0535Q408.42188 215.03787 409.07812 215.63162Q409.73438 216.22537 411.21875 216.70975Q412.70312 217.19412 413.53125 217.77225Q414.375 218.35037 414.76562 219.13162Q415.17188 219.89725 415.17188 220.9285Q415.17188 222.58475 414.17188 223.60037Q413.1875 224.60037 411.39062 224.78787L411.39062 226.64725L409.95312 226.64725L409.95312 224.78787Q408.14062 224.616 407.10938 223.491Q406.07812 222.366 406.07812 220.4285L407.875 220.4285Q407.875 221.78787 408.59375 222.52225Q409.3125 223.241 410.60938 223.241Q411.89062 223.241 412.625 222.63162Q413.35938 222.02225 413.35938 220.95975ZM426.5 224.616L417.1875 224.616L417.1875 223.31912L422.10938 217.85037Q423.20312 216.60037 423.60938 215.83475Q424.03125 215.0535 424.03125 214.22537Q424.03125 213.116 423.35938 212.39725Q422.6875 211.6785 421.5625 211.6785Q420.20312 211.6785 419.45312 212.45975Q418.71875 213.22537 418.71875 214.58475L416.90625 214.58475Q416.90625 212.616 418.17188 211.41287Q419.4375 210.19412 421.5625 210.19412Q423.54688 210.19412 424.6875 211.241Q425.84375 212.28787 425.84375 214.00662Q425.84375 216.116 423.17188 219.00662L419.35938 223.14725L426.5 223.14725L426.5 224.616ZM434.125 224.616L432.29688 224.616L432.29688 212.56912L428.65625 213.91287L428.65625 212.27225L433.84375 210.33475L434.125 210.33475L434.125 224.616ZM442.07812 210.39725L446.71875 221.991L451.375 210.39725L453.79688 210.39725L453.79688 224.616L451.92188 224.616L451.92188 219.08475L452.10938 213.10037L447.4375 224.616L446.0 224.616L441.34375 213.13162L441.53125 219.08475L441.53125 224.616L439.65625 224.616L439.65625 210.39725L442.07812 210.39725Z" fill-rule="nonzero"/><path fill="#000000" d="M30.565624 333.7469Q30.565624 333.21564 30.190624 332.85626Q29.815624 332.48126 28.909374 332.16876Q27.659374 331.79376 27.08125 331.1844Q26.51875 330.575 26.51875 329.6219Q26.51875 328.66876 27.08125 328.0594Q27.64375 327.4344 28.628124 327.325L28.628124 326.02814L29.4875 326.02814L29.4875 327.325Q30.471874 327.46564 31.01875 328.15314Q31.58125 328.84064 31.58125 330.04376L30.503124 330.04376Q30.503124 329.21564 30.096874 328.73126Q29.70625 328.2469 29.05 328.2469Q28.346874 328.2469 27.971874 328.60626Q27.6125 328.96564 27.6125 329.60626Q27.6125 330.2 28.003124 330.5594Q28.39375 330.91876 29.284374 331.21564Q30.175 331.4969 30.675 331.85626Q31.175 332.2 31.409374 332.66876Q31.64375 333.1219 31.64375 333.7469Q31.64375 334.73126 31.05 335.34064Q30.45625 335.9344 29.39375 336.04376L29.39375 337.16876L28.51875 337.16876L28.51875 336.04376Q27.425 335.95 26.8 335.27814Q26.190624 334.59064 26.190624 333.4344L27.284374 333.4344Q27.284374 334.2469 27.70625 334.6844Q28.128124 335.1219 28.925 335.1219Q29.690624 335.1219 30.128124 334.7625Q30.565624 334.3875 30.565624 333.7469ZM38.6125 332.3094Q38.6125 334.21564 37.95625 335.15314Q37.315624 336.075 35.925 336.075Q34.565624 336.075 33.909374 335.16876Q33.253124 334.2625 33.221874 332.45L33.221874 331.0125Q33.221874 329.1219 33.8625 328.21564Q34.51875 327.29376 35.909374 327.29376Q37.284374 327.29376 37.940624 328.1844Q38.596874 329.0594 38.6125 330.90314L38.6125 332.3094ZM37.51875 330.825Q37.51875 329.45 37.128124 328.825Q36.753124 328.1844 35.909374 328.1844Q35.08125 328.1844 34.690624 328.825Q34.315624 329.45 34.315624 330.7469L34.315624 332.48126Q34.315624 333.85626 34.70625 334.52814Q35.1125 335.1844 35.925 335.1844Q36.721874 335.1844 37.1125 334.5594Q37.503124 333.9344 37.51875 332.60626L37.51875 330.825ZM41.9875 327.41876L44.784374 334.3719L47.565624 327.41876L49.034374 327.41876L49.034374 335.95L47.909374 335.95L47.909374 332.6219L48.01875 329.04376L45.20625 335.95L44.346874 335.95L41.55 329.0594L41.659374 332.6219L41.659374 335.95L40.534374 335.95L40.534374 327.41876L41.9875 327.41876Z" fill-rule="nonzero"/><path fill="#000000" d="M30.565624 279.54022Q30.565624 279.00897 30.190624 278.6496Q29.815624 278.2746 28.909374 277.9621Q27.659374 277.5871 27.08125 276.97772Q26.51875 276.36835 26.51875 275.41522Q26.51875 274.4621 27.08125 273.85272Q27.64375 273.22772 28.628124 273.11835L28.628124 271.82147L29.4875 271.82147L29.4875 273.11835Q30.471874 273.25897 31.01875 273.94647Q31.58125 274.63397 31.58125 275.8371L30.503124 275.8371Q30.503124 275.00897 30.096874 274.5246Q29.70625 274.04022 29.05 274.04022Q28.346874 274.04022 27.971874 274.3996Q27.6125 274.75897 27.6125 275.3996Q27.6125 275.99335 28.003124 276.35272Q28.39375 276.7121 29.284374 277.00897Q30.175 277.29022 30.675 277.6496Q31.175 277.99335 31.409374 278.4621Q31.64375 278.91522 31.64375 279.54022Q31.64375 280.5246 31.05 281.13397Q30.45625 281.72772 29.39375 281.8371L29.39375 282.9621L28.51875 282.9621L28.51875 281.8371Q27.425 281.74335 26.8 281.07147Q26.190624 280.38397 26.190624 279.22772L27.284374 279.22772Q27.284374 280.04022 27.70625 280.47772Q28.128124 280.91522 28.925 280.91522Q29.690624 280.91522 30.128124 280.55585Q30.565624 280.18085 30.565624 279.54022ZM33.753124 277.4621L34.190624 273.2121L38.565624 273.2121L38.565624 274.2121L35.1125 274.2121L34.846874 276.54022Q35.4875 276.16522 36.284374 276.16522Q37.440624 276.16522 38.128124 276.94647Q38.815624 277.7121 38.815624 279.0246Q38.815624 280.3371 38.096874 281.10272Q37.39375 281.86835 36.1125 281.86835Q34.9875 281.86835 34.26875 281.24335Q33.55 280.60272 33.45625 279.49335L34.471874 279.49335Q34.58125 280.22772 35.003124 280.60272Q35.425 280.97772 36.1125 280.97772Q36.8625 280.97772 37.3 280.4621Q37.7375 279.94647 37.7375 279.04022Q37.7375 278.18085 37.26875 277.66522Q36.8 277.1496 36.01875 277.1496Q35.315624 277.1496 34.909374 277.44647L34.628124 277.68085L33.753124 277.4621ZM41.9875 273.2121L44.784374 280.16522L47.565624 273.2121L49.034374 273.2121L49.034374 281.74335L47.909374 281.74335L47.909374 278.41522L48.01875 274.8371L45.20625 281.74335L44.346874 281.74335L41.55 274.85272L41.659374 278.41522L41.659374 281.74335L40.534374 281.74335L40.534374 273.2121L41.9875 273.2121Z" fill-rule="nonzero"/><path fill="#000000" d="M23.565624 225.33354Q23.565624 224.80229 23.190624 224.44292Q22.815624 224.06792 21.909374 223.75542Q20.659374 223.38042 20.08125 222.77104Q19.51875 222.16167 19.51875 221.20854Q19.51875 220.25542 20.08125 219.64604Q20.64375 219.02104 21.628124 218.91167L21.628124 217.61479L22.4875 217.61479L22.4875 218.91167Q23.471874 219.05229 24.01875 219.73979Q24.58125 220.42729 24.58125 221.63042L23.503124 221.63042Q23.503124 220.80229 23.096874 220.31792Q22.70625 219.83354 22.05 219.83354Q21.346874 219.83354 20.971874 220.19292Q20.6125 220.55229 20.6125 221.19292Q20.6125 221.78667 21.003124 222.14604Q21.39375 222.50542 22.284374 222.80229Q23.175 223.08354 23.675 223.44292Q24.175 223.78667 24.409374 224.25542Q24.64375 224.70854 24.64375 225.33354Q24.64375 226.31792 24.05 226.92729Q23.45625 227.52104 22.39375 227.63042L22.39375 228.75542L21.51875 228.75542L21.51875 227.63042Q20.425 227.53667 19.8 226.86479Q19.190624 226.17729 19.190624 225.02104L20.284374 225.02104Q20.284374 225.83354 20.70625 226.27104Q21.128124 226.70854 21.925 226.70854Q22.690624 226.70854 23.128124 226.34917Q23.565624 225.97417 23.565624 225.33354ZM29.815624 227.53667L28.7375 227.53667L28.7375 220.31792L26.55 221.11479L26.55 220.13042L29.659374 218.95854L29.815624 218.95854L29.815624 227.53667ZM38.6125 223.89604Q38.6125 225.80229 37.95625 226.73979Q37.315624 227.66167 35.925 227.66167Q34.565624 227.66167 33.909374 226.75542Q33.253124 225.84917 33.221874 224.03667L33.221874 222.59917Q33.221874 220.70854 33.8625 219.80229Q34.51875 218.88042 35.909374 218.88042Q37.284374 218.88042 37.940624 219.77104Q38.596874 220.64604 38.6125 222.48979L38.6125 223.89604ZM37.51875 222.41167Q37.51875 221.03667 37.128124 220.41167Q36.753124 219.77104 35.909374 219.77104Q35.08125 219.77104 34.690624 220.41167Q34.315624 221.03667 34.315624 222.33354L34.315624 224.06792Q34.315624 225.44292 34.70625 226.11479Q35.1125 226.77104 35.925 226.77104Q36.721874 226.77104 37.1125 226.14604Q37.503124 225.52104 37.51875 224.19292L37.51875 222.41167ZM41.9875 219.00542L44.784374 225.95854L47.565624 219.00542L49.034374 219.00542L49.034374 227.53667L47.909374 227.53667L47.909374 224.20854L48.01875 220.63042L45.20625 227.53667L44.346874 227.53667L41.55 220.64604L41.659374 224.20854L41.659374 227.53667L40.534374 227.53667L40.534374 219.00542L41.9875 219.00542Z" fill-rule="nonzero"/><path fill="#000000" d="M23.565624 171.12688Q23.565624 170.59563 23.190624 170.23625Q22.815624 169.86125 21.909374 169.54875Q20.659374 169.17375 20.08125 168.56438Q19.51875 167.955 19.51875 167.00188Q19.51875 166.04875 20.08125 165.43938Q20.64375 164.81438 21.628124 164.705L21.628124 163.40813L22.4875 163.40813L22.4875 164.705Q23.471874 164.84563 24.01875 165.53313Q24.58125 166.22063 24.58125 167.42375L23.503124 167.42375Q23.503124 166.59563 23.096874 166.11125Q22.70625 165.62688 22.05 165.62688Q21.346874 165.62688 20.971874 165.98625Q20.6125 166.34563 20.6125 166.98625Q20.6125 167.58 21.003124 167.93938Q21.39375 168.29875 22.284374 168.59563Q23.175 168.87688 23.675 169.23625Q24.175 169.58 24.409374 170.04875Q24.64375 170.50188 24.64375 171.12688Q24.64375 172.11125 24.05 172.72063Q23.45625 173.31438 22.39375 173.42375L22.39375 174.54875L21.51875 174.54875L21.51875 173.42375Q20.425 173.33 19.8 172.65813Q19.190624 171.97063 19.190624 170.81438L20.284374 170.81438Q20.284374 171.62688 20.70625 172.06438Q21.128124 172.50188 21.925 172.50188Q22.690624 172.50188 23.128124 172.1425Q23.565624 171.7675 23.565624 171.12688ZM29.815624 173.33L28.7375 173.33L28.7375 166.11125L26.55 166.90813L26.55 165.92375L29.659374 164.75188L29.815624 164.75188L29.815624 173.33ZM33.753124 169.04875L34.190624 164.79875L38.565624 164.79875L38.565624 165.79875L35.1125 165.79875L34.846874 168.12688Q35.4875 167.75188 36.284374 167.75188Q37.440624 167.75188 38.128124 168.53313Q38.815624 169.29875 38.815624 170.61125Q38.815624 171.92375 38.096874 172.68938Q37.39375 173.455 36.1125 173.455Q34.9875 173.455 34.26875 172.83Q33.55 172.18938 33.45625 171.08L34.471874 171.08Q34.58125 171.81438 35.003124 172.18938Q35.425 172.56438 36.1125 172.56438Q36.8625 172.56438 37.3 172.04875Q37.7375 171.53313 37.7375 170.62688Q37.7375 169.7675 37.26875 169.25188Q36.8 168.73625 36.01875 168.73625Q35.315624 168.73625 34.909374 169.03313L34.628124 169.2675L33.753124 169.04875ZM41.9875 164.79875L44.784374 171.75188L47.565624 164.79875L49.034374 164.79875L49.034374 173.33L47.909374 173.33L47.909374 170.00188L48.01875 166.42375L45.20625 173.33L44.346874 173.33L41.55 166.43938L41.659374 170.00188L41.659374 173.33L40.534374 173.33L40.534374 164.79875L41.9875 164.79875Z" fill-rule="nonzero"/><path fill="#000000" d="M23.565624 116.92021Q23.565624 116.38896 23.190624 116.02959Q22.815624 115.65459 21.909374 115.34209Q20.659374 114.96709 20.08125 114.35771Q19.51875 113.74834 19.51875 112.79521Q19.51875 111.84209 20.08125 111.23271Q20.64375 110.60771 21.628124 110.49834L21.628124 109.20146L22.4875 109.20146L22.4875 110.49834Q23.471874 110.63896 24.01875 111.32646Q24.58125 112.01396 24.58125 113.21709L23.503124 113.21709Q23.503124 112.38896 23.096874 111.90459Q22.70625 111.42021 22.05 111.42021Q21.346874 111.42021 20.971874 111.77959Q20.6125 112.13896 20.6125 112.77959Q20.6125 113.37334 21.003124 113.73271Q21.39375 114.09209 22.284374 114.38896Q23.175 114.67021 23.675 115.02959Q24.175 115.37334 24.409374 115.84209Q24.64375 116.29521 24.64375 116.92021Q24.64375 117.90459 24.05 118.51396Q23.45625 119.10771 22.39375 119.21709L22.39375 120.34209L21.51875 120.34209L21.51875 119.21709Q20.425 119.12334 19.8 118.45146Q19.190624 117.76396 19.190624 116.60771L20.284374 116.60771Q20.284374 117.42021 20.70625 117.85771Q21.128124 118.29521 21.925 118.29521Q22.690624 118.29521 23.128124 117.93584Q23.565624 117.56084 23.565624 116.92021ZM31.846874 119.12334L26.253124 119.12334L26.253124 118.34209L29.20625 115.06084Q29.8625 114.31084 30.1125 113.85771Q30.3625 113.38896 30.3625 112.88896Q30.3625 112.21709 29.95625 111.79521Q29.565624 111.35771 28.878124 111.35771Q28.08125 111.35771 27.628124 111.82646Q27.175 112.27959 27.175 113.10771L26.096874 113.10771Q26.096874 111.92021 26.846874 111.20146Q27.6125 110.46709 28.878124 110.46709Q30.08125 110.46709 30.76875 111.09209Q31.45625 111.71709 31.45625 112.76396Q31.45625 114.01396 29.846874 115.76396L27.565624 118.23271L31.846874 118.23271L31.846874 119.12334ZM38.6125 115.48271Q38.6125 117.38896 37.95625 118.32646Q37.315624 119.24834 35.925 119.24834Q34.565624 119.24834 33.909374 118.34209Q33.253124 117.43584 33.221874 115.62334L33.221874 114.18584Q33.221874 112.29521 33.8625 111.38896Q34.51875 110.46709 35.909374 110.46709Q37.284374 110.46709 37.940624 111.35771Q38.596874 112.23271 38.6125 114.07646L38.6125 115.48271ZM37.51875 113.99834Q37.51875 112.62334 37.128124 111.99834Q36.753124 111.35771 35.909374 111.35771Q35.08125 111.35771 34.690624 111.99834Q34.315624 112.62334 34.315624 113.92021L34.315624 115.65459Q34.315624 117.02959 34.70625 117.70146Q35.1125 118.35771 35.925 118.35771Q36.721874 118.35771 37.1125 117.73271Q37.503124 117.10771 37.51875 115.77959L37.51875 113.99834ZM41.9875 110.59209L44.784374 117.54521L47.565624 110.59209L49.034374 110.59209L49.034374 119.12334L47.909374 119.12334L47.909374 115.79521L48.01875 112.21709L45.20625 119.12334L44.346874 119.12334L41.55 112.23271L41.659374 115.79521L41.659374 119.12334L40.534374 119.12334L40.534374 110.59209L41.9875 110.59209Z" fill-rule="nonzero"/><path fill="#000000" d="M23.565624 62.71354Q23.565624 62.18229 23.190624 61.822914Q22.815624 61.447914 21.909374 61.135414Q20.659374 60.760414 20.08125 60.15104Q19.51875 59.541664 19.51875 58.58854Q19.51875 57.635414 20.08125 57.02604Q20.64375 56.40104 21.628124 56.291664L21.628124 54.99479L22.4875 54.99479L22.4875 56.291664Q23.471874 56.43229 24.01875 57.11979Q24.58125 57.80729 24.58125 59.010414L23.503124 59.010414Q23.503124 58.18229 23.096874 57.697914Q22.70625 57.21354 22.05 57.21354Q21.346874 57.21354 20.971874 57.572914Q20.6125 57.93229 20.6125 58.572914Q20.6125 59.166664 21.003124 59.52604Q21.39375 59.885414 22.284374 60.18229Q23.175 60.46354 23.675 60.822914Q24.175 61.166664 24.409374 61.635414Q24.64375 62.08854 24.64375 62.71354Q24.64375 63.697914 24.05 64.30729Q23.45625 64.90104 22.39375 65.010414L22.39375 66.135414L21.51875 66.135414L21.51875 65.010414Q20.425 64.916664 19.8 64.24479Q19.190624 63.55729 19.190624 62.40104L20.284374 62.40104Q20.284374 63.21354 20.70625 63.65104Q21.128124 64.08854 21.925 64.08854Q22.690624 64.08854 23.128124 63.729164Q23.565624 63.354164 23.565624 62.71354ZM31.846874 64.916664L26.253124 64.916664L26.253124 64.135414L29.20625 60.854164Q29.8625 60.104164 30.1125 59.65104Q30.3625 59.18229 30.3625 58.68229Q30.3625 58.010414 29.95625 57.58854Q29.565624 57.15104 28.878124 57.15104Q28.08125 57.15104 27.628124 57.61979Q27.175 58.072914 27.175 58.90104L26.096874 58.90104Q26.096874 57.71354 26.846874 56.99479Q27.6125 56.260414 28.878124 56.260414Q30.08125 56.260414 30.76875 56.885414Q31.45625 57.510414 31.45625 58.55729Q31.45625 59.80729 29.846874 61.55729L27.565624 64.02604L31.846874 64.02604L31.846874 64.916664ZM33.753124 60.635414L34.190624 56.385414L38.565624 56.385414L38.565624 57.385414L35.1125 57.385414L34.846874 59.71354Q35.4875 59.33854 36.284374 59.33854Q37.440624 59.33854 38.128124 60.11979Q38.815624 60.885414 38.815624 62.197914Q38.815624 63.510414 38.096874 64.27604Q37.39375 65.041664 36.1125 65.041664Q34.9875 65.041664 34.26875 64.416664Q33.55 63.77604 33.45625 62.666664L34.471874 62.666664Q34.58125 63.40104 35.003124 63.77604Q35.425 64.15104 36.1125 64.15104Q36.8625 64.15104 37.3 63.635414Q37.7375 63.11979 37.7375 62.21354Q37.7375 61.354164 37.26875 60.83854Q36.8 60.322914 36.01875 60.322914Q35.315624 60.322914 34.909374 60.61979L34.628124 60.854164L33.753124 60.635414ZM41.9875 56.385414L44.784374 63.33854L47.565624 56.385414L49.034374 56.385414L49.034374 64.916664L47.909374 64.916664L47.909374 61.58854L48.01875 58.010414L45.20625 64.916664L44.346874 64.916664L41.55 58.02604L41.659374 61.58854L41.659374 64.916664L40.534374 64.916664L40.534374 56.385414L41.9875 56.385414Z" fill-rule="nonzero"/><path fill="#000000" d="M198.90326 349.45L193.30951 349.45L193.30951 348.66876L196.26263 345.3875Q196.91888 344.6375 197.16888 344.1844Q197.41888 343.71564 197.41888 343.21564Q197.41888 342.54376 197.01263 342.1219Q196.62201 341.6844 195.93451 341.6844Q195.13763 341.6844 194.68451 342.15314Q194.23138 342.60626 194.23138 343.4344L193.15326 343.4344Q193.15326 342.2469 193.90326 341.52814Q194.66888 340.79376 195.93451 340.79376Q197.13763 340.79376 197.82513 341.41876Q198.51263 342.04376 198.51263 343.09064Q198.51263 344.34064 196.90326 346.09064L194.62201 348.5594L198.90326 348.5594L198.90326 349.45ZM205.66888 345.8094Q205.66888 347.71564 205.01263 348.65314Q204.37201 349.575 202.98138 349.575Q201.62201 349.575 200.96576 348.66876Q200.30951 347.7625 200.27826 345.95L200.27826 344.5125Q200.27826 342.6219 200.91888 341.71564Q201.57513 340.79376 202.96576 340.79376Q204.34076 340.79376 204.99701 341.6844Q205.65326 342.5594 205.66888 344.40314L205.66888 345.8094ZM204.57513 344.325Q204.57513 342.95 204.18451 342.325Q203.80951 341.6844 202.96576 341.6844Q202.13763 341.6844 201.74701 342.325Q201.37201 342.95 201.37201 344.2469L201.37201 345.98126Q201.37201 347.35626 201.76263 348.02814Q202.16888 348.6844 202.98138 348.6844Q203.77826 348.6844 204.16888 348.0594Q204.55951 347.4344 204.57513 346.10626L204.57513 344.325ZM210.87201 349.45L209.79388 349.45L209.79388 342.23126L207.60638 343.02814L207.60638 342.04376L210.71576 340.8719L210.87201 340.8719L210.87201 349.45ZM219.49701 343.1375Q219.49701 343.77814 219.15326 344.27814Q218.80951 344.77814 218.24701 345.0594Q218.90326 345.34064 219.29388 345.90314Q219.68451 346.45 219.68451 347.15314Q219.68451 348.2469 218.93451 348.91876Q218.20013 349.575 216.98138 349.575Q215.74701 349.575 214.99701 348.91876Q214.26263 348.2469 214.26263 347.15314Q214.26263 346.45 214.63763 345.90314Q215.01263 345.34064 215.68451 345.0594Q215.12201 344.77814 214.79388 344.27814Q214.46576 343.77814 214.46576 343.1375Q214.46576 342.0594 215.15326 341.4344Q215.84076 340.79376 216.98138 340.79376Q218.10638 340.79376 218.79388 341.4344Q219.49701 342.0594 219.49701 343.1375ZM218.60638 347.1219Q218.60638 346.40314 218.15326 345.96564Q217.70013 345.5125 216.96576 345.5125Q216.23138 345.5125 215.77826 345.96564Q215.34076 346.40314 215.34076 347.1375Q215.34076 347.85626 215.77826 348.27814Q216.21576 348.6844 216.98138 348.6844Q217.73138 348.6844 218.16888 348.2625Q218.60638 347.84064 218.60638 347.1219ZM216.98138 341.6844Q216.34076 341.6844 215.93451 342.09064Q215.54388 342.48126 215.54388 343.16876Q215.54388 343.8094 215.93451 344.21564Q216.32513 344.6219 216.96576 344.6219Q217.62201 344.6219 218.01263 344.21564Q218.40326 343.8094 218.40326 343.16876Q218.40326 342.5125 217.99701 342.10626Q217.59076 341.6844 216.98138 341.6844Z" fill-rule="nonzero"/><path fill="#000000" d="M422.6905 349.45L417.09674 349.45L417.09674 348.66876L420.04987 345.3875Q420.70612 344.6375 420.95612 344.1844Q421.20612 343.71564 421.20612 343.21564Q421.20612 342.54376 420.79987 342.1219Q420.40924 341.6844 419.72174 341.6844Q418.92487 341.6844 418.47174 342.15314Q418.01862 342.60626 418.01862 343.4344L416.9405 343.4344Q416.9405 342.2469 417.6905 341.52814Q418.45612 340.79376 419.72174 340.79376Q420.92487 340.79376 421.61237 341.41876Q422.29987 342.04376 422.29987 343.09064Q422.29987 344.34064 420.6905 346.09064L418.40924 348.5594L422.6905 348.5594L422.6905 349.45ZM429.45612 345.8094Q429.45612 347.71564 428.79987 348.65314Q428.15924 349.575 426.76862 349.575Q425.40924 349.575 424.753 348.66876Q424.09674 347.7625 424.0655 345.95L424.0655 344.5125Q424.0655 342.6219 424.70612 341.71564Q425.36237 340.79376 426.753 340.79376Q428.128 340.79376 428.78424 341.6844Q429.4405 342.5594 429.45612 344.40314L429.45612 345.8094ZM428.36237 344.325Q428.36237 342.95 427.97174 342.325Q427.59674 341.6844 426.753 341.6844Q425.92487 341.6844 425.53424 342.325Q425.15924 342.95 425.15924 344.2469L425.15924 345.98126Q425.15924 347.35626 425.54987 348.02814Q425.95612 348.6844 426.76862 348.6844Q427.5655 348.6844 427.95612 348.0594Q428.34674 347.4344 428.36237 346.10626L428.36237 344.325ZM434.65924 349.45L433.58112 349.45L433.58112 342.23126L431.39362 343.02814L431.39362 342.04376L434.503 340.8719L434.65924 340.8719L434.65924 349.45ZM442.253 345.7Q441.92487 346.10626 441.4405 346.35626Q440.97174 346.59064 440.40924 346.59064Q439.67487 346.59064 439.128 346.23126Q438.58112 345.8719 438.28424 345.21564Q437.98737 344.54376 437.98737 343.7469Q437.98737 342.90314 438.29987 342.21564Q438.628 341.52814 439.22174 341.16876Q439.83112 340.79376 440.628 340.79376Q441.89362 340.79376 442.61237 341.7469Q443.34674 342.7 443.34674 344.325L443.34674 344.6375Q443.34674 347.1375 442.36237 348.27814Q441.378 349.41876 439.39362 349.45L439.17487 349.45L439.17487 348.54376L439.40924 348.54376Q440.753 348.5125 441.47174 347.84064Q442.1905 347.16876 442.253 345.7ZM440.58112 345.7Q441.128 345.7 441.58112 345.3719Q442.04987 345.02814 442.26862 344.54376L442.26862 344.10626Q442.26862 343.04376 441.79987 342.3719Q441.33112 341.7 440.628 341.7Q439.90924 341.7 439.47174 342.2469Q439.04987 342.79376 439.04987 343.7Q439.04987 344.575 439.45612 345.1375Q439.878 345.7 440.58112 345.7Z" fill-rule="nonzero"/><path fill="#000000" d="M236.17188 22.753124L240.34375 33.190624L244.53125 22.753124L246.71875 22.753124L246.71875 35.55L245.03125 35.55L245.03125 30.565624L245.1875 25.190624L240.98438 35.55L239.70312 35.55L235.5 25.20625L235.67188 30.565624L235.67188 35.55L233.98438 35.55L233.98438 22.753124L236.17188 22.753124ZM253.67188 35.721874Q251.75 35.721874 250.53125 34.45625Q249.3125 33.190624 249.3125 31.065624L249.3125 30.753124Q249.3125 29.346874 249.85938 28.2375Q250.40625 27.128124 251.375 26.503124Q252.34375 25.8625 253.46875 25.8625Q255.32812 25.8625 256.35938 27.08125Q257.39062 28.3 257.39062 30.58125L257.39062 31.253124L250.9375 31.253124Q250.98438 32.659374 251.76562 33.534374Q252.54688 34.39375 253.76562 34.39375Q254.625 34.39375 255.21875 34.05Q255.82812 33.690624 256.26562 33.1125L257.26562 33.89375Q256.0625 35.721874 253.67188 35.721874ZM253.46875 27.20625Q252.48438 27.20625 251.8125 27.925Q251.15625 28.628124 251.0 29.925L255.76562 29.925L255.76562 29.8Q255.6875 28.565624 255.09375 27.89375Q254.5 27.20625 253.46875 27.20625ZM261.26562 26.034374L261.29688 27.096874Q262.34375 25.8625 264.125 25.8625Q266.125 25.8625 266.84375 27.39375Q267.3125 26.70625 268.07812 26.284374Q268.84375 25.8625 269.875 25.8625Q273.0 25.8625 273.0625 29.175L273.0625 35.55L271.42188 35.55L271.42188 29.26875Q271.42188 28.253124 270.95312 27.753124Q270.5 27.2375 269.40625 27.2375Q268.5 27.2375 267.89062 27.784374Q267.29688 28.33125 267.20312 29.2375L267.20312 35.55L265.5625 35.55L265.5625 29.315624Q265.5625 27.2375 263.53125 27.2375Q261.9375 27.2375 261.34375 28.6125L261.34375 35.55L259.71875 35.55L259.71875 26.034374L261.26562 26.034374ZM283.78125 30.89375Q283.78125 33.08125 282.78125 34.409374Q281.78125 35.721874 280.09375 35.721874Q278.28125 35.721874 277.29688 34.45625L277.21875 35.55L275.73438 35.55L275.73438 22.05L277.35938 22.05L277.35938 27.08125Q278.34375 25.8625 280.0625 25.8625Q281.79688 25.8625 282.78125 27.175Q283.78125 28.4875 283.78125 30.753124L283.78125 30.89375ZM282.15625 30.721874Q282.15625 29.05 281.51562 28.14375Q280.875 27.2375 279.67188 27.2375Q278.0625 27.2375 277.35938 28.7375L277.35938 32.846874Q278.10938 34.346874 279.6875 34.346874Q280.85938 34.346874 281.5 33.440624Q282.15625 32.534374 282.15625 30.721874ZM289.67188 35.721874Q287.75 35.721874 286.53125 34.45625Q285.3125 33.190624 285.3125 31.065624L285.3125 30.753124Q285.3125 29.346874 285.85938 28.2375Q286.40625 27.128124 287.375 26.503124Q288.34375 25.8625 289.46875 25.8625Q291.32812 25.8625 292.35938 27.08125Q293.39062 28.3 293.39062 30.58125L293.39062 31.253124L286.9375 31.253124Q286.98438 32.659374 287.76562 33.534374Q288.54688 34.39375 289.76562 34.39375Q290.625 34.39375 291.21875 34.05Q291.82812 33.690624 292.26562 33.1125L293.26562 33.89375Q292.0625 35.721874 289.67188 35.721874ZM289.46875 27.20625Q288.48438 27.20625 287.8125 27.925Q287.15625 28.628124 287.0 29.925L291.76562 29.925L291.76562 29.8Q291.6875 28.565624 291.09375 27.89375Q290.5 27.20625 289.46875 27.20625ZM300.32812 27.503124Q299.95312 27.440624 299.53125 27.440624Q297.92188 27.440624 297.35938 28.8L297.35938 35.55L295.73438 35.55L295.73438 26.034374L297.3125 26.034374L297.34375 27.14375Q298.14062 25.8625 299.60938 25.8625Q300.07812 25.8625 300.32812 25.9875L300.32812 27.503124ZM309.75 29.846874Q307.57812 29.221874 306.59375 28.315624Q305.60938 27.409374 305.60938 26.065624Q305.60938 24.55 306.8125 23.565624Q308.03125 22.58125 309.95312 22.58125Q311.28125 22.58125 312.3125 23.096874Q313.34375 23.596874 313.90625 24.503124Q314.46875 25.39375 314.46875 26.45625L312.78125 26.45625Q312.78125 25.3 312.03125 24.64375Q311.29688 23.971874 309.95312 23.971874Q308.70312 23.971874 308.0 24.51875Q307.3125 25.065624 307.3125 26.034374Q307.3125 26.815624 307.96875 27.3625Q308.64062 27.909374 310.23438 28.3625Q311.82812 28.8 312.71875 29.346874Q313.625 29.878124 314.0625 30.596874Q314.5 31.315624 314.5 32.3Q314.5 33.846874 313.28125 34.784374Q312.07812 35.721874 310.04688 35.721874Q308.73438 35.721874 307.57812 35.221874Q306.4375 34.721874 305.8125 33.846874Q305.20312 32.95625 305.20312 31.846874L306.90625 31.846874Q306.90625 33.003124 307.75 33.675Q308.60938 34.346874 310.04688 34.346874Q311.375 34.346874 312.09375 33.8Q312.8125 33.253124 312.8125 32.315624Q312.8125 31.378124 312.14062 30.8625Q311.48438 30.346874 309.75 29.846874ZM322.60938 35.55Q322.46875 35.26875 322.375 34.55Q321.23438 35.721874 319.67188 35.721874Q318.26562 35.721874 317.35938 34.925Q316.45312 34.128124 316.45312 32.909374Q316.45312 31.425 317.57812 30.6125Q318.71875 29.784374 320.76562 29.784374L322.34375 29.784374L322.34375 29.034374Q322.34375 28.190624 321.82812 27.690624Q321.32812 27.175 320.32812 27.175Q319.46875 27.175 318.875 27.6125Q318.28125 28.05 318.28125 28.675L316.65625 28.675Q316.65625 27.971874 317.15625 27.315624Q317.65625 26.64375 318.51562 26.253124Q319.39062 25.8625 320.4375 25.8625Q322.07812 25.8625 323.0 26.690624Q323.9375 27.503124 323.96875 28.95625L323.96875 33.33125Q323.96875 34.628124 324.3125 35.409374L324.3125 35.55L322.60938 35.55ZM319.90625 34.315624Q320.67188 34.315624 321.35938 33.925Q322.04688 33.51875 322.34375 32.89375L322.34375 30.940624L321.07812 30.940624Q318.07812 30.940624 318.07812 32.690624Q318.07812 33.45625 318.59375 33.89375Q319.10938 34.315624 319.90625 34.315624ZM329.875 33.346874L332.21875 26.034374L333.89062 26.034374L330.46875 35.55L329.23438 35.55L325.79688 26.034374L327.45312 26.034374L329.875 33.346874ZM337.5 35.55L335.875 35.55L335.875 26.034374L337.5 26.034374L337.5 35.55ZM335.73438 23.51875Q335.73438 23.128124 335.96875 22.8625Q336.21875 22.58125 336.6875 22.58125Q337.17188 22.58125 337.42188 22.8625Q337.67188 23.128124 337.67188 23.51875Q337.67188 23.909374 337.42188 24.175Q337.17188 24.440624 336.6875 24.440624Q336.21875 24.440624 335.96875 24.175Q335.73438 23.909374 335.73438 23.51875ZM341.26562 26.034374L341.32812 27.2375Q342.40625 25.8625 344.17188 25.8625Q347.1875 25.8625 347.20312 29.26875L347.20312 35.55L345.57812 35.55L345.57812 29.253124Q345.57812 28.221874 345.10938 27.7375Q344.65625 27.2375 343.67188 27.2375Q342.89062 27.2375 342.28125 27.659374Q341.6875 28.08125 341.35938 28.76875L341.35938 35.55L339.73438 35.55L339.73438 26.034374L341.26562 26.034374ZM349.34375 30.721874Q349.34375 28.4875 350.375 27.175Q351.40625 25.8625 353.09375 25.8625Q354.84375 25.8625 355.8125 27.096874L355.89062 26.034374L357.375 26.034374L357.375 35.315624Q357.375 37.175 356.28125 38.2375Q355.1875 39.3 353.34375 39.3Q352.3125 39.3 351.32812 38.846874Q350.34375 38.409374 349.82812 37.64375L350.67188 36.675Q351.71875 37.971874 353.23438 37.971874Q354.42188 37.971874 355.07812 37.3Q355.75 36.628124 355.75 35.425L355.75 34.596874Q354.76562 35.721874 353.07812 35.721874Q351.40625 35.721874 350.375 34.378124Q349.34375 33.034374 349.34375 30.721874ZM350.98438 30.89375Q350.98438 32.503124 351.64062 33.425Q352.29688 34.346874 353.48438 34.346874Q355.01562 34.346874 355.75 32.940624L355.75 28.6125Q355.0 27.2375 353.5 27.2375Q352.3125 27.2375 351.64062 28.175Q350.98438 29.096874 350.98438 30.89375ZM365.26562 33.034374Q365.26562 32.3625 364.76562 32.003124Q364.28125 31.64375 363.04688 31.378124Q361.8125 31.1125 361.07812 30.753124Q360.35938 30.378124 360.0 29.8625Q359.65625 29.346874 359.65625 28.64375Q359.65625 27.4875 360.64062 26.675Q361.64062 25.8625 363.17188 25.8625Q364.79688 25.8625 365.79688 26.70625Q366.8125 27.534374 366.8125 28.83125L365.17188 28.83125Q365.17188 28.159374 364.59375 27.690624Q364.03125 27.20625 363.17188 27.20625Q362.28125 27.20625 361.78125 27.596874Q361.28125 27.971874 361.28125 28.596874Q361.28125 29.190624 361.75 29.4875Q362.21875 29.784374 363.4375 30.065624Q364.65625 30.33125 365.40625 30.70625Q366.17188 31.08125 366.53125 31.6125Q366.89062 32.14375 366.89062 32.909374Q366.89062 34.190624 365.875 34.95625Q364.85938 35.721874 363.23438 35.721874Q362.09375 35.721874 361.20312 35.315624Q360.32812 34.909374 359.82812 34.190624Q359.32812 33.471874 359.32812 32.628124L360.96875 32.628124Q361.0 33.440624 361.60938 33.925Q362.23438 34.39375 363.23438 34.39375Q364.15625 34.39375 364.70312 34.01875Q365.26562 33.64375 365.26562 33.034374Z" fill-rule="nonzero"/></svg>