<?xml version="1.0" encoding="UTF-8" standalone="no"?>
<svg
   xmlns:dc="http://purl.org/dc/elements/1.1/"
   xmlns:cc="http://creativecommons.org/ns#"
   xmlns:rdf="http://www.w3.org/1999/02/22-rdf-syntax-ns#"
   xmlns:svg="http://www.w3.org/2000/svg"
   xmlns="http://www.w3.org/2000/svg"
   xmlns:sodipodi="http://sodipodi.sourceforge.net/DTD/sodipodi-0.dtd"
   xmlns:inkscape="http://www.inkscape.org/namespaces/inkscape"
   version="1.1"
   viewBox="0.0 0.0 600.0 371.0"
   fill="none"
   stroke="none"
   stroke-linecap="square"
   stroke-miterlimit="10"
   width="600"
   height="371"
   id="svg77"
   sodipodi:docname="chart.svg"
   inkscape:version="0.92.4 (5da689c313, 2019-01-14)">
  <metadata
     id="metadata83">
    <rdf:RDF>
      <cc:Work
         rdf:about="">
        <dc:format>image/svg+xml</dc:format>
        <dc:type
           rdf:resource="http://purl.org/dc/dcmitype/StillImage" />
      </cc:Work>
    </rdf:RDF>
  </metadata>
  <defs
     id="defs81" />
  <sodipodi:namedview
     pagecolor="#ffffff"
     bordercolor="#666666"
     borderopacity="1"
     objecttolerance="10"
     gridtolerance="10"
     guidetolerance="10"
     inkscape:pageopacity="0"
     inkscape:pageshadow="2"
     inkscape:window-width="1920"
     inkscape:window-height="986"
     id="namedview79"
     showgrid="false"
     inkscape:zoom="0.89960755"
     inkscape:cx="344.367"
     inkscape:cy="166.41543"
     inkscape:window-x="-11"
     inkscape:window-y="-11"
     inkscape:window-maximized="1"
     inkscape:current-layer="svg77" />
  <path
     fill="#ffffff"
     d="M0 0L600.0 0L600.0 371.0L0 371.0L0 0Z"
     fill-rule="nonzero"
     id="path2" />
  <path
     stroke="#333333"
     stroke-width="1.0"
     stroke-linecap="butt"
     d="M47.5 331.5L581.5 331.5"
     fill-rule="nonzero"
     id="path4" />
  <path
     stroke="#ffffff"
     stroke-width="1.0"
     stroke-linecap="butt"
     d="M47.5 262.5L581.5 262.5"
     fill-rule="nonzero"
     id="path6" />
  <path
     stroke="#ffffff"
     stroke-width="1.0"
     stroke-linecap="butt"
     d="M47.5 193.5L581.5 193.5"
     fill-rule="nonzero"
     id="path8" />
  <path
     stroke="#ffffff"
     stroke-width="1.0"
     stroke-linecap="butt"
     d="M47.5 125.5L581.5 125.5"
     fill-rule="nonzero"
     id="path10" />
  <path
     stroke="#ffffff"
     stroke-width="1.0"
     stroke-linecap="butt"
     d="M47.5 56.5L581.5 56.5"
     fill-rule="nonzero"
     id="path12" />
  <clipPath
     id="id_0">
    <path
       d="M47.55 56.416668L581.45 56.416668L581.45 331.45L47.55 331.45L47.55 56.416668Z"
       clip-rule="nonzero"
       id="path14" />
  </clipPath>
  <path
     stroke="#000000"
     stroke-width="0.0"
     stroke-linecap="butt"
     stroke-opacity="0.0"
     clip-path="url(#id_0)"
     d="M275.0 331.0L127.0 331.0L127.0 111.0L275.0 111.0Z"
     fill-rule="nonzero"
     id="path17" />
  <path
     fill="#d9d9d9"
     clip-path="url(#id_0)"
     d="M275.0 331.0L127.0 331.0L127.0 111.0L275.0 111.0Z"
     fill-rule="nonzero"
     id="path19" />
  <path
     stroke="#000000"
     stroke-width="0.0"
     stroke-linecap="butt"
     stroke-opacity="0.0"
     clip-path="url(#id_0)"
     d="M502.0 331.0L354.0 331.0L354.0 194.0L502.0 194.0Z"
     fill-rule="nonzero"
     id="path21" />
  <path
     fill="#d9d9d9"
     clip-path="url(#id_0)"
     d="M502.0 331.0L354.0 331.0L354.0 194.0L502.0 194.0Z"
     fill-rule="nonzero"
     id="path23" />
  <path
     stroke="#000000"
     stroke-width="0.0"
     stroke-linecap="butt"
     stroke-opacity="0.0"
     clip-path="url(#id_0)"
     d="M275.0 111.0L127.0 111.0L127.0 111.0L275.0 111.0Z"
     fill-rule="nonzero"
     id="path25" />
  <path
     fill="#3b61e3"
     clip-path="url(#id_0)"
     d="M275.0 111.0L127.0 111.0L127.0 111.0L275.0 111.0Z"
     fill-rule="nonzero"
     id="path27" />
  <path
     stroke="#000000"
     stroke-width="0.0"
     stroke-linecap="butt"
     stroke-opacity="0.0"
     clip-path="url(#id_0)"
     d="M502.0 194.0L354.0 194.0L354.0 113.0C354.0 111.89543 354.89542 111.0 356.0 111.0L500.0 111.0C501.10458 111.0 502.0 111.89543 502.0 113.0Z"
     fill-rule="nonzero"
     id="path29" />
  <path
     clip-path="url(#id_0)"
     d="M502.0 194.0L354.0 194.0L354.0 113.0C354.0 111.89543 354.89542 111.0 356.0 111.0L500.0 111.0C501.10458 111.0 502.0 111.89543 502.0 113.0Z"
     id="path31"
     fill-rule="nonzero"
     fill="#3b61e3" />
  <path
     stroke="#d9d9d9"
     stroke-width="3.0"
     stroke-linejoin="round"
     stroke-linecap="round"
     d="M427.40625 268.19168L419.95312 268.19168L419.95312 267.1448L423.89062 262.7698Q424.76562 261.78543 425.09375 261.16043Q425.42188 260.53543 425.42188 259.87918Q425.42188 258.98856 424.875 258.42606Q424.34375 257.84793 423.45312 257.84793Q422.375 257.84793 421.76562 258.4573Q421.17188 259.06668 421.17188 260.16043L419.73438 260.16043Q419.73438 258.59793 420.73438 257.62918Q421.75 256.66043 423.45312 256.66043Q425.03125 256.66043 425.95312 257.48856Q426.875 258.31668 426.875 259.7073Q426.875 261.37918 424.73438 263.7073L421.6875 267.00418L427.40625 267.00418L427.40625 268.19168ZM436.07812 263.3323Q436.07812 265.87918 435.20312 267.11356Q434.34375 268.34793 432.5 268.34793Q430.6875 268.34793 429.8125 267.1448Q428.9375 265.92606 428.90625 263.53543L428.90625 261.59793Q428.90625 259.09793 429.76562 257.87918Q430.64062 256.66043 432.48438 256.66043Q434.32812 256.66043 435.1875 257.8323Q436.0625 259.00418 436.07812 261.4573L436.07812 263.3323ZM434.64062 261.36356Q434.64062 259.5198 434.125 258.69168Q433.60938 257.84793 432.48438 257.84793Q431.375 257.84793 430.85938 258.69168Q430.35938 259.5198 430.34375 261.25418L430.34375 263.56668Q430.34375 265.41043 430.875 266.28543Q431.42188 267.16043 432.5 267.16043Q433.57812 267.16043 434.09375 266.3323Q434.60938 265.50418 434.64062 263.72293L434.64062 261.36356Z"
     fill-rule="nonzero"
     id="path37" />
  <path
     stroke="#3b61e3"
     stroke-width="3.0"
     stroke-linejoin="round"
     stroke-linecap="round"
     d="M424.70312 158.17833L423.25 158.17833L423.25 148.5377L420.32812 149.61583L420.32812 148.30333L424.46875 146.74083L424.70312 146.74083L424.70312 158.17833ZM436.40625 158.17833L428.95312 158.17833L428.95312 157.13145L432.89062 152.75645Q433.76562 151.77208 434.09375 151.14708Q434.42188 150.52208 434.42188 149.86583Q434.42188 148.9752 433.875 148.4127Q433.34375 147.83458 432.45312 147.83458Q431.375 147.83458 430.76562 148.44395Q430.17188 149.05333 430.17188 150.14708L428.73438 150.14708Q428.73438 148.58458 429.73438 147.61583Q430.75 146.64708 432.45312 146.64708Q434.03125 146.64708 434.95312 147.4752Q435.875 148.30333 435.875 149.69395Q435.875 151.36583 433.73438 153.69395L430.6875 156.99083L436.40625 156.99083L436.40625 158.17833Z"
     fill-rule="nonzero"
     id="path45" />
  <path
     fill="#000000"
     d="M28.7375 333.1219Q28.7375 332.66876 28.409374 332.3719Q28.096874 332.0594 27.346874 331.8094Q26.315624 331.48126 25.83125 330.98126Q25.3625 330.46564 25.3625 329.6844Q25.3625 328.8875 25.83125 328.3719Q26.3 327.85626 27.1125 327.7625L27.1125 326.6844L27.83125 326.6844L27.83125 327.7625Q28.659374 327.8719 29.1125 328.45Q29.565624 329.02814 29.565624 330.02814L28.675 330.02814Q28.675 329.34064 28.346874 328.9344Q28.01875 328.52814 27.45625 328.52814Q26.878124 328.52814 26.565624 328.825Q26.26875 329.1219 26.26875 329.66876Q26.26875 330.16876 26.58125 330.46564Q26.909374 330.7625 27.659374 330.9969Q28.409374 331.23126 28.815624 331.52814Q29.2375 331.825 29.425 332.21564Q29.628124 332.59064 29.628124 333.10626Q29.628124 333.9344 29.128124 334.4344Q28.64375 334.9344 27.753124 335.02814L27.753124 335.96564L27.01875 335.96564L27.01875 335.02814Q26.1125 334.95 25.596874 334.3875Q25.08125 333.825 25.08125 332.85626L25.9875 332.85626Q25.9875 333.52814 26.346874 333.90314Q26.70625 334.2625 27.3625 334.2625Q28.003124 334.2625 28.3625 333.96564Q28.7375 333.65314 28.7375 333.1219ZM35.596874 331.91876Q35.596874 333.4969 35.05 334.27814Q34.51875 335.04376 33.3625 335.04376Q32.221874 335.04376 31.675 334.29376Q31.128124 333.54376 31.1125 332.04376L31.1125 330.84064Q31.1125 329.2625 31.64375 328.5125Q32.190624 327.7469 33.346874 327.7469Q34.503124 327.7469 35.034374 328.48126Q35.58125 329.21564 35.596874 330.7469L35.596874 331.91876ZM34.690624 330.6844Q34.690624 329.52814 34.3625 329.0125Q34.05 328.48126 33.346874 328.48126Q32.659374 328.48126 32.33125 329.0125Q32.01875 329.52814 32.01875 330.60626L32.01875 332.0594Q32.01875 333.21564 32.346874 333.7625Q32.690624 334.3094 33.3625 334.3094Q34.034374 334.3094 34.346874 333.79376Q34.675 333.27814 34.690624 332.16876L34.690624 330.6844ZM39.175 331.6375L38.315624 332.54376L38.315624 334.95L37.378124 334.95L37.378124 327.84064L38.315624 327.84064L38.315624 331.35626L41.471874 327.84064L42.6125 327.84064L39.8 330.98126L42.83125 334.95L41.70625 334.95L39.175 331.6375Z"
     fill-rule="nonzero"
     id="path49" />
  <path
     fill="#000000"
     d="M22.7375 264.36356Q22.7375 263.91043 22.409374 263.61356Q22.096874 263.30106 21.346874 263.05106Q20.315624 262.72293 19.83125 262.22293Q19.3625 261.7073 19.3625 260.92606Q19.3625 260.12918 19.83125 259.61356Q20.3 259.09793 21.1125 259.00418L21.1125 257.92606L21.83125 257.92606L21.83125 259.00418Q22.659374 259.11356 23.1125 259.69168Q23.565624 260.2698 23.565624 261.2698L22.675 261.2698Q22.675 260.5823 22.346874 260.17606Q22.01875 259.7698 21.45625 259.7698Q20.878124 259.7698 20.565624 260.06668Q20.26875 260.36356 20.26875 260.91043Q20.26875 261.41043 20.58125 261.7073Q20.909374 262.00418 21.659374 262.23856Q22.409374 262.47293 22.815624 262.7698Q23.2375 263.06668 23.425 263.4573Q23.628124 263.8323 23.628124 264.34793Q23.628124 265.17606 23.128124 265.67606Q22.64375 266.17606 21.753124 266.2698L21.753124 267.2073L21.01875 267.2073L21.01875 266.2698Q20.1125 266.19168 19.596874 265.62918Q19.08125 265.06668 19.08125 264.09793L19.9875 264.09793Q19.9875 264.7698 20.346874 265.1448Q20.70625 265.50418 21.3625 265.50418Q22.003124 265.50418 22.3625 265.2073Q22.7375 264.8948 22.7375 264.36356ZM28.1125 266.19168L27.20625 266.19168L27.20625 260.17606L25.378124 260.8323L25.378124 260.0198L27.971874 259.05106L28.1125 259.05106L28.1125 266.19168ZM35.596874 263.16043Q35.596874 264.73856 35.05 265.5198Q34.51875 266.28543 33.3625 266.28543Q32.221874 266.28543 31.675 265.53543Q31.128124 264.78543 31.1125 263.28543L31.1125 262.0823Q31.1125 260.50418 31.64375 259.75418Q32.190624 258.98856 33.346874 258.98856Q34.503124 258.98856 35.034374 259.72293Q35.58125 260.4573 35.596874 261.98856L35.596874 263.16043ZM34.690624 261.92606Q34.690624 260.7698 34.3625 260.25418Q34.05 259.72293 33.346874 259.72293Q32.659374 259.72293 32.33125 260.25418Q32.01875 260.7698 32.01875 261.84793L32.01875 263.30106Q32.01875 264.4573 32.346874 265.00418Q32.690624 265.55106 33.3625 265.55106Q34.034374 265.55106 34.346874 265.03543Q34.675 264.5198 34.690624 263.41043L34.690624 261.92606ZM39.175 262.87918L38.315624 263.78543L38.315624 266.19168L37.378124 266.19168L37.378124 259.0823L38.315624 259.0823L38.315624 262.59793L41.471874 259.0823L42.6125 259.0823L39.8 262.22293L42.83125 266.19168L41.70625 266.19168L39.175 262.87918Z"
     fill-rule="nonzero"
     id="path51" />
  <path
     fill="#000000"
     d="M22.7375 195.60521Q22.7375 195.15208 22.409374 194.85521Q22.096874 194.54271 21.346874 194.29271Q20.315624 193.96458 19.83125 193.46458Q19.3625 192.94896 19.3625 192.16771Q19.3625 191.37083 19.83125 190.85521Q20.3 190.33958 21.1125 190.24583L21.1125 189.16771L21.83125 189.16771L21.83125 190.24583Q22.659374 190.35521 23.1125 190.93333Q23.565624 191.51146 23.565624 192.51146L22.675 192.51146Q22.675 191.82396 22.346874 191.41771Q22.01875 191.01146 21.45625 191.01146Q20.878124 191.01146 20.565624 191.30833Q20.26875 191.60521 20.26875 192.15208Q20.26875 192.65208 20.58125 192.94896Q20.909374 193.24583 21.659374 193.48021Q22.409374 193.71458 22.815624 194.01146Q23.2375 194.30833 23.425 194.69896Q23.628124 195.07396 23.628124 195.58958Q23.628124 196.41771 23.128124 196.91771Q22.64375 197.41771 21.753124 197.51146L21.753124 198.44896L21.01875 198.44896L21.01875 197.51146Q20.1125 197.43333 19.596874 196.87083Q19.08125 196.30833 19.08125 195.33958L19.9875 195.33958Q19.9875 196.01146 20.346874 196.38646Q20.70625 196.74583 21.3625 196.74583Q22.003124 196.74583 22.3625 196.44896Q22.7375 196.13646 22.7375 195.60521ZM29.8 197.43333L25.14375 197.43333L25.14375 196.77708L27.596874 194.04271Q28.14375 193.43333 28.346874 193.04271Q28.565624 192.65208 28.565624 192.23021Q28.565624 191.68333 28.221874 191.32396Q27.89375 190.96458 27.33125 190.96458Q26.659374 190.96458 26.284374 191.35521Q25.909374 191.73021 25.909374 192.41771L25.003124 192.41771Q25.003124 191.43333 25.628124 190.83958Q26.26875 190.23021 27.33125 190.23021Q28.315624 190.23021 28.89375 190.74583Q29.471874 191.26146 29.471874 192.13646Q29.471874 193.18333 28.128124 194.63646L26.2375 196.69896L29.8 196.69896L29.8 197.43333ZM35.596874 194.40208Q35.596874 195.98021 35.05 196.76146Q34.51875 197.52708 33.3625 197.52708Q32.221874 197.52708 31.675 196.77708Q31.128124 196.02708 31.1125 194.52708L31.1125 193.32396Q31.1125 191.74583 31.64375 190.99583Q32.190624 190.23021 33.346874 190.23021Q34.503124 190.23021 35.034374 190.96458Q35.58125 191.69896 35.596874 193.23021L35.596874 194.40208ZM34.690624 193.16771Q34.690624 192.01146 34.3625 191.49583Q34.05 190.96458 33.346874 190.96458Q32.659374 190.96458 32.33125 191.49583Q32.01875 192.01146 32.01875 193.08958L32.01875 194.54271Q32.01875 195.69896 32.346874 196.24583Q32.690624 196.79271 33.3625 196.79271Q34.034374 196.79271 34.346874 196.27708Q34.675 195.76146 34.690624 194.65208L34.690624 193.16771ZM39.175 194.12083L38.315624 195.02708L38.315624 197.43333L37.378124 197.43333L37.378124 190.32396L38.315624 190.32396L38.315624 193.83958L41.471874 190.32396L42.6125 190.32396L39.8 193.46458L42.83125 197.43333L41.70625 197.43333L39.175 194.12083Z"
     fill-rule="nonzero"
     id="path53" />
  <path
     fill="#000000"
     d="M22.7375 126.84688Q22.7375 126.39375 22.409374 126.09688Q22.096874 125.78438 21.346874 125.53438Q20.315624 125.20625 19.83125 124.70625Q19.3625 124.19063 19.3625 123.40938Q19.3625 122.6125 19.83125 122.09688Q20.3 121.58125 21.1125 121.4875L21.1125 120.40938L21.83125 120.40938L21.83125 121.4875Q22.659374 121.59688 23.1125 122.175Q23.565624 122.75313 23.565624 123.75313L22.675 123.75313Q22.675 123.06563 22.346874 122.65938Q22.01875 122.25313 21.45625 122.25313Q20.878124 122.25313 20.565624 122.55Q20.26875 122.84688 20.26875 123.39375Q20.26875 123.89375 20.58125 124.19063Q20.909374 124.4875 21.659374 124.72188Q22.409374 124.95625 22.815624 125.25313Q23.2375 125.55 23.425 125.94063Q23.628124 126.31563 23.628124 126.83125Q23.628124 127.65938 23.128124 128.15938Q22.64375 128.65938 21.753124 128.75313L21.753124 129.69063L21.01875 129.69063L21.01875 128.75313Q20.1125 128.675 19.596874 128.1125Q19.08125 127.55 19.08125 126.58125L19.9875 126.58125Q19.9875 127.25313 20.346874 127.62813Q20.70625 127.9875 21.3625 127.9875Q22.003124 127.9875 22.3625 127.69063Q22.7375 127.37813 22.7375 126.84688ZM26.45625 124.675L27.128124 124.675Q27.76875 124.675 28.128124 124.34688Q28.503124 124.01875 28.503124 123.45625Q28.503124 122.20625 27.253124 122.20625Q26.675 122.20625 26.315624 122.55Q25.971874 122.87813 25.971874 123.425L25.065624 123.425Q25.065624 122.58125 25.690624 122.03438Q26.315624 121.47188 27.253124 121.47188Q28.26875 121.47188 28.83125 122.00313Q29.409374 122.53438 29.409374 123.47188Q29.409374 123.94063 29.1125 124.37813Q28.815624 124.81563 28.284374 125.03438Q28.878124 125.20625 29.190624 125.64375Q29.51875 126.06563 29.51875 126.69063Q29.51875 127.64375 28.89375 128.20625Q28.26875 128.76875 27.26875 128.76875Q26.26875 128.76875 25.628124 128.2375Q25.003124 127.69063 25.003124 126.8L25.925 126.8Q25.925 127.3625 26.284374 127.70625Q26.64375 128.03438 27.26875 128.03438Q27.925 128.03438 28.26875 127.69063Q28.6125 127.34688 28.6125 126.70625Q28.6125 126.09688 28.221874 125.76875Q27.846874 125.425 27.128124 125.425L26.45625 125.425L26.45625 124.675ZM35.596874 125.64375Q35.596874 127.22188 35.05 128.00313Q34.51875 128.76875 33.3625 128.76875Q32.221874 128.76875 31.675 128.01875Q31.128124 127.26875 31.1125 125.76875L31.1125 124.56563Q31.1125 122.9875 31.64375 122.2375Q32.190624 121.47188 33.346874 121.47188Q34.503124 121.47188 35.034374 122.20625Q35.58125 122.94063 35.596874 124.47188L35.596874 125.64375ZM34.690624 124.40938Q34.690624 123.25313 34.3625 122.7375Q34.05 122.20625 33.346874 122.20625Q32.659374 122.20625 32.33125 122.7375Q32.01875 123.25313 32.01875 124.33125L32.01875 125.78438Q32.01875 126.94063 32.346874 127.4875Q32.690624 128.03438 33.3625 128.03438Q34.034374 128.03438 34.346874 127.51875Q34.675 127.00313 34.690624 125.89375L34.690624 124.40938ZM39.175 125.3625L38.315624 126.26875L38.315624 128.675L37.378124 128.675L37.378124 121.56563L38.315624 121.56563L38.315624 125.08125L41.471874 121.56563L42.6125 121.56563L39.8 124.70625L42.83125 128.675L41.70625 128.675L39.175 125.3625Z"
     fill-rule="nonzero"
     id="path55" />
  <path
     fill="#000000"
     d="M22.7375 58.088543Q22.7375 57.635418 22.409374 57.338543Q22.096874 57.026043 21.346874 56.776043Q20.315624 56.447918 19.83125 55.947918Q19.3625 55.432293 19.3625 54.651043Q19.3625 53.854168 19.83125 53.338543Q20.3 52.822918 21.1125 52.729168L21.1125 51.651043L21.83125 51.651043L21.83125 52.729168Q22.659374 52.838543 23.1125 53.416668Q23.565624 53.994793 23.565624 54.994793L22.675 54.994793Q22.675 54.307293 22.346874 53.901043Q22.01875 53.494793 21.45625 53.494793Q20.878124 53.494793 20.565624 53.791668Q20.26875 54.088543 20.26875 54.635418Q20.26875 55.135418 20.58125 55.432293Q20.909374 55.729168 21.659374 55.963543Q22.409374 56.197918 22.815624 56.494793Q23.2375 56.791668 23.425 57.182293Q23.628124 57.557293 23.628124 58.072918Q23.628124 58.901043 23.128124 59.401043Q22.64375 59.901043 21.753124 59.994793L21.753124 60.932293L21.01875 60.932293L21.01875 59.994793Q20.1125 59.916668 19.596874 59.354168Q19.08125 58.791668 19.08125 57.822918L19.9875 57.822918Q19.9875 58.494793 20.346874 58.869793Q20.70625 59.229168 21.3625 59.229168Q22.003124 59.229168 22.3625 58.932293Q22.7375 58.619793 22.7375 58.088543ZM28.95625 57.526043L29.940624 57.526043L29.940624 58.260418L28.95625 58.260418L28.95625 59.916668L28.05 59.916668L28.05 58.260418L24.815624 58.260418L24.815624 57.729168L27.9875 52.807293L28.95625 52.807293L28.95625 57.526043ZM25.83125 57.526043L28.05 57.526043L28.05 54.041668L27.940624 54.244793L25.83125 57.526043ZM35.596874 56.885418Q35.596874 58.463543 35.05 59.244793Q34.51875 60.010418 33.3625 60.010418Q32.221874 60.010418 31.675 59.260418Q31.128124 58.510418 31.1125 57.010418L31.1125 55.807293Q31.1125 54.229168 31.64375 53.479168Q32.190624 52.713543 33.346874 52.713543Q34.503124 52.713543 35.034374 53.447918Q35.58125 54.182293 35.596874 55.713543L35.596874 56.885418ZM34.690624 55.651043Q34.690624 54.494793 34.3625 53.979168Q34.05 53.447918 33.346874 53.447918Q32.659374 53.447918 32.33125 53.979168Q32.01875 54.494793 32.01875 55.572918L32.01875 57.026043Q32.01875 58.182293 32.346874 58.729168Q32.690624 59.276043 33.3625 59.276043Q34.034374 59.276043 34.346874 58.760418Q34.675 58.244793 34.690624 57.135418L34.690624 55.651043ZM39.175 56.604168L38.315624 57.510418L38.315624 59.916668L37.378124 59.916668L37.378124 52.807293L38.315624 52.807293L38.315624 56.322918L41.471874 52.807293L42.6125 52.807293L39.8 55.947918L42.83125 59.916668L41.70625 59.916668L39.175 56.604168Z"
     fill-rule="nonzero"
     id="path57" />
  <path
     fill="#000000"
     d="M186.60738 345.6844L183.01363 345.6844L183.01363 349.45L181.88863 349.45L181.88863 340.91876L187.1855 340.91876L187.1855 341.84064L183.01363 341.84064L183.01363 344.7625L186.60738 344.7625L186.60738 345.6844ZM191.35738 349.575Q190.0605 349.575 189.248 348.73126Q188.45113 347.8719 188.45113 346.45L188.45113 346.2625Q188.45113 345.3094 188.8105 344.575Q189.16988 343.825 189.8105 343.41876Q190.46675 342.9969 191.21675 342.9969Q192.45113 342.9969 193.13863 343.8094Q193.82613 344.6219 193.82613 346.1375L193.82613 346.59064L189.52925 346.59064Q189.5605 347.52814 190.07613 348.10626Q190.60738 348.6844 191.41988 348.6844Q191.98238 348.6844 192.373 348.45Q192.77925 348.21564 193.09175 347.825L193.748 348.34064Q192.95113 349.575 191.35738 349.575ZM191.21675 343.8875Q190.5605 343.8875 190.10738 344.3719Q189.66988 344.84064 189.57613 345.7L192.748 345.7L192.748 345.6219Q192.70113 344.79376 192.29488 344.34064Q191.90425 343.8875 191.21675 343.8875ZM194.46675 346.23126Q194.46675 344.7625 195.15425 343.8875Q195.84175 342.9969 196.96675 342.9969Q198.07613 342.9969 198.73238 343.7469L198.73238 340.45L199.8105 340.45L199.8105 349.45L198.8105 349.45L198.76363 348.7625Q198.10738 349.575 196.95113 349.575Q195.85738 349.575 195.15425 348.66876Q194.46675 347.7625 194.46675 346.3094L194.46675 346.23126ZM195.54488 346.35626Q195.54488 347.4344 195.98238 348.04376Q196.4355 348.65314 197.21675 348.65314Q198.248 348.65314 198.73238 347.71564L198.73238 344.8094Q198.248 343.91876 197.23238 343.91876Q196.4355 343.91876 195.98238 344.52814Q195.54488 345.1375 195.54488 346.35626ZM204.35738 349.575Q203.0605 349.575 202.248 348.73126Q201.45113 347.8719 201.45113 346.45L201.45113 346.2625Q201.45113 345.3094 201.8105 344.575Q202.16988 343.825 202.8105 343.41876Q203.46675 342.9969 204.21675 342.9969Q205.45113 342.9969 206.13863 343.8094Q206.82613 344.6219 206.82613 346.1375L206.82613 346.59064L202.52925 346.59064Q202.5605 347.52814 203.07613 348.10626Q203.60738 348.6844 204.41988 348.6844Q204.98238 348.6844 205.373 348.45Q205.77925 348.21564 206.09175 347.825L206.748 348.34064Q205.95113 349.575 204.35738 349.575ZM204.21675 343.8875Q203.5605 343.8875 203.10738 344.3719Q202.66988 344.84064 202.57613 345.7L205.748 345.7L205.748 345.6219Q205.70113 344.79376 205.29488 344.34064Q204.90425 343.8875 204.21675 343.8875ZM210.79488 344.075Q210.54488 344.04376 210.26363 344.04376Q209.1855 344.04376 208.8105 344.95L208.8105 349.45L207.73238 349.45L207.73238 343.10626L208.77925 343.10626L208.79488 343.84064Q209.32613 342.9969 210.3105 342.9969Q210.623 342.9969 210.79488 343.075L210.79488 344.075ZM215.63863 349.45Q215.54488 349.2625 215.48238 348.77814Q214.73238 349.575 213.6855 349.575Q212.748 349.575 212.13863 349.04376Q211.54488 348.5125 211.54488 347.6844Q211.54488 346.7 212.29488 346.15314Q213.04488 345.60626 214.41988 345.60626L215.46675 345.60626L215.46675 345.10626Q215.46675 344.54376 215.123 344.21564Q214.79488 343.8719 214.123 343.8719Q213.54488 343.8719 213.15425 344.16876Q212.76363 344.45 212.76363 344.8719L211.66988 344.8719Q211.66988 344.3875 211.998 343.95Q212.34175 343.5125 212.91988 343.2625Q213.498 342.9969 214.1855 342.9969Q215.29488 342.9969 215.90425 343.54376Q216.52925 344.09064 216.5605 345.04376L216.5605 347.96564Q216.5605 348.84064 216.77925 349.35626L216.77925 349.45L215.63863 349.45ZM213.84175 348.6219Q214.35738 348.6219 214.8105 348.35626Q215.26363 348.09064 215.46675 347.66876L215.46675 346.3719L214.623 346.3719Q212.623 346.3719 212.623 347.54376Q212.623 348.04376 212.96675 348.34064Q213.3105 348.6219 213.84175 348.6219ZM219.90425 349.45L218.82613 349.45L218.82613 340.45L219.90425 340.45L219.90425 349.45Z"
     fill-rule="nonzero"
     id="path59" />
  <path
     fill="#000000"
     d="M371.22073 348.52814L375.2676 348.52814L375.2676 349.45L370.0801 349.45L370.0801 340.91876L371.22073 340.91876L371.22073 348.52814ZM378.54886 349.575Q377.25198 349.575 376.43948 348.73126Q375.6426 347.8719 375.6426 346.45L375.6426 346.2625Q375.6426 345.3094 376.00198 344.575Q376.36136 343.825 377.00198 343.41876Q377.65823 342.9969 378.40823 342.9969Q379.6426 342.9969 380.3301 343.8094Q381.0176 344.6219 381.0176 346.1375L381.0176 346.59064L376.72073 346.59064Q376.75198 347.52814 377.2676 348.10626Q377.79886 348.6844 378.61136 348.6844Q379.17386 348.6844 379.56448 348.45Q379.97073 348.21564 380.28323 347.825L380.93948 348.34064Q380.1426 349.575 378.54886 349.575ZM378.40823 343.8875Q377.75198 343.8875 377.29886 344.3719Q376.86136 344.84064 376.7676 345.7L379.93948 345.7L379.93948 345.6219Q379.8926 344.79376 379.48636 344.34064Q379.09573 343.8875 378.40823 343.8875ZM384.00198 347.98126L385.5801 343.10626L386.68948 343.10626L384.40823 349.45L383.5801 349.45L381.28323 343.10626L382.3926 343.10626L384.00198 347.98126ZM390.54886 349.575Q389.25198 349.575 388.43948 348.73126Q387.6426 347.8719 387.6426 346.45L387.6426 346.2625Q387.6426 345.3094 388.00198 344.575Q388.36136 343.825 389.00198 343.41876Q389.65823 342.9969 390.40823 342.9969Q391.6426 342.9969 392.3301 343.8094Q393.0176 344.6219 393.0176 346.1375L393.0176 346.59064L388.72073 346.59064Q388.75198 347.52814 389.2676 348.10626Q389.79886 348.6844 390.61136 348.6844Q391.17386 348.6844 391.56448 348.45Q391.97073 348.21564 392.28323 347.825L392.93948 348.34064Q392.1426 349.575 390.54886 349.575ZM390.40823 343.8875Q389.75198 343.8875 389.29886 344.3719Q388.86136 344.84064 388.7676 345.7L391.93948 345.7L391.93948 345.6219Q391.8926 344.79376 391.48636 344.34064Q391.09573 343.8875 390.40823 343.8875ZM396.98636 344.075Q396.73636 344.04376 396.4551 344.04376Q395.37698 344.04376 395.00198 344.95L395.00198 349.45L393.92386 349.45L393.92386 343.10626L394.97073 343.10626L394.98636 343.84064Q395.5176 342.9969 396.50198 342.9969Q396.81448 342.9969 396.98636 343.075L396.98636 344.075ZM402.90823 345.5125L399.2051 345.5125L399.2051 348.52814L403.50198 348.52814L403.50198 349.45L398.0801 349.45L398.0801 340.91876L403.4551 340.91876L403.4551 341.84064L399.2051 341.84064L399.2051 344.59064L402.90823 344.59064L402.90823 345.5125ZM404.65823 346.23126Q404.65823 344.7625 405.34573 343.8875Q406.03323 342.9969 407.15823 342.9969Q408.2676 342.9969 408.92386 343.7469L408.92386 340.45L410.00198 340.45L410.00198 349.45L409.00198 349.45L408.9551 348.7625Q408.29886 349.575 407.1426 349.575Q406.04886 349.575 405.34573 348.66876Q404.65823 347.7625 404.65823 346.3094L404.65823 346.23126ZM405.73636 346.35626Q405.73636 347.4344 406.17386 348.04376Q406.62698 348.65314 407.40823 348.65314Q408.43948 348.65314 408.92386 347.71564L408.92386 344.8094Q408.43948 343.91876 407.42386 343.91876Q406.62698 343.91876 406.17386 344.52814Q405.73636 345.1375 405.73636 346.35626ZM411.65823 346.23126Q411.65823 344.7469 412.34573 343.8719Q413.03323 342.9969 414.15823 342.9969Q415.31448 342.9969 415.97073 343.8094L416.0176 343.10626L417.0176 343.10626L417.0176 349.29376Q417.0176 350.52814 416.28323 351.23126Q415.54886 351.95 414.3301 351.95Q413.6426 351.95 412.98636 351.65314Q412.3301 351.35626 411.98636 350.85626L412.54886 350.2Q413.23636 351.0594 414.25198 351.0594Q415.03323 351.0594 415.47073 350.60626Q415.92386 350.16876 415.92386 349.35626L415.92386 348.8094Q415.2676 349.575 414.1426 349.575Q413.03323 349.575 412.34573 348.6844Q411.65823 347.77814 411.65823 346.23126ZM412.75198 346.35626Q412.75198 347.41876 413.18948 348.04376Q413.62698 348.65314 414.42386 348.65314Q415.43948 348.65314 415.92386 347.71564L415.92386 344.825Q415.42386 343.91876 414.42386 343.91876Q413.6426 343.91876 413.18948 344.52814Q412.75198 345.1375 412.75198 346.35626ZM421.54886 349.575Q420.25198 349.575 419.43948 348.73126Q418.6426 347.8719 418.6426 346.45L418.6426 346.2625Q418.6426 345.3094 419.00198 344.575Q419.36136 343.825 420.00198 343.41876Q420.65823 342.9969 421.40823 342.9969Q422.6426 342.9969 423.3301 343.8094Q424.0176 344.6219 424.0176 346.1375L424.0176 346.59064L419.72073 346.59064Q419.75198 347.52814 420.2676 348.10626Q420.79886 348.6844 421.61136 348.6844Q422.17386 348.6844 422.56448 348.45Q422.97073 348.21564 423.28323 347.825L423.93948 348.34064Q423.1426 349.575 421.54886 349.575ZM421.40823 343.8875Q420.75198 343.8875 420.29886 344.3719Q419.86136 344.84064 419.7676 345.7L422.93948 345.7L422.93948 345.6219Q422.8926 344.79376 422.48636 344.34064Q422.09573 343.8875 421.40823 343.8875ZM434.6426 349.45L433.5176 349.45L429.22073 342.8719L429.22073 349.45L428.0801 349.45L428.0801 340.91876L429.22073 340.91876L433.5176 347.52814L433.5176 340.91876L434.6426 340.91876L434.6426 349.45ZM439.54886 349.575Q438.25198 349.575 437.43948 348.73126Q436.6426 347.8719 436.6426 346.45L436.6426 346.2625Q436.6426 345.3094 437.00198 344.575Q437.36136 343.825 438.00198 343.41876Q438.65823 342.9969 439.40823 342.9969Q440.6426 342.9969 441.3301 343.8094Q442.0176 344.6219 442.0176 346.1375L442.0176 346.59064L437.72073 346.59064Q437.75198 347.52814 438.2676 348.10626Q438.79886 348.6844 439.61136 348.6844Q440.17386 348.6844 440.56448 348.45Q440.97073 348.21564 441.28323 347.825L441.93948 348.34064Q441.1426 349.575 439.54886 349.575ZM439.40823 343.8875Q438.75198 343.8875 438.29886 344.3719Q437.86136 344.84064 437.7676 345.7L440.93948 345.7L440.93948 345.6219Q440.8926 344.79376 440.48636 344.34064Q440.09573 343.8875 439.40823 343.8875ZM442.65823 346.23126Q442.65823 344.7469 443.34573 343.8719Q444.03323 342.9969 445.15823 342.9969Q446.31448 342.9969 446.97073 343.8094L447.0176 343.10626L448.0176 343.10626L448.0176 349.29376Q448.0176 350.52814 447.28323 351.23126Q446.54886 351.95 445.3301 351.95Q444.6426 351.95 443.98636 351.65314Q443.3301 351.35626 442.98636 350.85626L443.54886 350.2Q444.23636 351.0594 445.25198 351.0594Q446.03323 351.0594 446.47073 350.60626Q446.92386 350.16876 446.92386 349.35626L446.92386 348.8094Q446.2676 349.575 445.1426 349.575Q444.03323 349.575 443.34573 348.6844Q442.65823 347.77814 442.65823 346.23126ZM443.75198 346.35626Q443.75198 347.41876 444.18948 348.04376Q444.62698 348.65314 445.42386 348.65314Q446.43948 348.65314 446.92386 347.71564L446.92386 344.825Q446.42386 343.91876 445.42386 343.91876Q444.6426 343.91876 444.18948 344.52814Q443.75198 345.1375 443.75198 346.35626ZM449.62698 346.21564Q449.62698 345.29376 449.98636 344.54376Q450.36136 343.79376 451.0176 343.40314Q451.67386 342.9969 452.50198 342.9969Q453.79886 342.9969 454.59573 343.8875Q455.40823 344.77814 455.40823 346.27814L455.40823 346.35626Q455.40823 347.27814 455.04886 348.0125Q454.68948 348.7469 454.03323 349.16876Q453.37698 349.575 452.5176 349.575Q451.23636 349.575 450.42386 348.6844Q449.62698 347.77814 449.62698 346.29376L449.62698 346.21564ZM450.72073 346.35626Q450.72073 347.40314 451.2051 348.04376Q451.7051 348.6844 452.5176 348.6844Q453.34573 348.6844 453.8301 348.04376Q454.31448 347.3875 454.31448 346.21564Q454.31448 345.1844 453.81448 344.54376Q453.3301 343.8875 452.50198 343.8875Q451.7051 343.8875 451.2051 344.52814Q450.72073 345.15314 450.72073 346.35626ZM458.3926 341.575L458.3926 343.10626L459.56448 343.10626L459.56448 343.95L458.3926 343.95L458.3926 347.8719Q458.3926 348.2625 458.54886 348.45Q458.7051 348.6375 459.0801 348.6375Q459.2676 348.6375 459.59573 348.575L459.59573 349.45Q459.17386 349.575 458.7676 349.575Q458.04886 349.575 457.67386 349.1375Q457.29886 348.6844 457.29886 347.8719L457.29886 343.95L456.1426 343.95L456.1426 343.10626L457.29886 343.10626L457.29886 341.575L458.3926 341.575ZM462.09573 349.45L461.0176 349.45L461.0176 343.10626L462.09573 343.10626L462.09573 349.45ZM460.92386 341.4344Q460.92386 341.16876 461.0801 340.98126Q461.25198 340.79376 461.56448 340.79376Q461.87698 340.79376 462.03323 340.98126Q462.2051 341.16876 462.2051 341.4344Q462.2051 341.6844 462.03323 341.8719Q461.87698 342.04376 461.56448 342.04376Q461.25198 342.04376 461.0801 341.8719Q460.92386 341.6844 460.92386 341.4344ZM467.8301 349.45Q467.73636 349.2625 467.67386 348.77814Q466.92386 349.575 465.87698 349.575Q464.93948 349.575 464.3301 349.04376Q463.73636 348.5125 463.73636 347.6844Q463.73636 346.7 464.48636 346.15314Q465.23636 345.60626 466.61136 345.60626L467.65823 345.60626L467.65823 345.10626Q467.65823 344.54376 467.31448 344.21564Q466.98636 343.8719 466.31448 343.8719Q465.73636 343.8719 465.34573 344.16876Q464.9551 344.45 464.9551 344.8719L463.86136 344.8719Q463.86136 344.3875 464.18948 343.95Q464.53323 343.5125 465.11136 343.2625Q465.68948 342.9969 466.37698 342.9969Q467.48636 342.9969 468.09573 343.54376Q468.72073 344.09064 468.75198 345.04376L468.75198 347.96564Q468.75198 348.84064 468.97073 349.35626L468.97073 349.45L467.8301 349.45ZM466.03323 348.6219Q466.54886 348.6219 467.00198 348.35626Q467.4551 348.09064 467.65823 347.66876L467.65823 346.3719L466.81448 346.3719Q464.81448 346.3719 464.81448 347.54376Q464.81448 348.04376 465.15823 348.34064Q465.50198 348.6219 466.03323 348.6219ZM472.3926 341.575L472.3926 343.10626L473.56448 343.10626L473.56448 343.95L472.3926 343.95L472.3926 347.8719Q472.3926 348.2625 472.54886 348.45Q472.7051 348.6375 473.0801 348.6375Q473.2676 348.6375 473.59573 348.575L473.59573 349.45Q473.17386 349.575 472.7676 349.575Q472.04886 349.575 471.67386 349.1375Q471.29886 348.6844 471.29886 347.8719L471.29886 343.95L470.1426 343.95L470.1426 343.10626L471.29886 343.10626L471.29886 341.575L472.3926 341.575ZM477.54886 349.575Q476.25198 349.575 475.43948 348.73126Q474.6426 347.8719 474.6426 346.45L474.6426 346.2625Q474.6426 345.3094 475.00198 344.575Q475.36136 343.825 476.00198 343.41876Q476.65823 342.9969 477.40823 342.9969Q478.6426 342.9969 479.3301 343.8094Q480.0176 344.6219 480.0176 346.1375L480.0176 346.59064L475.72073 346.59064Q475.75198 347.52814 476.2676 348.10626Q476.79886 348.6844 477.61136 348.6844Q478.17386 348.6844 478.56448 348.45Q478.97073 348.21564 479.28323 347.825L479.93948 348.34064Q479.1426 349.575 477.54886 349.575ZM477.40823 343.8875Q476.75198 343.8875 476.29886 344.3719Q475.86136 344.84064 475.7676 345.7L478.93948 345.7L478.93948 345.6219Q478.8926 344.79376 478.48636 344.34064Q478.09573 343.8875 477.40823 343.8875ZM480.65823 346.23126Q480.65823 344.7625 481.34573 343.8875Q482.03323 342.9969 483.15823 342.9969Q484.2676 342.9969 484.92386 343.7469L484.92386 340.45L486.00198 340.45L486.00198 349.45L485.00198 349.45L484.9551 348.7625Q484.29886 349.575 483.1426 349.575Q482.04886 349.575 481.34573 348.66876Q480.65823 347.7625 480.65823 346.3094L480.65823 346.23126ZM481.73636 346.35626Q481.73636 347.4344 482.17386 348.04376Q482.62698 348.65314 483.40823 348.65314Q484.43948 348.65314 484.92386 347.71564L484.92386 344.8094Q484.43948 343.91876 483.42386 343.91876Q482.62698 343.91876 482.17386 344.52814Q481.73636 345.1375 481.73636 346.35626Z"
     fill-rule="nonzero"
     id="path61" />
  <path
     fill="#3b61e3"
     d="M209.0 65.916664C209.0 65.36438 209.44771 64.916664 210.0 64.916664L220.0 64.916664C220.55229 64.916664 221.0 65.36438 221.0 65.916664L221.0 75.916664C221.0 76.46895 220.55229 76.916664 220.0 76.916664L210.0 76.916664C209.44771 76.916664 209.0 76.46895 209.0 75.916664Z"
     fill-rule="nonzero"
     id="path63" />
  <path
     stroke="#ffffff"
     stroke-width="3.0"
     stroke-linejoin="round"
     stroke-linecap="round"
     d="M232.21875 71.43229Q230.89062 71.041664 230.28125 70.49479Q229.67188 69.93229 229.67188 69.11979Q229.67188 68.197914 230.40625 67.604164Q231.15625 66.99479 232.32812 66.99479Q233.14062 66.99479 233.76562 67.30729Q234.40625 67.604164 234.75 68.166664Q235.09375 68.71354 235.09375 69.354164L234.0625 69.354164Q234.0625 68.65104 233.60938 68.24479Q233.15625 67.83854 232.32812 67.83854Q231.57812 67.83854 231.14062 68.18229Q230.71875 68.510414 230.71875 69.104164Q230.71875 69.58854 231.125 69.916664Q231.53125 70.24479 232.5 70.52604Q233.48438 70.791664 234.03125 71.11979Q234.57812 71.447914 234.84375 71.90104Q235.10938 72.33854 235.10938 72.93229Q235.10938 73.885414 234.35938 74.46354Q233.625 75.02604 232.39062 75.02604Q231.57812 75.02604 230.875 74.71354Q230.1875 74.40104 229.8125 73.86979Q229.4375 73.33854 229.4375 72.65104L230.46875 72.65104Q230.46875 73.354164 230.98438 73.77604Q231.51562 74.18229 232.39062 74.18229Q233.20312 74.18229 233.64062 73.854164Q234.07812 73.510414 234.07812 72.947914Q234.07812 72.36979 233.67188 72.05729Q233.26562 71.729164 232.21875 71.43229ZM240.34375 74.916664Q240.25 74.74479 240.20312 74.30729Q239.5 75.02604 238.54688 75.02604Q237.6875 75.02604 237.125 74.541664Q236.57812 74.05729 236.57812 73.30729Q236.57812 72.40104 237.26562 71.90104Q237.96875 71.385414 239.21875 71.385414L240.1875 71.385414L240.1875 70.93229Q240.1875 70.416664 239.875 70.104164Q239.5625 69.791664 238.95312 69.791664Q238.42188 69.791664 238.0625 70.072914Q237.70312 70.33854 237.70312 70.71354L236.70312 70.71354Q236.70312 70.27604 237.01562 69.86979Q237.32812 69.46354 237.84375 69.229164Q238.375 68.99479 239.01562 68.99479Q240.01562 68.99479 240.57812 69.49479Q241.15625 69.99479 241.17188 70.885414L241.17188 73.55729Q241.17188 74.354164 241.375 74.822914L241.375 74.916664L240.34375 74.916664ZM238.6875 74.166664Q239.15625 74.166664 239.57812 73.93229Q240.0 73.68229 240.1875 73.291664L240.1875 72.104164L239.40625 72.104164Q237.57812 72.104164 237.57812 73.166664Q237.57812 73.635414 237.89062 73.90104Q238.20312 74.166664 238.6875 74.166664ZM244.67188 73.572914L246.10938 69.104164L247.125 69.104164L245.04688 74.916664L244.28125 74.916664L242.17188 69.104164L243.1875 69.104164L244.67188 73.572914ZM248.82812 74.916664L247.84375 74.916664L247.84375 69.104164L248.82812 69.104164L248.82812 74.916664ZM247.75 67.55729Q247.75 67.322914 247.89062 67.166664Q248.04688 66.99479 248.34375 66.99479Q248.64062 66.99479 248.78125 67.166664Q248.9375 67.322914 248.9375 67.572914Q248.9375 67.80729 248.78125 67.96354Q248.64062 68.11979 248.34375 68.11979Q248.04688 68.11979 247.89062 67.96354Q247.75 67.80729 247.75 67.55729ZM251.6875 69.104164L251.71875 69.83854Q252.39062 68.99479 253.46875 68.99479Q255.3125 68.99479 255.32812 71.072914L255.32812 74.916664L254.32812 74.916664L254.32812 71.072914Q254.32812 70.447914 254.04688 70.15104Q253.76562 69.83854 253.15625 69.83854Q252.6875 69.83854 252.3125 70.104164Q251.95312 70.354164 251.75 70.77604L251.75 74.916664L250.75 74.916664L250.75 69.104164L251.6875 69.104164ZM256.51562 71.96354Q256.51562 70.604164 257.14062 69.80729Q257.76562 68.99479 258.8125 68.99479Q259.875 68.99479 260.46875 69.74479L260.51562 69.104164L261.42188 69.104164L261.42188 74.77604Q261.42188 75.90104 260.75 76.541664Q260.09375 77.197914 258.95312 77.197914Q258.32812 77.197914 257.71875 76.93229Q257.125 76.666664 256.8125 76.197914L257.32812 75.604164Q257.96875 76.40104 258.89062 76.40104Q259.60938 76.40104 260.01562 75.979164Q260.42188 75.572914 260.42188 74.83854L260.42188 74.33854Q259.82812 75.02604 258.79688 75.02604Q257.78125 75.02604 257.14062 74.21354Q256.51562 73.385414 256.51562 71.96354ZM257.51562 72.072914Q257.51562 73.05729 257.92188 73.61979Q258.32812 74.18229 259.04688 74.18229Q259.98438 74.18229 260.42188 73.322914L260.42188 70.666664Q259.96875 69.83854 259.0625 69.83854Q258.32812 69.83854 257.92188 70.40104Q257.51562 70.96354 257.51562 72.072914ZM266.14062 73.36979Q266.14062 72.979164 265.82812 72.760414Q265.53125 72.52604 264.76562 72.36979Q264.01562 72.197914 263.57812 71.979164Q263.14062 71.760414 262.92188 71.447914Q262.70312 71.135414 262.70312 70.697914Q262.70312 69.979164 263.3125 69.49479Q263.92188 68.99479 264.85938 68.99479Q265.84375 68.99479 266.45312 69.510414Q267.07812 70.010414 267.07812 70.80729L266.07812 70.80729Q266.07812 70.40104 265.73438 70.104164Q265.39062 69.80729 264.85938 69.80729Q264.3125 69.80729 264.0 70.05729Q263.70312 70.291664 263.70312 70.666664Q263.70312 71.02604 263.98438 71.21354Q264.26562 71.385414 265.01562 71.55729Q265.76562 71.729164 266.21875 71.96354Q266.6875 72.18229 266.90625 72.510414Q267.125 72.83854 267.125 73.30729Q267.125 74.08854 266.5 74.55729Q265.89062 75.02604 264.89062 75.02604Q264.1875 75.02604 263.65625 74.77604Q263.125 74.52604 262.8125 74.08854Q262.51562 73.65104 262.51562 73.135414L263.5 73.135414Q263.53125 73.61979 263.90625 73.916664Q264.28125 74.21354 264.89062 74.21354Q265.45312 74.21354 265.79688 73.99479Q266.14062 73.760414 266.14062 73.36979Z"
     fill-rule="nonzero"
     id="path65" />
  <path
     fill="#666666"
     d="M232.21875 71.43229Q230.89062 71.041664 230.28125 70.49479Q229.67188 69.93229 229.67188 69.11979Q229.67188 68.197914 230.40625 67.604164Q231.15625 66.99479 232.32812 66.99479Q233.14062 66.99479 233.76562 67.30729Q234.40625 67.604164 234.75 68.166664Q235.09375 68.71354 235.09375 69.354164L234.0625 69.354164Q234.0625 68.65104 233.60938 68.24479Q233.15625 67.83854 232.32812 67.83854Q231.57812 67.83854 231.14062 68.18229Q230.71875 68.510414 230.71875 69.104164Q230.71875 69.58854 231.125 69.916664Q231.53125 70.24479 232.5 70.52604Q233.48438 70.791664 234.03125 71.11979Q234.57812 71.447914 234.84375 71.90104Q235.10938 72.33854 235.10938 72.93229Q235.10938 73.885414 234.35938 74.46354Q233.625 75.02604 232.39062 75.02604Q231.57812 75.02604 230.875 74.71354Q230.1875 74.40104 229.8125 73.86979Q229.4375 73.33854 229.4375 72.65104L230.46875 72.65104Q230.46875 73.354164 230.98438 73.77604Q231.51562 74.18229 232.39062 74.18229Q233.20312 74.18229 233.64062 73.854164Q234.07812 73.510414 234.07812 72.947914Q234.07812 72.36979 233.67188 72.05729Q233.26562 71.729164 232.21875 71.43229ZM240.34375 74.916664Q240.25 74.74479 240.20312 74.30729Q239.5 75.02604 238.54688 75.02604Q237.6875 75.02604 237.125 74.541664Q236.57812 74.05729 236.57812 73.30729Q236.57812 72.40104 237.26562 71.90104Q237.96875 71.385414 239.21875 71.385414L240.1875 71.385414L240.1875 70.93229Q240.1875 70.416664 239.875 70.104164Q239.5625 69.791664 238.95312 69.791664Q238.42188 69.791664 238.0625 70.072914Q237.70312 70.33854 237.70312 70.71354L236.70312 70.71354Q236.70312 70.27604 237.01562 69.86979Q237.32812 69.46354 237.84375 69.229164Q238.375 68.99479 239.01562 68.99479Q240.01562 68.99479 240.57812 69.49479Q241.15625 69.99479 241.17188 70.885414L241.17188 73.55729Q241.17188 74.354164 241.375 74.822914L241.375 74.916664L240.34375 74.916664ZM238.6875 74.166664Q239.15625 74.166664 239.57812 73.93229Q240.0 73.68229 240.1875 73.291664L240.1875 72.104164L239.40625 72.104164Q237.57812 72.104164 237.57812 73.166664Q237.57812 73.635414 237.89062 73.90104Q238.20312 74.166664 238.6875 74.166664ZM244.67188 73.572914L246.10938 69.104164L247.125 69.104164L245.04688 74.916664L244.28125 74.916664L242.17188 69.104164L243.1875 69.104164L244.67188 73.572914ZM248.82812 74.916664L247.84375 74.916664L247.84375 69.104164L248.82812 69.104164L248.82812 74.916664ZM247.75 67.55729Q247.75 67.322914 247.89062 67.166664Q248.04688 66.99479 248.34375 66.99479Q248.64062 66.99479 248.78125 67.166664Q248.9375 67.322914 248.9375 67.572914Q248.9375 67.80729 248.78125 67.96354Q248.64062 68.11979 248.34375 68.11979Q248.04688 68.11979 247.89062 67.96354Q247.75 67.80729 247.75 67.55729ZM251.6875 69.104164L251.71875 69.83854Q252.39062 68.99479 253.46875 68.99479Q255.3125 68.99479 255.32812 71.072914L255.32812 74.916664L254.32812 74.916664L254.32812 71.072914Q254.32812 70.447914 254.04688 70.15104Q253.76562 69.83854 253.15625 69.83854Q252.6875 69.83854 252.3125 70.104164Q251.95312 70.354164 251.75 70.77604L251.75 74.916664L250.75 74.916664L250.75 69.104164L251.6875 69.104164ZM256.51562 71.96354Q256.51562 70.604164 257.14062 69.80729Q257.76562 68.99479 258.8125 68.99479Q259.875 68.99479 260.46875 69.74479L260.51562 69.104164L261.42188 69.104164L261.42188 74.77604Q261.42188 75.90104 260.75 76.541664Q260.09375 77.197914 258.95312 77.197914Q258.32812 77.197914 257.71875 76.93229Q257.125 76.666664 256.8125 76.197914L257.32812 75.604164Q257.96875 76.40104 258.89062 76.40104Q259.60938 76.40104 260.01562 75.979164Q260.42188 75.572914 260.42188 74.83854L260.42188 74.33854Q259.82812 75.02604 258.79688 75.02604Q257.78125 75.02604 257.14062 74.21354Q256.51562 73.385414 256.51562 71.96354ZM257.51562 72.072914Q257.51562 73.05729 257.92188 73.61979Q258.32812 74.18229 259.04688 74.18229Q259.98438 74.18229 260.42188 73.322914L260.42188 70.666664Q259.96875 69.83854 259.0625 69.83854Q258.32812 69.83854 257.92188 70.40104Q257.51562 70.96354 257.51562 72.072914ZM266.14062 73.36979Q266.14062 72.979164 265.82812 72.760414Q265.53125 72.52604 264.76562 72.36979Q264.01562 72.197914 263.57812 71.979164Q263.14062 71.760414 262.92188 71.447914Q262.70312 71.135414 262.70312 70.697914Q262.70312 69.979164 263.3125 69.49479Q263.92188 68.99479 264.85938 68.99479Q265.84375 68.99479 266.45312 69.510414Q267.07812 70.010414 267.07812 70.80729L266.07812 70.80729Q266.07812 70.40104 265.73438 70.104164Q265.39062 69.80729 264.85938 69.80729Q264.3125 69.80729 264.0 70.05729Q263.70312 70.291664 263.70312 70.666664Q263.70312 71.02604 263.98438 71.21354Q264.26562 71.385414 265.01562 71.55729Q265.76562 71.729164 266.21875 71.96354Q266.6875 72.18229 266.90625 72.510414Q267.125 72.83854 267.125 73.30729Q267.125 74.08854 266.5 74.55729Q265.89062 75.02604 264.89062 75.02604Q264.1875 75.02604 263.65625 74.77604Q263.125 74.52604 262.8125 74.08854Q262.51562 73.65104 262.51562 73.135414L263.5 73.135414Q263.53125 73.61979 263.90625 73.916664Q264.28125 74.21354 264.89062 74.21354Q265.45312 74.21354 265.79688 73.99479Q266.14062 73.760414 266.14062 73.36979Z"
     fill-rule="nonzero"
     id="path67" />
  <path
     fill="#d9d9d9"
     d="M284.0 65.916664C284.0 65.36438 284.44772 64.916664 285.0 64.916664L295.0 64.916664C295.55228 64.916664 296.0 65.36438 296.0 65.916664L296.0 75.916664C296.0 76.46895 295.55228 76.916664 295.0 76.916664L285.0 76.916664C284.44772 76.916664 284.0 76.46895 284.0 75.916664Z"
     fill-rule="nonzero"
     id="path69" />
  <path
     stroke="#ffffff"
     stroke-width="3.0"
     stroke-linejoin="round"
     stroke-linecap="round"
     d="M306.01562 74.916664L304.98438 74.916664L304.98438 67.08854L306.01562 67.08854L306.01562 74.916664ZM308.6875 69.104164L308.71875 69.83854Q309.39062 68.99479 310.46875 68.99479Q312.3125 68.99479 312.32812 71.072914L312.32812 74.916664L311.32812 74.916664L311.32812 71.072914Q311.32812 70.447914 311.04688 70.15104Q310.76562 69.83854 310.15625 69.83854Q309.6875 69.83854 309.3125 70.104164Q308.95312 70.354164 308.75 70.77604L308.75 74.916664L307.75 74.916664L307.75 69.104164L308.6875 69.104164ZM315.09375 67.697914L315.09375 69.104164L316.1875 69.104164L316.1875 69.86979L315.09375 69.86979L315.09375 73.479164Q315.09375 73.822914 315.23438 74.010414Q315.39062 74.18229 315.73438 74.18229Q315.90625 74.18229 316.21875 74.104164L316.21875 74.916664Q315.8125 75.02604 315.45312 75.02604Q314.78125 75.02604 314.4375 74.61979Q314.10938 74.21354 314.10938 73.479164L314.10938 69.86979L313.04688 69.86979L313.04688 69.104164L314.10938 69.104164L314.10938 67.697914L315.09375 67.697914ZM320.15625 75.02604Q318.98438 75.02604 318.23438 74.260414Q317.5 73.479164 317.5 72.166664L317.5 71.99479Q317.5 71.11979 317.82812 70.447914Q318.15625 69.760414 318.75 69.385414Q319.34375 68.99479 320.04688 68.99479Q321.17188 68.99479 321.79688 69.74479Q322.4375 70.49479 322.4375 71.885414L322.4375 72.291664L318.5 72.291664Q318.51562 73.15104 318.98438 73.68229Q319.46875 74.21354 320.21875 74.21354Q320.75 74.21354 321.10938 73.99479Q321.46875 73.77604 321.75 73.43229L322.35938 73.90104Q321.625 75.02604 320.15625 75.02604ZM320.04688 69.80729Q319.4375 69.80729 319.03125 70.24479Q318.625 70.68229 318.53125 71.479164L321.4375 71.479164L321.4375 71.40104Q321.39062 70.65104 321.01562 70.229164Q320.65625 69.80729 320.04688 69.80729ZM326.5625 69.99479Q326.32812 69.96354 326.07812 69.96354Q325.09375 69.96354 324.75 70.791664L324.75 74.916664L323.75 74.916664L323.75 69.104164L324.71875 69.104164L324.73438 69.77604Q325.21875 68.99479 326.125 68.99479Q326.40625 68.99479 326.5625 69.072914L326.5625 69.99479ZM330.15625 75.02604Q328.98438 75.02604 328.23438 74.260414Q327.5 73.479164 327.5 72.166664L327.5 71.99479Q327.5 71.11979 327.82812 70.447914Q328.15625 69.760414 328.75 69.385414Q329.34375 68.99479 330.04688 68.99479Q331.17188 68.99479 331.79688 69.74479Q332.4375 70.49479 332.4375 71.885414L332.4375 72.291664L328.5 72.291664Q328.51562 73.15104 328.98438 73.68229Q329.46875 74.21354 330.21875 74.21354Q330.75 74.21354 331.10938 73.99479Q331.46875 73.77604 331.75 73.43229L332.35938 73.90104Q331.625 75.02604 330.15625 75.02604ZM330.04688 69.80729Q329.4375 69.80729 329.03125 70.24479Q328.625 70.68229 328.53125 71.479164L331.4375 71.479164L331.4375 71.40104Q331.39062 70.65104 331.01562 70.229164Q330.65625 69.80729 330.04688 69.80729ZM337.14062 73.36979Q337.14062 72.979164 336.82812 72.760414Q336.53125 72.52604 335.76562 72.36979Q335.01562 72.197914 334.57812 71.979164Q334.14062 71.760414 333.92188 71.447914Q333.70312 71.135414 333.70312 70.697914Q333.70312 69.979164 334.3125 69.49479Q334.92188 68.99479 335.85938 68.99479Q336.84375 68.99479 337.45312 69.510414Q338.07812 70.010414 338.07812 70.80729L337.07812 70.80729Q337.07812 70.40104 336.73438 70.104164Q336.39062 69.80729 335.85938 69.80729Q335.3125 69.80729 335.0 70.05729Q334.70312 70.291664 334.70312 70.666664Q334.70312 71.02604 334.98438 71.21354Q335.26562 71.385414 336.01562 71.55729Q336.76562 71.729164 337.21875 71.96354Q337.6875 72.18229 337.90625 72.510414Q338.125 72.83854 338.125 73.30729Q338.125 74.08854 337.5 74.55729Q336.89062 75.02604 335.89062 75.02604Q335.1875 75.02604 334.65625 74.77604Q334.125 74.52604 333.8125 74.08854Q333.51562 73.65104 333.51562 73.135414L334.5 73.135414Q334.53125 73.61979 334.90625 73.916664Q335.28125 74.21354 335.89062 74.21354Q336.45312 74.21354 336.79688 73.99479Q337.14062 73.760414 337.14062 73.36979ZM341.09375 67.697914L341.09375 69.104164L342.1875 69.104164L342.1875 69.86979L341.09375 69.86979L341.09375 73.479164Q341.09375 73.822914 341.23438 74.010414Q341.39062 74.18229 341.73438 74.18229Q341.90625 74.18229 342.21875 74.104164L342.21875 74.916664Q341.8125 75.02604 341.45312 75.02604Q340.78125 75.02604 340.4375 74.61979Q340.10938 74.21354 340.10938 73.479164L340.10938 69.86979L339.04688 69.86979L339.04688 69.104164L340.10938 69.104164L340.10938 67.697914L341.09375 67.697914ZM350.34375 74.916664Q350.25 74.74479 350.20312 74.30729Q349.5 75.02604 348.54688 75.02604Q347.6875 75.02604 347.125 74.541664Q346.57812 74.05729 346.57812 73.30729Q346.57812 72.40104 347.26562 71.90104Q347.96875 71.385414 349.21875 71.385414L350.1875 71.385414L350.1875 70.93229Q350.1875 70.416664 349.875 70.104164Q349.5625 69.791664 348.95312 69.791664Q348.42188 69.791664 348.0625 70.072914Q347.70312 70.33854 347.70312 70.71354L346.70312 70.71354Q346.70312 70.27604 347.01562 69.86979Q347.32812 69.46354 347.84375 69.229164Q348.375 68.99479 349.01562 68.99479Q350.01562 68.99479 350.57812 69.49479Q351.15625 69.99479 351.17188 70.885414L351.17188 73.55729Q351.17188 74.354164 351.375 74.822914L351.375 74.916664L350.34375 74.916664ZM348.6875 74.166664Q349.15625 74.166664 349.57812 73.93229Q350.0 73.68229 350.1875 73.291664L350.1875 72.104164L349.40625 72.104164Q347.57812 72.104164 347.57812 73.166664Q347.57812 73.635414 347.89062 73.90104Q348.20312 74.166664 348.6875 74.166664ZM353.6875 69.104164L353.71875 69.83854Q354.39062 68.99479 355.46875 68.99479Q357.3125 68.99479 357.32812 71.072914L357.32812 74.916664L356.32812 74.916664L356.32812 71.072914Q356.32812 70.447914 356.04688 70.15104Q355.76562 69.83854 355.15625 69.83854Q354.6875 69.83854 354.3125 70.104164Q353.95312 70.354164 353.75 70.77604L353.75 74.916664L352.75 74.916664L352.75 69.104164L353.6875 69.104164ZM358.51562 71.96354Q358.51562 70.61979 359.14062 69.80729Q359.78125 68.99479 360.79688 68.99479Q361.82812 68.99479 362.42188 69.697914L362.42188 66.666664L363.42188 66.666664L363.42188 74.916664L362.5 74.916664L362.45312 74.291664Q361.85938 75.02604 360.79688 75.02604Q359.78125 75.02604 359.14062 74.197914Q358.51562 73.36979 358.51562 72.041664L358.51562 71.96354ZM359.5 72.072914Q359.5 73.05729 359.90625 73.61979Q360.32812 74.18229 361.04688 74.18229Q361.98438 74.18229 362.42188 73.33854L362.42188 70.666664Q361.96875 69.83854 361.04688 69.83854Q360.32812 69.83854 359.90625 70.40104Q359.5 70.96354 359.5 72.072914ZM372.21875 71.46354L368.9375 71.46354L368.9375 74.916664L367.90625 74.916664L367.90625 67.08854L372.75 67.08854L372.75 67.947914L368.9375 67.947914L368.9375 70.61979L372.21875 70.61979L372.21875 71.46354ZM376.15625 75.02604Q374.98438 75.02604 374.23438 74.260414Q373.5 73.479164 373.5 72.166664L373.5 71.99479Q373.5 71.11979 373.82812 70.447914Q374.15625 69.760414 374.75 69.385414Q375.34375 68.99479 376.04688 68.99479Q377.17188 68.99479 377.79688 69.74479Q378.4375 70.49479 378.4375 71.885414L378.4375 72.291664L374.5 72.291664Q374.51562 73.15104 374.98438 73.68229Q375.46875 74.21354 376.21875 74.21354Q376.75 74.21354 377.10938 73.99479Q377.46875 73.77604 377.75 73.43229L378.35938 73.90104Q377.625 75.02604 376.15625 75.02604ZM376.04688 69.80729Q375.4375 69.80729 375.03125 70.24479Q374.625 70.68229 374.53125 71.479164L377.4375 71.479164L377.4375 71.40104Q377.39062 70.65104 377.01562 70.229164Q376.65625 69.80729 376.04688 69.80729ZM382.15625 75.02604Q380.98438 75.02604 380.23438 74.260414Q379.5 73.479164 379.5 72.166664L379.5 71.99479Q379.5 71.11979 379.82812 70.447914Q380.15625 69.760414 380.75 69.385414Q381.34375 68.99479 382.04688 68.99479Q383.17188 68.99479 383.79688 69.74479Q384.4375 70.49479 384.4375 71.885414L384.4375 72.291664L380.5 72.291664Q380.51562 73.15104 380.98438 73.68229Q381.46875 74.21354 382.21875 74.21354Q382.75 74.21354 383.10938 73.99479Q383.46875 73.77604 383.75 73.43229L384.35938 73.90104Q383.625 75.02604 382.15625 75.02604ZM382.04688 69.80729Q381.4375 69.80729 381.03125 70.24479Q380.625 70.68229 380.53125 71.479164L383.4375 71.479164L383.4375 71.40104Q383.39062 70.65104 383.01562 70.229164Q382.65625 69.80729 382.04688 69.80729ZM389.14062 73.36979Q389.14062 72.979164 388.82812 72.760414Q388.53125 72.52604 387.76562 72.36979Q387.01562 72.197914 386.57812 71.979164Q386.14062 71.760414 385.92188 71.447914Q385.70312 71.135414 385.70312 70.697914Q385.70312 69.979164 386.3125 69.49479Q386.92188 68.99479 387.85938 68.99479Q388.84375 68.99479 389.45312 69.510414Q390.07812 70.010414 390.07812 70.80729L389.07812 70.80729Q389.07812 70.40104 388.73438 70.104164Q388.39062 69.80729 387.85938 69.80729Q387.3125 69.80729 387.0 70.05729Q386.70312 70.291664 386.70312 70.666664Q386.70312 71.02604 386.98438 71.21354Q387.26562 71.385414 388.01562 71.55729Q388.76562 71.729164 389.21875 71.96354Q389.6875 72.18229 389.90625 72.510414Q390.125 72.83854 390.125 73.30729Q390.125 74.08854 389.5 74.55729Q388.89062 75.02604 387.89062 75.02604Q387.1875 75.02604 386.65625 74.77604Q386.125 74.52604 385.8125 74.08854Q385.51562 73.65104 385.51562 73.135414L386.5 73.135414Q386.53125 73.61979 386.90625 73.916664Q387.28125 74.21354 387.89062 74.21354Q388.45312 74.21354 388.79688 73.99479Q389.14062 73.760414 389.14062 73.36979Z"
     fill-rule="nonzero"
     id="path71" />
  <path
     fill="#666666"
     d="M306.01562 74.916664L304.98438 74.916664L304.98438 67.08854L306.01562 67.08854L306.01562 74.916664ZM308.6875 69.104164L308.71875 69.83854Q309.39062 68.99479 310.46875 68.99479Q312.3125 68.99479 312.32812 71.072914L312.32812 74.916664L311.32812 74.916664L311.32812 71.072914Q311.32812 70.447914 311.04688 70.15104Q310.76562 69.83854 310.15625 69.83854Q309.6875 69.83854 309.3125 70.104164Q308.95312 70.354164 308.75 70.77604L308.75 74.916664L307.75 74.916664L307.75 69.104164L308.6875 69.104164ZM315.09375 67.697914L315.09375 69.104164L316.1875 69.104164L316.1875 69.86979L315.09375 69.86979L315.09375 73.479164Q315.09375 73.822914 315.23438 74.010414Q315.39062 74.18229 315.73438 74.18229Q315.90625 74.18229 316.21875 74.104164L316.21875 74.916664Q315.8125 75.02604 315.45312 75.02604Q314.78125 75.02604 314.4375 74.61979Q314.10938 74.21354 314.10938 73.479164L314.10938 69.86979L313.04688 69.86979L313.04688 69.104164L314.10938 69.104164L314.10938 67.697914L315.09375 67.697914ZM320.15625 75.02604Q318.98438 75.02604 318.23438 74.260414Q317.5 73.479164 317.5 72.166664L317.5 71.99479Q317.5 71.11979 317.82812 70.447914Q318.15625 69.760414 318.75 69.385414Q319.34375 68.99479 320.04688 68.99479Q321.17188 68.99479 321.79688 69.74479Q322.4375 70.49479 322.4375 71.885414L322.4375 72.291664L318.5 72.291664Q318.51562 73.15104 318.98438 73.68229Q319.46875 74.21354 320.21875 74.21354Q320.75 74.21354 321.10938 73.99479Q321.46875 73.77604 321.75 73.43229L322.35938 73.90104Q321.625 75.02604 320.15625 75.02604ZM320.04688 69.80729Q319.4375 69.80729 319.03125 70.24479Q318.625 70.68229 318.53125 71.479164L321.4375 71.479164L321.4375 71.40104Q321.39062 70.65104 321.01562 70.229164Q320.65625 69.80729 320.04688 69.80729ZM326.5625 69.99479Q326.32812 69.96354 326.07812 69.96354Q325.09375 69.96354 324.75 70.791664L324.75 74.916664L323.75 74.916664L323.75 69.104164L324.71875 69.104164L324.73438 69.77604Q325.21875 68.99479 326.125 68.99479Q326.40625 68.99479 326.5625 69.072914L326.5625 69.99479ZM330.15625 75.02604Q328.98438 75.02604 328.23438 74.260414Q327.5 73.479164 327.5 72.166664L327.5 71.99479Q327.5 71.11979 327.82812 70.447914Q328.15625 69.760414 328.75 69.385414Q329.34375 68.99479 330.04688 68.99479Q331.17188 68.99479 331.79688 69.74479Q332.4375 70.49479 332.4375 71.885414L332.4375 72.291664L328.5 72.291664Q328.51562 73.15104 328.98438 73.68229Q329.46875 74.21354 330.21875 74.21354Q330.75 74.21354 331.10938 73.99479Q331.46875 73.77604 331.75 73.43229L332.35938 73.90104Q331.625 75.02604 330.15625 75.02604ZM330.04688 69.80729Q329.4375 69.80729 329.03125 70.24479Q328.625 70.68229 328.53125 71.479164L331.4375 71.479164L331.4375 71.40104Q331.39062 70.65104 331.01562 70.229164Q330.65625 69.80729 330.04688 69.80729ZM337.14062 73.36979Q337.14062 72.979164 336.82812 72.760414Q336.53125 72.52604 335.76562 72.36979Q335.01562 72.197914 334.57812 71.979164Q334.14062 71.760414 333.92188 71.447914Q333.70312 71.135414 333.70312 70.697914Q333.70312 69.979164 334.3125 69.49479Q334.92188 68.99479 335.85938 68.99479Q336.84375 68.99479 337.45312 69.510414Q338.07812 70.010414 338.07812 70.80729L337.07812 70.80729Q337.07812 70.40104 336.73438 70.104164Q336.39062 69.80729 335.85938 69.80729Q335.3125 69.80729 335.0 70.05729Q334.70312 70.291664 334.70312 70.666664Q334.70312 71.02604 334.98438 71.21354Q335.26562 71.385414 336.01562 71.55729Q336.76562 71.729164 337.21875 71.96354Q337.6875 72.18229 337.90625 72.510414Q338.125 72.83854 338.125 73.30729Q338.125 74.08854 337.5 74.55729Q336.89062 75.02604 335.89062 75.02604Q335.1875 75.02604 334.65625 74.77604Q334.125 74.52604 333.8125 74.08854Q333.51562 73.65104 333.51562 73.135414L334.5 73.135414Q334.53125 73.61979 334.90625 73.916664Q335.28125 74.21354 335.89062 74.21354Q336.45312 74.21354 336.79688 73.99479Q337.14062 73.760414 337.14062 73.36979ZM341.09375 67.697914L341.09375 69.104164L342.1875 69.104164L342.1875 69.86979L341.09375 69.86979L341.09375 73.479164Q341.09375 73.822914 341.23438 74.010414Q341.39062 74.18229 341.73438 74.18229Q341.90625 74.18229 342.21875 74.104164L342.21875 74.916664Q341.8125 75.02604 341.45312 75.02604Q340.78125 75.02604 340.4375 74.61979Q340.10938 74.21354 340.10938 73.479164L340.10938 69.86979L339.04688 69.86979L339.04688 69.104164L340.10938 69.104164L340.10938 67.697914L341.09375 67.697914ZM350.34375 74.916664Q350.25 74.74479 350.20312 74.30729Q349.5 75.02604 348.54688 75.02604Q347.6875 75.02604 347.125 74.541664Q346.57812 74.05729 346.57812 73.30729Q346.57812 72.40104 347.26562 71.90104Q347.96875 71.385414 349.21875 71.385414L350.1875 71.385414L350.1875 70.93229Q350.1875 70.416664 349.875 70.104164Q349.5625 69.791664 348.95312 69.791664Q348.42188 69.791664 348.0625 70.072914Q347.70312 70.33854 347.70312 70.71354L346.70312 70.71354Q346.70312 70.27604 347.01562 69.86979Q347.32812 69.46354 347.84375 69.229164Q348.375 68.99479 349.01562 68.99479Q350.01562 68.99479 350.57812 69.49479Q351.15625 69.99479 351.17188 70.885414L351.17188 73.55729Q351.17188 74.354164 351.375 74.822914L351.375 74.916664L350.34375 74.916664ZM348.6875 74.166664Q349.15625 74.166664 349.57812 73.93229Q350.0 73.68229 350.1875 73.291664L350.1875 72.104164L349.40625 72.104164Q347.57812 72.104164 347.57812 73.166664Q347.57812 73.635414 347.89062 73.90104Q348.20312 74.166664 348.6875 74.166664ZM353.6875 69.104164L353.71875 69.83854Q354.39062 68.99479 355.46875 68.99479Q357.3125 68.99479 357.32812 71.072914L357.32812 74.916664L356.32812 74.916664L356.32812 71.072914Q356.32812 70.447914 356.04688 70.15104Q355.76562 69.83854 355.15625 69.83854Q354.6875 69.83854 354.3125 70.104164Q353.95312 70.354164 353.75 70.77604L353.75 74.916664L352.75 74.916664L352.75 69.104164L353.6875 69.104164ZM358.51562 71.96354Q358.51562 70.61979 359.14062 69.80729Q359.78125 68.99479 360.79688 68.99479Q361.82812 68.99479 362.42188 69.697914L362.42188 66.666664L363.42188 66.666664L363.42188 74.916664L362.5 74.916664L362.45312 74.291664Q361.85938 75.02604 360.79688 75.02604Q359.78125 75.02604 359.14062 74.197914Q358.51562 73.36979 358.51562 72.041664L358.51562 71.96354ZM359.5 72.072914Q359.5 73.05729 359.90625 73.61979Q360.32812 74.18229 361.04688 74.18229Q361.98438 74.18229 362.42188 73.33854L362.42188 70.666664Q361.96875 69.83854 361.04688 69.83854Q360.32812 69.83854 359.90625 70.40104Q359.5 70.96354 359.5 72.072914ZM372.21875 71.46354L368.9375 71.46354L368.9375 74.916664L367.90625 74.916664L367.90625 67.08854L372.75 67.08854L372.75 67.947914L368.9375 67.947914L368.9375 70.61979L372.21875 70.61979L372.21875 71.46354ZM376.15625 75.02604Q374.98438 75.02604 374.23438 74.260414Q373.5 73.479164 373.5 72.166664L373.5 71.99479Q373.5 71.11979 373.82812 70.447914Q374.15625 69.760414 374.75 69.385414Q375.34375 68.99479 376.04688 68.99479Q377.17188 68.99479 377.79688 69.74479Q378.4375 70.49479 378.4375 71.885414L378.4375 72.291664L374.5 72.291664Q374.51562 73.15104 374.98438 73.68229Q375.46875 74.21354 376.21875 74.21354Q376.75 74.21354 377.10938 73.99479Q377.46875 73.77604 377.75 73.43229L378.35938 73.90104Q377.625 75.02604 376.15625 75.02604ZM376.04688 69.80729Q375.4375 69.80729 375.03125 70.24479Q374.625 70.68229 374.53125 71.479164L377.4375 71.479164L377.4375 71.40104Q377.39062 70.65104 377.01562 70.229164Q376.65625 69.80729 376.04688 69.80729ZM382.15625 75.02604Q380.98438 75.02604 380.23438 74.260414Q379.5 73.479164 379.5 72.166664L379.5 71.99479Q379.5 71.11979 379.82812 70.447914Q380.15625 69.760414 380.75 69.385414Q381.34375 68.99479 382.04688 68.99479Q383.17188 68.99479 383.79688 69.74479Q384.4375 70.49479 384.4375 71.885414L384.4375 72.291664L380.5 72.291664Q380.51562 73.15104 380.98438 73.68229Q381.46875 74.21354 382.21875 74.21354Q382.75 74.21354 383.10938 73.99479Q383.46875 73.77604 383.75 73.43229L384.35938 73.90104Q383.625 75.02604 382.15625 75.02604ZM382.04688 69.80729Q381.4375 69.80729 381.03125 70.24479Q380.625 70.68229 380.53125 71.479164L383.4375 71.479164L383.4375 71.40104Q383.39062 70.65104 383.01562 70.229164Q382.65625 69.80729 382.04688 69.80729ZM389.14062 73.36979Q389.14062 72.979164 388.82812 72.760414Q388.53125 72.52604 387.76562 72.36979Q387.01562 72.197914 386.57812 71.979164Q386.14062 71.760414 385.92188 71.447914Q385.70312 71.135414 385.70312 70.697914Q385.70312 69.979164 386.3125 69.49479Q386.92188 68.99479 387.85938 68.99479Q388.84375 68.99479 389.45312 69.510414Q390.07812 70.010414 390.07812 70.80729L389.07812 70.80729Q389.07812 70.40104 388.73438 70.104164Q388.39062 69.80729 387.85938 69.80729Q387.3125 69.80729 387.0 70.05729Q386.70312 70.291664 386.70312 70.666664Q386.70312 71.02604 386.98438 71.21354Q387.26562 71.385414 388.01562 71.55729Q388.76562 71.729164 389.21875 71.96354Q389.6875 72.18229 389.90625 72.510414Q390.125 72.83854 390.125 73.30729Q390.125 74.08854 389.5 74.55729Q388.89062 75.02604 387.89062 75.02604Q387.1875 75.02604 386.65625 74.77604Q386.125 74.52604 385.8125 74.08854Q385.51562 73.65104 385.51562 73.135414L386.5 73.135414Q386.53125 73.61979 386.90625 73.916664Q387.28125 74.21354 387.89062 74.21354Q388.45312 74.21354 388.79688 73.99479Q389.14062 73.760414 389.14062 73.36979Z"
     fill-rule="nonzero"
     id="path73" />
  <path
     fill="#000000"
     d="M130.1875 23.409374L126.53125 23.409374L126.53125 33.55L125.03125 33.55L125.03125 23.409374L121.390625 23.409374L121.390625 22.175L130.1875 22.175L130.1875 23.409374ZM134.85938 31.425L136.82812 25.096874L138.375 25.096874L134.98438 34.8625Q134.1875 36.971874 132.46875 36.971874L132.20312 36.940624L131.65625 36.846874L131.65625 35.675L132.04688 35.70625Q132.78125 35.70625 133.1875 35.409374Q133.60938 35.1125 133.875 34.315624L134.1875 33.45625L131.17188 25.096874L132.75 25.096874L134.85938 31.425ZM147.23438 29.409374Q147.23438 31.346874 146.34375 32.534374Q145.46875 33.70625 143.96875 33.70625Q142.42188 33.70625 141.54688 32.721874L141.54688 36.8L140.09375 36.8L140.09375 25.096874L141.42188 25.096874L141.48438 26.034374Q142.375 24.940624 143.9375 24.940624Q145.46875 24.940624 146.34375 26.096874Q147.23438 27.2375 147.23438 29.284374L147.23438 29.409374ZM145.79688 29.253124Q145.79688 27.815624 145.1875 26.9875Q144.57812 26.159374 143.51562 26.159374Q142.20312 26.159374 141.54688 27.33125L141.54688 31.3625Q142.1875 32.51875 143.53125 32.51875Q144.5625 32.51875 145.17188 31.70625Q145.79688 30.878124 145.79688 29.253124ZM150.67188 33.55L149.21875 33.55L149.21875 25.096874L150.67188 25.096874L150.67188 33.55ZM149.10938 22.846874Q149.10938 22.503124 149.3125 22.26875Q149.53125 22.01875 149.95312 22.01875Q150.375 22.01875 150.59375 22.26875Q150.8125 22.503124 150.8125 22.8625Q150.8125 23.20625 150.59375 23.440624Q150.375 23.675 149.95312 23.675Q149.53125 23.675 149.3125 23.440624Q149.10938 23.20625 149.10938 22.846874ZM156.48438 32.51875Q157.26562 32.51875 157.84375 32.05Q158.42188 31.58125 158.48438 30.878124L159.84375 30.878124Q159.8125 31.6125 159.34375 32.26875Q158.89062 32.925 158.10938 33.315624Q157.34375 33.70625 156.48438 33.70625Q154.76562 33.70625 153.73438 32.55Q152.71875 31.39375 152.71875 29.39375L152.71875 29.159374Q152.71875 27.925 153.17188 26.971874Q153.625 26.003124 154.46875 25.471874Q155.32812 24.940624 156.48438 24.940624Q157.90625 24.940624 158.84375 25.8Q159.78125 26.64375 159.84375 28.003124L158.48438 28.003124Q158.42188 27.175 157.85938 26.659374Q157.29688 26.128124 156.48438 26.128124Q155.375 26.128124 154.76562 26.925Q154.17188 27.70625 154.17188 29.20625L154.17188 29.4875Q154.17188 30.940624 154.76562 31.7375Q155.375 32.51875 156.48438 32.51875ZM166.3125 33.55Q166.1875 33.3 166.10938 32.659374Q165.10938 33.70625 163.70312 33.70625Q162.45312 33.70625 161.65625 33.003124Q160.85938 32.284374 160.85938 31.20625Q160.85938 29.878124 161.85938 29.159374Q162.85938 28.425 164.6875 28.425L166.09375 28.425L166.09375 27.753124Q166.09375 27.003124 165.64062 26.55Q165.1875 26.096874 164.29688 26.096874Q163.53125 26.096874 163.0 26.4875Q162.48438 26.878124 162.48438 27.440624L161.03125 27.440624Q161.03125 26.8 161.46875 26.221874Q161.92188 25.628124 162.6875 25.284374Q163.46875 24.940624 164.39062 24.940624Q165.84375 24.940624 166.67188 25.675Q167.5 26.39375 167.53125 27.675L167.53125 31.565624Q167.53125 32.7375 167.82812 33.425L167.82812 33.55L166.3125 33.55ZM163.92188 32.440624Q164.59375 32.440624 165.20312 32.096874Q165.8125 31.7375 166.09375 31.175L166.09375 29.440624L164.95312 29.440624Q162.29688 29.440624 162.29688 31.003124Q162.29688 31.675 162.75 32.065624Q163.20312 32.440624 163.92188 32.440624ZM171.67188 33.55L170.21875 33.55L170.21875 21.55L171.67188 21.55L171.67188 33.55ZM180.26562 22.175L183.98438 31.45625L187.70312 22.175L189.64062 22.175L189.64062 33.55L188.14062 33.55L188.14062 29.1125L188.28125 24.33125L184.54688 33.55L183.40625 33.55L179.67188 24.3625L179.82812 29.1125L179.82812 33.55L178.32812 33.55L178.32812 22.175L180.26562 22.175ZM195.60938 33.70625Q193.89062 33.70625 192.8125 32.58125Q191.73438 31.440624 191.73438 29.55L191.73438 29.284374Q191.73438 28.034374 192.20312 27.05Q192.6875 26.05 193.54688 25.503124Q194.42188 24.940624 195.42188 24.940624Q197.07812 24.940624 197.98438 26.034374Q198.90625 27.1125 198.90625 29.128124L198.90625 29.7375L193.17188 29.7375Q193.20312 30.9875 193.90625 31.753124Q194.60938 32.51875 195.6875 32.51875Q196.45312 32.51875 196.98438 32.20625Q197.51562 31.89375 197.90625 31.378124L198.79688 32.065624Q197.73438 33.70625 195.60938 33.70625ZM195.42188 26.128124Q194.54688 26.128124 193.95312 26.76875Q193.35938 27.39375 193.21875 28.55L197.45312 28.55L197.45312 28.440624Q197.39062 27.33125 196.85938 26.7375Q196.32812 26.128124 195.42188 26.128124ZM201.45312 25.096874L201.5 26.034374Q202.42188 24.940624 204.0 24.940624Q205.78125 24.940624 206.42188 26.3Q206.84375 25.690624 207.51562 25.315624Q208.1875 24.940624 209.10938 24.940624Q211.89062 24.940624 211.9375 27.878124L211.9375 33.55L210.5 33.55L210.5 27.971874Q210.5 27.065624 210.07812 26.6125Q209.67188 26.159374 208.6875 26.159374Q207.89062 26.159374 207.35938 26.64375Q206.82812 27.128124 206.73438 27.940624L206.73438 33.55L205.28125 33.55L205.28125 28.003124Q205.28125 26.159374 203.48438 26.159374Q202.0625 26.159374 201.53125 27.378124L201.53125 33.55L200.09375 33.55L200.09375 25.096874L201.45312 25.096874ZM221.25 29.409374Q221.25 31.346874 220.35938 32.534374Q219.46875 33.70625 217.96875 33.70625Q216.375 33.70625 215.5 32.565624L215.42188 33.55L214.09375 33.55L214.09375 21.55L215.54688 21.55L215.54688 26.01875Q216.42188 24.940624 217.95312 24.940624Q219.5 24.940624 220.375 26.1125Q221.25 27.26875 221.25 29.284374L221.25 29.409374ZM219.8125 29.253124Q219.8125 27.76875 219.23438 26.971874Q218.67188 26.159374 217.59375 26.159374Q216.17188 26.159374 215.54688 27.4875L215.54688 31.14375Q216.20312 32.471874 217.60938 32.471874Q218.65625 32.471874 219.23438 31.675Q219.8125 30.8625 219.8125 29.253124ZM226.60938 33.70625Q224.89062 33.70625 223.8125 32.58125Q222.73438 31.440624 222.73438 29.55L222.73438 29.284374Q222.73438 28.034374 223.20312 27.05Q223.6875 26.05 224.54688 25.503124Q225.42188 24.940624 226.42188 24.940624Q228.07812 24.940624 228.98438 26.034374Q229.90625 27.1125 229.90625 29.128124L229.90625 29.7375L224.17188 29.7375Q224.20312 30.9875 224.90625 31.753124Q225.60938 32.51875 226.6875 32.51875Q227.45312 32.51875 227.98438 32.20625Q228.51562 31.89375 228.90625 31.378124L229.79688 32.065624Q228.73438 33.70625 226.60938 33.70625ZM226.42188 26.128124Q225.54688 26.128124 224.95312 26.76875Q224.35938 27.39375 224.21875 28.55L228.45312 28.55L228.45312 28.440624Q228.39062 27.33125 227.85938 26.7375Q227.32812 26.128124 226.42188 26.128124ZM235.1875 26.39375Q234.85938 26.33125 234.46875 26.33125Q233.04688 26.33125 232.54688 27.55L232.54688 33.55L231.09375 33.55L231.09375 25.096874L232.5 25.096874L232.53125 26.065624Q233.23438 24.940624 234.54688 24.940624Q234.96875 24.940624 235.1875 25.05L235.1875 26.39375ZM243.67188 28.471874Q241.75 27.925 240.85938 27.1125Q239.98438 26.3 239.98438 25.1125Q239.98438 23.76875 241.0625 22.89375Q242.14062 22.01875 243.85938 22.01875Q245.03125 22.01875 245.9375 22.471874Q246.85938 22.925 247.35938 23.721874Q247.875 24.51875 247.875 25.45625L246.35938 25.45625Q246.35938 24.425 245.70312 23.846874Q245.04688 23.253124 243.85938 23.253124Q242.75 23.253124 242.125 23.7375Q241.5 24.221874 241.5 25.096874Q241.5 25.784374 242.09375 26.26875Q242.6875 26.753124 244.09375 27.159374Q245.51562 27.55 246.3125 28.034374Q247.125 28.503124 247.5 29.14375Q247.89062 29.784374 247.89062 30.659374Q247.89062 32.034374 246.8125 32.878124Q245.73438 33.70625 243.9375 33.70625Q242.76562 33.70625 241.75 33.253124Q240.73438 32.8 240.17188 32.01875Q239.625 31.2375 239.625 30.253124L241.14062 30.253124Q241.14062 31.284374 241.89062 31.878124Q242.65625 32.471874 243.9375 32.471874Q245.125 32.471874 245.75 31.9875Q246.39062 31.503124 246.39062 30.675Q246.39062 29.83125 245.79688 29.378124Q245.21875 28.925 243.67188 28.471874ZM255.3125 33.55Q255.1875 33.3 255.10938 32.659374Q254.10938 33.70625 252.70312 33.70625Q251.45312 33.70625 250.65625 33.003124Q249.85938 32.284374 249.85938 31.20625Q249.85938 29.878124 250.85938 29.159374Q251.85938 28.425 253.6875 28.425L255.09375 28.425L255.09375 27.753124Q255.09375 27.003124 254.64062 26.55Q254.1875 26.096874 253.29688 26.096874Q252.53125 26.096874 252.0 26.4875Q251.48438 26.878124 251.48438 27.440624L250.03125 27.440624Q250.03125 26.8 250.46875 26.221874Q250.92188 25.628124 251.6875 25.284374Q252.46875 24.940624 253.39062 24.940624Q254.84375 24.940624 255.67188 25.675Q256.5 26.39375 256.53125 27.675L256.53125 31.565624Q256.53125 32.7375 256.82812 33.425L256.82812 33.55L255.3125 33.55ZM252.92188 32.440624Q253.59375 32.440624 254.20312 32.096874Q254.8125 31.7375 255.09375 31.175L255.09375 29.440624L253.95312 29.440624Q251.29688 29.440624 251.29688 31.003124Q251.29688 31.675 251.75 32.065624Q252.20312 32.440624 252.92188 32.440624ZM261.89062 31.58125L263.98438 25.096874L265.45312 25.096874L262.42188 33.55L261.32812 33.55L258.26562 25.096874L259.73438 25.096874L261.89062 31.58125ZM268.67188 33.55L267.21875 33.55L267.21875 25.096874L268.67188 25.096874L268.67188 33.55ZM267.10938 22.846874Q267.10938 22.503124 267.3125 22.26875Q267.53125 22.01875 267.95312 22.01875Q268.375 22.01875 268.59375 22.26875Q268.8125 22.503124 268.8125 22.8625Q268.8125 23.20625 268.59375 23.440624Q268.375 23.675 267.95312 23.675Q267.53125 23.675 267.3125 23.440624Q267.10938 23.20625 267.10938 22.846874ZM272.46875 25.096874L272.51562 26.159374Q273.48438 24.940624 275.04688 24.940624Q277.71875 24.940624 277.75 27.95625L277.75 33.55L276.29688 33.55L276.29688 27.95625Q276.29688 27.034374 275.875 26.596874Q275.46875 26.159374 274.60938 26.159374Q273.90625 26.159374 273.375 26.534374Q272.84375 26.909374 272.54688 27.51875L272.54688 33.55L271.09375 33.55L271.09375 25.096874L272.46875 25.096874ZM279.75 29.253124Q279.75 27.26875 280.65625 26.1125Q281.57812 24.940624 283.09375 24.940624Q284.64062 24.940624 285.5 26.034374L285.57812 25.096874L286.89062 25.096874L286.89062 33.346874Q286.89062 34.9875 285.92188 35.925Q284.95312 36.878124 283.3125 36.878124Q282.39062 36.878124 281.51562 36.4875Q280.64062 36.096874 280.1875 35.425L280.9375 34.55Q281.85938 35.70625 283.20312 35.70625Q284.26562 35.70625 284.84375 35.1125Q285.4375 34.51875 285.4375 33.425L285.4375 32.70625Q284.57812 33.70625 283.07812 33.70625Q281.59375 33.70625 280.67188 32.51875Q279.75 31.315624 279.75 29.253124ZM281.20312 29.409374Q281.20312 30.846874 281.78125 31.659374Q282.375 32.471874 283.4375 32.471874Q284.79688 32.471874 285.4375 31.2375L285.4375 27.378124Q284.78125 26.159374 283.45312 26.159374Q282.39062 26.159374 281.79688 26.9875Q281.20312 27.8 281.20312 29.409374ZM294.01562 31.3Q294.01562 30.721874 293.57812 30.39375Q293.14062 30.065624 292.03125 29.83125Q290.9375 29.596874 290.29688 29.26875Q289.65625 28.940624 289.34375 28.4875Q289.03125 28.034374 289.03125 27.409374Q289.03125 26.378124 289.90625 25.659374Q290.79688 24.940624 292.15625 24.940624Q293.59375 24.940624 294.48438 25.690624Q295.39062 26.425 295.39062 27.58125L293.9375 27.58125Q293.9375 26.9875 293.42188 26.565624Q292.92188 26.128124 292.15625 26.128124Q291.375 26.128124 290.92188 26.471874Q290.48438 26.815624 290.48438 27.3625Q290.48438 27.89375 290.89062 28.159374Q291.3125 28.425 292.39062 28.675Q293.46875 28.909374 294.14062 29.253124Q294.8125 29.58125 295.14062 30.05Q295.46875 30.51875 295.46875 31.20625Q295.46875 32.33125 294.5625 33.01875Q293.65625 33.70625 292.20312 33.70625Q291.1875 33.70625 290.40625 33.346874Q289.625 32.9875 289.1875 32.346874Q288.75 31.690624 288.75 30.940624L290.1875 30.940624Q290.23438 31.675 290.76562 32.096874Q291.3125 32.51875 292.20312 32.51875Q293.03125 32.51875 293.51562 32.190624Q294.01562 31.8625 294.01562 31.3ZM300.71875 29.2375Q300.71875 28.003124 301.20312 27.01875Q301.6875 26.01875 302.5625 25.4875Q303.4375 24.940624 304.54688 24.940624Q306.28125 24.940624 307.34375 26.14375Q308.40625 27.33125 308.40625 29.315624L308.40625 29.409374Q308.40625 30.64375 307.9375 31.628124Q307.46875 32.6125 306.57812 33.159374Q305.70312 33.70625 304.5625 33.70625Q302.84375 33.70625 301.78125 32.51875Q300.71875 31.315624 300.71875 29.346874L300.71875 29.2375ZM302.17188 29.409374Q302.17188 30.815624 302.8125 31.675Q303.46875 32.51875 304.5625 32.51875Q305.67188 32.51875 306.3125 31.659374Q306.96875 30.8 306.96875 29.2375Q306.96875 27.846874 306.29688 26.9875Q305.64062 26.128124 304.54688 26.128124Q303.48438 26.128124 302.82812 26.9875Q302.17188 27.83125 302.17188 29.409374ZM311.46875 25.096874L311.51562 26.159374Q312.48438 24.940624 314.04688 24.940624Q316.71875 24.940624 316.75 27.95625L316.75 33.55L315.29688 33.55L315.29688 27.95625Q315.29688 27.034374 314.875 26.596874Q314.46875 26.159374 313.60938 26.159374Q312.90625 26.159374 312.375 26.534374Q311.84375 26.909374 311.54688 27.51875L311.54688 33.55L310.09375 33.55L310.09375 25.096874L311.46875 25.096874ZM329.60938 30.58125L324.84375 30.58125L323.76562 33.55L322.21875 33.55L326.5625 22.175L327.875 22.175L332.23438 33.55L330.6875 33.55L329.60938 30.58125ZM325.29688 29.346874L329.15625 29.346874L327.21875 24.01875L325.29688 29.346874ZM335.89062 31.58125L337.98438 25.096874L339.45312 25.096874L336.42188 33.55L335.32812 33.55L332.26562 25.096874L333.73438 25.096874L335.89062 31.58125ZM344.60938 33.70625Q342.89062 33.70625 341.8125 32.58125Q340.73438 31.440624 340.73438 29.55L340.73438 29.284374Q340.73438 28.034374 341.20312 27.05Q341.6875 26.05 342.54688 25.503124Q343.42188 24.940624 344.42188 24.940624Q346.07812 24.940624 346.98438 26.034374Q347.90625 27.1125 347.90625 29.128124L347.90625 29.7375L342.17188 29.7375Q342.20312 30.9875 342.90625 31.753124Q343.60938 32.51875 344.6875 32.51875Q345.45312 32.51875 345.98438 32.20625Q346.51562 31.89375 346.90625 31.378124L347.79688 32.065624Q346.73438 33.70625 344.60938 33.70625ZM344.42188 26.128124Q343.54688 26.128124 342.95312 26.76875Q342.35938 27.39375 342.21875 28.55L346.45312 28.55L346.45312 28.440624Q346.39062 27.33125 345.85938 26.7375Q345.32812 26.128124 344.42188 26.128124ZM353.1875 26.39375Q352.85938 26.33125 352.46875 26.33125Q351.04688 26.33125 350.54688 27.55L350.54688 33.55L349.09375 33.55L349.09375 25.096874L350.5 25.096874L350.53125 26.065624Q351.23438 24.940624 352.54688 24.940624Q352.96875 24.940624 353.1875 25.05L353.1875 26.39375ZM359.3125 33.55Q359.1875 33.3 359.10938 32.659374Q358.10938 33.70625 356.70312 33.70625Q355.45312 33.70625 354.65625 33.003124Q353.85938 32.284374 353.85938 31.20625Q353.85938 29.878124 354.85938 29.159374Q355.85938 28.425 357.6875 28.425L359.09375 28.425L359.09375 27.753124Q359.09375 27.003124 358.64062 26.55Q358.1875 26.096874 357.29688 26.096874Q356.53125 26.096874 356.0 26.4875Q355.48438 26.878124 355.48438 27.440624L354.03125 27.440624Q354.03125 26.8 354.46875 26.221874Q354.92188 25.628124 355.6875 25.284374Q356.46875 24.940624 357.39062 24.940624Q358.84375 24.940624 359.67188 25.675Q360.5 26.39375 360.53125 27.675L360.53125 31.565624Q360.53125 32.7375 360.82812 33.425L360.82812 33.55L359.3125 33.55ZM356.92188 32.440624Q357.59375 32.440624 358.20312 32.096874Q358.8125 31.7375 359.09375 31.175L359.09375 29.440624L357.95312 29.440624Q355.29688 29.440624 355.29688 31.003124Q355.29688 31.675 355.75 32.065624Q356.20312 32.440624 356.92188 32.440624ZM362.75 29.253124Q362.75 27.26875 363.65625 26.1125Q364.57812 24.940624 366.09375 24.940624Q367.64062 24.940624 368.5 26.034374L368.57812 25.096874L369.89062 25.096874L369.89062 33.346874Q369.89062 34.9875 368.92188 35.925Q367.95312 36.878124 366.3125 36.878124Q365.39062 36.878124 364.51562 36.4875Q363.64062 36.096874 363.1875 35.425L363.9375 34.55Q364.85938 35.70625 366.20312 35.70625Q367.26562 35.70625 367.84375 35.1125Q368.4375 34.51875 368.4375 33.425L368.4375 32.70625Q367.57812 33.70625 366.07812 33.70625Q364.59375 33.70625 363.67188 32.51875Q362.75 31.315624 362.75 29.253124ZM364.20312 29.409374Q364.20312 30.846874 364.78125 31.659374Q365.375 32.471874 366.4375 32.471874Q367.79688 32.471874 368.4375 31.2375L368.4375 27.378124Q367.78125 26.159374 366.45312 26.159374Q365.39062 26.159374 364.79688 26.9875Q364.20312 27.8 364.20312 29.409374ZM375.60938 33.70625Q373.89062 33.70625 372.8125 32.58125Q371.73438 31.440624 371.73438 29.55L371.73438 29.284374Q371.73438 28.034374 372.20312 27.05Q372.6875 26.05 373.54688 25.503124Q374.42188 24.940624 375.42188 24.940624Q377.07812 24.940624 377.98438 26.034374Q378.90625 27.1125 378.90625 29.128124L378.90625 29.7375L373.17188 29.7375Q373.20312 30.9875 373.90625 31.753124Q374.60938 32.51875 375.6875 32.51875Q376.45312 32.51875 376.98438 32.20625Q377.51562 31.89375 377.90625 31.378124L378.79688 32.065624Q377.73438 33.70625 375.60938 33.70625ZM375.42188 26.128124Q374.54688 26.128124 373.95312 26.76875Q373.35938 27.39375 373.21875 28.55L377.45312 28.55L377.45312 28.440624Q377.39062 27.33125 376.85938 26.7375Q376.32812 26.128124 375.42188 26.128124ZM385.82812 32.315624L391.21875 32.315624L391.21875 33.55L384.32812 33.55L384.32812 22.175L385.82812 22.175L385.82812 32.315624ZM392.71875 29.2375Q392.71875 28.003124 393.20312 27.01875Q393.6875 26.01875 394.5625 25.4875Q395.4375 24.940624 396.54688 24.940624Q398.28125 24.940624 399.34375 26.14375Q400.40625 27.33125 400.40625 29.315624L400.40625 29.409374Q400.40625 30.64375 399.9375 31.628124Q399.46875 32.6125 398.57812 33.159374Q397.70312 33.70625 396.5625 33.70625Q394.84375 33.70625 393.78125 32.51875Q392.71875 31.315624 392.71875 29.346874L392.71875 29.2375ZM394.17188 29.409374Q394.17188 30.815624 394.8125 31.675Q395.46875 32.51875 396.5625 32.51875Q397.67188 32.51875 398.3125 31.659374Q398.96875 30.8 398.96875 29.2375Q398.96875 27.846874 398.29688 26.9875Q397.64062 26.128124 396.54688 26.128124Q395.48438 26.128124 394.82812 26.9875Q394.17188 27.83125 394.17188 29.409374ZM407.3125 33.55Q407.1875 33.3 407.10938 32.659374Q406.10938 33.70625 404.70312 33.70625Q403.45312 33.70625 402.65625 33.003124Q401.85938 32.284374 401.85938 31.20625Q401.85938 29.878124 402.85938 29.159374Q403.85938 28.425 405.6875 28.425L407.09375 28.425L407.09375 27.753124Q407.09375 27.003124 406.64062 26.55Q406.1875 26.096874 405.29688 26.096874Q404.53125 26.096874 404.0 26.4875Q403.48438 26.878124 403.48438 27.440624L402.03125 27.440624Q402.03125 26.8 402.46875 26.221874Q402.92188 25.628124 403.6875 25.284374Q404.46875 24.940624 405.39062 24.940624Q406.84375 24.940624 407.67188 25.675Q408.5 26.39375 408.53125 27.675L408.53125 31.565624Q408.53125 32.7375 408.82812 33.425L408.82812 33.55L407.3125 33.55ZM404.92188 32.440624Q405.59375 32.440624 406.20312 32.096874Q406.8125 31.7375 407.09375 31.175L407.09375 29.440624L405.95312 29.440624Q403.29688 29.440624 403.29688 31.003124Q403.29688 31.675 403.75 32.065624Q404.20312 32.440624 404.92188 32.440624ZM412.46875 25.096874L412.51562 26.159374Q413.48438 24.940624 415.04688 24.940624Q417.71875 24.940624 417.75 27.95625L417.75 33.55L416.29688 33.55L416.29688 27.95625Q416.29688 27.034374 415.875 26.596874Q415.46875 26.159374 414.60938 26.159374Q413.90625 26.159374 413.375 26.534374Q412.84375 26.909374 412.54688 27.51875L412.54688 33.55L411.09375 33.55L411.09375 25.096874L412.46875 25.096874ZM430.60938 30.58125L425.84375 30.58125L424.76562 33.55L423.21875 33.55L427.5625 22.175L428.875 22.175L433.23438 33.55L431.6875 33.55L430.60938 30.58125ZM426.29688 29.346874L430.15625 29.346874L428.21875 24.01875L426.29688 29.346874ZM435.45312 25.096874L435.5 26.034374Q436.42188 24.940624 438.0 24.940624Q439.78125 24.940624 440.42188 26.3Q440.84375 25.690624 441.51562 25.315624Q442.1875 24.940624 443.10938 24.940624Q445.89062 24.940624 445.9375 27.878124L445.9375 33.55L444.5 33.55L444.5 27.971874Q444.5 27.065624 444.07812 26.6125Q443.67188 26.159374 442.6875 26.159374Q441.89062 26.159374 441.35938 26.64375Q440.82812 27.128124 440.73438 27.940624L440.73438 33.55L439.28125 33.55L439.28125 28.003124Q439.28125 26.159374 437.48438 26.159374Q436.0625 26.159374 435.53125 27.378124L435.53125 33.55L434.09375 33.55L434.09375 25.096874L435.45312 25.096874ZM447.71875 29.2375Q447.71875 28.003124 448.20312 27.01875Q448.6875 26.01875 449.5625 25.4875Q450.4375 24.940624 451.54688 24.940624Q453.28125 24.940624 454.34375 26.14375Q455.40625 27.33125 455.40625 29.315624L455.40625 29.409374Q455.40625 30.64375 454.9375 31.628124Q454.46875 32.6125 453.57812 33.159374Q452.70312 33.70625 451.5625 33.70625Q449.84375 33.70625 448.78125 32.51875Q447.71875 31.315624 447.71875 29.346874L447.71875 29.2375ZM449.17188 29.409374Q449.17188 30.815624 449.8125 31.675Q450.46875 32.51875 451.5625 32.51875Q452.67188 32.51875 453.3125 31.659374Q453.96875 30.8 453.96875 29.2375Q453.96875 27.846874 453.29688 26.9875Q452.64062 26.128124 451.54688 26.128124Q450.48438 26.128124 449.82812 26.9875Q449.17188 27.83125 449.17188 29.409374ZM462.3125 32.70625Q461.46875 33.70625 459.84375 33.70625Q458.48438 33.70625 457.78125 32.925Q457.07812 32.128124 457.0625 30.596874L457.0625 25.096874L458.51562 25.096874L458.51562 30.55Q458.51562 32.471874 460.07812 32.471874Q461.73438 32.471874 462.28125 31.2375L462.28125 25.096874L463.71875 25.096874L463.71875 33.55L462.34375 33.55L462.3125 32.70625ZM467.46875 25.096874L467.51562 26.159374Q468.48438 24.940624 470.04688 24.940624Q472.71875 24.940624 472.75 27.95625L472.75 33.55L471.29688 33.55L471.29688 27.95625Q471.29688 27.034374 470.875 26.596874Q470.46875 26.159374 469.60938 26.159374Q468.90625 26.159374 468.375 26.534374Q467.84375 26.909374 467.54688 27.51875L467.54688 33.55L466.09375 33.55L466.09375 25.096874L467.46875 25.096874ZM477.0625 23.05L477.0625 25.096874L478.64062 25.096874L478.64062 26.20625L477.0625 26.20625L477.0625 31.45625Q477.0625 31.95625 477.26562 32.221874Q477.48438 32.471874 477.98438 32.471874Q478.23438 32.471874 478.67188 32.378124L478.67188 33.55Q478.10938 33.70625 477.5625 33.70625Q476.59375 33.70625 476.09375 33.128124Q475.60938 32.534374 475.60938 31.45625L475.60938 26.20625L474.07812 26.20625L474.07812 25.096874L475.60938 25.096874L475.60938 23.05L477.0625 23.05Z"
     fill-rule="nonzero"
     id="path75" />
  <text
     xml:space="preserve"
     style="font-style:normal;font-weight:normal;font-size:40px;line-height:1.25;font-family:sans-serif;letter-spacing:0px;word-spacing:0px;fill:#000000;fill-opacity:1;stroke:none"
     x="378.5943"
     y="157.40625"
     id="text892"><tspan
       sodipodi:role="line"
       id="tspan890"
       x="378.5943"
       y="157.40625"
       style="font-style:normal;font-variant:normal;font-weight:normal;font-stretch:normal;font-size:16px;font-family:roboto;-inkscape-font-specification:roboto;fill:#ffffff;fill-opacity:1">$12K Savings</tspan></text>
  <text
     xml:space="preserve"
     style="font-style:normal;font-weight:normal;font-size:40px;line-height:1.25;font-family:sans-serif;letter-spacing:0px;word-spacing:0px;fill:#000000;fill-opacity:1;stroke:none"
     x="376.1543"
     y="259.50977"
     id="text892-3"><tspan
       sodipodi:role="line"
       x="376.1543"
       y="259.50977"
       style="font-style:normal;font-variant:normal;font-weight:normal;font-stretch:normal;font-size:13.33333302px;line-height:0.30000001px;font-family:roboto;-inkscape-font-specification:roboto;fill:#000000;fill-opacity:1"
       id="tspan4627">Interest and Fees</tspan></text>
  <text
     xml:space="preserve"
     style="font-style:normal;font-weight:normal;font-size:40px;line-height:1.25;font-family:sans-serif;letter-spacing:0px;word-spacing:0px;fill:#000000;fill-opacity:1;stroke:none"
     x="412.0239"
     y="275.33398"
     id="text892-3-7"><tspan
       sodipodi:role="line"
       x="412.0239"
       y="275.33398"
       style="font-style:normal;font-variant:normal;font-weight:normal;font-stretch:normal;font-size:13.33333302px;line-height:0.30000001px;font-family:roboto;-inkscape-font-specification:roboto;fill:#000000;fill-opacity:1"
       id="tspan4627-7">$20K</tspan></text>
  <text
     xml:space="preserve"
     style="font-style:normal;font-weight:normal;font-size:40px;line-height:1.25;font-family:sans-serif;letter-spacing:0px;word-spacing:0px;fill:#000000;fill-opacity:1;stroke:none"
     x="149.1543"
     y="218.00977"
     id="text892-3-6"><tspan
       sodipodi:role="line"
       x="149.1543"
       y="218.00977"
       style="font-style:normal;font-variant:normal;font-weight:normal;font-stretch:normal;font-size:13.33333302px;line-height:0.30000001px;font-family:roboto;-inkscape-font-specification:roboto;fill:#000000;fill-opacity:1"
       id="tspan4627-1">Interest and Fees</tspan></text>
  <text
     xml:space="preserve"
     style="font-style:normal;font-weight:normal;font-size:40px;line-height:1.25;font-family:sans-serif;letter-spacing:0px;word-spacing:0px;fill:#000000;fill-opacity:1;stroke:none"
     x="185.0239"
     y="233.83398"
     id="text892-3-7-0"><tspan
       sodipodi:role="line"
       x="185.0239"
       y="233.83398"
       style="font-style:normal;font-variant:normal;font-weight:normal;font-stretch:normal;font-size:13.33333302px;line-height:0.30000001px;font-family:roboto;-inkscape-font-specification:roboto;fill:#000000;fill-opacity:1"
       id="tspan4627-7-9">$32K</tspan></text>
</svg>
