<?xml version="1.0" encoding="UTF-8"?>
<svg width="406px" height="70px" viewBox="0 0 406 70" version="1.1" xmlns="http://www.w3.org/2000/svg" xmlns:xlink="http://www.w3.org/1999/xlink">
    <!-- Generator: Sketch 54.1 (76490) - https://sketchapp.com -->
    <title>Group 4</title>
    <desc>Created with Sketch.</desc>
    <g id="Page-1" stroke="none" stroke-width="1" fill="none" fill-rule="evenodd">
        <g id="Final" transform="translate(-23.000000, -34.000000)">
            <g id="Group-4" transform="translate(23.000000, 33.000000)">
                <g id="Group-2-Copy-18">
                    <g id="Group" transform="translate(34.739272, 19.716848) rotate(-45.000000) translate(-34.739272, -19.716848) translate(19.486936, 7.716848)" fill="#32C2F0">
                        <rect id="Rectangle" x="0" y="0" width="30.2829894" height="8.47395451" rx="1.92"></rect>
                        <rect id="Rectangle-Copy" x="0" y="15.2531181" width="30.2829894" height="8.47395451" rx="1.92"></rect>
                    </g>
                    <path d="M32.1498317,48.2633953 L56.8655954,23.6456581 C57.6147801,22.8994448 58.8263,22.8994448 59.5754847,23.6456581 L62.8480495,26.9052434 C63.5993446,27.6535587 63.6017601,28.8692331 62.8534449,29.6205281 C62.85165,29.6223301 62.8498515,29.6241286 62.8480495,29.6259234 L33.5047763,58.8528167 C32.7555916,59.59903 31.5440717,59.59903 30.794887,58.8528167 L29.0087729,57.0737866 L1.15195047,29.3274486 C0.400655433,28.5791334 0.398239866,27.363459 1.14655515,26.612164 C1.14835001,26.610362 1.15014846,26.6085635 1.15195047,26.6067686 L4.42451528,23.3471833 C5.1737,22.60097 6.38521992,22.60097 7.13440464,23.3471833 L32.1498317,48.2633953 Z" id="Combined-Shape" fill="#3B61E3"></path>
                </g>
                <g id="LeverEdge-Copy-7" transform="translate(101.000000, 10.000000)" fill-rule="nonzero">
                    <g id="LeverEdge-Copy-6">
                        <path d="M0,42.568 L1.02674762e-05,2.58579945 C1.02674762e-05,1.52515226 0.828002105,0.648958638 1.8869536,0.589007158 C2.13432656,0.575002386 2.40134202,0.568 2.688,0.568 C3.40276073,0.568 4.11794367,0.611535082 4.8335488,0.698605245 L4.8335508,0.698588762 C5.83730081,0.820718513 6.592,1.6728105 6.592,2.68396319 L6.592,41.064 L26.736,41.064 C27.8405695,41.064 28.736,41.9594305 28.736,43.064 L28.736,44.568 C28.736,45.6725695 27.8405695,46.568 26.736,46.568 L4,46.568 C1.790861,46.568 2.04689834e-15,44.777139 1.77635684e-15,42.568 Z M61.297,30.818 L39.688,30.818 C39.8980011,38.2520372 43.2789673,41.969 49.831,41.969 C53.4850183,41.969 58.008,39.188 59.848,38.378 C61.688,37.568 63.2290072,41.6539937 61.801,42.914 C60.3729929,44.1740063 58.556511,45.1714963 56.3515,45.9065 C54.146489,46.6415037 51.9310112,47.009 49.705,47.009 C44.6229746,47.009 40.6330145,45.5495146 37.735,42.6305 C34.8369855,39.7114854 33.388,35.7110254 33.388,30.629 C33.388,27.3949838 34.0284936,24.5180126 35.3095,21.998 C36.5905064,19.4779874 38.3859885,17.5250069 40.696,16.139 C43.0060116,14.7529931 45.6309853,14.06 48.571,14.06 C52.8550214,14.06 56.2254877,15.4459861 58.6825,18.218 C61.1395123,20.9900139 62.368,24.8329754 62.368,29.747 L62.368,29.747 C62.368,30.338497 61.888497,30.818 61.297,30.818 Z M48.697,18.785 C46.3029881,18.785 44.3500076,19.4989929 42.838,20.927 C41.3259925,22.3550071 40.3600021,24.3919868 39.94,27.038 L56.761,27.038 C56.5089988,24.3499866 55.690007,22.302507 54.304,20.8955 C52.9179931,19.488493 51.0490118,18.785 48.697,18.785 Z M93.6627671,14.879 L95.6368834,14.879 C96.7414529,14.879 97.6368834,15.7744305 97.6368834,16.879 C97.6368834,17.1537232 97.5802851,17.4255006 97.4706176,17.6773853 L85.4151683,45.3663853 C85.0974574,46.0961049 84.3773179,46.568 83.5814341,46.568 L80.474356,46.568 C79.6760412,46.568 78.954189,46.0932537 78.6379596,45.3602426 L66.6926057,17.6712426 C66.2550622,16.6570289 66.7225458,15.4801471 67.7367595,15.0426036 C67.9869392,14.9346732 68.256534,14.879 68.5290021,14.879 L70.8826603,14.879 C71.6966001,14.879 72.4293492,15.3722646 72.7356454,16.1263737 L82.183,39.386 L91.8147913,16.1141566 C92.1242205,15.3665296 92.8536364,14.879 93.6627671,14.879 Z M129.781,30.818 L108.172,30.818 C108.382001,38.2520372 111.762967,41.969 118.315,41.969 C121.969018,41.969 125.976,40.188 128.332,38.378 C130.688,36.568 131.713007,41.6539937 130.285,42.914 C128.856993,44.1740063 127.040511,45.1714963 124.8355,45.9065 C122.630489,46.6415037 120.415011,47.009 118.189,47.009 C113.106975,47.009 109.117015,45.5495146 106.219,42.6305 C103.320986,39.7114854 101.872,35.7110254 101.872,30.629 C101.872,27.3949838 102.512494,24.5180126 103.7935,21.998 C105.074506,19.4779874 106.869989,17.5250069 109.18,16.139 C111.490012,14.7529931 114.114985,14.06 117.055,14.06 C121.339021,14.06 124.709488,15.4459861 127.1665,18.218 C129.623512,20.9900139 130.852,24.8329754 130.852,29.747 L130.852,29.747 C130.852,30.338497 130.372497,30.818 129.781,30.818 Z M117.181,18.785 C114.786988,18.785 112.834008,19.4989929 111.322,20.927 C109.809993,22.3550071 108.844002,24.3919868 108.424,27.038 L125.245,27.038 C124.992999,24.3499866 124.174007,22.302507 122.788,20.8955 C121.401993,19.488493 119.533012,18.785 117.181,18.785 Z M154.573,14.06 C154.921149,14.06 155.375677,14.1029608 155.936583,14.1888825 L155.936583,14.1888802 C156.8961,14.3358625 157.611535,15.1506172 157.63325,16.121083 L157.6425,16.5345 C157.667073,17.6327232 156.796708,18.5429293 155.698484,18.5675023 C155.683656,18.5678341 155.668824,18.568 155.653991,18.568 C154.998661,18.568 154.34333,18.568 153.688,18.568 C152.739177,18.568 151.875095,18.7792242 151.091118,19.1245331 C149.480574,19.8339104 148.208096,21.1091601 147.2335,22.2815 C145.784493,24.0245087 145.06,26.2189868 145.06,28.865 L145.06,43.418 C145.06,45.157697 143.649697,46.568 141.91,46.568 L141.91,46.568 C140.170303,46.568 138.76,45.157697 138.76,43.418 L138.76,23.762 C138.76,21.9917214 138.652399,19.7282767 138.437196,16.971666 L138.437192,16.9716663 C138.351222,15.8704453 139.174246,14.9080369 140.275467,14.8220669 C140.327256,14.8180238 140.379182,14.816 140.431129,14.816 L142.366045,14.816 C143.394381,14.816 144.255125,15.5958147 144.356334,16.6191582 L144.745,20.549 C145.585004,18.4489895 146.886991,16.8425056 148.651,15.7295 C150.415009,14.6164944 152.388989,14.06 154.573,14.06 Z" id="Lever" fill="#3B61E3"></path>
                        <path d="M163.698,44.568 L163.698,3 C163.698,1.8954305 164.593431,1 165.698,1 L191.266,1 C192.37057,1 193.266,1.8954305 193.266,3 L193.266,4.376 C193.266,5.4805695 192.37057,6.376 191.266,6.376 L172.226,6.376 C171.121431,6.376 170.226,7.2714305 170.226,8.376 L170.226,18.712 C170.226,19.8165695 171.121431,20.712 172.226,20.712 L189.986,20.712 C191.09057,20.712 191.986,21.6074305 191.986,22.712 L191.986,24.088 C191.986,25.1925695 191.09057,26.088 189.986,26.088 L172.226,26.088 C171.121431,26.088 170.226,26.9834305 170.226,28.088 L170.226,39.192 C170.226,40.2965695 171.121431,41.192 172.226,41.192 L191.266,41.192 C192.37057,41.192 193.266,42.0874305 193.266,43.192 L193.266,44.568 C193.266,45.6725695 192.37057,46.568 191.266,46.568 L165.698,46.568 C164.593431,46.568 163.698,45.6725695 163.698,44.568 Z M228.91,4.408 L228.91,44.568 C228.91,45.6725695 228.01457,46.568 226.91,46.568 L224.91,46.568 C223.805431,46.568 222.91,45.6725695 222.91,44.568 L222.91,41.408 C222.029996,43.208009 220.720009,44.5879952 218.98,45.548 C217.239991,46.5080048 215.210012,46.988 212.89,46.988 C210.289987,46.988 207.97001,46.3280066 205.93,45.008 C203.88999,43.6879934 202.300006,41.8380119 201.16,39.458 C200.019994,37.0779881 199.45,34.3280156 199.45,31.208 C199.45,28.0879844 200.009995,25.3480118 201.13,22.988 C202.250006,20.6279882 203.81999,18.8080064 205.84,17.528 C207.86001,16.2479936 210.209987,15.608 212.89,15.608 C215.170012,15.608 217.179991,16.0879952 218.92,17.048 C220.660009,18.0080048 221.969996,19.3679912 222.85,21.128 L222.85,4.408 C222.85,3.3034305 223.745431,2.408 224.85,2.408 L226.91,2.408 C228.01457,2.408 228.91,3.3034305 228.91,4.408 Z M213.27,42.188 C216.030014,42.188 218.159993,41.2380095 219.66,39.338 C221.160008,37.4379905 221.91,34.7680172 221.91,31.328 C221.91,27.8879828 221.160008,25.2180095 219.66,23.318 C218.159993,21.4179905 216.050014,20.468 213.33,20.468 C210.569986,20.468 208.420008,21.4079906 206.88,23.288 C205.339992,25.1680094 204.57,27.807983 204.57,31.208 C204.57,34.6480172 205.339992,37.3379903 206.88,39.278 C208.420008,41.2180097 210.549987,42.188 213.27,42.188 Z M267.368,17.32 L267.368,46.01 C267.368,50.7633571 266.117679,54.3489879 263.617,56.767 C261.116321,59.1850121 257.406691,60.394 252.488,60.394 C247.734643,60.394 243.580685,59.360677 240.026,57.294 C236.471316,55.227323 239.137324,51.3626615 241.08,52.396 C243.022677,53.4293385 244.892991,54.1939975 246.691,54.69 C248.489009,55.1860025 250.400657,55.434 252.426,55.434 C258.254029,55.434 261.168,52.4580298 261.168,46.506 L261.168,39.748 C260.217329,41.5666758 258.832676,43.0029947 257.014,44.057 C255.195324,45.1110053 253.087345,45.638 250.69,45.638 C247.961987,45.638 245.533677,44.9973397 243.405,43.716 C241.276323,42.4346603 239.623006,40.6160118 238.445,38.26 C237.266994,35.9039882 236.678,33.196682 236.678,30.138 C236.678,27.079318 237.266994,24.3720118 238.445,22.016 C239.623006,19.6599882 241.276323,17.8310065 243.405,16.529 C245.533677,15.2269935 247.961987,14.576 250.69,14.576 C253.087345,14.576 255.195324,15.0823283 257.014,16.095 C258.832676,17.1076717 260.217329,18.5439907 261.168,20.404 L261.168,17.32 C261.168,16.2154305 262.063431,15.32 263.168,15.32 L265.368,15.32 C266.47257,15.32 267.368,16.2154305 267.368,17.32 Z M251.534423,40.616 C254.474142,40.616 256.786975,39.6860093 258.47299,37.826 C260.159005,35.9659907 261.002,33.4033497 261.002,30.138 C261.002,26.8726503 260.169813,24.2996761 258.505413,22.419 C256.841013,20.5383239 254.517373,19.598 251.534423,19.598 C248.594704,19.598 246.271064,20.5383239 244.563434,22.419 C242.855803,24.2996761 242.002,26.8726503 242.002,30.138 C242.002,33.3620161 242.855803,35.9143239 244.563434,37.795 C246.271064,39.6756761 248.594704,40.616 251.534423,40.616 Z M303.237,30.818 L281.628,30.818 C281.838001,38.2520372 285.218967,41.969 291.771,41.969 C295.425018,41.969 298.763985,40.772012 301.788,38.378 C304.812015,35.983988 305.169007,41.6539937 303.741,42.914 C302.312993,44.1740063 300.496511,45.1714963 298.2915,45.9065 C296.086489,46.6415037 293.871011,47.009 291.645,47.009 C286.562975,47.009 282.573015,45.5495146 279.675,42.6305 C276.776986,39.7114854 275.328,35.7110254 275.328,30.629 C275.328,27.3949838 275.968494,24.5180126 277.2495,21.998 C278.530507,19.4779874 280.325989,17.5250069 282.636,16.139 C284.946012,14.7529931 287.570985,14.06 290.511,14.06 C294.795022,14.06 298.165488,15.4459861 300.6225,18.218 C303.079512,20.9900139 304.308,24.8329754 304.308,29.747 L304.308,29.747 C304.308,30.338497 303.828497,30.818 303.237,30.818 Z M290.637,18.785 C288.242988,18.785 286.290008,19.4989929 284.778,20.927 C283.265993,22.3550071 282.300002,24.3919868 281.88,27.038 L298.701,27.038 C298.448999,24.3499866 297.630007,22.302507 296.244,20.8955 C294.857993,19.488493 292.989012,18.785 290.637,18.785 Z" id="Edge" fill="#32C2F0"></path>
                    </g>
                </g>
            </g>
        </g>
    </g>
</svg>