<?xml version="1.0" encoding="UTF-8"?>
<svg width="64px" height="59px" viewBox="0 0 64 59" version="1.1" xmlns="http://www.w3.org/2000/svg" xmlns:xlink="http://www.w3.org/1999/xlink">
    <!-- Generator: Sketch 54.1 (76490) - https://sketchapp.com -->
    <title>Group 2 Copy 18</title>
    <desc>Created with Sketch.</desc>
    <g id="Page-1" stroke="none" stroke-width="1" fill="none" fill-rule="evenodd">
        <g id="Final" transform="translate(-23.000000, -34.000000)">
            <g id="Group-4" transform="translate(23.000000, 33.000000)">
                <g id="Group-2-Copy-18">
                    <g id="Group" transform="translate(34.739272, 19.716848) rotate(-45.000000) translate(-34.739272, -19.716848) translate(19.486936, 7.716848)" fill="#32C2F0">
                        <rect id="Rectangle" x="0" y="0" width="30.2829894" height="8.47395451" rx="1.92"></rect>
                        <rect id="Rectangle-Copy" x="0" y="15.2531181" width="30.2829894" height="8.47395451" rx="1.92"></rect>
                    </g>
                    <path d="M32.1498317,48.2633953 L56.8655954,23.6456581 C57.6147801,22.8994448 58.8263,22.8994448 59.5754847,23.6456581 L62.8480495,26.9052434 C63.5993446,27.6535587 63.6017601,28.8692331 62.8534449,29.6205281 C62.85165,29.6223301 62.8498515,29.6241286 62.8480495,29.6259234 L33.5047763,58.8528167 C32.7555916,59.59903 31.5440717,59.59903 30.794887,58.8528167 L29.0087729,57.0737866 L1.15195047,29.3274486 C0.400655433,28.5791334 0.398239866,27.363459 1.14655515,26.612164 C1.14835001,26.610362 1.15014846,26.6085635 1.15195047,26.6067686 L4.42451528,23.3471833 C5.1737,22.60097 6.38521992,22.60097 7.13440464,23.3471833 L32.1498317,48.2633953 Z" id="Combined-Shape" fill="#3B61E3"></path>
                </g>
            </g>
        </g>
    </g>
</svg>