<svg width="165" height="39" viewBox="0 0 165 39" fill="none" xmlns="http://www.w3.org/2000/svg">
<path fill-rule="evenodd" clip-rule="evenodd" d="M1.29776 16.868C0.516713 17.6491 0.516713 18.9154 1.29776 19.6965L18.1456 36.5443C18.2173 36.6514 18.3004 36.7531 18.395 36.8478L19.4905 37.9432C19.888 38.3407 20.4112 38.5359 20.9321 38.5288C21.4528 38.5357 21.9756 38.3405 22.3729 37.9432L23.4684 36.8477C23.563 36.7532 23.6461 36.6514 23.7178 36.5443L40.3516 19.9105C41.1327 19.1295 41.1327 17.8631 40.3516 17.0821L39.2562 15.9866C38.4751 15.2056 37.2088 15.2056 36.4277 15.9866L20.9317 31.4826L5.22165 15.7726C4.4406 14.9915 3.17427 14.9915 2.39322 15.7726L1.29776 16.868Z" fill="#488C89"/>
<rect width="5.54921" height="19.824" rx="2" transform="matrix(-0.707107 -0.707107 -0.707107 0.707107 34.9219 11.2988)" fill="#488C89"/>
<rect width="5.54921" height="19.824" rx="2" transform="matrix(-0.707107 -0.707107 -0.707107 0.707107 27.9462 4.47867)" fill="#488C89"/>
<path d="M68.0779 24.052V27H57.9359V11.38H61.1479V24.052H68.0779ZM79.769 22.138H71.409C71.5117 22.93 71.805 23.5387 72.289 23.964C72.773 24.3747 73.411 24.58 74.203 24.58C74.7017 24.58 75.149 24.4773 75.545 24.272C75.9557 24.052 76.249 23.7367 76.425 23.326H79.571C79.2337 24.4993 78.5663 25.4527 77.569 26.186C76.5863 26.9047 75.435 27.264 74.115 27.264C72.4137 27.264 71.0203 26.6993 69.935 25.57C68.8497 24.4407 68.307 22.9887 68.307 21.214C68.307 19.498 68.8497 18.068 69.935 16.924C71.0203 15.78 72.4063 15.208 74.093 15.208C75.7797 15.208 77.151 15.78 78.207 16.924C79.2777 18.0533 79.813 19.4833 79.813 21.214L79.769 22.138ZM74.071 17.716C73.367 17.716 72.7877 17.914 72.333 18.31C71.8783 18.6913 71.585 19.2193 71.453 19.894H76.689C76.5717 19.234 76.2857 18.706 75.831 18.31C75.3763 17.914 74.7897 17.716 74.071 17.716ZM85.8735 23.238L88.6895 15.472H91.9235L87.3035 27H84.3995L79.7795 15.472H83.0795L85.8735 23.238ZM103.37 22.138H95.01C95.1127 22.93 95.406 23.5387 95.89 23.964C96.374 24.3747 97.012 24.58 97.804 24.58C98.3027 24.58 98.75 24.4773 99.146 24.272C99.5567 24.052 99.85 23.7367 100.026 23.326H103.172C102.835 24.4993 102.167 25.4527 101.17 26.186C100.187 26.9047 99.036 27.264 97.716 27.264C96.0147 27.264 94.6213 26.6993 93.536 25.57C92.4507 24.4407 91.908 22.9887 91.908 21.214C91.908 19.498 92.4507 18.068 93.536 16.924C94.6213 15.78 96.0073 15.208 97.694 15.208C99.3807 15.208 100.752 15.78 101.808 16.924C102.879 18.0533 103.414 19.4833 103.414 21.214L103.37 22.138ZM97.672 17.716C96.968 17.716 96.3887 17.914 95.934 18.31C95.4793 18.6913 95.186 19.2193 95.054 19.894H100.29C100.173 19.234 99.8867 18.706 99.432 18.31C98.9773 17.914 98.3907 17.716 97.672 17.716ZM111.817 15.384V18.31C111.597 18.266 111.391 18.244 111.201 18.244C110.277 18.244 109.58 18.486 109.111 18.97C108.656 19.454 108.429 20.2167 108.429 21.258V27H105.305V15.472H108.187V16.968C108.847 15.8973 109.932 15.362 111.443 15.362L111.817 15.384ZM123.534 22.138H115.174C115.276 22.93 115.57 23.5387 116.054 23.964C116.538 24.3747 117.176 24.58 117.968 24.58C118.466 24.58 118.914 24.4773 119.31 24.272C119.72 24.052 120.014 23.7367 120.19 23.326H123.336C122.998 24.4993 122.331 25.4527 121.334 26.186C120.351 26.9047 119.2 27.264 117.88 27.264C116.178 27.264 114.785 26.6993 113.7 25.57C112.614 24.4407 112.072 22.9887 112.072 21.214C112.072 19.498 112.614 18.068 113.7 16.924C114.785 15.78 116.171 15.208 117.858 15.208C119.544 15.208 120.916 15.78 121.972 16.924C123.042 18.0533 123.578 19.4833 123.578 21.214L123.534 22.138ZM117.836 17.716C117.132 17.716 116.552 17.914 116.098 18.31C115.643 18.6913 115.35 19.2193 115.218 19.894H120.454C120.336 19.234 120.05 18.706 119.596 18.31C119.141 17.914 118.554 17.716 117.836 17.716ZM133.454 16.704V10.5H136.578V27H133.696V25.592C132.933 26.7067 131.716 27.264 130.044 27.264C128.416 27.264 127.125 26.692 126.172 25.548C125.219 24.404 124.742 22.9667 124.742 21.236C124.742 19.5053 125.219 18.068 126.172 16.924C127.125 15.78 128.416 15.208 130.044 15.208C130.807 15.208 131.481 15.3547 132.068 15.648C132.669 15.9267 133.131 16.2787 133.454 16.704ZM132.75 23.59C133.278 22.974 133.542 22.1893 133.542 21.236C133.542 20.2827 133.278 19.498 132.75 18.882C132.237 18.266 131.555 17.958 130.704 17.958C129.853 17.958 129.164 18.266 128.636 18.882C128.123 19.498 127.866 20.2827 127.866 21.236C127.866 22.1893 128.123 22.974 128.636 23.59C129.164 24.206 129.853 24.514 130.704 24.514C131.555 24.514 132.237 24.206 132.75 23.59ZM147.353 16.88V15.472H150.235V26.56C150.235 28.1 149.736 29.3613 148.739 30.344C147.742 31.3267 146.385 31.818 144.669 31.818C143.041 31.818 141.772 31.3853 140.863 30.52C139.968 29.6547 139.47 28.6867 139.367 27.616H142.491C142.696 28.628 143.437 29.134 144.713 29.134C145.49 29.134 146.084 28.936 146.495 28.54C146.906 28.144 147.111 27.594 147.111 26.89V25.284C146.363 26.2813 145.241 26.78 143.745 26.78C142.176 26.78 140.907 26.23 139.939 25.13C138.971 24.0153 138.487 22.6367 138.487 20.994C138.487 19.3513 138.971 17.98 139.939 16.88C140.907 15.7653 142.176 15.208 143.745 15.208C145.388 15.208 146.59 15.7653 147.353 16.88ZM146.429 23.194C146.942 22.6367 147.199 21.9033 147.199 20.994C147.199 20.0847 146.942 19.3513 146.429 18.794C145.916 18.2367 145.241 17.958 144.405 17.958C143.569 17.958 142.894 18.2367 142.381 18.794C141.868 19.3513 141.611 20.0847 141.611 20.994C141.611 21.9033 141.868 22.6367 142.381 23.194C142.894 23.7513 143.569 24.03 144.405 24.03C145.241 24.03 145.916 23.7513 146.429 23.194ZM163.5 22.138H155.14C155.243 22.93 155.536 23.5387 156.02 23.964C156.504 24.3747 157.142 24.58 157.934 24.58C158.433 24.58 158.88 24.4773 159.276 24.272C159.687 24.052 159.98 23.7367 160.156 23.326H163.302C162.965 24.4993 162.298 25.4527 161.3 26.186C160.318 26.9047 159.166 27.264 157.846 27.264C156.145 27.264 154.752 26.6993 153.666 25.57C152.581 24.4407 152.038 22.9887 152.038 21.214C152.038 19.498 152.581 18.068 153.666 16.924C154.752 15.78 156.138 15.208 157.824 15.208C159.511 15.208 160.882 15.78 161.938 16.924C163.009 18.0533 163.544 19.4833 163.544 21.214L163.5 22.138ZM157.802 17.716C157.098 17.716 156.519 17.914 156.064 18.31C155.61 18.6913 155.316 19.2193 155.184 19.894H160.42C160.303 19.234 160.017 18.706 159.562 18.31C159.108 17.914 158.521 17.716 157.802 17.716Z" fill="#2A2E2D"/>
</svg>
