<?xml version="1.0" encoding="utf-8"?>
<!-- Generator: Adobe Illustrator 24.0.0, SVG Export Plug-In . SVG Version: 6.00 Build 0)  -->
<svg version="1.1" id="Layer_1" xmlns="http://www.w3.org/2000/svg" xmlns:xlink="http://www.w3.org/1999/xlink" x="0px" y="0px"
	 viewBox="0 0 165 39" style="enable-background:new 0 0 165 39;" xml:space="preserve">
<style type="text/css">
	.st0{display:none;}
	.st1{display:inline;fill:#EDF6F5;}
	.st2{enable-background:new    ;}
	.st3{fill:#222222;}
	.st4{fill-rule:evenodd;clip-rule:evenodd;fill:#2F706B;}
</style>
<g id="Layer_2_1_" class="st0">
	<rect class="st1" width="165" height="39"/>
</g>
<g id="Layer_1_1_">
	<g>
		<g class="st2">
			<path class="st3" d="M55.3,24.3v2.9H46V7.6h3.2v16.6H55.3z"/>
			<path class="st3" d="M58.9,21.6c0,0.5,0.1,0.9,0.3,1.3c0.1,0.4,0.3,0.8,0.6,1.1c0.3,0.3,0.6,0.5,1,0.7c0.4,0.2,1,0.3,1.6,0.3
				c0.9,0,1.5-0.2,1.9-0.5c0.4-0.3,0.7-0.7,0.9-1.2h3.1c-0.1,0.6-0.3,1.1-0.6,1.6c-0.3,0.5-0.7,1-1.2,1.4c-0.5,0.4-1.1,0.7-1.8,0.9
				c-0.7,0.2-1.4,0.3-2.3,0.3c-1.1,0-2-0.2-2.9-0.5c-0.8-0.4-1.5-0.8-2-1.4c-0.5-0.6-0.9-1.3-1.2-2.2c-0.3-0.8-0.4-1.7-0.4-2.7
				c0-1,0.1-1.9,0.4-2.7c0.3-0.8,0.7-1.6,1.2-2.2c0.5-0.6,1.2-1.1,2-1.4c0.8-0.3,1.7-0.5,2.7-0.5c0.8,0,1.6,0.1,2.4,0.4
				c0.7,0.3,1.4,0.7,1.9,1.2c0.5,0.5,1,1.1,1.3,1.9c0.3,0.7,0.5,1.5,0.5,2.3c0,0.2,0,0.5,0,0.8c0,0.3-0.1,0.7-0.1,1.1H58.9z
				 M62.2,16.1c-0.9,0-1.7,0.3-2.4,0.8c-0.6,0.5-0.9,1.3-0.9,2.4h6.5c0-1-0.3-1.8-0.9-2.4C63.9,16.4,63.1,16.1,62.2,16.1z"/>
			<path class="st3" d="M71.5,14.2l3.6,8.6l3.6-8.6h3.3l-5.9,13h-2l-5.8-13H71.5z"/>
			<path class="st3" d="M84.8,21.6c0,0.5,0.1,0.9,0.3,1.3c0.1,0.4,0.3,0.8,0.6,1.1c0.3,0.3,0.6,0.5,1,0.7c0.4,0.2,1,0.3,1.6,0.3
				c0.9,0,1.5-0.2,1.9-0.5c0.4-0.3,0.7-0.7,0.9-1.2h3.1c-0.1,0.6-0.3,1.1-0.6,1.6c-0.3,0.5-0.7,1-1.2,1.4c-0.5,0.4-1.1,0.7-1.8,0.9
				c-0.7,0.2-1.4,0.3-2.3,0.3c-1.1,0-2-0.2-2.9-0.5c-0.8-0.4-1.5-0.8-2-1.4c-0.5-0.6-0.9-1.3-1.2-2.2c-0.3-0.8-0.4-1.7-0.4-2.7
				c0-1,0.1-1.9,0.4-2.7c0.3-0.8,0.7-1.6,1.2-2.2c0.5-0.6,1.2-1.1,2-1.4c0.8-0.3,1.7-0.5,2.7-0.5c0.8,0,1.6,0.1,2.4,0.4
				c0.7,0.3,1.4,0.7,1.9,1.2c0.5,0.5,1,1.1,1.3,1.9c0.3,0.7,0.5,1.5,0.5,2.3c0,0.2,0,0.5,0,0.8c0,0.3-0.1,0.7-0.1,1.1H84.8z
				 M88.1,16.1c-0.9,0-1.7,0.3-2.4,0.8c-0.6,0.5-0.9,1.3-0.9,2.4h6.5c0-1-0.3-1.8-0.9-2.4C89.8,16.4,89,16.1,88.1,16.1z"/>
			<path class="st3" d="M105.1,17c-0.2-0.1-0.4-0.1-0.6-0.1c-0.2,0-0.4,0-0.6,0c-1.3,0-2.3,0.4-3,1.1c-0.7,0.8-1,1.9-1,3.6v5.6h-3
				v-13h3v2.1c0.1-0.3,0.4-0.6,0.6-0.8c0.3-0.3,0.6-0.5,0.9-0.7c0.4-0.2,0.8-0.4,1.2-0.5c0.4-0.1,0.8-0.2,1.3-0.2
				c0.5,0,0.9,0.1,1.2,0.2V17z"/>
			<path class="st3" d="M109.9,10.5V16h8.1v2.9h-8.1v5.4h8.1v2.9h-11.3V7.6H118v2.9H109.9z"/>
			<path class="st3" d="M131,25.4c-0.4,0.7-1,1.2-1.7,1.5c-0.8,0.4-1.5,0.6-2.3,0.6c-1,0-1.9-0.2-2.7-0.5c-0.8-0.4-1.5-0.9-2.1-1.5
				c-0.6-0.6-1-1.4-1.4-2.2c-0.3-0.8-0.5-1.7-0.5-2.6c0-0.9,0.2-1.8,0.5-2.6c0.3-0.8,0.8-1.6,1.4-2.2c0.6-0.6,1.3-1.1,2.1-1.5
				c0.8-0.4,1.7-0.5,2.7-0.5c0.8,0,1.5,0.2,2.3,0.6c0.8,0.4,1.3,0.9,1.7,1.5V7.6h3v19.5h-3V25.4z M127.1,24.8c0.6,0,1.1-0.1,1.6-0.3
				c0.5-0.2,0.9-0.5,1.2-0.9c0.3-0.4,0.6-0.8,0.8-1.3c0.2-0.5,0.3-1,0.3-1.6s-0.1-1.1-0.3-1.6c-0.2-0.5-0.4-0.9-0.8-1.3
				c-0.3-0.4-0.7-0.7-1.2-0.9c-0.5-0.2-1-0.3-1.6-0.3c-0.6,0-1.1,0.1-1.6,0.3c-0.5,0.2-0.9,0.5-1.2,0.9c-0.3,0.4-0.6,0.8-0.8,1.3
				c-0.2,0.5-0.3,1-0.3,1.6s0.1,1.1,0.3,1.6c0.2,0.5,0.4,0.9,0.8,1.3c0.3,0.4,0.7,0.7,1.2,0.9C126,24.7,126.5,24.8,127.1,24.8z"/>
			<path class="st3" d="M150.2,27.8c0,1.1-0.2,2-0.5,2.8c-0.3,0.8-0.8,1.4-1.4,1.9c-0.6,0.5-1.3,0.9-2.2,1.1
				c-0.9,0.2-1.8,0.4-2.9,0.4c-1.1,0-2-0.2-2.8-0.5c-0.8-0.3-1.5-0.7-2-1.2c-0.5-0.5-1-1.1-1.2-1.7c-0.3-0.6-0.5-1.3-0.5-2h3.1
				c0.1,0.7,0.4,1.3,1,1.9c0.6,0.5,1.4,0.8,2.5,0.8c1.2,0,2.2-0.3,2.9-0.8c0.7-0.5,1-1.4,1-2.7v-2.4c-0.4,0.7-1,1.2-1.7,1.5
				c-0.8,0.4-1.5,0.6-2.3,0.6c-1,0-1.9-0.2-2.7-0.5c-0.8-0.4-1.5-0.9-2.1-1.5c-0.6-0.6-1-1.4-1.4-2.2c-0.3-0.8-0.5-1.7-0.5-2.6
				c0-0.9,0.2-1.8,0.5-2.6c0.3-0.8,0.8-1.6,1.4-2.2c0.6-0.6,1.3-1.1,2.1-1.5c0.8-0.4,1.7-0.5,2.7-0.5c0.8,0,1.5,0.2,2.3,0.6
				c0.8,0.4,1.3,0.9,1.7,1.5v-1.8h3L150.2,27.8z M143.3,16.5c-0.6,0-1.1,0.1-1.6,0.3c-0.5,0.2-0.9,0.5-1.2,0.9
				c-0.3,0.4-0.6,0.8-0.8,1.3c-0.2,0.5-0.3,1-0.3,1.6s0.1,1.1,0.3,1.6c0.2,0.5,0.4,0.9,0.8,1.3c0.3,0.4,0.7,0.7,1.2,0.9
				c0.5,0.2,1,0.3,1.6,0.3c0.6,0,1.1-0.1,1.6-0.3c0.5-0.2,0.9-0.5,1.2-0.9c0.3-0.4,0.6-0.8,0.8-1.3c0.2-0.5,0.3-1,0.3-1.6
				s-0.1-1.1-0.3-1.6c-0.2-0.5-0.4-0.9-0.8-1.3c-0.3-0.4-0.7-0.7-1.2-0.9C144.4,16.6,143.8,16.5,143.3,16.5z"/>
			<path class="st3" d="M155.6,21.6c0,0.5,0.1,0.9,0.3,1.3c0.1,0.4,0.3,0.8,0.6,1.1c0.3,0.3,0.6,0.5,1,0.7c0.4,0.2,1,0.3,1.6,0.3
				c0.9,0,1.5-0.2,1.9-0.5c0.4-0.3,0.7-0.7,0.9-1.2h3.1c-0.1,0.6-0.3,1.1-0.6,1.6c-0.3,0.5-0.7,1-1.2,1.4c-0.5,0.4-1.1,0.7-1.8,0.9
				c-0.7,0.2-1.4,0.3-2.3,0.3c-1.1,0-2-0.2-2.9-0.5c-0.8-0.4-1.5-0.8-2-1.4c-0.5-0.6-0.9-1.3-1.2-2.2c-0.3-0.8-0.4-1.7-0.4-2.7
				c0-1,0.1-1.9,0.4-2.7c0.3-0.8,0.7-1.6,1.2-2.2c0.5-0.6,1.2-1.1,2-1.4c0.8-0.3,1.7-0.5,2.7-0.5c0.8,0,1.6,0.1,2.4,0.4
				c0.7,0.3,1.4,0.7,1.9,1.2c0.5,0.5,1,1.1,1.3,1.9c0.3,0.7,0.5,1.5,0.5,2.3c0,0.2,0,0.5,0,0.8c0,0.3-0.1,0.7-0.1,1.1H155.6z
				 M158.9,16.1c-0.9,0-1.7,0.3-2.4,0.8c-0.6,0.5-0.9,1.3-0.9,2.4h6.5c0-1-0.3-1.8-0.9-2.4C160.6,16.4,159.8,16.1,158.9,16.1z"/>
		</g>
		<g id="Group-2-Copy-18_19_">
			<g>
				
					<g id="Group_17_" transform="translate(34.739272, 19.716848) rotate(-45.000000) translate(-34.739272, -19.716848) translate(19.486936, 7.716848)">
					<path id="Rectangle_17_" class="st4" d="M1.4-10.1h15.3c0.6,0,1.1,0.5,1.1,1.1v2.7c0,0.6-0.5,1.1-1.1,1.1H1.4
						c-0.6,0-1.1-0.5-1.1-1.1V-9C0.3-9.6,0.8-10.1,1.4-10.1z"/>
					<path id="Rectangle-Copy_17_" class="st4" d="M1.4-1.3h15.3c0.6,0,1.1,0.5,1.1,1.1v2.7c0,0.6-0.5,1.1-1.1,1.1H1.4
						c-0.6,0-1.1-0.5-1.1-1.1v-2.7C0.3-0.8,0.8-1.3,1.4-1.3z"/>
				</g>
				<path id="Combined-Shape_17_" class="st4" d="M18.2,29.8l14.3-14.2c0.4-0.4,1.1-0.4,1.6,0l1.9,1.9c0.4,0.4,0.4,1.1,0,1.6l0,0
					L19,35.9c-0.4,0.4-1.1,0.4-1.6,0l-1-1l-16.1-16c-0.4-0.4-0.4-1.1,0-1.6l0,0l1.9-1.9c0.4-0.4,1.1-0.4,1.6,0L18.2,29.8z"/>
			</g>
		</g>
	</g>
</g>
</svg>
