<?xml version="1.0" encoding="UTF-8" standalone="no"?>
<!-- Generator: Adobe Illustrator 16.2.1, SVG Export Plug-In . SVG Version: 6.00 Build 0)  -->

<svg
   xmlns:dc="http://purl.org/dc/elements/1.1/"
   xmlns:cc="http://creativecommons.org/ns#"
   xmlns:rdf="http://www.w3.org/1999/02/22-rdf-syntax-ns#"
   xmlns:svg="http://www.w3.org/2000/svg"
   xmlns="http://www.w3.org/2000/svg"
   xmlns:sodipodi="http://sodipodi.sourceforge.net/DTD/sodipodi-0.dtd"
   xmlns:inkscape="http://www.inkscape.org/namespaces/inkscape"
   version="1.1"
   id="Layer_1"
   x="0px"
   y="0px"
   width="350px"
   height="34px"
   viewBox="0 0 350 34"
   enable-background="new 0 0 350 34"
   xml:space="preserve"
   sodipodi:docname="above-the-law-logo.svg"
   inkscape:version="0.92.4 (5da689c313, 2019-01-14)"><metadata
   id="metadata21"><rdf:RDF><cc:Work
       rdf:about=""><dc:format>image/svg+xml</dc:format><dc:type
         rdf:resource="http://purl.org/dc/dcmitype/StillImage" /></cc:Work></rdf:RDF></metadata><defs
   id="defs19" /><sodipodi:namedview
   pagecolor="#ffffff"
   bordercolor="#666666"
   borderopacity="1"
   objecttolerance="10"
   gridtolerance="10"
   guidetolerance="10"
   inkscape:pageopacity="0"
   inkscape:pageshadow="2"
   inkscape:window-width="1920"
   inkscape:window-height="986"
   id="namedview17"
   showgrid="false"
   inkscape:zoom="3.1678384"
   inkscape:cx="-179.94564"
   inkscape:cy="3.773595"
   inkscape:window-x="-11"
   inkscape:window-y="-11"
   inkscape:window-maximized="1"
   inkscape:current-layer="Layer_1" />
<path
   d="M342.273,0.621v2.336h0.943c0.535,0,0.756,0.152,0.859,0.283c-1.879,7.127-4.041,14.26-6.402,21.244  c-2.783-7.889-5.42-15.797-7.807-23.527l-0.109-0.34l-0.355,0.004l-5.84,0.041l-0.475,0.008c-0.004,0-0.004,0.475-0.004,0.475v1.812  h0.934c0.396,0,0.641,0.088,0.799,0.225c-2.035,7.641-4.285,14.912-6.695,21.684c-2.436-7.764-4.785-15.779-6.969-23.891  l-0.098-0.354h-7.119v2.336h0.939c0.426,0,0.602,0.08,0.697,0.146c3.969,12.355,7.006,22.055,9.287,29.629l0.107,0.338h4.389  l0.104-0.334c2.219-7.111,4.717-14.785,7.426-22.799c2.906,8.176,5.406,15.848,7.402,22.787l0.096,0.346h4.484l0.107-0.326  c4.58-13.951,8.119-24.545,10.539-31.488l0.219-0.635H342.273z M296.414,18.209c-0.949,0.025-1.645,0.037-2.068,0.037  c0.008,0-2.41-0.053-3.617-0.076c1.617-4.486,2.869-7.766,3.764-9.854c1.648,4.162,2.904,7.406,3.826,9.857  C297.771,18.18,297.162,18.189,296.414,18.209 M309.066,30.346c-5.479-13.074-9.605-23.059-12.264-29.666l-0.119-0.301h-2.723  l-0.115,0.299c-6.879,16.756-11.443,27.367-13.566,31.549l-0.352,0.697h7.244v-2.338h-0.939c-0.074,0-0.109-0.004-0.17-0.004  c0.918-2.826,2.064-5.869,3.443-9.086c1.143-0.055,2.807-0.08,5.012-0.08c2.217,0,3.895,0.025,5.053,0.08  c1.424,3.402,2.807,7.127,4.107,11.098l0.109,0.33h7.271v-2.338h-0.895C309.676,30.586,309.32,30.496,309.066,30.346 M276.1,28.221  c0,0.258-0.045,0.682-0.25,0.859c-1.938,0.283-4.426,0.426-7.422,0.426c-0.955,0-1.633-0.012-2.156-0.029  c-0.109-3.35-0.164-7.553-0.164-12.555c0-4.312,0.123-9.631,0.365-15.805l0.02-0.496h-7.697v2.383h0.941  c0.561,0,0.771,0.156,0.859,0.266c0.154,4.166,0.236,8.729,0.236,13.578c0,4.91-0.102,10.17-0.299,15.639l-0.02,0.523l0.521-0.029  c2.082-0.098,4.148-0.146,6.146-0.146c1.602,0,5.127,0.047,10.768,0.146l0.49,0.012v-5.703h-2.34V28.221z M236.812,27.979  c0,0.793-0.111,1.115-0.178,1.244c-3.648,0.285-7.043,0.434-10.072,0.434h-0.213l-0.087-10.971v-1.129  c3.073,0.01,6.626,0.105,10.64,0.295l0.502,0.02v-3.717l-0.49,0.008l-10.651,0.211v-1.029c0-3.078,0.03-6.24,0.087-9.398h0.123  c3.324,0,6.514,0.119,9.484,0.348c0.084,0.115,0.223,0.436,0.223,1.271v0.477h2.34v-5.42h-19.75v2.383h0.938  c0.464,0,0.77,0.096,0.881,0.26c0.096,0.395,0.25,2.662,0.25,13.217c0,6.672-0.112,12.053-0.328,15.998l-0.031,0.502h18.67V27.5  h-2.336V27.979z M212.847,30.24c-0.196-5.32-0.296-10.246-0.296-14.641c0-5.051,0.107-9.92,0.321-14.479l0.022-0.5h-7.807v2.396  h0.896c0.292,0,0.66,0.219,1.06,0.582c0.152,2.646,0.232,5.754,0.232,9.277v0.812c-0.711,0.008-1.851,0.041-3.499,0.094  c-1.521,0.033-2.851,0.053-3.942,0.053c-1.131,0-2.631-0.02-4.459-0.053c-1.98-0.051-3.258-0.082-3.951-0.094v-0.812  c0-6.016,0.105-9.957,0.318-11.721l0.062-0.535h-7.782v2.396h0.892c0.594,0,0.92,0.125,0.995,0.361  c0.116,2.662,0.181,6.77,0.181,12.227c0,6.816-0.143,12.475-0.419,16.809l-0.036,0.51h7.814v-2.338h-0.801  c-0.668,0-1.04-0.148-1.139-0.424c-0.056-1.773-0.086-5.625-0.086-11.492v-1.186c2.795-0.07,5.617-0.115,8.41-0.115  c2.2,0,4.715,0.041,7.441,0.113v1.188c0,5.127-0.119,9.75-0.359,13.744l-0.031,0.51h7.829v-2.338h-0.798  C213.512,30.586,213.021,30.512,212.847,30.24 M157.32,6.223h2.336V5.32c0-0.791,0.142-1.074,0.217-1.168  c1.648-0.176,3.851-0.266,6.578-0.266h0.304l0.044,11.346c0,2.051-0.074,7.842-0.221,17.203l-0.008,0.488h7.559v-2.34h-0.939  c-0.527,0-0.709-0.09-0.786-0.148c-0.104-0.602-0.251-3.453-0.251-14.926c0-5.354,0.071-9.225,0.205-11.623h0.416  c1.997,0,4.102,0.164,6.256,0.471c0.074,0.154,0.154,0.4,0.154,0.928v0.938h2.336V0.621h-24.2V6.223z M139.923,27.979  c0,0.793-0.11,1.115-0.175,1.244c-3.649,0.285-7.042,0.434-10.074,0.434h-0.212l-0.088-10.971v-1.129  c3.073,0.01,6.628,0.105,10.639,0.295l0.502,0.02v-3.717l-0.487,0.008l-10.654,0.211v-1.029c0-3.078,0.03-6.24,0.088-9.398h0.122  c3.327,0,6.514,0.119,9.484,0.348c0.083,0.115,0.226,0.436,0.226,1.271v0.477h2.336v-5.42h-19.745v2.383h0.936  c0.464,0,0.767,0.096,0.878,0.26c0.1,0.395,0.252,2.662,0.252,13.217c0,6.672-0.111,12.053-0.331,15.998l-0.029,0.502h18.667V27.5  h-2.336V27.979z M112.256,2.959h0.942c0.351,0,0.577,0.082,0.733,0.209c-3.679,10.494-6.458,18.09-8.296,22.68  c-4.195-9.846-7.529-18.248-9.87-24.908l-0.117-0.318h-6.866v2.338h0.939c0.322,0,0.491,0.051,0.602,0.104  c3.914,8.721,8.019,18.709,12.21,29.701l0.117,0.307h4.158l0.116-0.305c3.607-9.414,7.895-20.006,12.747-31.48l0.28-0.664h-7.695  V2.959z M81.539,26.881c-1.907,2.34-4.562,3.525-7.895,3.525c-3.359,0-6.027-1.164-7.918-3.461  c-1.916-2.322-2.884-5.672-2.884-9.953c0-4.283,1.034-7.707,3.068-10.182c1.951-2.391,4.478-3.553,7.734-3.553  c3.394,0,6.062,1.17,7.941,3.48c1.898,2.342,2.86,5.742,2.86,10.117C84.445,21.137,83.467,24.51,81.539,26.881 M73.644,0.08  c-5.17,0-9.343,1.541-12.398,4.582c-3.058,3.041-4.607,7.16-4.607,12.238c0,5.111,1.521,9.213,4.513,12.193  c2.996,2.979,7.199,4.488,12.493,4.488c5.142,0,9.306-1.549,12.379-4.605c3.066-3.055,4.625-7.117,4.625-12.076  c0-5.141-1.524-9.275-4.536-12.283C83.106,1.607,78.909,0.08,73.644,0.08 M41.423,29.807c-0.656,0-1.401-0.115-2.17-0.268  c-0.134-1.859-0.201-4.627-0.201-8.309v-3.744c1.008-0.092,1.784-0.145,2.188-0.145c5.584,0,8.299,2.021,8.299,6.188  C49.538,27.754,46.884,29.807,41.423,29.807 M39.051,8.752c0-1.857,0.057-3.48,0.157-4.893c0.846-0.088,1.652-0.152,2.304-0.152  c2.18,0,3.877,0.455,5.041,1.35c1.142,0.879,1.696,2.041,1.696,3.559c0,3.732-2.505,5.547-7.656,5.547  c-0.467,0-1.004-0.031-1.542-0.068V8.752z M48.804,15.445c3.446-1.512,5.289-3.865,5.289-7.117c0-2.717-1.085-4.73-3.229-5.984  c-1.901-1.143-4.865-1.723-8.801-1.723l-9.758,0.041l-0.476,0.004v2.293h0.94c0.464,0,0.743,0.104,0.861,0.291  c0.146,3.738,0.222,8.846,0.222,15.211c0,5.453-0.136,10.197-0.403,14.1l-0.04,0.568l0.566-0.059  c1.22-0.127,2.136-0.193,2.713-0.193c0.456,0,1.263,0.033,2.384,0.098c1.192,0.066,2.144,0.096,2.905,0.096  c4.162,0,7.46-0.857,9.801-2.553c2.39-1.732,3.604-4.256,3.604-7.502C55.381,19.271,53.153,16.74,48.804,15.445 M16.217,18.209  c-0.947,0.025-1.642,0.037-2.068,0.037c0.007,0-2.408-0.053-3.614-0.076c1.614-4.486,2.865-7.766,3.76-9.854  c1.648,4.162,2.908,7.406,3.828,9.857C17.577,18.18,16.966,18.189,16.217,18.209 M28.87,30.346  C23.395,17.271,19.265,7.287,16.606,0.68l-0.12-0.301h-2.721l-0.119,0.299C6.771,17.434,2.207,28.045,0.083,32.227l-0.35,0.697  h7.243v-2.338h-0.94c-0.071,0-0.108-0.004-0.169-0.004c0.918-2.826,2.064-5.869,3.443-9.086c1.142-0.055,2.808-0.08,5.011-0.08  c2.218,0,3.896,0.025,5.055,0.08c1.422,3.402,2.805,7.127,4.107,11.098l0.109,0.33h7.27v-2.338h-0.894  C29.481,30.586,29.124,30.496,28.87,30.346"
   id="path2"
   style="fill:#ffffff" />
<g
   id="g4">
</g>
<g
   id="g6">
</g>
<g
   id="g8">
</g>
<g
   id="g10">
</g>
<g
   id="g12">
</g>
<g
   id="g14">
</g>
</svg>