<svg width="18" height="18" viewBox="0 0 18 18" fill="none" xmlns="http://www.w3.org/2000/svg">
<path d="M17.4445 9.34291C17.4445 8.79217 17.397 8.25503 17.302 7.73828H16.6434H14.0701H9.30371V10.9543H14.1448C13.8324 12.0694 13.167 13.0213 12.2844 13.6741L14.783 15.6662C16.4329 14.1092 17.4445 11.8518 17.4445 9.34291Z" fill="#3284FF"/>
<path d="M9.40471 4.29101C10.6201 4.29101 11.72 4.73296 12.5687 5.46729L14.8772 3.12152C13.4378 1.70726 11.4891 0.84375 9.30287 0.84375C6.04382 0.84375 3.13784 2.76116 1.72559 5.54888L4.56367 7.71787C5.29017 5.71887 7.21843 4.29101 9.40471 4.29101Z" fill="#FF3424"/>
<path d="M1.78054 13.2388L4.51678 11.0563C4.34704 10.5531 4.25878 10.016 4.25878 9.45842C4.25878 8.84649 4.36741 8.26175 4.56431 7.7178L1.72622 5.54883C1.1491 6.69111 0.816406 7.97618 0.816406 9.34283C0.816406 10.7503 1.16947 12.0694 1.78054 13.2388Z" fill="#FFBB00"/>
<path d="M4.51651 11.0563L1.78027 13.2389C3.21289 15.9722 6.08493 17.842 9.30323 17.842C11.442 17.842 13.3499 17.0193 14.7825 15.6662L12.2839 13.674C11.4827 14.2723 10.4914 14.6259 9.40508 14.6259C7.16449 14.6259 5.20227 13.1301 4.51651 11.0563Z" fill="#26B14C"/>
</svg>
