<svg width="162" height="42" viewBox="0 0 162 42" fill="none" xmlns="http://www.w3.org/2000/svg">
<path d="M65.1965 25.4812V16.5212H62.6045V27.7212H68.3805V25.4812H65.1965Z" fill="white"/>
<path d="M78.2865 18.6012V16.5212H71.4545V27.7212H78.2865V25.6412H74.0465V23.1772H78.2865V21.1452H74.0465V18.6012H78.2865Z" fill="white"/>
<path d="M91.2255 16.5212H88.4095L85.9935 24.4252L83.5615 16.5212H80.7935L84.7935 27.7212H87.1775L91.2255 16.5212Z" fill="white"/>
<path d="M100.658 18.6012V16.5212H93.8264V27.7212H100.658V25.6412H96.4184V23.1772H100.658V21.1452H96.4184V18.6012H100.658Z" fill="white"/>
<path d="M108.669 22.5052H106.893V18.6332H108.669C109.757 18.6332 110.461 19.5292 110.461 20.5692C110.461 21.6092 109.757 22.5052 108.669 22.5052ZM104.301 27.7212H106.893V24.6172H108.109L110.093 27.7212H113.101L110.861 24.1852C112.253 23.5292 113.085 22.1372 113.085 20.5692C113.085 18.3932 111.485 16.5212 109.005 16.5212H104.301V27.7212Z" fill="white"/>
<path d="M123.202 18.6012V16.5212H116.37V27.7212H123.202V25.6412H118.962V23.1772H123.202V21.1452H118.962V18.6012H123.202Z" fill="white"/>
<path d="M126.845 16.5212V27.7212H130.957C134.685 27.7212 136.781 24.9852 136.781 22.1212C136.781 19.2572 134.669 16.5212 130.957 16.5212H126.845ZM130.829 18.7612C132.925 18.7612 134.141 20.3932 134.141 22.1212C134.141 23.8492 132.925 25.4812 130.829 25.4812H129.437V18.7612H130.829Z" fill="white"/>
<path d="M146.169 23.7372H148.153C147.977 24.8572 147.049 25.8172 145.481 25.8172C143.161 25.8172 142.057 24.1212 142.057 22.1372C142.057 20.2492 143.145 18.4732 145.257 18.4732C146.617 18.4732 147.513 19.2732 147.673 20.1532H150.441C150.249 18.0252 148.217 16.2332 145.273 16.2332C141.609 16.2332 139.401 19.0652 139.401 22.1212C139.401 25.2572 141.513 28.0092 145.273 28.0092C148.473 28.0092 150.377 26.2812 150.825 23.7372H151.977V21.8012H146.169V23.7372Z" fill="white"/>
<path d="M161.752 18.6012V16.5212H154.92V27.7212H161.752V25.6412H157.512V23.1772H161.752V21.1452H157.512V18.6012H161.752Z" fill="white"/>
<path fill-rule="evenodd" clip-rule="evenodd" d="M0.832856 18.4837C0.051808 19.2648 0.0518084 20.5311 0.832857 21.3121L19.0697 39.549C19.1433 39.6609 19.2294 39.7671 19.3278 39.8656L20.7441 41.2818C21.1421 41.6799 21.6663 41.8751 22.188 41.8674C22.7093 41.8748 23.2331 41.6796 23.6309 41.2818L25.0472 39.8656C25.1456 39.7671 25.2317 39.6609 25.3053 39.549L43.3106 21.5437C44.0917 20.7626 44.0917 19.4963 43.3106 18.7152L41.8944 17.299C41.1134 16.518 39.847 16.518 39.066 17.299L22.1875 34.1775L5.07753 17.0675C4.29648 16.2864 3.03015 16.2864 2.2491 17.0675L0.832856 18.4837Z" fill="white"/>
<rect width="6.00287" height="21.4446" rx="2" transform="matrix(-0.707107 -0.707107 -0.707107 0.707107 37.3213 12.3435)" fill="white"/>
<rect width="6.00287" height="21.4446" rx="2" transform="matrix(-0.707107 -0.707107 -0.707107 0.707107 29.7754 4.96582)" fill="white"/>
</svg>
