<svg width="406" height="70" xmlns="http://www.w3.org/2000/svg"><g fill="none" fill-rule="evenodd"><g transform="rotate(-45 33.104 -8.164)" fill="#32C2F0"><rect width="30.283" height="8.474" rx="1.92"/><rect y="15.253" width="30.283" height="8.474" rx="1.92"/></g><path d="M32.15 47.263l24.716-24.617a1.92 1.92 0 012.71 0l3.272 3.26a1.92 1.92 0 010 2.72L33.505 57.853a1.92 1.92 0 01-2.71 0l-1.786-1.78L1.152 28.328a1.92 1.92 0 010-2.72l3.273-3.26a1.92 1.92 0 012.71 0L32.15 47.263z" fill="#3B61E3"/><g fill-rule="nonzero"><path d="M101 51.568V11.586a2 2 0 011.887-1.997c.247-.014.514-.021.801-.021.715 0 1.43.044 2.146.13a2 2 0 011.758 1.986v38.38h20.144a2 2 0 012 2v1.504a2 2 0 01-2 2H105a4 4 0 01-4-4zm61.297-11.75h-21.609c.21 7.434 3.591 11.151 10.143 11.151 3.654 0 8.177-2.781 10.017-3.591 1.84-.81 3.381 3.276 1.953 4.536-1.428 1.26-3.244 2.257-5.45 2.992-2.205.736-4.42 1.103-6.646 1.103-5.082 0-9.072-1.46-11.97-4.379-2.898-2.919-4.347-6.919-4.347-12.001 0-3.234.64-6.111 1.921-8.631 1.282-2.52 3.077-4.473 5.387-5.859 2.31-1.386 4.935-2.079 7.875-2.079 4.284 0 7.654 1.386 10.111 4.158 2.458 2.772 3.686 6.615 3.686 11.529 0 .591-.48 1.071-1.071 1.071zm-12.6-12.033c-2.394 0-4.347.714-5.859 2.142-1.512 1.428-2.478 3.465-2.898 6.111h16.821c-.252-2.688-1.071-4.735-2.457-6.143-1.386-1.407-3.255-2.11-5.607-2.11zm44.966-3.906h1.974a2 2 0 011.834 2.798l-12.056 27.69a2 2 0 01-1.834 1.201h-3.107a2 2 0 01-1.836-1.208l-11.945-27.689a2 2 0 011.836-2.792h2.354a2 2 0 011.853 1.247l9.447 23.26 9.632-23.272a2 2 0 011.848-1.235zm36.118 15.939h-21.609c.21 7.434 3.591 11.151 10.143 11.151 3.654 0 7.661-1.781 10.017-3.591 2.356-1.81 3.381 3.276 1.953 4.536-1.428 1.26-3.244 2.257-5.45 2.992-2.205.736-4.42 1.103-6.646 1.103-5.082 0-9.072-1.46-11.97-4.379-2.898-2.919-4.347-6.919-4.347-12.001 0-3.234.64-6.111 1.921-8.631 1.282-2.52 3.077-4.473 5.387-5.859 2.31-1.386 4.935-2.079 7.875-2.079 4.284 0 7.654 1.386 10.111 4.158 2.458 2.772 3.686 6.615 3.686 11.529 0 .591-.48 1.071-1.071 1.071zm-12.6-12.033c-2.394 0-4.347.714-5.859 2.142-1.512 1.428-2.478 3.465-2.898 6.111h16.821c-.252-2.688-1.071-4.735-2.457-6.143-1.386-1.407-3.255-2.11-5.607-2.11zm37.392-4.725c.348 0 .803.043 1.364.129a2 2 0 011.696 1.932l.01.413a1.989 1.989 0 01-1.989 2.034h-1.966c-.949 0-1.813.211-2.597.557-1.61.709-2.883 1.984-3.857 3.156-1.45 1.744-2.174 3.938-2.174 6.584v14.553a3.15 3.15 0 11-6.3 0V32.762c0-1.77-.108-4.034-.323-6.79a2 2 0 011.994-2.156h1.935a2 2 0 011.99 1.803l.389 3.93c.84-2.1 2.142-3.706 3.906-4.82 1.764-1.113 3.738-1.669 5.922-1.669z" fill="#3B61E3"/><path d="M264.698 53.568V12a2 2 0 012-2h25.568a2 2 0 012 2v1.376a2 2 0 01-2 2h-19.04a2 2 0 00-2 2v10.336a2 2 0 002 2h17.76a2 2 0 012 2v1.376a2 2 0 01-2 2h-17.76a2 2 0 00-2 2v11.104a2 2 0 002 2h19.04a2 2 0 012 2v1.376a2 2 0 01-2 2h-25.568a2 2 0 01-2-2zm65.212-40.16v40.16a2 2 0 01-2 2h-2a2 2 0 01-2-2v-3.16c-.88 1.8-2.19 3.18-3.93 4.14-1.74.96-3.77 1.44-6.09 1.44-2.6 0-4.92-.66-6.96-1.98-2.04-1.32-3.63-3.17-4.77-5.55-1.14-2.38-1.71-5.13-1.71-8.25s.56-5.86 1.68-8.22c1.12-2.36 2.69-4.18 4.71-5.46 2.02-1.28 4.37-1.92 7.05-1.92 2.28 0 4.29.48 6.03 1.44 1.74.96 3.05 2.32 3.93 4.08v-16.72a2 2 0 012-2h2.06a2 2 0 012 2zm-15.64 37.78c2.76 0 4.89-.95 6.39-2.85 1.5-1.9 2.25-4.57 2.25-8.01 0-3.44-.75-6.11-2.25-8.01-1.5-1.9-3.61-2.85-6.33-2.85-2.76 0-4.91.94-6.45 2.82s-2.31 4.52-2.31 7.92c0 3.44.77 6.13 2.31 8.07 1.54 1.94 3.67 2.91 6.39 2.91zm54.098-24.868v28.69c0 4.753-1.25 8.339-3.751 10.757-2.5 2.418-6.21 3.627-11.129 3.627-4.753 0-8.907-1.033-12.462-3.1-3.555-2.067-.889-5.931 1.054-4.898 1.943 1.033 3.813 1.798 5.611 2.294 1.798.496 3.71.744 5.735.744 5.828 0 8.742-2.976 8.742-8.928v-6.758c-.95 1.819-2.335 3.255-4.154 4.309-1.819 1.054-3.927 1.581-6.324 1.581-2.728 0-5.156-.64-7.285-1.922-2.129-1.281-3.782-3.1-4.96-5.456-1.178-2.356-1.767-5.063-1.767-8.122s.589-5.766 1.767-8.122 2.831-4.185 4.96-5.487c2.129-1.302 4.557-1.953 7.285-1.953 2.397 0 4.505.506 6.324 1.519a10.072 10.072 0 014.154 4.309V26.32a2 2 0 012-2h2.2a2 2 0 012 2zm-15.834 23.296c2.94 0 5.253-.93 6.939-2.79 1.686-1.86 2.529-4.423 2.529-7.688 0-3.265-.832-5.838-2.497-7.719-1.664-1.88-3.988-2.821-6.97-2.821-2.94 0-5.264.94-6.972 2.821-1.707 1.88-2.561 4.454-2.561 7.719 0 3.224.854 5.776 2.561 7.657 1.708 1.88 4.032 2.821 6.971 2.821zm51.703-9.798h-21.609c.21 7.434 3.591 11.151 10.143 11.151 3.654 0 6.993-1.197 10.017-3.591 3.024-2.394 3.381 3.276 1.953 4.536-1.428 1.26-3.244 2.257-5.45 2.992-2.205.736-4.42 1.103-6.646 1.103-5.082 0-9.072-1.46-11.97-4.379-2.898-2.919-4.347-6.919-4.347-12.001 0-3.234.64-6.111 1.921-8.631 1.282-2.52 3.077-4.473 5.387-5.859 2.31-1.386 4.935-2.079 7.875-2.079 4.284 0 7.654 1.386 10.111 4.158 2.458 2.772 3.686 6.615 3.686 11.529 0 .591-.48 1.071-1.071 1.071zm-12.6-12.033c-2.394 0-4.347.714-5.859 2.142-1.512 1.428-2.478 3.465-2.898 6.111h16.821c-.252-2.688-1.071-4.735-2.457-6.143-1.386-1.407-3.255-2.11-5.607-2.11z" fill="#32C2F0"/></g></g></svg>