<svg width="165" height="39" fill="none" xmlns="http://www.w3.org/2000/svg"><path fill-rule="evenodd" clip-rule="evenodd" d="M1.298 16.868a2 2 0 000 2.829l16.848 16.847c.071.107.154.21.249.304l1.096 1.095c.397.398.92.593 1.441.586a1.994 1.994 0 001.44-.586l1.096-1.095c.095-.095.178-.197.25-.304l16.634-16.633a2 2 0 000-2.829l-1.096-1.095a2 2 0 00-2.828 0L20.932 31.483l-15.71-15.71a2 2 0 00-2.829 0l-1.095 1.095z" fill="#488C89"/><rect width="5.549" height="19.824" rx="2" transform="scale(-1 1) rotate(-45 -3.822 47.804)" fill="#488C89"/><rect width="5.549" height="19.824" rx="2" transform="scale(-1 1) rotate(-45 -8.567 35.973)" fill="#488C89"/><path d="M68.078 24.052V27H57.936V11.38h3.212v12.672h6.93zm11.691-1.914h-8.36c.103.792.396 1.4.88 1.826.484.41 1.122.616 1.914.616.499 0 .946-.103 1.342-.308a1.9 1.9 0 00.88-.946h3.146a5.272 5.272 0 01-2.002 2.86c-.983.719-2.134 1.078-3.454 1.078-1.701 0-3.095-.565-4.18-1.694-1.085-1.13-1.628-2.581-1.628-4.356 0-1.716.543-3.146 1.628-4.29 1.085-1.144 2.471-1.716 4.158-1.716 1.687 0 3.058.572 4.114 1.716 1.07 1.13 1.606 2.56 1.606 4.29l-.044.924zm-5.698-4.422c-.704 0-1.283.198-1.738.594-.455.381-.748.91-.88 1.584h5.236c-.117-.66-.403-1.188-.858-1.584-.455-.396-1.041-.594-1.76-.594zm11.803 5.522l2.816-7.766h3.234L87.303 27H84.4l-4.62-11.528h3.3l2.794 7.766zm17.496-1.1h-8.36c.103.792.396 1.4.88 1.826.484.41 1.122.616 1.914.616.499 0 .946-.103 1.342-.308a1.9 1.9 0 00.88-.946h3.146a5.272 5.272 0 01-2.002 2.86c-.983.719-2.134 1.078-3.454 1.078-1.701 0-3.095-.565-4.18-1.694-1.085-1.13-1.628-2.581-1.628-4.356 0-1.716.543-3.146 1.628-4.29 1.085-1.144 2.471-1.716 4.158-1.716 1.687 0 3.058.572 4.114 1.716 1.071 1.13 1.606 2.56 1.606 4.29l-.044.924zm-5.698-4.422c-.704 0-1.283.198-1.738.594-.455.381-.748.91-.88 1.584h5.236c-.117-.66-.403-1.188-.858-1.584-.455-.396-1.041-.594-1.76-.594zm14.145-2.332v2.926a3.157 3.157 0 00-.616-.066c-.924 0-1.621.242-2.09.726-.455.484-.682 1.247-.682 2.288V27h-3.124V15.472h2.882v1.496c.66-1.07 1.745-1.606 3.256-1.606l.374.022zm11.717 6.754h-8.36c.102.792.396 1.4.88 1.826.484.41 1.122.616 1.914.616.498 0 .946-.103 1.342-.308.41-.22.704-.535.88-.946h3.146a5.277 5.277 0 01-2.002 2.86c-.983.719-2.134 1.078-3.454 1.078-1.702 0-3.095-.565-4.18-1.694-1.086-1.13-1.628-2.581-1.628-4.356 0-1.716.542-3.146 1.628-4.29 1.085-1.144 2.471-1.716 4.158-1.716 1.686 0 3.058.572 4.114 1.716 1.07 1.13 1.606 2.56 1.606 4.29l-.044.924zm-5.698-4.422c-.704 0-1.284.198-1.738.594-.455.381-.748.91-.88 1.584h5.236c-.118-.66-.404-1.188-.858-1.584-.455-.396-1.042-.594-1.76-.594zm15.618-1.012V10.5h3.124V27h-2.882v-1.408c-.763 1.115-1.98 1.672-3.652 1.672-1.628 0-2.919-.572-3.872-1.716-.953-1.144-1.43-2.581-1.43-4.312 0-1.73.477-3.168 1.43-4.312.953-1.144 2.244-1.716 3.872-1.716.763 0 1.437.147 2.024.44.601.279 1.063.63 1.386 1.056zm-.704 6.886c.528-.616.792-1.4.792-2.354 0-.953-.264-1.738-.792-2.354-.513-.616-1.195-.924-2.046-.924-.851 0-1.54.308-2.068.924-.513.616-.77 1.4-.77 2.354 0 .953.257 1.738.77 2.354.528.616 1.217.924 2.068.924s1.533-.308 2.046-.924zm14.603-6.71v-1.408h2.882V26.56c0 1.54-.499 2.801-1.496 3.784-.997.983-2.354 1.474-4.07 1.474-1.628 0-2.897-.433-3.806-1.298-.895-.865-1.393-1.833-1.496-2.904h3.124c.205 1.012.946 1.518 2.222 1.518.777 0 1.371-.198 1.782-.594.411-.396.616-.946.616-1.65v-1.606c-.748.997-1.87 1.496-3.366 1.496-1.569 0-2.838-.55-3.806-1.65-.968-1.115-1.452-2.493-1.452-4.136 0-1.643.484-3.014 1.452-4.114.968-1.115 2.237-1.672 3.806-1.672 1.643 0 2.845.557 3.608 1.672zm-.924 6.314c.513-.557.77-1.29.77-2.2 0-.91-.257-1.643-.77-2.2-.513-.557-1.188-.836-2.024-.836-.836 0-1.511.279-2.024.836-.513.557-.77 1.29-.77 2.2 0 .91.257 1.643.77 2.2.513.557 1.188.836 2.024.836.836 0 1.511-.279 2.024-.836zm17.071-1.056h-8.36c.103.792.396 1.4.88 1.826.484.41 1.122.616 1.914.616.499 0 .946-.103 1.342-.308a1.9 1.9 0 00.88-.946h3.146a5.266 5.266 0 01-2.002 2.86c-.982.719-2.134 1.078-3.454 1.078-1.701 0-3.094-.565-4.18-1.694-1.085-1.13-1.628-2.581-1.628-4.356 0-1.716.543-3.146 1.628-4.29 1.086-1.144 2.472-1.716 4.158-1.716 1.687 0 3.058.572 4.114 1.716 1.071 1.13 1.606 2.56 1.606 4.29l-.044.924zm-5.698-4.422c-.704 0-1.283.198-1.738.594-.454.381-.748.91-.88 1.584h5.236c-.117-.66-.403-1.188-.858-1.584-.454-.396-1.041-.594-1.76-.594z" fill="#2A2E2D"/></svg>