<svg version="1.1" id="Layer_1" xmlns="http://www.w3.org/2000/svg" x="0" y="0" viewBox="0 0 165 39" xml:space="preserve"><style>.st4{fill-rule:evenodd;clip-rule:evenodd;fill:#2f706b}</style><g id="Layer_1_1_"><path d="M55.3 24.3v2.9H46V7.6h3.2v16.6h6.1zm3.6-2.7c0 .5.1.9.3 1.3.1.4.3.8.6 1.1.3.3.6.5 1 .7.4.2 1 .3 1.6.3.9 0 1.5-.2 1.9-.5.4-.3.7-.7.9-1.2h3.1c-.1.6-.3 1.1-.6 1.6s-.7 1-1.2 1.4c-.5.4-1.1.7-1.8.9-.7.2-1.4.3-2.3.3-1.1 0-2-.2-2.9-.5-.8-.4-1.5-.8-2-1.4-.5-.6-.9-1.3-1.2-2.2-.3-.8-.4-1.7-.4-2.7 0-1 .1-1.9.4-2.7.3-.8.7-1.6 1.2-2.2.5-.6 1.2-1.1 2-1.4.8-.3 1.7-.5 2.7-.5.8 0 1.6.1 2.4.4.7.3 1.4.7 1.9 1.2s1 1.1 1.3 1.9c.3.7.5 1.5.5 2.3v.8c0 .3-.1.7-.1 1.1h-9.3zm3.3-5.5c-.9 0-1.7.3-2.4.8-.6.5-.9 1.3-.9 2.4h6.5c0-1-.3-1.8-.9-2.4-.6-.5-1.4-.8-2.3-.8zm9.3-1.9l3.6 8.6 3.6-8.6H82l-5.9 13h-2l-5.8-13h3.2zm13.3 7.4c0 .5.1.9.3 1.3.1.4.3.8.6 1.1.3.3.6.5 1 .7.4.2 1 .3 1.6.3.9 0 1.5-.2 1.9-.5.4-.3.7-.7.9-1.2h3.1c-.1.6-.3 1.1-.6 1.6s-.7 1-1.2 1.4c-.5.4-1.1.7-1.8.9-.7.2-1.4.3-2.3.3-1.1 0-2-.2-2.9-.5-.8-.4-1.5-.8-2-1.4-.5-.6-.9-1.3-1.2-2.2-.3-.8-.4-1.7-.4-2.7 0-1 .1-1.9.4-2.7.3-.8.7-1.6 1.2-2.2.5-.6 1.2-1.1 2-1.4.8-.3 1.7-.5 2.7-.5.8 0 1.6.1 2.4.4.7.3 1.4.7 1.9 1.2s1 1.1 1.3 1.9c.3.7.5 1.5.5 2.3v.8c0 .3-.1.7-.1 1.1h-9.3zm3.3-5.5c-.9 0-1.7.3-2.4.8-.6.5-.9 1.3-.9 2.4h6.5c0-1-.3-1.8-.9-2.4-.6-.5-1.4-.8-2.3-.8zm17 .9c-.2-.1-.4-.1-.6-.1h-.6c-1.3 0-2.3.4-3 1.1-.7.8-1 1.9-1 3.6v5.6h-3v-13h3v2.1c.1-.3.4-.6.6-.8.3-.3.6-.5.9-.7.4-.2.8-.4 1.2-.5.4-.1.8-.2 1.3-.2s.9.1 1.2.2V17zm4.8-6.5V16h8.1v2.9h-8.1v5.4h8.1v2.9h-11.3V7.6H118v2.9h-8.1zM131 25.4c-.4.7-1 1.2-1.7 1.5-.8.4-1.5.6-2.3.6-1 0-1.9-.2-2.7-.5-.8-.4-1.5-.9-2.1-1.5-.6-.6-1-1.4-1.4-2.2-.3-.8-.5-1.7-.5-2.6 0-.9.2-1.8.5-2.6s.8-1.6 1.4-2.2c.6-.6 1.3-1.1 2.1-1.5.8-.4 1.7-.5 2.7-.5.8 0 1.5.2 2.3.6.8.4 1.3.9 1.7 1.5V7.6h3v19.5h-3v-1.7zm-3.9-.6c.6 0 1.1-.1 1.6-.3.5-.2.9-.5 1.2-.9.3-.4.6-.8.8-1.3.2-.5.3-1 .3-1.6s-.1-1.1-.3-1.6c-.2-.5-.4-.9-.8-1.3-.3-.4-.7-.7-1.2-.9-.5-.2-1-.3-1.6-.3-.6 0-1.1.1-1.6.3-.5.2-.9.5-1.2.9-.3.4-.6.8-.8 1.3-.2.5-.3 1-.3 1.6s.1 1.1.3 1.6c.2.5.4.9.8 1.3.3.4.7.7 1.2.9.5.2 1 .3 1.6.3zm23.1 3c0 1.1-.2 2-.5 2.8-.3.8-.8 1.4-1.4 1.9-.6.5-1.3.9-2.2 1.1-.9.2-1.8.4-2.9.4-1.1 0-2-.2-2.8-.5-.8-.3-1.5-.7-2-1.2s-1-1.1-1.2-1.7c-.3-.6-.5-1.3-.5-2h3.1c.1.7.4 1.3 1 1.9.6.5 1.4.8 2.5.8 1.2 0 2.2-.3 2.9-.8.7-.5 1-1.4 1-2.7v-2.4c-.4.7-1 1.2-1.7 1.5-.8.4-1.5.6-2.3.6-1 0-1.9-.2-2.7-.5-.8-.4-1.5-.9-2.1-1.5-.6-.6-1-1.4-1.4-2.2-.3-.8-.5-1.7-.5-2.6 0-.9.2-1.8.5-2.6s.8-1.6 1.4-2.2c.6-.6 1.3-1.1 2.1-1.5.8-.4 1.7-.5 2.7-.5.8 0 1.5.2 2.3.6.8.4 1.3.9 1.7 1.5v-1.8h3v13.6zm-6.9-11.3c-.6 0-1.1.1-1.6.3-.5.2-.9.5-1.2.9-.3.4-.6.8-.8 1.3-.2.5-.3 1-.3 1.6s.1 1.1.3 1.6c.2.5.4.9.8 1.3.3.4.7.7 1.2.9.5.2 1 .3 1.6.3.6 0 1.1-.1 1.6-.3.5-.2.9-.5 1.2-.9.3-.4.6-.8.8-1.3.2-.5.3-1 .3-1.6s-.1-1.1-.3-1.6c-.2-.5-.4-.9-.8-1.3-.3-.4-.7-.7-1.2-.9-.5-.2-1.1-.3-1.6-.3zm12.3 5.1c0 .5.1.9.3 1.3.1.4.3.8.6 1.1.3.3.6.5 1 .7.4.2 1 .3 1.6.3.9 0 1.5-.2 1.9-.5.4-.3.7-.7.9-1.2h3.1c-.1.6-.3 1.1-.6 1.6s-.7 1-1.2 1.4c-.5.4-1.1.7-1.8.9-.7.2-1.4.3-2.3.3-1.1 0-2-.2-2.9-.5-.8-.4-1.5-.8-2-1.4-.5-.6-.9-1.3-1.2-2.2-.3-.8-.4-1.7-.4-2.7 0-1 .1-1.9.4-2.7.3-.8.7-1.6 1.2-2.2.5-.6 1.2-1.1 2-1.4.8-.3 1.7-.5 2.7-.5.8 0 1.6.1 2.4.4.7.3 1.4.7 1.9 1.2s1 1.1 1.3 1.9c.3.7.5 1.5.5 2.3v.8c0 .3-.1.7-.1 1.1h-9.3zm3.3-5.5c-.9 0-1.7.3-2.4.8-.6.5-.9 1.3-.9 2.4h6.5c0-1-.3-1.8-.9-2.4-.6-.5-1.4-.8-2.3-.8z" fill="#222"/><g id="Group-2-Copy-18_19_"><g id="Group_17_" transform="rotate(-45 34.31 -7.664)"><path id="Rectangle_17_" class="st4" d="M1.4-10.1h15.3c.6 0 1.1.5 1.1 1.1v2.7c0 .6-.5 1.1-1.1 1.1H1.4C.8-5.2.3-5.7.3-6.3V-9c0-.6.5-1.1 1.1-1.1z"/><path id="Rectangle-Copy_17_" class="st4" d="M1.4-1.3h15.3c.6 0 1.1.5 1.1 1.1v2.7c0 .6-.5 1.1-1.1 1.1H1.4C.8 3.6.3 3.1.3 2.5V-.2c0-.6.5-1.1 1.1-1.1z"/></g><path id="Combined-Shape_17_" class="st4" d="M18.2 29.8l14.3-14.2c.4-.4 1.1-.4 1.6 0l1.9 1.9c.4.4.4 1.1 0 1.6L19 35.9c-.4.4-1.1.4-1.6 0l-1-1-16.1-16c-.4-.4-.4-1.1 0-1.6l1.9-1.9c.4-.4 1.1-.4 1.6 0l14.4 14.4z"/></g></g></svg>