<?xml version="1.0" encoding="utf-8"?>
<!-- Generator: Adobe Illustrator 24.0.0, SVG Export Plug-In . SVG Version: 6.00 Build 0)  -->
<svg version="1.1" xmlns="http://www.w3.org/2000/svg" xmlns:xlink="http://www.w3.org/1999/xlink" x="0px" y="0px"
	 viewBox="0 0 1000 1000" style="enable-background:new 0 0 1000 1000;" xml:space="preserve">
<style type="text/css">
	.st0{fill:#278D87;}
	.st1{fill:#EDF6F5;}
	.st2{fill:#FFFFFF;}
	.st3{fill-rule:evenodd;clip-rule:evenodd;fill:#2F706B;}
	.st4{fill-rule:evenodd;clip-rule:evenodd;fill:#FFFFFF;}
	.st5{fill-rule:evenodd;clip-rule:evenodd;fill:#222222;}
</style>
<g id="Layer_2">
</g>
<g id="Layer_1">
	<g>
		<g id="Group-2-Copy-18_41_">
			<g>
				
					<g id="Group_41_" transform="translate(34.739272, 19.716848) rotate(-45.000000) translate(-34.739272, -19.716848) translate(19.486936, 7.716848)">
					<path id="Rectangle_41_" class="st3" d="M-26.64,537h215.5c8.64,0,15.65,7.01,15.65,15.65v37.76c0,8.64-7.01,15.65-15.65,15.65
						h-215.5c-8.64,0-15.65-7.01-15.65-15.65v-37.76C-42.29,544-35.28,537-26.64,537z"/>
					<path id="Rectangle-Copy_41_" class="st3" d="M-26.64,661.3h215.5c8.64,0,15.65,7.01,15.65,15.65v37.76
						c0,8.64-7.01,15.65-15.65,15.65h-215.5c-8.64,0-15.65-7.01-15.65-15.65v-37.76C-42.29,668.31-35.28,661.3-26.64,661.3z"/>
				</g>
				<path id="Combined-Shape_41_" class="st3" d="M501.22,645.53l201.42-200.62c6.11-6.08,15.98-6.08,22.08,0l26.67,26.56
					c6.12,6.1,6.14,16.01,0.04,22.13c-0.01,0.01-0.03,0.03-0.04,0.04L512.26,731.83c-6.11,6.08-15.98,6.08-22.08,0l-14.56-14.5
					L248.6,491.21c-6.12-6.1-6.14-16.01-0.04-22.13c0.01-0.01,0.03-0.03,0.04-0.04l26.67-26.56c6.11-6.08,15.98-6.08,22.08,0
					L501.22,645.53z"/>
			</g>
		</g>
	</g>
</g>
</svg>
