<?xml version="1.0" encoding="utf-8"?>
<!-- Generator: Adobe Illustrator 22.0.0, SVG Export Plug-In . SVG Version: 6.00 Build 0)  -->
<svg version="1.1" id="Layer_1" xmlns="http://www.w3.org/2000/svg" xmlns:xlink="http://www.w3.org/1999/xlink" x="0px" y="0px"
	 viewBox="0 0 256 256" style="enable-background:new 0 0 256 256;" xml:space="preserve">
<style type="text/css">
	.st0{fill:#E9E9EA;}
	.st1{fill:#60BAE2;}
	.st2{fill:#F9D0B4;}
	.st3{fill:#FFCD29;}
	.st4{fill:#F75C64;}
	.st5{fill:#6DCC6D;}
	.st6{fill:#231F20;}
</style>
<g id="_40_Deal-Agreement">
	<path class="st0" d="M97.91,114.8l-5.75-5.75L57.2,144l5.75,5.75c0.688,0.688,1.803,0.688,2.49,0.001c0,0,0,0,0.001-0.001
		l32.469-32.463C98.595,116.6,98.595,115.487,97.91,114.8z"/>
	<path class="st0" d="M158.09,114.8l5.75-5.75L198.8,144l-5.75,5.75c-0.688,0.688-1.803,0.688-2.49,0.001c0,0,0,0-0.001-0.001
		l-32.469-32.463C157.405,116.6,157.405,115.487,158.09,114.8z"/>
	<path class="st0" d="M93.346,105.369l-49.841-49.84c-0.759-0.759-1.991-0.759-2.75,0L3.07,93.2c-0.76,0.759-0.76,1.991,0,2.751
		c0,0,0,0,0,0L52.918,145.8c0.688,0.688,1.803,0.688,2.49,0.001c0,0,0,0,0.001-0.001l37.937-37.94
		C94.034,107.172,94.034,106.057,93.346,105.369C93.346,105.369,93.346,105.369,93.346,105.369z"/>
	<path class="st1" d="M252.93,93.2l-37.685-37.672c-0.759-0.759-1.991-0.759-2.75,0l-49.841,49.841
		c-0.688,0.688-0.688,1.803-0.001,2.49c0,0,0,0,0.001,0.001l37.938,37.94c0.688,0.688,1.803,0.688,2.49,0.001c0,0,0,0,0.001-0.001
		l49.847-49.85C253.689,95.19,253.689,93.959,252.93,93.2z"/>
	<path class="st2" d="M123.034,155.136l5.05-4.953l32.232,32.3l7.292-7.292c1.806-1.806,3.318-3.884,4.481-6.159l2.083-4.074
		c1.277-2.498,2.937-4.78,4.92-6.763l9.953-9.953l-29.418-29.418l-5.188,5.044c-3.241,3.163-7.353,5.284-11.809,6.092l-6.175,1.131
		c-5.861,1.059-11.259,3.883-15.47,8.094l-6.951,6.951c-2.477,2.494-2.462,6.523,0.031,9
		C116.547,157.6,120.552,157.6,123.034,155.136L123.034,155.136z"/>
	<path class="st2" d="M160.066,190.315L160.066,190.315c2.231-2.231,2.231-5.848,0-8.079c-3.81-3.81-26.568-26.628-26.568-26.628
		l0,0l-5.413-5.425l-5.05,4.953c-2.466,2.451-6.44,2.478-8.939,0.06c-2.509-2.557-2.482-6.66,0.061-9.183l6.829-6.828
		c2.066-2.066,4.43-3.81,7.014-5.174c-2.652-1.402-5.504-2.386-8.455-2.92l-6.176-1.131c-4.456-0.808-8.568-2.929-11.809-6.092
		l-5.188-5.044l-29.418,29.418l9.953,9.953c1.983,1.983,3.643,4.265,4.92,6.763l2.083,4.075c1.163,2.275,2.675,4.353,4.481,6.159
		l39.246,39.246l0,0c2.161,2.207,5.669,2.341,7.992,0.306c2.336-2.121,2.509-5.735,0.388-8.07c-0.061-0.067-0.124-0.133-0.188-0.197
		c2.232,2.23,5.849,2.229,8.079-0.003c2.23-2.232,2.229-5.849-0.003-8.079c2.231,2.231,5.848,2.231,8.079,0l0,0
		c2.229-2.23,2.229-5.845,0-8.075c2.231,2.23,5.848,2.23,8.078-0.001C160.063,190.318,160.065,190.316,160.066,190.315z"/>
	<path class="st3" d="M86.8,204.123c-4.452-0.854-7.934-4.336-8.788-8.788c-0.025-0.108-0.132-0.175-0.239-0.151
		c-0.075,0.017-0.133,0.076-0.151,0.151c-0.854,4.452-4.336,7.934-8.788,8.788c-0.108,0.025-0.175,0.132-0.151,0.239
		c0.017,0.075,0.076,0.133,0.151,0.151c4.452,0.854,7.934,4.336,8.788,8.788c0.025,0.108,0.132,0.175,0.239,0.151
		c0.075-0.017,0.133-0.076,0.151-0.151c0.854-4.452,4.336-7.934,8.788-8.788c0.108-0.025,0.175-0.132,0.151-0.239
		C86.933,204.199,86.875,204.14,86.8,204.123z"/>
	<path class="st4" d="M52.858,175c-1.381,0.007-2.506-1.106-2.513-2.487s1.106-2.506,2.487-2.513l8.689-0.094
		c1.381-0.015,2.512,1.092,2.527,2.473c0.015,1.381-1.092,2.512-2.473,2.527l0,0L52.885,175H52.858z"/>
	<path class="st4" d="M57.249,179.3c-1.37,0-2.485-1.103-2.5-2.473l-0.094-8.689c-0.015-1.381,1.092-2.512,2.473-2.527c0,0,0,0,0,0
		h0.027c1.37,0,2.485,1.103,2.5,2.473l0.094,8.689c0.015,1.381-1.092,2.512-2.473,2.527c0,0,0,0,0,0H57.249z"/>
	<path class="st5" d="M42.379,206.817c-0.163,0.001-0.326-0.016-0.485-0.05c-0.161-0.031-0.318-0.078-0.47-0.14
		c-0.15-0.064-0.294-0.141-0.43-0.23c-0.138-0.089-0.265-0.193-0.38-0.31c-0.116-0.116-0.219-0.243-0.31-0.38
		c-0.092-0.136-0.169-0.282-0.23-0.435c-0.063-0.15-0.112-0.306-0.145-0.465c-0.03-0.162-0.045-0.326-0.045-0.49
		c0-0.164,0.015-0.328,0.045-0.49c0.034-0.159,0.082-0.315,0.145-0.465c0.062-0.151,0.139-0.295,0.23-0.43
		c0.089-0.138,0.193-0.265,0.31-0.38c0.116-0.117,0.244-0.222,0.38-0.315c0.136-0.088,0.28-0.163,0.43-0.225
		c0.152-0.063,0.309-0.112,0.47-0.145c0.322-0.065,0.653-0.065,0.975,0c0.161,0.033,0.318,0.082,0.47,0.145
		c0.15,0.062,0.294,0.137,0.43,0.225c0.136,0.094,0.263,0.199,0.38,0.315c0.117,0.115,0.221,0.242,0.31,0.38
		c0.092,0.135,0.169,0.279,0.23,0.43c0.063,0.15,0.111,0.306,0.145,0.465c0.03,0.162,0.045,0.326,0.045,0.49
		c0,0.164-0.015,0.328-0.045,0.49c-0.033,0.159-0.081,0.315-0.145,0.465c-0.06,0.153-0.137,0.299-0.23,0.435
		c-0.181,0.274-0.416,0.509-0.69,0.69c-0.136,0.089-0.28,0.166-0.43,0.23c-0.152,0.062-0.309,0.109-0.47,0.14
		C42.708,206.801,42.544,206.818,42.379,206.817z"/>
	<path class="st1" d="M166.084,69.157h-8.69c-1.381,0-2.5-1.119-2.5-2.5s1.119-2.5,2.5-2.5h8.69c1.381,0,2.5,1.119,2.5,2.5
		S167.465,69.157,166.084,69.157z"/>
	<path class="st1" d="M161.739,73.5c-1.381,0-2.5-1.119-2.5-2.5v-8.687c0-1.381,1.119-2.5,2.5-2.5s2.5,1.119,2.5,2.5V71
		C164.239,72.381,163.12,73.5,161.739,73.5z"/>
	<path class="st5" d="M139.019,42.312c-0.834,0.002-1.614-0.415-2.075-1.11c-0.093-0.136-0.17-0.282-0.23-0.435
		c-0.064-0.15-0.112-0.306-0.145-0.465c-0.067-0.322-0.067-0.653,0-0.975c0.033-0.161,0.081-0.318,0.145-0.47
		c0.061-0.151,0.138-0.295,0.23-0.43c0.089-0.137,0.193-0.265,0.31-0.38c0.59-0.591,1.436-0.848,2.255-0.685
		c0.161,0.032,0.319,0.08,0.47,0.145c0.151,0.06,0.295,0.135,0.43,0.225c0.135,0.094,0.262,0.199,0.38,0.315
		c0.466,0.469,0.728,1.104,0.73,1.765c0,0.164-0.015,0.328-0.045,0.49c-0.033,0.159-0.082,0.315-0.145,0.465
		c-0.061,0.153-0.138,0.299-0.23,0.435c-0.181,0.274-0.416,0.509-0.69,0.69c-0.136,0.089-0.28,0.166-0.43,0.23
		c-0.153,0.06-0.31,0.109-0.47,0.145C139.347,42.297,139.183,42.312,139.019,42.312z"/>
	<path class="st6" d="M64.2,152.769c-1.131,0.003-2.216-0.447-3.014-1.248l-5.749-5.751c-0.976-0.976-0.976-2.559,0-3.535
		l34.956-34.957c0.991-0.939,2.544-0.939,3.535,0l5.75,5.75c1.664,1.661,1.667,4.357,0.005,6.022
		c-0.002,0.002-0.004,0.004-0.005,0.005L67.211,151.52C66.414,152.322,65.33,152.772,64.2,152.769z M60.738,144l3.46,3.46
		l31.421-31.421l-3.46-3.459L60.738,144z M96.138,116.563L96.138,116.563z"/>
	<path class="st6" d="M191.8,152.769c-1.131,0.003-2.217-0.447-3.014-1.249l-32.465-32.466c-1.664-1.662-1.665-4.358-0.003-6.022
		c0.001-0.001,0.002-0.002,0.003-0.003l5.75-5.75c0.991-0.939,2.544-0.939,3.535,0l34.956,34.957c0.976,0.976,0.976,2.559,0,3.535
		l-5.75,5.75C194.015,152.323,192.93,152.772,191.8,152.769z M160.379,116.041l31.421,31.421l3.46-3.459l-31.421-31.421
		L160.379,116.041z M158.089,114.796L158.089,114.796z"/>
	<path class="st6" d="M54.163,148.813c-1.131,0.003-2.216-0.446-3.013-1.248L1.3,97.717c-1.736-1.736-1.736-4.551,0-6.287
		l37.687-37.67c1.737-1.732,4.549-1.732,6.286,0l49.84,49.84c1.664,1.663,1.665,4.36,0.002,6.025
		c-0.001,0.001-0.002,0.002-0.002,0.002l-37.937,37.938C56.379,148.367,55.294,148.816,54.163,148.813z M5.23,94.575l48.933,48.933
		l36.893-36.893L42.13,57.688L5.23,94.575z M91.578,107.138L91.578,107.138z"/>
	<path class="st6" d="M201.837,148.813L201.837,148.813c-1.131,0.003-2.217-0.447-3.014-1.249l-37.937-37.937
		c-1.664-1.663-1.665-4.36-0.002-6.025c0.001-0.001,0.002-0.002,0.002-0.002l49.84-49.839c1.737-1.733,4.549-1.733,6.286,0
		l37.688,37.67l0,0c1.736,1.737,1.736,4.551,0,6.288l-31.04,31.04l-18.807,18.808C204.054,148.368,202.968,148.817,201.837,148.813z
		 M164.944,106.613l36.893,36.893l18.285-18.285l30.648-30.646l-36.9-36.886L164.944,106.613z M251.162,94.966L251.162,94.966z"/>
	<path class="st6" d="M160.316,184.983L160.316,184.983c-0.664,0-1.3-0.264-1.769-0.734L128.065,153.7l-3.272,3.209
		c-3.477,3.446-9.089,3.421-12.535-0.056c-3.428-3.459-3.424-9.035,0.009-12.489l6.95-6.95c4.566-4.58,10.428-7.647,16.794-8.787
		l6.169-1.13c3.988-0.736,7.667-2.641,10.568-5.474l5.137-5c0.98-0.953,2.544-0.942,3.511,0.025l29.418,29.418
		c0.976,0.976,0.976,2.559,0,3.535l-9.953,9.953c-1.8,1.802-3.305,3.876-4.461,6.146l-2.084,4.075
		c-1.28,2.507-2.946,4.798-4.937,6.788l-7.294,7.293C161.615,184.723,160.979,184.985,160.316,184.983z M128.084,147.683
		c0.664-0.001,1.301,0.263,1.77,0.734l30.465,30.53l5.523-5.523c1.622-1.621,2.979-3.487,4.021-5.529l2.084-4.075
		c1.395-2.731,3.209-5.225,5.378-7.393l8.186-8.185L159.6,122.334l-3.421,3.326c-3.622,3.516-8.209,5.874-13.177,6.771l-6.1,1.118
		c-5.364,0.959-10.304,3.542-14.153,7.4l-6.95,6.95c-1.498,1.513-1.498,3.951,0,5.464c1.533,1.45,3.932,1.45,5.465,0l0.017-0.017
		l5.05-4.953C126.799,147.935,127.429,147.68,128.084,147.683z"/>
	<path class="st6" d="M146.64,154.116c-5.211-0.031-10.322-1.433-14.82-4.065l-2,1.93c-0.994,0.96-2.578,0.932-3.537-0.062
		c-0.96-0.994-0.932-2.578,0.062-3.538l3.431-3.315c0.892-0.862,2.281-0.94,3.263-0.183c5.815,3.996,13.096,5.225,19.9,3.358
		c1.332-0.362,2.706,0.425,3.068,1.757c0.359,1.321-0.411,2.685-1.728,3.06C151.792,153.755,149.223,154.111,146.64,154.116z"/>
	<path class="st6" d="M131.843,218.7c-2.244-0.004-4.393-0.902-5.974-2.494l-39.246-39.247c-1.991-1.991-3.658-4.282-4.939-6.789
		L79.6,166.1c-1.157-2.265-2.663-4.334-4.462-6.132l-9.953-9.954c-0.976-0.976-0.976-2.559,0-3.535L94.6,117.056
		c0.967-0.967,2.531-0.978,3.511-0.025l5.188,5.044c2.87,2.795,6.503,4.678,10.441,5.413l6.25,1.144
		c3.202,0.579,6.296,1.648,9.173,3.169c1.221,0.645,1.688,2.157,1.043,3.378c-0.235,0.445-0.598,0.808-1.043,1.043
		c-2.363,1.247-4.526,2.842-6.416,4.731l-6.828,6.829c-0.772,0.783-1.201,1.841-1.192,2.941c-0.007,1.007,0.392,1.974,1.108,2.682
		c1.518,1.467,3.93,1.451,5.427-0.037l5.066-4.97c0.98-0.961,2.552-0.953,3.521,0.019l5.414,5.425c0,0,22.757,22.817,26.565,26.627
		c3.207,3.205,3.209,8.404,0.003,11.611c-0.001,0.001-0.002,0.002-0.003,0.003l0,0c-1.508,1.509-3.546,2.371-5.679,2.4
		c-0.063,4.434-3.639,8.015-8.073,8.083c-0.071,4.43-3.646,8.004-8.076,8.074c0,0.023,0,0.046,0,0.069
		c-0.096,4.438-3.719,7.987-8.158,7.99L131.843,218.7z M70.489,148.242l8.186,8.186c2.169,2.168,3.984,4.662,5.379,7.393
		l2.082,4.075c1.043,2.042,2.401,3.909,4.023,5.53l39.241,39.243c1.221,1.256,3.205,1.354,4.543,0.223
		c1.315-1.192,1.415-3.224,0.223-4.538c-0.035-0.038-0.071-0.076-0.107-0.113c-0.976-0.976-0.976-2.56,0-3.536s2.56-0.976,3.536,0
		c1.255,1.254,3.289,1.253,4.543-0.001c1.254-1.255,1.253-3.289-0.002-4.543c-0.972-0.98-0.965-2.563,0.015-3.536
		c0.974-0.966,2.545-0.966,3.52,0c1.271,1.214,3.273,1.214,4.544,0c1.251-1.255,1.251-3.286,0-4.541
		c-0.976-0.976-0.976-2.56,0-3.536s2.56-0.976,3.536,0l0,0l0,0c1.257,1.246,3.284,1.244,4.537-0.006l0,0
		c1.254-1.254,1.255-3.287,0.001-4.541c0,0-0.001-0.001-0.001-0.001c-3.811-3.811-26.57-26.631-26.57-26.631l-3.662-3.67
		l-3.28,3.218c-3.438,3.398-8.96,3.427-12.434,0.067c-1.678-1.639-2.623-3.886-2.62-6.231c-0.015-2.437,0.942-4.779,2.657-6.51
		l6.828-6.829c1.071-1.071,2.217-2.064,3.431-2.971c-1.16-0.381-2.345-0.681-3.547-0.9l-6.182-1.132
		c-4.918-0.897-9.459-3.232-13.05-6.71l-3.459-3.367L70.489,148.242z"/>
	<path class="st6" d="M151.99,192.818c-0.663,0.001-1.3-0.262-1.768-0.732l-25.939-25.94c-0.959-0.993-0.932-2.576,0.061-3.535
		c0.969-0.936,2.505-0.936,3.474,0l25.939,25.94c0.976,0.976,0.977,2.559,0,3.536c-0.469,0.469-1.105,0.733-1.768,0.732
		L151.99,192.818z"/>
	<path class="st6" d="M143.908,200.893c-0.663,0.001-1.3-0.262-1.768-0.732l-25.94-25.937c-0.959-0.993-0.932-2.576,0.061-3.535
		c0.969-0.936,2.505-0.936,3.474,0l25.937,25.937c0.976,0.976,0.977,2.559,0,3.536c-0.469,0.469-1.105,0.733-1.768,0.732
		L143.908,200.893z"/>
	<path class="st6" d="M135.833,208.975c-0.663,0.001-1.3-0.262-1.768-0.732L108.126,182.3c-0.993-0.959-1.02-2.542-0.061-3.535
		c0.959-0.993,2.542-1.02,3.535-0.061c0.021,0.02,0.041,0.04,0.061,0.061l25.939,25.942c0.976,0.976,0.977,2.559,0,3.536
		C137.132,208.712,136.495,208.975,135.833,208.975L135.833,208.975z"/>
</g>
</svg>
