<?xml version="1.0" encoding="utf-8"?>
<!-- Generator: Adobe Illustrator 21.0.0, SVG Export Plug-In . SVG Version: 6.00 Build 0)  -->
<svg version="1.1" id="Layer_1" xmlns="http://www.w3.org/2000/svg" xmlns:xlink="http://www.w3.org/1999/xlink" x="0px" y="0px"
	 viewBox="0 0 512 512" style="enable-background:new 0 0 512 512;" xml:space="preserve">
<style type="text/css">
	.st0{fill:#71CCE0;}
	.st1{fill:#DFDFDF;}
	.st2{fill:#4A555F;}
	.st3{fill:#FFD452;}
	.st4{fill:#F58E6F;}
	.st5{fill:#FFFFFF;}
	.st6{fill:none;}
</style>
<g>
	<g>
		<g>
			<g>
				<path class="st2" d="M165.819,37.217l32.413,216.721l20.725-16.621v-1.257L263.12,22.677L165.819,37.217z M212.634,233.901
					l-9.55,7.644L173.355,42.793l81.352-12.155L212.634,233.901z"/>
			</g>
		</g>
	</g>
	<g>
		<g>
			<polygon class="st1" points="182.426,49.508 210.846,239.565 215.642,235.742 215.642,235.72 227.62,177.841 251.244,63.762 
				256.482,38.436 			"/>
		</g>
	</g>
	<g>
		<g>
			<polygon class="st2" points="251.733,67.04 250.753,60.484 207.674,66.919 224.342,178.332 230.898,177.35 215.21,72.496 			"/>
		</g>
	</g>
	<g>
		<g>
			<g>
				<path class="st2" d="M261.044,0l-48.127,232.531l-0.814,0.037l0.045,2.174l-0.79,1.119l0.682,0.9l-0.842,4.069l3.056-1.082
					c4.213,6.146,17.419,22.379,43.515,29.872l0.218,0.078c6.94,2.468,14.887,3.719,23.623,3.719H408.17
					c1.243,0,2.426,0.096,3.624,0.296c3.883,0.633,7.534,2.293,10.532,4.773l4.698,3.919l49.213-237.865L261.044,0z M422.68,270.683
					c-3.019-1.751-6.345-2.948-9.807-3.512c-1.53-0.255-3.112-0.384-4.703-0.384H281.611c-7.053,0-13.497-0.877-19.197-2.609v-0.135
					l-2.415-0.681c-25.697-7.245-38.066-24.001-40.85-28.242L266.193,7.836l202.21,41.852L422.68,270.683z"/>
			</g>
		</g>
	</g>
	<g>
		<g>
			<path class="st1" d="M272.39,17.277l-44.71,216.07c3.707,4.837,12.364,14.082,27.554,20.004c0-0.045-0.022-0.068-0.022-0.113
				c-0.317-1.627-0.542-3.278-0.746-4.928c0-0.022,0-0.045,0-0.045c-0.61-5.357-0.565-10.872,0.136-16.41
				c0.068-0.588,0.158-1.198,0.249-1.786c0.181-1.176,0.384-2.351,0.633-3.549c0.317-1.537,0.678-3.052,1.108-4.543
				c0.407-1.492,0.859-2.961,1.379-4.408c0.497-1.424,1.04-2.848,1.65-4.249c0.588-1.379,1.22-2.758,1.899-4.092
				c0.904-1.786,1.876-3.503,2.916-5.199c1.04-1.673,2.17-3.323,3.323-4.883c4.679-6.306,10.397-11.731,16.84-16.071
				c1.605-1.085,3.255-2.102,4.95-3.052s3.436-1.831,5.199-2.645c1.107-0.497,2.215-0.972,3.345-1.424
				c1.153-0.452,2.283-0.859,3.436-1.243c0.407-0.135,0.814-0.271,1.198-0.384c0.361-0.113,0.723-0.226,1.062-0.316
				c10.624-3.165,22.152-3.797,33.747-1.401c1.537,0.316,3.052,0.678,4.543,1.085c1.492,0.43,2.961,0.882,4.408,1.379
				c1.424,0.52,2.848,1.062,4.25,1.65c1.379,0.588,2.758,1.22,4.091,1.898c1.786,0.904,3.504,1.876,5.199,2.916
				c1.673,1.04,3.301,2.17,4.883,3.323c20.977,15.619,32.188,42.473,26.537,69.778c-0.294,1.401-0.633,2.803-1.017,4.159h17.744
				c2.034,0,4.069,0.158,5.99,0.497c0.881,0.135,1.74,0.316,2.622,0.52l42.179-203.932L272.39,17.277z"/>
		</g>
	</g>
	<g>
		<g>
			<g>
				<path class="st2" d="M366.861,182.184c-1.865-1.36-3.529-2.49-5.102-3.469c-1.856-1.14-3.635-2.137-5.43-3.047
					c-1.325-0.673-2.771-1.344-4.312-2c-1.453-0.609-2.922-1.171-4.455-1.728c-1.5-0.516-3.021-0.985-4.614-1.443
					c-1.543-0.421-3.14-0.802-4.744-1.133c-11.753-2.43-23.979-1.919-35.275,1.445c-0.382,0.103-0.792,0.229-1.144,0.339
					c-0.408,0.121-0.844,0.266-1.31,0.42c-1.204,0.404-2.387,0.829-3.617,1.31c-1.174,0.471-2.322,0.963-3.503,1.492
					c-1.882,0.868-3.708,1.798-5.428,2.761c-1.768,0.99-3.513,2.065-5.184,3.195c-6.835,4.606-12.774,10.273-17.656,16.851
					c-1.26,1.708-2.428,3.425-3.479,5.118c-1.146,1.868-2.143,3.646-3.047,5.431c-0.671,1.321-1.343,2.766-1.981,4.269
					c-0.604,1.384-1.174,2.851-1.731,4.452c-0.518,1.439-0.995,2.962-1.446,4.612c-0.427,1.484-0.809,3.051-1.168,4.789
					c-0.261,1.256-0.475,2.489-0.662,3.715c-0.097,0.631-0.194,1.285-0.261,1.875c-0.725,5.731-0.779,11.453-0.162,17.013
					l0.024,0.265c0.188,1.521,0.427,3.323,0.775,5.122c0.483,2.621,1.107,5.193,1.836,7.591c0.579,2.012,1.248,3.956,1.999,5.787
					v1.698l2.204,0.783c6.94,2.468,14.887,3.719,23.623,3.719h106.728l1.068-2.142c0.071-0.146,0.143-0.297,0.225-0.448l0.125-0.255
					c0.419-0.956,0.814-1.911,1.217-2.907c0.794-1.994,1.502-4.015,2.113-6.029c0.652-2.207,1.176-4.273,1.604-6.318v-0.006
					C400.399,227.727,389.485,199.031,366.861,182.184z M388.199,253.966c-0.391,1.867-0.87,3.762-1.463,5.771
					c-0.548,1.812-1.196,3.654-1.914,5.459c-0.216,0.536-0.434,1.065-0.654,1.591H281.611c-7.385,0-14.106-0.961-20.002-2.861
					c-0.535-1.38-1.025-2.839-1.466-4.375c-0.673-2.212-1.237-4.538-1.679-6.943c-0.3-1.554-0.514-3.136-0.684-4.501l-0.022-0.217
					c-0.581-5.093-0.535-10.348,0.136-15.661c0.062-0.545,0.146-1.11,0.231-1.661c0.171-1.118,0.367-2.236,0.602-3.378
					c0.326-1.573,0.667-2.978,1.06-4.34c0.417-1.524,0.842-2.884,1.31-4.19c0.514-1.473,1.025-2.787,1.571-4.043
					c0.594-1.392,1.2-2.7,1.804-3.891c0.824-1.627,1.735-3.251,2.778-4.949c0.948-1.528,2.016-3.096,3.168-4.656
					c4.427-5.966,9.82-11.113,16.033-15.299c1.524-1.029,3.108-2.007,4.716-2.906c1.571-0.881,3.241-1.731,4.938-2.513
					c1.064-0.479,2.13-0.934,3.194-1.361c1.099-0.431,2.178-0.819,3.302-1.195c0.361-0.12,0.721-0.24,1.118-0.357
					c0.313-0.099,0.628-0.198,1.012-0.302c10.342-3.078,21.452-3.541,32.131-1.332c1.47,0.302,2.918,0.647,4.297,1.024
					c1.439,0.415,2.853,0.849,4.191,1.308c1.375,0.502,2.75,1.025,4.085,1.586c1.39,0.59,2.698,1.197,3.893,1.804
					c1.636,0.83,3.259,1.74,4.944,2.775c1.42,0.882,2.95,1.924,4.655,3.166C383.466,202.814,393.385,228.896,388.199,253.966z"/>
			</g>
		</g>
	</g>
	<g>
		<g>
			<polygon class="st2" points="290.08,42.324 266.441,156.554 272.933,157.898 295.229,50.16 429.847,78.019 407.551,185.757 
				414.043,187.102 437.681,72.87 			"/>
		</g>
	</g>
	<g>
		<g>
			<path class="st2" d="M355.604,232.879c-2.916-4.437-7.383-7.474-12.584-8.55c-4.856-1.009-9.807-0.06-13.948,2.662
				c-4.142,2.721-6.975,6.892-7.979,11.745l-0.537,2.596c-0.645,3.119-2.467,5.799-5.128,7.548
				c-2.661,1.748-5.842,2.358-8.963,1.711l-1.21-0.25c-3.466-0.718-6.444-2.741-8.387-5.699c-1.942-2.958-2.618-6.495-1.901-9.96
				c1.48-7.154,8.514-11.771,15.657-10.289l0.328,0.068l1.347-6.492l-0.33-0.068c-10.726-2.224-21.273,4.703-23.494,15.436
				c-1.077,5.2-0.063,10.508,2.853,14.946c2.914,4.437,7.383,7.474,12.582,8.549l1.211,0.25c4.847,1.006,9.805,0.058,13.948-2.662
				c4.141-2.723,6.975-6.893,7.979-11.746l0.538-2.596c0.645-3.119,2.467-5.799,5.128-7.547c2.663-1.749,5.846-2.356,8.965-1.711
				c3.466,0.718,6.444,2.741,8.387,5.698c1.942,2.957,2.618,6.494,1.901,9.959c-1.483,7.153-8.508,11.765-15.66,10.289l-1.343,6.492
				c1.355,0.281,2.717,0.42,4.068,0.419c3.837,0,7.595-1.115,10.875-3.271c4.439-2.916,7.476-7.385,8.551-12.584
				C359.534,242.624,358.52,237.317,355.604,232.879z"/>
		</g>
	</g>
	<g>
		<g>
			
				<rect x="281.06" y="224.991" transform="matrix(0.2025 -0.9793 0.9793 0.2025 -0.8913 463.8887)" class="st2" width="6.629" height="15.002"/>
		</g>
	</g>
	<g>
		<g>
			
				<rect x="359.241" y="241.171" transform="matrix(0.2025 -0.9793 0.9793 0.2025 45.6251 553.3663)" class="st2" width="6.629" height="15"/>
		</g>
	</g>
	<g>
		<g>
			<polygon class="st2" points="369.455,246.792 369.466,250.158 368.795,253.351 369.215,253.439 369.472,252.216 369.477,253.422 
				369.477,252.197 370.579,246.952 			"/>
		</g>
	</g>
	<g>
		<g>
			<polygon class="st1" points="391.24,409.024 391.24,409.092 392.529,409.092 			"/>
		</g>
	</g>
	<g>
		<g>
			<g>
				<path class="st2" d="M35.763,255.546v249.872h117.666V255.546H35.763z M146.799,498.788H42.393V262.176h104.406V498.788z"/>
			</g>
		</g>
	</g>
	<g>
		<g>
			<rect x="50.381" y="270.163" class="st3" width="88.431" height="220.637"/>
		</g>
	</g>
	<g>
		<g>
			<g>
				<path class="st2" d="M94.595,283.29c-13.05,0-23.669,10.618-23.669,23.67s10.618,23.67,23.669,23.67
					c13.053,0,23.671-10.618,23.671-23.67S107.647,283.29,94.595,283.29z M94.595,324c-9.395,0-17.039-7.644-17.039-17.04
					c0-9.396,7.644-17.04,17.039-17.04c9.397,0,17.041,7.644,17.041,17.04C111.636,316.355,103.991,324,94.595,324z"/>
			</g>
		</g>
	</g>
	<g>
		<g>
			<g>
				<path class="st2" d="M432.094,279.591c-3.928-5.815-9.731-10.005-16.34-11.799c-2.458-0.667-5.009-1.006-7.584-1.006H281.611
					c-42.736,0-62.941-32.433-63.137-32.756l-1.895-3.14l-2.933,2.201c-0.192,0.145-4.811,3.616-12.636,9.984l-30.018,24.425
					l-24.204,19.122v192.174L210.249,512h173.735c11.973,0,21.715-9.741,21.715-21.714v-9.539c0-6.181-2.596-11.768-6.755-15.727
					c13.055-2.799,22.872-14.428,22.872-28.306v-13.29c0-9.671-4.767-18.278-12.131-23.531c6.311-1.896,11.868-5.92,15.657-11.533
					c3.237-4.786,4.949-10.381,4.949-16.18v-13.314c0-7.604-3.099-15.053-8.508-20.438c-1.282-1.275-2.685-2.428-4.18-3.442
					c3.248-1.121,6.295-2.818,8.971-5.029c0.714-0.591,1.401-1.216,2.05-1.868c1.31-1.309,2.497-2.75,3.531-4.283
					c3.233-4.79,4.94-10.386,4.94-16.183v-11.889C437.096,290.018,435.365,284.435,432.094,279.591z M430.467,307.624
					c0,4.47-1.317,8.785-3.805,12.475c-0.799,1.182-1.714,2.293-2.728,3.308c-0.503,0.505-1.029,0.985-1.58,1.439
					c-3.978,3.286-9.015,5.095-14.184,5.095h-5.188l-1.068,6.195l3.032,0.736l0.268,0.055c4.431,0.775,8.654,2.977,11.894,6.2
					c4.165,4.148,6.554,9.885,6.554,15.739v13.314c0,4.469-1.317,8.781-3.811,12.468c-4.161,6.16-11.076,9.838-18.5,9.838h-7.062
					l-2.624,0.08l-1.56,6.411l3.988,0.215c11.829,0.635,21.094,10.4,21.094,22.232v13.29c0,12.307-10.012,22.319-22.32,22.319
					h-8.883v6.63c8.317,0,15.085,6.767,15.085,15.085v9.539c0,8.317-6.768,15.084-15.085,15.084H211.881l-58.463-30.587V289.835
					l21.72-17.162l30.055-24.454c4.23-3.44,7.545-6.051,9.684-7.713c6.425,8.733,27.735,32.911,66.735,32.911H408.17
					c1.988,0,3.954,0.26,5.849,0.775c5.074,1.377,9.543,4.613,12.58,9.111v0.001c2.529,3.744,3.867,8.042,3.867,12.431V307.624z"/>
			</g>
		</g>
	</g>
	<g>
		<g>
			<path class="st1" d="M420.038,287.732c-0.52-0.769-1.107-1.492-1.763-2.147c-0.317-0.317-0.656-0.611-1.017-0.927
				c-1.786-1.469-4.837-3.255-9.087-3.255H281.612c-35.036,0-57.143-17.993-67.902-29.792c-1.063,0.859-2.238,1.786-3.481,2.803
				l-30.176,24.548L161.405,293.7v176.242l52.441,27.441h170.139c3.904,0,7.098-3.194,7.098-7.098v-9.539
				c0-3.904-3.194-7.098-7.098-7.098c-2.122,0-3.843-1.72-3.843-3.843v-14.919c0-2.122,1.72-3.843,3.843-3.843h8.883
				c7.915,0,14.331-6.416,14.331-14.331v-13.291c0-1.582-0.249-3.097-0.746-4.521c-0.113-0.362-0.249-0.701-0.384-1.04
				c-0.181-0.429-0.384-0.859-0.611-1.266c-0.18-0.339-0.384-0.656-0.61-0.995c-0.181-0.294-0.384-0.588-0.61-0.859
				c-0.023-0.068-0.068-0.113-0.135-0.181c-0.135-0.203-0.294-0.407-0.475-0.588c-0.181-0.203-0.339-0.384-0.542-0.565
				c-0.294-0.294-0.565-0.565-0.859-0.814c-0.317-0.271-0.611-0.52-0.927-0.746c-0.362-0.271-0.746-0.497-1.13-0.723
				s-0.768-0.452-1.176-0.633c-0.407-0.181-0.836-0.362-1.266-0.52c-0.317-0.113-0.656-0.226-0.972-0.316
				c-0.995-0.271-2.034-0.452-3.097-0.497l-1.13-0.068l-1.289-0.068c-5.832-0.362-9.9-5.9-8.499-11.573l0.949-3.843
				c1.017-4.182,4.77-7.12,9.064-7.12h8.589c6.284,0,12.025-4.091,13.834-10.533c0.361-1.289,0.497-2.622,0.497-3.933v-13.156
				c0-0.407-0.023-0.791-0.068-1.266l-0.045-0.362c-0.045-0.384-0.091-0.769-0.158-1.108l-0.09-0.407
				c-0.09-0.316-0.159-0.633-0.249-0.949l-0.136-0.407c-0.09-0.294-0.203-0.587-0.316-0.859l-0.181-0.429
				c-0.113-0.249-0.226-0.497-0.339-0.701l-0.271-0.52c-0.113-0.204-0.249-0.384-0.452-0.746l-0.249-0.362l-0.723-0.972
				l-0.339-0.384c-1.062-1.175-2.26-2.147-3.571-2.916l-0.113-0.068c-0.271-0.158-0.588-0.293-0.882-0.452l-0.203-0.091
				c-0.339-0.158-0.678-0.294-1.13-0.452c-0.362-0.136-0.723-0.249-0.972-0.316l-0.249-0.068c-0.361-0.09-0.724-0.181-1.13-0.249
				l-1.944-0.316c-5.13-0.835-8.583-5.708-7.671-10.825l0.71-3.984c0.794-4.458,4.671-7.705,9.199-7.705h4.069
				c4.25,0,7.301-1.786,9.087-3.278c0.362-0.294,0.701-0.587,1.04-0.927c0.633-0.633,1.22-1.356,1.74-2.125
				c1.605-2.351,2.442-5.131,2.442-8.002v-11.89C422.479,292.863,421.643,290.083,420.038,287.732z"/>
		</g>
	</g>
</g>
</svg>
